<svg width="776" height="156" viewBox="0 0 776 156" fill="none" xmlns="http://www.w3.org/2000/svg">
<path fill-rule="evenodd" clip-rule="evenodd" d="M687.068 135.29L629.402 151.049L747.478 126.819C734.823 137.481 720.645 147.246 705.157 155.968H77.7377C77.7377 155.968 4.44371 127.799 0.509413 86.1966C0.270029 83.5322 0.312059 80.8594 0.634932 78.1991L1.99861 77.8547L40.9654 67.6721L11.4816 57.9846L9.31848 57.285C20.0085 42.2157 41.2004 25.9838 77.7377 9.24609C77.7377 9.24609 80.0576 9.40751 84.4464 9.67661C132.504 12.6474 430.242 29.6974 687.068 14.7141C687.068 14.7141 821.054 46.1983 759.751 114.818L687.068 135.29Z" fill="url(#paint0_linear_208_16496)"/>
<path fill-rule="evenodd" clip-rule="evenodd" d="M687.053 14.6602L669.309 0.0214844L307.385 9.20305L101.861 0.0214844L77.7533 9.22453C77.7533 9.22453 420.32 35.2622 687.053 14.6602Z" fill="#E4B84C"/>
<path fill-rule="evenodd" clip-rule="evenodd" d="M775.77 78.9957C775.77 78.9957 786.037 31.3227 669.309 0L687.053 14.6603C687.053 14.6603 771.852 36.6185 775.77 78.9957Z" fill="#DEAB4A"/>
<path fill-rule="evenodd" clip-rule="evenodd" d="M0.634846 78.1989L1.99852 77.8545C1.22762 80.6105 0.704146 83.3964 0.43107 86.1965C0.43107 86.8208 0.430962 87.4881 0.321241 88.1555C-0.10708 84.8719 -0.10708 81.5686 0.321241 78.2851V78.2851L0.634846 78.1989Z" fill="#DEAB4A"/>
<path fill-rule="evenodd" clip-rule="evenodd" d="M101.876 0.0214844L84.4464 9.70892C84.4464 9.70892 34.4447 25.8547 11.5443 57.9739L9.38117 57.2742L7.17101 56.5315C17.4065 36.8445 42.282 12.9381 101.876 0.0214844Z" fill="#DEAB4A"/>
<path fill-rule="evenodd" clip-rule="evenodd" d="M651.816 17.6097H697.664L680.454 9.20312L651.816 17.6097Z" fill="#DBA649"/>
<path fill-rule="evenodd" clip-rule="evenodd" d="M64.8846 17.6096L105.137 11.2913L86.6094 5.82324L64.8846 17.6096Z" fill="#DBA649"/>
<path fill-rule="evenodd" clip-rule="evenodd" d="M1.99846 77.8547L20.6511 60.9771L40.9809 67.6614L1.99846 77.8547Z" fill="#E4B84C"/>
<path fill-rule="evenodd" clip-rule="evenodd" d="M747.478 126.819L737.681 121.05L629.402 151.049L747.478 126.819Z" fill="#E4B84C"/>
<g style="mix-blend-mode:multiply" opacity="0.2">
<path style="mix-blend-mode:multiply" opacity="0.2" fill-rule="evenodd" clip-rule="evenodd" d="M77.7377 155.968C77.7377 155.968 152.317 69.4158 386.714 22.1304L440.634 22.5932C440.634 22.5932 211.41 43.5934 105.199 155.968H77.7377Z" fill="url(#paint1_linear_208_16496)"/>
<path style="mix-blend-mode:multiply" opacity="0.2" fill-rule="evenodd" clip-rule="evenodd" d="M122.332 155.968C122.332 155.968 271.004 53.3347 483.206 22.5933H551.233C551.233 22.5933 247.555 56.1549 192.648 155.968H122.332Z" fill="url(#paint2_linear_208_16496)"/>
<path style="mix-blend-mode:multiply" opacity="0.2" fill-rule="evenodd" clip-rule="evenodd" d="M330.473 112.761C330.473 112.761 381.055 64.9701 454.302 65.3361C454.302 65.3361 430.116 110.824 330.473 112.761Z" fill="url(#paint3_linear_208_16496)"/>
<path style="mix-blend-mode:multiply" opacity="0.2" fill-rule="evenodd" clip-rule="evenodd" d="M154.511 13.4009C154.511 13.4009 42.7365 62.9145 36.404 133.859L48.7555 141.695C48.7555 141.695 32.5638 68.8991 161.612 13.7346L154.511 13.4009Z" fill="url(#paint4_linear_208_16496)"/>
<path style="mix-blend-mode:multiply" opacity="0.2" fill-rule="evenodd" clip-rule="evenodd" d="M374.644 155.968C374.644 155.968 528.865 102.708 607.113 19.3965L593.1 19.9777C593.1 19.9777 533.098 107.907 347.229 155.968H374.644Z" fill="url(#paint5_linear_208_16496)"/>
<path style="mix-blend-mode:multiply" opacity="0.2" fill-rule="evenodd" clip-rule="evenodd" d="M419.505 155.968C419.505 155.968 632.427 57.0697 712.367 22.6255C712.367 22.6255 736.945 33.4969 753.685 45.4878C753.685 45.4878 563.553 103.752 509.617 156L419.505 155.968Z" fill="url(#paint6_linear_208_16496)"/>
<path style="mix-blend-mode:multiply" opacity="0.2" fill-rule="evenodd" clip-rule="evenodd" d="M542.502 145.764C542.502 145.764 540.245 124.236 642.929 94.0327C642.96 94.0327 579.855 114.861 542.502 145.764Z" fill="url(#paint7_linear_208_16496)"/>
<path style="mix-blend-mode:multiply" opacity="0.2" fill-rule="evenodd" clip-rule="evenodd" d="M773.388 69.4048L562.378 155.967H585.184L775.77 78.9953L773.388 69.4048Z" fill="url(#paint8_linear_208_16496)"/>
</g>
<path fill-rule="evenodd" clip-rule="evenodd" d="M207.209 16.6841L292.541 26.2208L488.175 22.5934L317.934 17.6098L207.209 16.6841Z" fill="#DBA649"/>
<path fill-rule="evenodd" clip-rule="evenodd" d="M551.233 22.5934L639.433 19.4289L671.378 22.5934L713.354 26.2208L761.381 52.1616L741.083 35.7899L697.664 17.6098L654.951 16.6841L551.233 22.5934Z" fill="#C98043"/>
<path fill-rule="evenodd" clip-rule="evenodd" d="M16.1524 52.0213L54.4924 24.3798L85.0106 19.4285L144.464 14.9507L210.673 16.6837L105.137 11.3018L64.8846 17.6201L40.9182 30.8811C40.9182 30.8811 22.4223 42.1401 16.1524 52.0213Z" fill="#C98043"/>
<path opacity="0.4" fill-rule="evenodd" clip-rule="evenodd" d="M396.369 147.776C396.369 147.776 493.331 114.656 572.848 50.665C572.848 50.665 513.442 110.738 396.369 147.776Z" fill="#D9B148"/>
<path opacity="0.4" fill-rule="evenodd" clip-rule="evenodd" d="M195.594 151.049C195.594 151.049 249.891 71.138 511.953 27.9751C511.953 28.0074 267.086 59.3839 195.594 151.049Z" fill="#D9B148"/>
<path opacity="0.4" fill-rule="evenodd" clip-rule="evenodd" d="M105.184 155.968C105.184 155.968 200.14 58.5554 427.342 23.7237C427.295 23.7021 242.633 34.7135 105.184 155.968Z" fill="#D9B148"/>
<path opacity="0.4" fill-rule="evenodd" clip-rule="evenodd" d="M48.8809 123.59C48.8809 123.59 53.8967 62.7853 157.991 15.3062C157.991 15.3062 67.6746 41.6775 48.8809 123.59Z" fill="#D9B148"/>
<path fill-rule="evenodd" clip-rule="evenodd" d="M40.981 67.6616H119.62L434.85 77.5536L70.7312 70.2342L40.981 67.6616Z" fill="#A35237"/>
<path fill-rule="evenodd" clip-rule="evenodd" d="M70.7311 70.2339L94.1645 72.7957H147.348L70.7311 70.2339Z" fill="#E4A54C"/>
<path fill-rule="evenodd" clip-rule="evenodd" d="M77.7377 155.968L263.919 149.337L394.849 155.968L520.981 152.653L542.534 145.764L524.602 155.968H77.7377Z" fill="#A35237"/>
<path fill-rule="evenodd" clip-rule="evenodd" d="M604.26 155.968L629.402 151.049L619.339 155.968H604.26Z" fill="#A35237"/>
<path fill-rule="evenodd" clip-rule="evenodd" d="M166.894 141.695L137.332 121.05L161.596 132.18L166.894 141.695Z" fill="#A35237"/>
<path fill-rule="evenodd" clip-rule="evenodd" d="M477.187 146.334L555.575 136.044L505.213 145.764L477.187 146.334Z" fill="#A35237"/>
<path fill-rule="evenodd" clip-rule="evenodd" d="M207.209 9.21387L183.603 15.3062L195.594 27.9752L197.663 15.3062L207.209 9.21387Z" fill="#B15D3B"/>
<path fill-rule="evenodd" clip-rule="evenodd" d="M195.594 27.9749L190.5 22.593L197.287 17.6094L195.594 27.9749Z" fill="#E4B84C"/>
<path fill-rule="evenodd" clip-rule="evenodd" d="M525.276 60.9771L562.378 82.5908L542.534 75.562L525.276 60.9771Z" fill="#B15D3B"/>
<path fill-rule="evenodd" clip-rule="evenodd" d="M477.187 146.334L505.213 145.764L555.575 136.044L502.705 144.504L477.187 146.334Z" fill="#E4B84C"/>
<path fill-rule="evenodd" clip-rule="evenodd" d="M137.332 121.05L152.113 133.665L166.894 141.695L137.332 121.05Z" fill="#E4A54C"/>
<g style="mix-blend-mode:soft-light">
<path fill-rule="evenodd" clip-rule="evenodd" d="M537.518 21.6892L520.981 3.76746L642.96 0.66748L651.816 17.6097L537.518 21.6892Z" fill="#E3C150"/>
</g>
<g style="mix-blend-mode:soft-light">
<path fill-rule="evenodd" clip-rule="evenodd" d="M115.043 11.711L126.642 1.10865L101.892 0.0107422L89.6973 6.73813L105.137 11.2912L115.043 11.711Z" fill="#E3C150"/>
</g>
<path fill-rule="evenodd" clip-rule="evenodd" d="M565.685 67.6612L550.12 34.0889L562.378 52.1613L565.685 67.6612Z" fill="#B15D3B"/>
<path fill-rule="evenodd" clip-rule="evenodd" d="M697.664 110.813L703.84 105.733L726.85 110.813L720.69 119.005H705.47L697.664 110.813Z" fill="#A35237"/>
<path fill-rule="evenodd" clip-rule="evenodd" d="M110.168 95.8839L113.037 93.9033L125.373 98.0474L117.488 101.524L110.168 97.7137V95.8839Z" fill="#B15D3B"/>
<path fill-rule="evenodd" clip-rule="evenodd" d="M697.664 110.813L705.376 117.379L718.119 118.37H721.16L720.69 119.005L705.47 119.64L697.664 110.813Z" fill="#E0A54D"/>
<path fill-rule="evenodd" clip-rule="evenodd" d="M110.168 97.7139L115.356 99.8774H120.576L125.373 98.0475L119.056 101.524H117.488L110.168 97.7139Z" fill="#E0A54D"/>
<path opacity="0.4" fill-rule="evenodd" clip-rule="evenodd" d="M335.489 112.611C335.489 112.611 423.831 121.222 454.302 65.3364C454.302 65.3364 431.699 112.234 335.489 112.611Z" fill="#D9B148"/>
<path fill-rule="evenodd" clip-rule="evenodd" d="M143.127 100.802L147.79 102.97H152.482L156.793 101.136L151.115 104.621H149.706L143.127 100.802Z" fill="#F2774F"/>
<path opacity="0.4" fill-rule="evenodd" clip-rule="evenodd" d="M345.651 115.732C345.651 115.732 425.055 124.363 452.443 68.3511C452.443 68.3511 432.128 115.355 345.651 115.732Z" fill="#D9772F"/>
<path style="mix-blend-mode:multiply" opacity="0.6" fill-rule="evenodd" clip-rule="evenodd" d="M133.166 124.644L138.337 132.799C138.337 132.799 424.337 140.027 632.229 137.805L642.88 127.017C642.88 127.017 347.92 134.439 133.166 124.644Z" fill="url(#paint9_linear_208_16496)"/>
<path fill-rule="evenodd" clip-rule="evenodd" d="M147.847 41.7261C147.847 41.7261 81.038 65.6756 124.727 124.244C124.727 124.244 446.273 141.689 659.533 125.916C659.533 125.916 692.303 84.5764 649.318 45.4803C649.318 45.4264 286.958 49.5259 147.847 41.7261Z" fill="url(#paint10_linear_208_16496)"/>
<path fill-rule="evenodd" clip-rule="evenodd" d="M649.319 45.4264L641.218 42.4489C641.218 42.4489 310.965 53.6469 154.06 40L147.847 41.6721C147.847 41.6721 346.68 57.4335 649.319 45.4264Z" fill="url(#paint11_radial_208_16496)"/>
<path style="mix-blend-mode:screen" opacity="0.8" fill-rule="evenodd" clip-rule="evenodd" d="M457.994 49.9358L414.531 132.799L571.338 130.102L616.633 45.7393L457.994 49.9358Z" fill="url(#paint12_linear_208_16496)"/>
<path style="mix-blend-mode:screen" opacity="0.8" fill-rule="evenodd" clip-rule="evenodd" d="M147.847 41.7261C147.847 41.7261 130.391 86.0651 142.789 125.172L177.01 126.736L189.338 43.5277L147.847 41.7261Z" fill="url(#paint13_linear_208_16496)"/>
<g style="mix-blend-mode:soft-light">
<path fill-rule="evenodd" clip-rule="evenodd" d="M128.08 121.558C128.08 121.558 407.219 140.513 651.432 124.244C651.474 124.19 258.119 131.537 128.08 121.558Z" fill="#FFFF1D"/>
</g>
<path fill-rule="evenodd" clip-rule="evenodd" d="M551.135 92.3333L588.314 81.2432L563.772 91.1035L551.135 92.3333Z" fill="#FFFF1D"/>
<path fill-rule="evenodd" clip-rule="evenodd" d="M532.777 101.837L542.259 111.245L538.497 106.066L532.777 101.837Z" fill="#FFFF1D"/>
<path fill-rule="evenodd" clip-rule="evenodd" d="M412.502 61.3389L435.396 67.6607L419.152 64.4998L412.502 61.3389Z" fill="#FFFF1D"/>
<path fill-rule="evenodd" clip-rule="evenodd" d="M308.81 63.8096L300.3 66.28H307.556L308.81 63.8096Z" fill="#FFFF1D"/>
<path fill-rule="evenodd" clip-rule="evenodd" d="M551.135 92.3333L565.885 86.7883L588.314 81.2432L551.135 92.3333Z" fill="#FF7539"/>
<path fill-rule="evenodd" clip-rule="evenodd" d="M532.777 101.837L538.497 106.066L542.259 111.245L539.187 105.333L532.777 101.837Z" fill="#FF7539"/>
<path fill-rule="evenodd" clip-rule="evenodd" d="M233.238 122.529L248.623 120.965L240.888 120.846L233.238 122.529Z" fill="#FFFF1D"/>
<path fill-rule="evenodd" clip-rule="evenodd" d="M233.238 122.529L240.888 120.846L248.623 120.965L240.395 120.026L233.238 122.529Z" fill="#FF7539"/>
<path fill-rule="evenodd" clip-rule="evenodd" d="M412.502 61.3389H417.898L435.396 67.6607L412.502 61.3389Z" fill="#FF8B39"/>
<path fill-rule="evenodd" clip-rule="evenodd" d="M300.3 66.2796L301.977 62.5361L308.81 63.8091L300.3 66.2796Z" fill="#FF8B39"/>
<path fill-rule="evenodd" clip-rule="evenodd" d="M620.084 46.5051L654.883 52.1688L649.318 45.4263L620.084 46.5051Z" fill="#FFFF18"/>
<path fill-rule="evenodd" clip-rule="evenodd" d="M138.604 46.0518L181.631 43.7L147.847 41.6719L138.604 46.0518Z" fill="#FFFF18"/>
<path fill-rule="evenodd" clip-rule="evenodd" d="M195.494 44.5742L219.91 47.6488L263.458 47.3899L195.494 44.5742Z" fill="#FFFF18"/>
<defs>
<linearGradient id="paint0_linear_208_16496" x1="388.077" y1="155.968" x2="388.077" y2="9.2138" gradientUnits="userSpaceOnUse">
<stop stop-color="#B4593C"/>
<stop offset="1" stop-color="#D89D48"/>
</linearGradient>
<linearGradient id="paint1_linear_208_16496" x1="77.7377" y1="89.049" x2="440.634" y2="89.049" gradientUnits="userSpaceOnUse">
<stop stop-color="#BC4A4B"/>
<stop offset="1" stop-color="#BD5345"/>
</linearGradient>
<linearGradient id="paint2_linear_208_16496" x1="617286" y1="122983" x2="734646" y2="122983" gradientUnits="userSpaceOnUse">
<stop stop-color="#BC4A4B"/>
<stop offset="1" stop-color="#BD5345"/>
</linearGradient>
<linearGradient id="paint3_linear_208_16496" x1="194956" y1="43779.7" x2="204738" y2="43779.7" gradientUnits="userSpaceOnUse">
<stop stop-color="#BC4A4B"/>
<stop offset="1" stop-color="#BD5345"/>
</linearGradient>
<linearGradient id="paint4_linear_208_16496" x1="173339" y1="116893" x2="183338" y2="116893" gradientUnits="userSpaceOnUse">
<stop stop-color="#BC4A4B"/>
<stop offset="1" stop-color="#BD5345"/>
</linearGradient>
<linearGradient id="paint5_linear_208_16496" x1="411591" y1="125728" x2="454680" y2="125728" gradientUnits="userSpaceOnUse">
<stop stop-color="#BC4A4B"/>
<stop offset="1" stop-color="#BD5345"/>
</linearGradient>
<linearGradient id="paint6_linear_208_16496" x1="544642" y1="122983" x2="615889" y2="122983" gradientUnits="userSpaceOnUse">
<stop stop-color="#BC4A4B"/>
<stop offset="1" stop-color="#BD5345"/>
</linearGradient>
<linearGradient id="paint7_linear_208_16496" x1="171979" y1="49257.5" x2="178414" y2="49257.5" gradientUnits="userSpaceOnUse">
<stop stop-color="#BC4A4B"/>
<stop offset="1" stop-color="#BD5345"/>
</linearGradient>
<linearGradient id="paint8_linear_208_16496" x1="77110.6" y1="9131.64" x2="106162" y2="9131.64" gradientUnits="userSpaceOnUse">
<stop stop-color="#BC4A4B"/>
<stop offset="1" stop-color="#BD5345"/>
</linearGradient>
<linearGradient id="paint9_linear_208_16496" x1="726022" y1="13142" x2="910431" y2="13142" gradientUnits="userSpaceOnUse">
<stop stop-color="#C77CBD"/>
<stop offset="1" stop-color="#974577"/>
</linearGradient>
<linearGradient id="paint10_linear_208_16496" x1="390.693" y1="132.465" x2="390.693" y2="41.6721" gradientUnits="userSpaceOnUse">
<stop stop-color="#479100"/>
<stop offset="1" stop-color="#B8D502"/>
</linearGradient>
<radialGradient id="paint11_radial_208_16496" cx="0" cy="0" r="1" gradientUnits="userSpaceOnUse" gradientTransform="translate(398.583 44.9625) scale(221.911 169.923)">
<stop stop-color="#FFF447"/>
<stop offset="1" stop-color="#FFBD36"/>
</radialGradient>
<linearGradient id="paint12_linear_208_16496" x1="515.575" y1="132.799" x2="515.575" y2="45.7393" gradientUnits="userSpaceOnUse">
<stop/>
<stop offset="1" stop-color="#FFBD00"/>
</linearGradient>
<linearGradient id="paint13_linear_208_16496" x1="73873.6" y1="81120.2" x2="73873.6" y2="74421.4" gradientUnits="userSpaceOnUse">
<stop/>
<stop offset="1" stop-color="#233000"/>
</linearGradient>
</defs>
</svg>
