<svg width="782" height="156" viewBox="0 0 782 156" fill="none" xmlns="http://www.w3.org/2000/svg">
<path fill-rule="evenodd" clip-rule="evenodd" d="M692.381 135.29L634.268 151.049L753.257 126.819C740.504 137.481 726.217 147.246 710.609 155.968H78.3388C78.3388 155.968 4.47808 127.799 0.513364 86.1967C0.272128 83.5323 0.314484 80.8595 0.639853 78.1992L2.01407 77.8548L41.2821 67.6722L11.5704 57.9847L9.39054 57.2851C20.1632 42.2158 41.519 25.984 78.3388 9.24622C78.3388 9.24622 80.6766 9.40763 85.0994 9.67673C133.529 12.6475 433.568 29.6975 692.381 14.7143C692.381 14.7143 827.402 46.1984 765.625 114.818L692.381 135.29Z" fill="url(#paint0_linear_208_14430)"/>
<path fill-rule="evenodd" clip-rule="evenodd" d="M692.365 14.6604L674.484 0.0216064L309.762 9.20317L102.648 0.0216064L78.3545 9.22466C78.3545 9.22466 423.569 35.2623 692.365 14.6604Z" fill="#E4B84C"/>
<path fill-rule="evenodd" clip-rule="evenodd" d="M781.768 78.9957C781.768 78.9957 792.115 31.3227 674.484 0L692.365 14.6603C692.365 14.6603 777.82 36.6185 781.768 78.9957Z" fill="#DEAB4A"/>
<path fill-rule="evenodd" clip-rule="evenodd" d="M0.639754 78.1992L2.01397 77.8547C1.23711 80.6107 0.709591 83.3966 0.434403 86.1967C0.434403 86.821 0.434295 87.4883 0.323725 88.1557C-0.107908 84.8721 -0.107908 81.5689 0.323725 78.2853L0.639754 78.1992Z" fill="#DEAB4A"/>
<path fill-rule="evenodd" clip-rule="evenodd" d="M102.664 0.0216064L85.0993 9.70904C85.0993 9.70904 34.711 25.8548 11.6335 57.974L9.45371 57.2743L7.22646 56.5316C17.5411 36.8446 42.6089 12.9382 102.664 0.0216064Z" fill="#DEAB4A"/>
<path fill-rule="evenodd" clip-rule="evenodd" d="M656.856 17.6097H703.059L685.715 9.20312L656.856 17.6097Z" fill="#DBA649"/>
<path fill-rule="evenodd" clip-rule="evenodd" d="M65.3863 17.6096L105.95 11.2912L87.2791 5.82318L65.3863 17.6096Z" fill="#DBA649"/>
<path fill-rule="evenodd" clip-rule="evenodd" d="M2.01392 77.8547L20.8108 60.9771L41.2978 67.6614L2.01392 77.8547Z" fill="#E4B84C"/>
<path fill-rule="evenodd" clip-rule="evenodd" d="M753.257 126.819L743.385 121.05L634.268 151.049L753.257 126.819Z" fill="#E4B84C"/>
<g style="mix-blend-mode:multiply" opacity="0.2">
<path style="mix-blend-mode:multiply" opacity="0.2" fill-rule="evenodd" clip-rule="evenodd" d="M78.3387 155.968C78.3387 155.968 153.495 69.4158 389.704 22.1304L444.041 22.5932C444.041 22.5932 213.044 43.5934 106.013 155.968H78.3387Z" fill="url(#paint1_linear_208_14430)"/>
<path style="mix-blend-mode:multiply" opacity="0.2" fill-rule="evenodd" clip-rule="evenodd" d="M123.277 155.968C123.277 155.968 273.1 53.3347 486.942 22.5933H555.495C555.495 22.5933 249.469 56.1549 194.137 155.968H123.277Z" fill="url(#paint2_linear_208_14430)"/>
<path style="mix-blend-mode:multiply" opacity="0.2" fill-rule="evenodd" clip-rule="evenodd" d="M333.029 112.762C333.029 112.762 384.001 64.9704 457.815 65.3364C457.815 65.3364 433.442 110.824 333.029 112.762Z" fill="url(#paint3_linear_208_14430)"/>
<path style="mix-blend-mode:multiply" opacity="0.2" fill-rule="evenodd" clip-rule="evenodd" d="M155.706 13.401C155.706 13.401 43.0669 62.9146 36.6855 133.859L49.1325 141.695C49.1325 141.695 32.8155 68.8992 162.862 13.7347L155.706 13.401Z" fill="url(#paint4_linear_208_14430)"/>
<path style="mix-blend-mode:multiply" opacity="0.2" fill-rule="evenodd" clip-rule="evenodd" d="M377.541 155.968C377.541 155.968 532.955 102.708 611.807 19.3965L597.686 19.9777C597.686 19.9777 537.22 107.907 349.914 155.968H377.541Z" fill="url(#paint5_linear_208_14430)"/>
<path style="mix-blend-mode:multiply" opacity="0.2" fill-rule="evenodd" clip-rule="evenodd" d="M422.748 155.968C422.748 155.968 637.317 57.0698 717.875 22.6255C717.875 22.6255 742.643 33.497 759.512 45.4879C759.512 45.4879 567.911 103.752 513.558 156L422.748 155.968Z" fill="url(#paint6_linear_208_14430)"/>
<path style="mix-blend-mode:multiply" opacity="0.2" fill-rule="evenodd" clip-rule="evenodd" d="M546.697 145.764C546.697 145.764 544.422 124.236 647.9 94.0328C647.932 94.0328 584.338 114.861 546.697 145.764Z" fill="url(#paint7_linear_208_14430)"/>
<path style="mix-blend-mode:multiply" opacity="0.2" fill-rule="evenodd" clip-rule="evenodd" d="M779.368 69.4051L566.726 155.968H589.709L781.769 78.9956L779.368 69.4051Z" fill="url(#paint8_linear_208_14430)"/>
</g>
<path fill-rule="evenodd" clip-rule="evenodd" d="M208.811 16.684L294.803 26.2207L491.949 22.5933L320.392 17.6096L208.811 16.684Z" fill="#DBA649"/>
<path fill-rule="evenodd" clip-rule="evenodd" d="M555.495 22.5933L644.377 19.4287L676.569 22.5933L718.87 26.2207L767.268 52.1615L746.813 35.7897L703.058 17.6096L660.015 16.684L555.495 22.5933Z" fill="#C98043"/>
<path fill-rule="evenodd" clip-rule="evenodd" d="M16.2774 52.0215L54.9138 24.3801L85.668 19.4287L145.581 14.951L212.302 16.6839L105.95 11.302L65.3863 17.6204L41.2346 30.8814C41.2346 30.8814 22.5956 42.1404 16.2774 52.0215Z" fill="#C98043"/>
<path opacity="0.4" fill-rule="evenodd" clip-rule="evenodd" d="M399.434 147.776C399.434 147.776 497.146 114.656 577.277 50.6653C577.277 50.6653 517.412 110.738 399.434 147.776Z" fill="#D9B148"/>
<path opacity="0.4" fill-rule="evenodd" clip-rule="evenodd" d="M197.107 151.049C197.107 151.049 251.823 71.1381 515.911 27.9752C515.911 28.0075 269.151 59.384 197.107 151.049Z" fill="#D9B148"/>
<path opacity="0.4" fill-rule="evenodd" clip-rule="evenodd" d="M105.997 155.968C105.997 155.968 201.687 58.5553 430.646 23.7236C430.599 23.7021 244.509 34.7134 105.997 155.968Z" fill="#D9B148"/>
<path opacity="0.4" fill-rule="evenodd" clip-rule="evenodd" d="M49.2588 123.59C49.2588 123.59 54.3134 62.7854 159.213 15.3062C159.213 15.3062 68.1978 41.6775 49.2588 123.59Z" fill="#D9B148"/>
<path fill-rule="evenodd" clip-rule="evenodd" d="M41.2978 67.6614H120.545L438.212 77.5533L71.2781 70.234L41.2978 67.6614Z" fill="#A35237"/>
<path fill-rule="evenodd" clip-rule="evenodd" d="M71.2781 70.2339L94.8926 72.7957H148.487L71.2781 70.2339Z" fill="#E4A54C"/>
<path fill-rule="evenodd" clip-rule="evenodd" d="M78.3387 155.968L265.96 149.337L397.901 155.968L525.009 152.652L546.729 145.764L528.658 155.968H78.3387Z" fill="#A35237"/>
<path fill-rule="evenodd" clip-rule="evenodd" d="M608.932 155.968L634.268 151.049L624.127 155.968H608.932Z" fill="#A35237"/>
<path fill-rule="evenodd" clip-rule="evenodd" d="M168.185 141.695L138.394 121.05L162.846 132.18L168.185 141.695Z" fill="#A35237"/>
<path fill-rule="evenodd" clip-rule="evenodd" d="M480.876 146.334L559.871 136.044L509.119 145.764L480.876 146.334Z" fill="#A35237"/>
<path fill-rule="evenodd" clip-rule="evenodd" d="M208.811 9.21381L185.023 15.3061L197.107 27.9751L199.192 15.3061L208.811 9.21381Z" fill="#B15D3B"/>
<path fill-rule="evenodd" clip-rule="evenodd" d="M197.107 27.9752L191.973 22.5933L198.813 17.6096L197.107 27.9752Z" fill="#E4B84C"/>
<path fill-rule="evenodd" clip-rule="evenodd" d="M529.338 60.9771L566.726 82.5908L546.729 75.562L529.338 60.9771Z" fill="#B15D3B"/>
<path fill-rule="evenodd" clip-rule="evenodd" d="M480.876 146.334L509.119 145.764L559.871 136.044L506.592 144.504L480.876 146.334Z" fill="#E4B84C"/>
<path fill-rule="evenodd" clip-rule="evenodd" d="M138.394 121.05L153.289 133.665L168.185 141.695L138.394 121.05Z" fill="#E4A54C"/>
<g style="mix-blend-mode:soft-light">
<path fill-rule="evenodd" clip-rule="evenodd" d="M541.674 21.6892L525.009 3.7674L647.931 0.667419L656.856 17.6097L541.674 21.6892Z" fill="#E3C150"/>
</g>
<g style="mix-blend-mode:soft-light">
<path fill-rule="evenodd" clip-rule="evenodd" d="M115.932 11.711L127.621 1.10865L102.68 0.0107422L90.3908 6.73813L105.95 11.2912L115.932 11.711Z" fill="#E3C150"/>
</g>
<path fill-rule="evenodd" clip-rule="evenodd" d="M570.059 67.6613L554.374 34.089L566.726 52.1614L570.059 67.6613Z" fill="#B15D3B"/>
<path fill-rule="evenodd" clip-rule="evenodd" d="M703.059 110.814L709.282 105.733L732.47 110.814L726.262 119.005H710.925L703.059 110.814Z" fill="#A35237"/>
<path fill-rule="evenodd" clip-rule="evenodd" d="M111.02 95.8841L113.911 93.9036L126.342 98.0476L118.397 101.524L111.02 97.714V95.8841Z" fill="#B15D3B"/>
<path fill-rule="evenodd" clip-rule="evenodd" d="M703.059 110.814L710.83 117.379L723.672 118.37H726.736L726.262 119.005L710.925 119.64L703.059 110.814Z" fill="#E0A54D"/>
<path fill-rule="evenodd" clip-rule="evenodd" d="M111.02 97.7139L116.248 99.8775H121.508L126.342 98.0476L119.976 101.524H118.397L111.02 97.7139Z" fill="#E0A54D"/>
<path opacity="0.4" fill-rule="evenodd" clip-rule="evenodd" d="M338.083 112.611C338.083 112.611 427.108 121.222 457.815 65.3364C457.815 65.3364 435.037 112.234 338.083 112.611Z" fill="#D9B148"/>
<defs>
<linearGradient id="paint0_linear_208_14430" x1="391.078" y1="155.968" x2="391.078" y2="9.21392" gradientUnits="userSpaceOnUse">
<stop stop-color="#B4593C"/>
<stop offset="1" stop-color="#D89D48"/>
</linearGradient>
<linearGradient id="paint1_linear_208_14430" x1="78.3387" y1="89.049" x2="444.041" y2="89.049" gradientUnits="userSpaceOnUse">
<stop stop-color="#BC4A4B"/>
<stop offset="1" stop-color="#BD5345"/>
</linearGradient>
<linearGradient id="paint2_linear_208_14430" x1="622059" y1="122983" x2="740326" y2="122983" gradientUnits="userSpaceOnUse">
<stop stop-color="#BC4A4B"/>
<stop offset="1" stop-color="#BD5345"/>
</linearGradient>
<linearGradient id="paint3_linear_208_14430" x1="196463" y1="43779.7" x2="206321" y2="43779.7" gradientUnits="userSpaceOnUse">
<stop stop-color="#BC4A4B"/>
<stop offset="1" stop-color="#BD5345"/>
</linearGradient>
<linearGradient id="paint4_linear_208_14430" x1="174679" y1="116893" x2="184756" y2="116893" gradientUnits="userSpaceOnUse">
<stop stop-color="#BC4A4B"/>
<stop offset="1" stop-color="#BD5345"/>
</linearGradient>
<linearGradient id="paint5_linear_208_14430" x1="414774" y1="125728" x2="458196" y2="125728" gradientUnits="userSpaceOnUse">
<stop stop-color="#BC4A4B"/>
<stop offset="1" stop-color="#BD5345"/>
</linearGradient>
<linearGradient id="paint6_linear_208_14430" x1="548853" y1="122983" x2="620651" y2="122983" gradientUnits="userSpaceOnUse">
<stop stop-color="#BC4A4B"/>
<stop offset="1" stop-color="#BD5345"/>
</linearGradient>
<linearGradient id="paint7_linear_208_14430" x1="173309" y1="49257.5" x2="179793" y2="49257.5" gradientUnits="userSpaceOnUse">
<stop stop-color="#BC4A4B"/>
<stop offset="1" stop-color="#BD5345"/>
</linearGradient>
<linearGradient id="paint8_linear_208_14430" x1="77706.8" y1="9131.64" x2="106983" y2="9131.64" gradientUnits="userSpaceOnUse">
<stop stop-color="#BC4A4B"/>
<stop offset="1" stop-color="#BD5345"/>
</linearGradient>
</defs>
</svg>
