<svg width="1180" height="825" viewBox="0 0 1180 825" fill="none" xmlns="http://www.w3.org/2000/svg">
<g clip-path="url(#clip0_208_16565)">
<path fill-rule="evenodd" clip-rule="evenodd" d="M23.6784 110.975C23.6784 110.975 57.1139 52.9175 107.176 31.9025C107.176 31.9025 770.141 24.2388 1041.24 -0.121582C1041.24 -0.121582 1164.5 36.5557 1180.03 161.642L23.6784 110.975Z" fill="#E4B84C"/>
<path fill-rule="evenodd" clip-rule="evenodd" d="M1129.42 612.386L1002.03 611.9L1117.08 632.276L1102.31 742.309C1084.07 814.508 979.903 825 979.903 825H174.412C70.1841 807.574 47.357 742.309 47.357 742.309L8.48046 283.262H301.558L6.26162 257.685L0.182434 184.695C0.182434 80.076 111.249 53.9213 111.249 53.9213L1022.49 43.8854C1161 43.2467 1180.18 161.643 1180.18 161.643L1129.42 612.386Z" fill="url(#paint0_linear_208_16565)"/>
<path fill-rule="evenodd" clip-rule="evenodd" d="M1117.08 632.306L1097.08 612.264L1002.03 611.899L1117.08 632.306Z" fill="#E4B84C"/>
<path fill-rule="evenodd" clip-rule="evenodd" d="M47.3874 742.309L108.514 786.802L228.213 825H174.442C174.442 825 83.6801 820.378 47.3874 742.309Z" fill="#A35237"/>
<path fill-rule="evenodd" clip-rule="evenodd" d="M689.683 825L925.86 796.199L1002.03 810.584L1051.12 796.199L1105.23 720.502L1102.19 742.308C1102.19 742.308 1091.88 815.146 979.782 825H689.683Z" fill="#A35237"/>
<path fill-rule="evenodd" clip-rule="evenodd" d="M237.97 52.644L378.976 69.2796L705.337 47.5043L437.336 44.0068L237.97 52.644Z" fill="#DBA649"/>
<path fill-rule="evenodd" clip-rule="evenodd" d="M1029.24 44.1589L1090.82 69.2796L1125.35 74.7539L1091.85 44.0068L1029.24 44.1589Z" fill="#DBA649"/>
<g style="mix-blend-mode:soft-light">
<path fill-rule="evenodd" clip-rule="evenodd" d="M1041.21 0L1091.85 44.0069H964.493L946.225 6.99488L1041.21 0Z" fill="#E3C150"/>
</g>
<g style="mix-blend-mode:soft-light">
<path fill-rule="evenodd" clip-rule="evenodd" d="M111.097 54.0429L107.146 32.0242L172.558 31.1118V53.3738L111.097 54.0429Z" fill="#E3C150"/>
</g>
<g style="mix-blend-mode:multiply" opacity="0.2">
<path style="mix-blend-mode:multiply" opacity="0.2" fill-rule="evenodd" clip-rule="evenodd" d="M201.099 816.332C201.099 816.332 372.289 262.49 1090.79 69.2793L1125.35 74.7537C1125.35 74.7537 378.551 311.728 228.213 825L201.099 816.332Z" fill="url(#paint1_linear_208_16565)"/>
<path style="mix-blend-mode:multiply" opacity="0.2" fill-rule="evenodd" clip-rule="evenodd" d="M261.618 825C261.618 825 545.242 167.542 1166.14 123.444L1180 161.764L1176.35 194.153C1176.35 194.153 546.975 272.739 333.322 825H261.618Z" fill="url(#paint2_linear_208_16565)"/>
<path style="mix-blend-mode:multiply" opacity="0.2" fill-rule="evenodd" clip-rule="evenodd" d="M477.976 624.825C477.976 624.825 579.772 417.107 841.025 363.824C841.025 363.915 669.379 564.395 477.976 624.825Z" fill="url(#paint3_linear_208_16565)"/>
<path style="mix-blend-mode:multiply" opacity="0.2" fill-rule="evenodd" clip-rule="evenodd" d="M403.84 825C403.84 825 962 455.397 1169.82 251.39L1163.74 304.642C1163.74 304.642 621.901 721.293 420.436 825H403.84Z" fill="url(#paint4_linear_208_16565)"/>
<path style="mix-blend-mode:multiply" opacity="0.2" fill-rule="evenodd" clip-rule="evenodd" d="M444.662 825C444.662 825 975.375 578.993 1157.45 363.916V376.416C1157.45 376.416 830.994 682.609 459.373 825.091L444.662 825Z" fill="url(#paint5_linear_208_16565)"/>
<path style="mix-blend-mode:multiply" opacity="0.2" fill-rule="evenodd" clip-rule="evenodd" d="M621.05 825C621.05 825 765.764 649.793 1115.14 646.752L1112.98 662.688C1112.98 662.688 852.849 617.738 630.472 825H621.05Z" fill="url(#paint6_linear_208_16565)"/>
<path style="mix-blend-mode:multiply" opacity="0.2" fill-rule="evenodd" clip-rule="evenodd" d="M331.65 63.6837C331.65 63.6837 36.3538 366.379 47.3875 742.308L32.4021 565.703C32.4021 565.703 6.93045 192.511 261.618 52.4004L331.65 63.6837Z" fill="url(#paint7_linear_208_16565)"/>
<path style="mix-blend-mode:multiply" opacity="0.2" fill-rule="evenodd" clip-rule="evenodd" d="M403.84 67.6066C403.84 67.6066 195.507 264.041 228.213 407.406C260.919 550.77 535.667 199.202 937.988 44.9494L923.337 44.0068C678.467 131.929 361.833 425.44 274.505 388.884C187.178 352.329 328.61 114.26 417.366 69.2794L403.84 67.6066Z" fill="url(#paint8_linear_208_16565)"/>
</g>
<path fill-rule="evenodd" clip-rule="evenodd" d="M8.38928 283.262L66.4455 262.886L301.497 283.262H8.38928Z" fill="#E4B84C"/>
<path fill-rule="evenodd" clip-rule="evenodd" d="M630.472 31.1118L687.525 47.2913V74.7538L668.042 49.4201L630.472 31.1118Z" fill="#A35237"/>
<path fill-rule="evenodd" clip-rule="evenodd" d="M301.497 283.262H364.265L539.649 295.914H379.949L301.497 283.262Z" fill="#A85639"/>
<path fill-rule="evenodd" clip-rule="evenodd" d="M34.469 590.033L107.146 538.18L154.928 512.755L34.469 590.033Z" fill="#A85639"/>
<path fill-rule="evenodd" clip-rule="evenodd" d="M673.543 761.742L722.481 772.752V761.742H673.543Z" fill="#A85639"/>
<path fill-rule="evenodd" clip-rule="evenodd" d="M1150.7 435.629L1092.19 429.79L1055.29 458.803L1092.19 443.201L1150.7 435.629Z" fill="#A85639"/>
<path fill-rule="evenodd" clip-rule="evenodd" d="M1055.29 458.803L1143.4 436.571L1092.19 443.201L1055.29 458.803Z" fill="#DCA44B"/>
<path opacity="0.4" fill-rule="evenodd" clip-rule="evenodd" d="M420.649 825C420.649 825 948.657 497.853 1163.95 304.642C1163.95 304.642 838.532 587.448 420.649 825Z" fill="#D9B148"/>
<path opacity="0.4" fill-rule="evenodd" clip-rule="evenodd" d="M344.508 797.477C344.508 797.477 502.08 344.33 1099.33 208.995C1099.33 208.995 572.112 329.094 344.508 797.477Z" fill="#D9B148"/>
<path opacity="0.4" fill-rule="evenodd" clip-rule="evenodd" d="M66.9013 551.378C66.9013 551.378 114.957 276.389 331.65 63.6836C331.65 63.6836 137.997 282.562 66.9013 551.378Z" fill="#D9B148"/>
<path fill-rule="evenodd" clip-rule="evenodd" d="M643.391 37.4072L687.525 74.7538L668.042 49.4202L643.391 37.4072Z" fill="#E4B84C"/>
<path fill-rule="evenodd" clip-rule="evenodd" d="M379.949 295.914L411.774 298.529L485.879 295.914H379.949Z" fill="#E4B84C"/>
<path fill-rule="evenodd" clip-rule="evenodd" d="M1002.03 611.9L897.47 604.388L630.472 632.306L1002.03 611.9Z" fill="#A35237"/>
<path fill-rule="evenodd" clip-rule="evenodd" d="M673.543 629.934L808.957 627.714L907.136 617.1L673.543 629.934Z" fill="#D9934B"/>
<path fill-rule="evenodd" clip-rule="evenodd" d="M53.1929 283.262L94.6833 295.914L139.852 283.262H53.1929Z" fill="#DBA649"/>
<path fill-rule="evenodd" clip-rule="evenodd" d="M964.493 44.0068L1040.18 56.1718L1065.23 69.3708L1135.9 83.6036L1162.31 133.602L1166.47 212.979L1168.69 262.551L1180 161.855C1180 161.855 1166.14 97.5629 1125.29 74.8448L1029.18 44.25L964.493 44.0068Z" fill="#C98043"/>
<path fill-rule="evenodd" clip-rule="evenodd" d="M6.17029 257.685L8.38914 161.764L72.5245 91.2068L145.475 60.3989L243.866 52.4004L110.945 54.0428C110.945 54.0428 -1.51971 79.4372 -0.1215 184.817L6.17029 257.685Z" fill="#C98043"/>
<path fill-rule="evenodd" clip-rule="evenodd" d="M16.9001 383.532V298.529L31.6726 286.516L53.1929 283.262H8.38928L16.9001 383.532Z" fill="#BE6C40"/>
<path fill-rule="evenodd" clip-rule="evenodd" d="M1044.77 128.523L1056.71 114.168L1101.37 128.523L1089.39 151.667H1059.91L1044.77 128.523Z" fill="#B15D3B"/>
<path fill-rule="evenodd" clip-rule="evenodd" d="M125.11 453.633L130.672 448.037L154.594 459.746L139.335 469.569L125.11 458.803V453.633Z" fill="#B15D3B"/>
<path fill-rule="evenodd" clip-rule="evenodd" d="M1044.77 128.523L1059.72 147.075L1084.4 149.873H1090.33L1089.39 151.667L1059.91 153.461L1044.77 128.523Z" fill="#E0A54D"/>
<path fill-rule="evenodd" clip-rule="evenodd" d="M1093.19 245.216L1090.36 234.328L1103.86 224.353L1120.18 231.5L1109.82 245.946L1093.19 245.216Z" fill="#B15D3B"/>
<path fill-rule="evenodd" clip-rule="evenodd" d="M1093.19 245.216L1107.51 244.425L1117.54 233.325L1119.63 230.436L1120.18 231.5L1110.7 246.585L1093.19 245.216Z" fill="#E0A54D"/>
<path fill-rule="evenodd" clip-rule="evenodd" d="M125.11 458.803L135.171 464.916H145.292L154.594 459.746L142.374 469.569H139.335L125.11 458.803Z" fill="#E0A54D"/>
<path opacity="0.2" fill-rule="evenodd" clip-rule="evenodd" d="M1129.42 612.386L897.47 604.388L43.5878 697.541L26.3229 494.325L1153.01 402.145L1129.42 612.386Z" fill="#D9B148"/>
</g>
<defs>
<linearGradient id="paint0_linear_208_16565" x1="589.985" y1="825" x2="589.985" y2="44.007" gradientUnits="userSpaceOnUse">
<stop stop-color="#B4593C"/>
<stop offset="1" stop-color="#D89D48"/>
</linearGradient>
<linearGradient id="paint1_linear_208_16565" x1="201.099" y1="447.124" x2="1125.35" y2="447.124" gradientUnits="userSpaceOnUse">
<stop stop-color="#BC4A4B"/>
<stop offset="1" stop-color="#BD5345"/>
</linearGradient>
<linearGradient id="paint2_linear_208_16565" x1="1.12554e+06" y1="858315" x2="1.40302e+06" y2="858315" gradientUnits="userSpaceOnUse">
<stop stop-color="#BC4A4B"/>
<stop offset="1" stop-color="#BD5345"/>
</linearGradient>
<linearGradient id="paint3_linear_208_16565" x1="471157" y1="321363" x2="514519" y2="321363" gradientUnits="userSpaceOnUse">
<stop stop-color="#BC4A4B"/>
<stop offset="1" stop-color="#BD5345"/>
</linearGradient>
<linearGradient id="paint4_linear_208_16565" x1="974780" y1="713995" x2="1.16784e+06" y2="713995" gradientUnits="userSpaceOnUse">
<stop stop-color="#BC4A4B"/>
<stop offset="1" stop-color="#BD5345"/>
</linearGradient>
<linearGradient id="paint5_linear_208_16565" x1="916729" y1="582731" x2="1.08385e+06" y2="582731" gradientUnits="userSpaceOnUse">
<stop stop-color="#BC4A4B"/>
<stop offset="1" stop-color="#BD5345"/>
</linearGradient>
<linearGradient id="paint6_linear_208_16565" x1="664440" y1="234026" x2="744753" y2="234026" gradientUnits="userSpaceOnUse">
<stop stop-color="#BC4A4B"/>
<stop offset="1" stop-color="#BD5345"/>
</linearGradient>
<linearGradient id="paint7_linear_208_16565" x1="344869" y1="826555" x2="374472" y2="826555" gradientUnits="userSpaceOnUse">
<stop stop-color="#BC4A4B"/>
<stop offset="1" stop-color="#BD5345"/>
</linearGradient>
<linearGradient id="paint8_linear_208_16565" x1="865515" y1="455499" x2="1.03288e+06" y2="455499" gradientUnits="userSpaceOnUse">
<stop stop-color="#BC4A4B"/>
<stop offset="1" stop-color="#BD5345"/>
</linearGradient>
<clipPath id="clip0_208_16565">
<rect width="1180" height="825" fill="white"/>
</clipPath>
</defs>
</svg>
