<svg width="383" height="369" viewBox="0 0 383 369" fill="none" xmlns="http://www.w3.org/2000/svg">
<path fill-rule="evenodd" clip-rule="evenodd" d="M-1.52588e-05 41.5323V52.8462L12.805 115.969L10.2328 118.367L27.162 187.126H65.2104L15.8852 193.05C15.8852 193.05 22.5441 232.718 27.1714 290.78C30.0964 327.522 32.6029 362.129 32.6029 362.129L342.666 369C342.666 369 348.192 288.112 356.2 265.748L268.827 260.951L343.531 257.756L383 20.7991L377.315 13.3464L174.587 40.465L122.201 34.0796L-1.52588e-05 41.5323Z" fill="url(#paint0_linear_208_16020)"/>
<path fill-rule="evenodd" clip-rule="evenodd" d="M1.52588e-05 41.5323L15.8712 26.627H122.201L195.321 21.2968L361.57 0L377.286 13.3105L174.587 40.4711L122.201 34.0796L1.52588e-05 41.5323Z" fill="#E4B84C"/>
<path fill-rule="evenodd" clip-rule="evenodd" d="M356.172 265.712L344.448 249.338L343.508 257.72L268.803 260.916L356.172 265.712Z" fill="#DCA44B"/>
<path fill-rule="evenodd" clip-rule="evenodd" d="M15.8712 193.026L41.3449 187.108H84.9894L15.8712 193.026Z" fill="#DCA44B"/>
<path fill-rule="evenodd" clip-rule="evenodd" d="M122.201 34.0798H222.281L172.241 45.2618L122.201 34.0798Z" fill="#DBA649"/>
<path fill-rule="evenodd" clip-rule="evenodd" d="M222.281 366.29L108.587 356.229L67.2372 362.854L222.281 366.29Z" fill="#A85639"/>
<g style="mix-blend-mode:multiply" opacity="0.2">
<path style="mix-blend-mode:multiply" opacity="0.2" fill-rule="evenodd" clip-rule="evenodd" d="M3.75262 61.6302C3.75262 61.6302 63.7762 41.2447 122.201 45.2499C180.625 49.255 205.06 55.6524 280.865 61.6302C356.67 67.6079 366.945 117.001 366.945 117.001L363.066 140.276C363.066 140.276 336.562 81.1042 258.622 66.013C180.682 50.9218 157.79 56.0422 90.7359 54.4353C23.6821 52.8285 5.93933 73.3638 5.93933 73.3638L3.75262 61.6302Z" fill="url(#paint1_linear_208_16020)"/>
<path style="mix-blend-mode:multiply" opacity="0.2" fill-rule="evenodd" clip-rule="evenodd" d="M9.27814 91.2845C9.27814 91.2845 30.5949 78.8074 133.336 79.6168C236.078 80.4263 305.92 93.5928 322.85 120.753C339.779 147.914 320.658 189.44 233.891 209.808C147.124 230.175 21.3026 232.124 21.3026 232.124L20.8982 226.979C20.8982 226.979 163.729 230.841 237.216 206.594C310.703 182.347 327.637 131.78 310.726 114.218C293.816 96.6567 113.021 58.7218 10.9899 100.428L9.27814 91.2845Z" fill="url(#paint2_linear_208_16020)"/>
<path style="mix-blend-mode:multiply" opacity="0.2" fill-rule="evenodd" clip-rule="evenodd" d="M20.5314 151.608C20.5314 151.608 178.439 83.976 268.827 137.818C268.827 137.818 260.362 182.09 188.671 182.09C116.981 182.09 129.49 149.587 99.4215 142.152C69.3533 134.718 22.3137 161.159 22.3137 161.159L20.5314 151.608Z" fill="url(#paint3_linear_208_16020)"/>
<path style="mix-blend-mode:multiply" opacity="0.2" fill-rule="evenodd" clip-rule="evenodd" d="M23.2589 249.332C23.2589 249.332 273.825 222.177 354.503 178.181L353.27 187.102C353.27 187.102 183.085 239.619 23.2589 253.99V249.332Z" fill="url(#paint4_linear_208_16020)"/>
<path style="mix-blend-mode:multiply" opacity="0.2" fill-rule="evenodd" clip-rule="evenodd" d="M25.7842 274.712C25.7842 274.712 278.782 271.366 349.264 216.086L348.46 221.908C348.46 221.908 265.671 271.102 26.118 278.591L25.7842 274.712Z" fill="url(#paint5_linear_208_16020)"/>
<path style="mix-blend-mode:multiply" opacity="0.2" fill-rule="evenodd" clip-rule="evenodd" d="M31.5354 347.901C31.5354 347.901 236.407 254.632 350.2 294.539L348.154 310.062C348.154 310.062 303.207 278.513 177.08 304.6C50.9523 330.688 38.4247 362.243 38.4247 362.243L32.5794 362.111L31.5354 347.901Z" fill="url(#paint6_linear_208_16020)"/>
<path style="mix-blend-mode:multiply" opacity="0.2" fill-rule="evenodd" clip-rule="evenodd" d="M304.876 317.893C304.876 317.893 246.409 286.469 160.795 326.94C160.795 326.94 264.782 334.399 304.876 317.893Z" fill="url(#paint7_linear_208_16020)"/>
<path style="mix-blend-mode:multiply" opacity="0.2" fill-rule="evenodd" clip-rule="evenodd" d="M209.664 365.175C209.664 365.175 292.824 349.478 347.293 317.443L346.649 323.439C346.649 323.439 275.641 352.039 213.623 366.129L209.664 365.175Z" fill="url(#paint8_linear_208_16020)"/>
<path style="mix-blend-mode:multiply" opacity="0.2" fill-rule="evenodd" clip-rule="evenodd" d="M14.6297 125.185C14.6297 125.185 89.8989 84.8037 188.878 91.2911C287.858 97.7784 302.629 128.363 302.37 147.111C302.111 165.86 219.158 226.302 19.3699 221.512L19.6332 218.982C19.6332 218.982 128.427 223.377 212.786 198.081C297.145 172.785 303.832 143.52 290.049 123.266C276.266 103.013 150.576 68.1236 14.6297 125.185Z" fill="url(#paint9_linear_208_16020)"/>
<path style="mix-blend-mode:multiply" opacity="0.2" fill-rule="evenodd" clip-rule="evenodd" d="M204.853 241.501C204.853 241.501 254.343 238.575 289.635 224.713L204.853 241.501Z" fill="url(#paint10_linear_208_16020)"/>
<path style="mix-blend-mode:multiply" opacity="0.2" fill-rule="evenodd" clip-rule="evenodd" d="M268.803 366.098L318.241 348.777L281.486 367.603L268.803 366.098Z" fill="url(#paint11_linear_208_16020)"/>
<path style="mix-blend-mode:multiply" opacity="0.2" fill-rule="evenodd" clip-rule="evenodd" d="M363.292 76.0197C363.292 76.0197 347.303 44.7701 300.611 46.0412C300.597 46.0412 344.209 48.4395 363.292 76.0197Z" fill="url(#paint12_linear_208_16020)"/>
</g>
<path style="mix-blend-mode:multiply" opacity="0.2" fill-rule="evenodd" clip-rule="evenodd" d="M160.583 130.724C160.583 130.724 227.303 111.952 250.482 143.501C250.482 143.501 225.422 172.658 180.945 168.683C136.468 164.708 112.645 137.835 112.645 137.835C112.645 137.835 142.779 168.413 183.503 165.068C224.227 161.722 226.362 123.536 160.583 130.724Z" fill="url(#paint13_linear_208_16020)"/>
<path fill-rule="evenodd" clip-rule="evenodd" d="M264.782 261.982L227.768 267.504L160.79 268.74L264.782 261.982Z" fill="#D9934B"/>
<path fill-rule="evenodd" clip-rule="evenodd" d="M11.2579 107.689L37.4841 124.249L12.8004 115.969L11.2579 107.689Z" fill="#B15D3B"/>
<path fill-rule="evenodd" clip-rule="evenodd" d="M84.9894 187.108L358.307 168.869L357.794 171.951L84.9894 187.108Z" fill="#B15D3B"/>
<path fill-rule="evenodd" clip-rule="evenodd" d="M0 52.8461L38.735 39.1699L0 41.5322V52.8461Z" fill="#DBA649"/>
<path fill-rule="evenodd" clip-rule="evenodd" d="M382.972 20.769H328.432L377.286 13.3103L382.972 20.769Z" fill="#DBA649"/>
<path fill-rule="evenodd" clip-rule="evenodd" d="M-1.52588e-05 52.8464L38.7397 39.1702L122.201 34.0798L172.241 45.2618L115.166 39.1702C115.166 39.1702 43.019 35.6747 -1.52588e-05 52.8464Z" fill="#C98043"/>
<path fill-rule="evenodd" clip-rule="evenodd" d="M191.488 40.9627L331.187 26.0934L377.286 29.8167L374.046 67.0261L354.502 69.8441H374.799L382.972 20.7692L325.822 20.2056L220.936 34.3794L191.488 40.9627Z" fill="#C98043"/>
<path opacity="0.2" fill-rule="evenodd" clip-rule="evenodd" d="M15.8712 193.026L357.794 171.951L343.508 257.72L160.79 268.74L27.1479 290.738L15.8712 193.026Z" fill="#D9B148"/>
<path fill-rule="evenodd" clip-rule="evenodd" d="M27.1479 290.738L160.79 268.74L245.779 261.983L268.803 260.915L160.79 270.502L87.129 284.598L27.1479 290.738Z" fill="#A85639"/>
<path style="mix-blend-mode:multiply" opacity="0.6" fill-rule="evenodd" clip-rule="evenodd" d="M209.659 365.175L108.587 356.229L124.449 364.125L209.659 365.175Z" fill="url(#paint14_linear_208_16020)"/>
<path opacity="0.4" fill-rule="evenodd" clip-rule="evenodd" d="M38.4247 362.219C38.4247 362.219 56.0968 325.687 183.517 303.287C183.517 303.287 75.3821 322.144 38.4247 362.219Z" fill="#D9B148"/>
<path opacity="0.4" fill-rule="evenodd" clip-rule="evenodd" d="M23.2589 253.99C23.2589 253.99 121.129 244.014 209.664 223.976C209.664 223.976 152.18 242.281 23.2589 253.99Z" fill="#D9B148"/>
<path opacity="0.4" fill-rule="evenodd" clip-rule="evenodd" d="M216.807 222.375C216.807 222.375 332.96 195.82 355.829 185.567L354.968 188.919C354.968 188.919 267.458 211.793 216.807 222.375Z" fill="#D9B148"/>
<path fill-rule="evenodd" clip-rule="evenodd" d="M147.881 183.613L170.764 187.108L203.179 180.543L147.881 183.613Z" fill="#DCA44B"/>
<path fill-rule="evenodd" clip-rule="evenodd" d="M147.881 183.612L167.237 183.822L203.179 180.543L174.061 176.927L147.881 183.612Z" fill="#B15D3B"/>
<path fill-rule="evenodd" clip-rule="evenodd" d="M286.315 176.358L302.375 185.567L288.38 175.453L286.315 176.358Z" fill="#B15D3B"/>
<path fill-rule="evenodd" clip-rule="evenodd" d="M371.347 90.5833L349.264 111.952L369.565 101.268L371.347 90.5833Z" fill="#B15D3B"/>
<path fill-rule="evenodd" clip-rule="evenodd" d="M86.9974 280.887L104.825 268.74L91.319 280.186L86.9974 280.887Z" fill="#B15D3B"/>
<path fill-rule="evenodd" clip-rule="evenodd" d="M238.265 346.78L250.374 336.665L273.656 335.598L250.477 339.459L238.265 346.78Z" fill="#A85639"/>
<path fill-rule="evenodd" clip-rule="evenodd" d="M127.171 257.522L131.973 253.996H144.665L127.171 257.522Z" fill="#A85639"/>
<path fill-rule="evenodd" clip-rule="evenodd" d="M271.037 11.5957L292.941 24.6484L304.039 45.2616L315.316 57.5109L296.99 41.5323L276.163 25.6916L271.037 11.5957Z" fill="#C97344"/>
<path fill-rule="evenodd" clip-rule="evenodd" d="M315.316 57.5109L299.341 41.5323L274.747 21.8064L271.037 11.5957L292.941 24.6484L302.375 42.1678L315.316 57.5109Z" fill="#B15D3B"/>
<g style="mix-blend-mode:soft-light">
<path fill-rule="evenodd" clip-rule="evenodd" d="M76.3226 36.8796L90.4208 26.627H51.8928L24.3687 40.0454L76.3226 36.8796Z" fill="#E3C150"/>
</g>
<g style="mix-blend-mode:soft-light">
<path fill-rule="evenodd" clip-rule="evenodd" d="M144.665 34.0798L151.206 24.5106L181.571 22.3042L185.347 34.5534L144.665 34.0798Z" fill="#E3C150"/>
</g>
<path fill-rule="evenodd" clip-rule="evenodd" d="M241.18 345.029L270.167 336.18L250.477 339.459L241.18 345.029Z" fill="#D9934B"/>
<path fill-rule="evenodd" clip-rule="evenodd" d="M127.171 257.522L135.918 259.051L144.665 253.996L127.171 257.522Z" fill="#D9934B"/>
<path fill-rule="evenodd" clip-rule="evenodd" d="M91.319 280.186L104.825 268.74L94.8695 279.592L91.319 280.186Z" fill="#D9934B"/>
<path fill-rule="evenodd" clip-rule="evenodd" d="M285.624 175.962L296.341 182.108L281.486 176.25L285.624 175.962Z" fill="#D9934B"/>
<path fill-rule="evenodd" clip-rule="evenodd" d="M351.502 110.777L369.015 104.565L369.565 101.268L351.502 110.777Z" fill="#E0A54D"/>
<path fill-rule="evenodd" clip-rule="evenodd" d="M292.241 37.9167L296.341 43.4628L302.375 46.2208L292.241 37.9167Z" fill="#DCA44B"/>
<path fill-rule="evenodd" clip-rule="evenodd" d="M12.8004 115.969L10.2328 118.343L37.4841 124.249L12.8004 115.969Z" fill="#DCA44B"/>
<path fill-rule="evenodd" clip-rule="evenodd" d="M45.7324 243.612L50.4303 241.483H62.8544L45.7324 243.612Z" fill="#A85639"/>
<path fill-rule="evenodd" clip-rule="evenodd" d="M45.7324 304.462L52.5182 302.112H55.1281L48.0273 304.462H45.7324Z" fill="#A85639"/>
<path fill-rule="evenodd" clip-rule="evenodd" d="M315.528 228.503L319.073 225.841H320.954L319.073 229.3L315.528 228.503Z" fill="#A85639"/>
<path fill-rule="evenodd" clip-rule="evenodd" d="M293.52 346.78L314.065 340.604L306.701 346.78H293.52Z" fill="#A85639"/>
<path fill-rule="evenodd" clip-rule="evenodd" d="M37.3289 306.267L41.0863 308.042H38.4199L37.3289 306.267Z" fill="#A85639"/>
<path fill-rule="evenodd" clip-rule="evenodd" d="M317.423 228.928L319.652 228.233L319.073 229.3L317.423 228.928Z" fill="#E0A54D"/>
<path fill-rule="evenodd" clip-rule="evenodd" d="M21.9939 71.1453L24.5662 70.0181L27.4347 70.5817L25.6431 72.4763L21.9939 71.1453Z" fill="#B15D3B"/>
<path fill-rule="evenodd" clip-rule="evenodd" d="M75.9652 62.9131L77.7568 60.1731L84.4533 62.9131L82.6616 67.338H78.2365L75.9652 62.9131Z" fill="#B15D3B"/>
<path fill-rule="evenodd" clip-rule="evenodd" d="M93.3035 70.078L94.1406 69.0107L97.7286 71.2471L95.4338 73.1298L93.3035 71.0733V70.078Z" fill="#B15D3B"/>
<path fill-rule="evenodd" clip-rule="evenodd" d="M75.9652 62.9128L78.2083 66.4563L81.9139 66.9899H82.798L82.6616 67.3377L78.2365 67.6794L75.9652 62.9128Z" fill="#E0A54D"/>
<path fill-rule="evenodd" clip-rule="evenodd" d="M93.3035 71.0732L94.813 72.2364H96.3319L97.7286 71.2471L95.8946 73.1298H95.4338L93.3035 71.0732Z" fill="#E0A54D"/>
<path fill-rule="evenodd" clip-rule="evenodd" d="M21.9939 71.1451L24.2182 72.4762L26.5507 72.8839L27.4347 70.5815L25.9205 71.7327L21.9939 71.1451Z" fill="#E0A54D"/>
<path fill-rule="evenodd" clip-rule="evenodd" d="M118.608 308.042L119.958 307.538L134.479 302.112L158.5 299.258L118.608 308.042Z" fill="#A85639"/>
<path fill-rule="evenodd" clip-rule="evenodd" d="M294.347 79.5689L275.852 73.1295L250.482 72.8777C250.482 72.8777 273.374 74.3406 294.347 79.5689Z" fill="#B15D3B"/>
<path fill-rule="evenodd" clip-rule="evenodd" d="M15.8711 193.026L21.9845 216.085L37.3148 221.769L22.3654 222.369L24.7167 242.538L27.1479 290.726C27.1479 290.726 20.2586 219.917 15.8711 193.026Z" fill="#BE6C40"/>
<path fill-rule="evenodd" clip-rule="evenodd" d="M357.794 171.951L342.257 250.735L309.889 259.051L343.508 257.72L357.794 171.951Z" fill="#BE6C40"/>
<path fill-rule="evenodd" clip-rule="evenodd" d="M342.643 368.958V324.992L353.459 275.827L356.181 265.706C356.181 265.706 350.665 296.062 347.303 319.224C343.941 342.385 342.643 368.958 342.643 368.958Z" fill="#A85639"/>
<path fill-rule="evenodd" clip-rule="evenodd" d="M342.643 324.992L326.09 331.287L344.03 327.21L342.643 324.992Z" fill="#A85639"/>
<path fill-rule="evenodd" clip-rule="evenodd" d="M31.5307 347.901L66.3484 333.553L32.316 353.171L31.5307 347.901Z" fill="#A85639"/>
<path fill-rule="evenodd" clip-rule="evenodd" d="M27.1479 290.738L32.6264 333.553L32.5746 362.087L27.1479 290.738Z" fill="#A85639"/>
<path fill-rule="evenodd" clip-rule="evenodd" d="M76.3226 36.8795L87.7028 52.8461L80.2116 36.6396L76.3226 36.8795Z" fill="#C98043"/>
<path fill-rule="evenodd" clip-rule="evenodd" d="M77.959 39.1699L79.3839 44.7399L87.7028 52.8461L77.959 39.1699Z" fill="#E0A54D"/>
<path fill-rule="evenodd" clip-rule="evenodd" d="M21.3731 163.629H56.1721L188.643 164.426L67.8674 168.869L21.3731 163.629Z" fill="#C26B41"/>
<path fill-rule="evenodd" clip-rule="evenodd" d="M21.3731 163.629L67.8674 166.249L188.643 164.426L21.3731 163.629Z" fill="#A35237"/>
<path fill-rule="evenodd" clip-rule="evenodd" d="M19.1723 217.105L21.9939 216.085L36.4684 221.452L22.135 217.584L19.1723 217.105Z" fill="#A35237"/>
<g style="mix-blend-mode:soft-light">
<path fill-rule="evenodd" clip-rule="evenodd" d="M42.182 26.627L18.688 29.0192L12.3207 32.4788L9.27815 37.809L34.5591 39.17L35.2786 39.3798L0 41.5323L15.8711 26.627H42.182Z" fill="#E3C150"/>
</g>
<g style="mix-blend-mode:soft-light">
<path fill-rule="evenodd" clip-rule="evenodd" d="M336.111 3.26167L357.808 2.39828L368.253 8.25609L371.592 11.5957L351.958 16.7041L377.286 13.3105L361.57 0L336.111 3.26167Z" fill="#E3C150"/>
</g>
<defs>
<linearGradient id="paint0_linear_208_16020" x1="191.488" y1="368.958" x2="191.488" y2="13.3105" gradientUnits="userSpaceOnUse">
<stop stop-color="#B4593C"/>
<stop offset="1" stop-color="#D89D48"/>
</linearGradient>
<linearGradient id="paint1_linear_208_16020" x1="3.75262" y1="92.5141" x2="366.945" y2="92.5141" gradientUnits="userSpaceOnUse">
<stop stop-color="#BC4A4B"/>
<stop offset="1" stop-color="#BD5345"/>
</linearGradient>
<linearGradient id="paint2_linear_208_16020" x1="612891" y1="55778.2" x2="829513" y2="55778.2" gradientUnits="userSpaceOnUse">
<stop stop-color="#BC4A4B"/>
<stop offset="1" stop-color="#BD5345"/>
</linearGradient>
<linearGradient id="paint3_linear_208_16020" x1="482736" y1="23199.2" x2="613824" y2="23199.2" gradientUnits="userSpaceOnUse">
<stop stop-color="#BC4A4B"/>
<stop offset="1" stop-color="#BD5345"/>
</linearGradient>
<linearGradient id="paint4_linear_208_16020" x1="645922" y1="35476" x2="879247" y2="35476" gradientUnits="userSpaceOnUse">
<stop stop-color="#BC4A4B"/>
<stop offset="1" stop-color="#BD5345"/>
</linearGradient>
<linearGradient id="paint5_linear_208_16020" x1="632522" y1="32576.9" x2="855037" y2="32576.9" gradientUnits="userSpaceOnUse">
<stop stop-color="#BC4A4B"/>
<stop offset="1" stop-color="#BD5345"/>
</linearGradient>
<linearGradient id="paint6_linear_208_16020" x1="627010" y1="50327.9" x2="842949" y2="50327.9" gradientUnits="userSpaceOnUse">
<stop stop-color="#BC4A4B"/>
<stop offset="1" stop-color="#BD5345"/>
</linearGradient>
<linearGradient id="paint7_linear_208_16020" x1="323248" y1="14494.4" x2="367394" y2="14494.4" gradientUnits="userSpaceOnUse">
<stop stop-color="#BC4A4B"/>
<stop offset="1" stop-color="#BD5345"/>
</linearGradient>
<linearGradient id="paint8_linear_208_16020" x1="323132" y1="33191.6" x2="363412" y2="33191.6" gradientUnits="userSpaceOnUse">
<stop stop-color="#BC4A4B"/>
<stop offset="1" stop-color="#BD5345"/>
</linearGradient>
<linearGradient id="paint9_linear_208_16020" x1="555811" y1="48068.9" x2="731879" y2="48068.9" gradientUnits="userSpaceOnUse">
<stop stop-color="#BC4A4B"/>
<stop offset="1" stop-color="#BD5345"/>
</linearGradient>
<linearGradient id="paint10_linear_208_16020" x1="198263" y1="8517.65" x2="213549" y2="8517.65" gradientUnits="userSpaceOnUse">
<stop stop-color="#BC4A4B"/>
<stop offset="1" stop-color="#BD5345"/>
</linearGradient>
<linearGradient id="paint11_linear_208_16020" x1="28528.1" y1="11595.9" x2="33725.5" y2="11595.9" gradientUnits="userSpaceOnUse">
<stop stop-color="#BC4A4B"/>
<stop offset="1" stop-color="#BD5345"/>
</linearGradient>
<linearGradient id="paint12_linear_208_16020" x1="159489" y1="6257.28" x2="167844" y2="6257.28" gradientUnits="userSpaceOnUse">
<stop stop-color="#BC4A4B"/>
<stop offset="1" stop-color="#BD5345"/>
</linearGradient>
<linearGradient id="paint13_linear_208_16020" x1="295088" y1="15506.2" x2="335485" y2="15506.2" gradientUnits="userSpaceOnUse">
<stop stop-color="#BC4A4B"/>
<stop offset="1" stop-color="#BD5345"/>
</linearGradient>
<linearGradient id="paint14_linear_208_16020" x1="23447.1" y1="5737.89" x2="45170.6" y2="5737.89" gradientUnits="userSpaceOnUse">
<stop stop-color="#BC4A4B"/>
<stop offset="1" stop-color="#BD5345"/>
</linearGradient>
</defs>
</svg>
