<svg width="18" height="241" viewBox="0 0 18 241" fill="none" xmlns="http://www.w3.org/2000/svg">
<path d="M11.994 1L8.11708 180.737L11.994 1Z" fill="#FFA664"/>
<path d="M5.59591 172.434C4.46561 169.436 4.90552 166.359 6.88023 163.452C6.88023 163.452 1.83793 168.79 5.59591 172.434Z" fill="#C06A42"/>
<path d="M13.2307 138.221H12.9928V138.544C10.7604 140.167 8.15319 141.678 5.21525 143.051V142.836H4.81088C4.81088 143.353 4.81088 142.836 4.81088 142.836C2.43241 138.113 5.38176 131.848 5.38176 131.848C8.33629 130.462 10.9666 128.94 13.2307 127.309C15.0145 130.932 13.7302 136.28 13.2307 138.221Z" fill="#A95424" stroke="#882900" stroke-width="0.27" stroke-linecap="round" stroke-linejoin="round"/>
<path d="M13.2308 127.309C10.9851 128.928 8.37895 130.438 5.4532 131.816C4.32483 128.519 4.39713 125.16 5.66726 121.874C8.60384 120.497 11.2108 118.982 13.4448 117.356C15.8471 121.022 13.2308 127.309 13.2308 127.309Z" fill="#A95424" stroke="#882900" stroke-width="0.27" stroke-linecap="round" stroke-linejoin="round"/>
<path d="M12.7075 148.432V148.486V148.508V148.432Z" fill="#A95424" stroke="#882900" stroke-width="0.27" stroke-linecap="round" stroke-linejoin="round"/>
<path d="M5.14391 143.062C8.08185 141.689 10.6891 140.178 12.9215 138.555V139.008C14.0799 142.13 14.0074 145.321 12.7074 148.432V148.507C10.468 150.122 7.86988 151.629 4.95359 153.004H4.692C2.93615 149.937 2.81388 146.726 4.33524 143.634L5.0963 142.846L5.14391 143.062Z" fill="#A95424" stroke="#882900" stroke-width="0.27" stroke-linecap="round" stroke-linejoin="round"/>
<path d="M15.7281 9.4213V9.46475L15.7043 9.48647L15.7281 9.4213Z" fill="#A95424" stroke="#882900" stroke-width="0.27" stroke-linecap="round" stroke-linejoin="round"/>
<path d="M15.8708 1.36663H16.2039C17.0642 4.04086 16.8953 6.76247 15.7044 9.41052V9.47521C13.4662 11.0875 10.8765 12.5939 7.97436 13.9716C4.35908 8.37538 8.23595 1.03236 8.23595 1.03236H15.9184L15.8708 1.36663Z" fill="#A95424" stroke="#882900" stroke-width="0.27" stroke-linecap="round" stroke-linejoin="round"/>
<path d="M12.6837 148.507V149.219L12.5173 148.831C12.5173 148.831 12.6123 148.712 12.6837 148.507Z" fill="#A95424" stroke="#882900" stroke-width="0.27" stroke-linecap="round" stroke-linejoin="round"/>
<path d="M12.5409 148.831L12.7074 149.219C13.8483 152.62 13.776 156.082 12.4934 159.473C10.2318 161.091 7.6269 162.604 4.71582 163.991L4.2639 164.229L4.45415 163.441C3.19839 160.23 3.24675 156.941 4.59685 153.737C4.59685 153.737 4.59685 152.95 4.59685 153.263L4.95361 152.971C7.86989 151.596 10.4681 150.09 12.7074 148.475C12.6123 148.712 12.5409 148.831 12.5409 148.831Z" fill="#A95424" stroke="#882900" stroke-width="0.27" stroke-linecap="round" stroke-linejoin="round"/>
<path d="M12.0177 180.553L3.85953 180.607C2.55137 179.216 3.85951 175.151 4.14493 174.041H4.50169V173.922C7.43827 172.545 10.0453 171.03 12.2793 169.404C15.0622 173.135 12.0177 180.553 12.0177 180.553Z" fill="#A95424" stroke="#882900" stroke-width="0.27" stroke-linecap="round" stroke-linejoin="round"/>
<path d="M12.2555 169.415C10.0215 171.041 7.41453 172.555 4.47794 173.933H4.16873L4.00222 173.243C2.5715 170.265 2.66102 167.178 4.26389 164.218H4.692V163.97C7.60308 162.582 10.208 161.069 12.4696 159.452C14.634 163.323 12.2555 169.415 12.2555 169.415Z" fill="#A95424" stroke="#882900" stroke-width="0.27" stroke-linecap="round" stroke-linejoin="round"/>
<path d="M13.8254 96.9013H14.0156C16.3941 100.309 14.2535 105.204 13.6113 106.498V106.422C11.3718 108.043 8.76513 109.554 5.83372 110.93C2.31359 108.342 6.04778 100.999 6.04778 100.999C8.9915 99.6241 11.5991 98.1093 13.8254 96.4808V96.9013Z" fill="#A95424" stroke="#882900" stroke-width="0.27" stroke-linecap="round" stroke-linejoin="round"/>
<path d="M13.6113 106.455V107.037L13.4686 106.789C13.4686 106.789 13.5162 106.66 13.6113 106.455Z" fill="#A95424" stroke="#882900" stroke-width="0.27" stroke-linecap="round" stroke-linejoin="round"/>
<path d="M13.6113 106.455C13.6113 106.66 13.4448 106.789 13.4448 106.789L13.5875 107.037C15.3593 110.434 15.2858 113.975 13.3734 117.356C11.1394 118.982 8.53242 120.497 5.59584 121.874C3.98819 118.244 4.06921 114.502 5.8337 110.886C8.7651 109.511 11.3717 108 13.6113 106.379V106.455Z" fill="#A95424" stroke="#882900" stroke-width="0.27" stroke-linecap="round" stroke-linejoin="round"/>
<path d="M14.753 53.8891V54.59L14.3011 54.8919C14.3249 54.7733 14.4914 54.4175 14.753 53.8891Z" fill="#A95424" stroke="#882900" stroke-width="0.27" stroke-linecap="round" stroke-linejoin="round"/>
<path d="M15.3714 41.5106C15.5854 41.4351 15.3714 41.7694 15.5379 41.6939C16.8762 45.7478 16.6104 49.8775 14.753 53.8891C14.4914 54.4175 14.3248 54.7733 14.2773 54.8919C12.1357 56.396 9.6827 57.8042 6.95154 59.0972C4.78713 53.8999 7.26075 44.8425 7.26075 44.8425C10.1973 43.465 12.8044 41.9506 15.0384 40.3245L15.3714 41.5106Z" fill="#A95424" stroke="#882900" stroke-width="0.27" stroke-linecap="round" stroke-linejoin="round"/>
<path d="M15.4904 30.8681C15.4904 30.8681 15.4904 31.1053 15.4904 31.0945C17.8688 34.5773 14.9908 40.6264 14.9908 40.6264V40.2922C12.7568 41.9182 10.1498 43.4326 7.21325 44.8101C5.00128 41.791 7.45112 34.8685 7.45112 34.8685C10.3666 33.4854 12.9645 31.9717 15.2049 30.3505L15.4904 30.8681Z" fill="#A95424" stroke="#882900" stroke-width="0.27" stroke-linecap="round" stroke-linejoin="round"/>
<path d="M15.4904 19.4061L15.7995 20.301C16.2752 20.0746 15.6806 20.301 15.7995 20.301C17.1149 23.6121 16.9857 27.008 15.419 30.2966H15.2525V30.3613C13.0121 31.9824 10.4141 33.4962 7.49865 34.8792C5.28667 25.2503 7.7127 23.5466 7.7127 23.5466V23.8917C10.6359 22.5206 13.242 21.0176 15.4904 19.4061Z" fill="#A95424" stroke="#882900" stroke-width="0.27" stroke-linecap="round" stroke-linejoin="round"/>
<path d="M15.6092 9.48598V10.0251L15.4427 9.80947C15.4427 9.80947 15.6092 9.68007 15.6092 9.48598Z" fill="#A95424" stroke="#882900" stroke-width="0.27" stroke-linecap="round" stroke-linejoin="round"/>
<path d="M15.6092 9.80947L15.7758 10.0251C18.3921 13.5403 16.4655 17.972 15.7758 19.2875L15.5617 19.3629C13.316 20.982 10.7098 22.4923 7.78405 23.8701V23.579C5.59586 20.5275 8.02191 13.9932 8.02191 13.9932C10.9241 12.6154 13.5138 11.1091 15.7519 9.49677C15.6092 9.68007 15.6092 9.80947 15.6092 9.80947Z" fill="#A95424" stroke="#882900" stroke-width="0.27" stroke-linecap="round" stroke-linejoin="round"/>
<path d="M13.7065 85.655L14.087 84.9217V85.4501L13.7302 85.6873L13.7065 85.655Z" fill="#A95424" stroke="#882900" stroke-width="0.27" stroke-linecap="round" stroke-linejoin="round"/>
<path d="M14.2773 75.5192V76.3064L14.0395 75.9505L14.2773 75.5192Z" fill="#A95424" stroke="#882900" stroke-width="0.27" stroke-linecap="round" stroke-linejoin="round"/>
<path d="M14.0394 75.9397L14.2773 76.2956C16.299 79.4441 14.8243 83.3475 14.0869 84.9217L13.7065 85.655C11.5414 87.1994 9.04791 88.6439 6.26182 89.968C5.32721 86.6654 5.39923 83.3201 6.47588 80.0264C9.40728 78.6508 12.0139 77.1402 14.2535 75.5192L14.0394 75.9397Z" fill="#A95424" stroke="#882900" stroke-width="0.27" stroke-linecap="round" stroke-linejoin="round"/>
<path d="M14.2773 54.8488L14.7292 54.5469V55.6251C14.631 55.3817 14.4796 55.1433 14.2773 54.9135C14.2894 54.8923 14.2894 54.87 14.2773 54.8488Z" fill="#A95424" stroke="#882900" stroke-width="0.27" stroke-linecap="round" stroke-linejoin="round"/>
<path d="M14.2535 54.9458C14.4558 55.1757 14.6072 55.4141 14.7054 55.6575C16.1563 58.5149 14.5152 64.5209 14.5152 64.5209C13.2599 65.428 11.8941 66.3028 10.4242 67.1411C9.41427 67.871 8.12562 68.5137 6.61862 69.0388C4.88234 67.443 5.45319 65.1031 5.66725 63.3995C5.77424 62.1527 6.10833 60.912 6.66617 59.6902C6.66617 59.5608 6.66615 59.205 6.95157 59.0972C9.68273 57.8042 12.1358 56.396 14.2773 54.8919C14.278 54.9104 14.2699 54.9288 14.2535 54.9458Z" fill="#A95424" stroke="#882900" stroke-width="0.27" stroke-linecap="round" stroke-linejoin="round"/>
<path d="M14.087 85.4501L14.0632 86.1833L13.7302 85.6873L14.087 85.4501Z" fill="#A95424" stroke="#882900" stroke-width="0.27" stroke-linecap="round" stroke-linejoin="round"/>
<path d="M14.0633 86.1833C16.2753 89.8279 14.6579 94.6262 14.0633 96.125H13.873V96.4592C11.6467 98.0877 9.0391 99.6025 6.09538 100.977C3.55041 97.4189 6.33324 89.9896 6.33324 89.9896C9.11933 88.6655 11.6128 87.2209 13.7779 85.6765L14.0633 86.1833Z" fill="#A95424" stroke="#882900" stroke-width="0.27" stroke-linecap="round" stroke-linejoin="round"/>
<path d="M14.2775 75.4977L14.3011 75.5087L14.2775 75.5197V75.4977Z" fill="#A95424" stroke="#882900" stroke-width="0.27" stroke-linecap="round" stroke-linejoin="round"/>
<path d="M14.2772 75.4977C12.0377 77.1186 9.43107 78.6292 6.49967 80.0048C5.12192 76.4392 5.08167 72.7938 6.3807 69.2221L6.73746 69.1574V68.9849C9.65851 67.6041 12.2569 66.09 14.4913 64.467C17.7022 68.3919 15.1335 73.9234 14.2772 75.4977Z" fill="#A95424" stroke="#882900" stroke-width="0.27" stroke-linecap="round" stroke-linejoin="round"/>
<g style="mix-blend-mode:multiply" opacity="0.7">
<path d="M15.8708 1.36661H16.2039C17.0643 4.04084 16.8953 6.76245 15.7044 9.4105V10.0143C18.3207 13.5295 16.3942 17.9612 15.7044 19.2767L15.4904 19.3521V20.4304L15.8233 20.3334C17.1387 23.6445 17.0094 27.0404 15.4427 30.3289H15.2762V31.1269H15.5617C17.9402 34.6097 15.0622 40.6588 15.0622 40.6588V41.9096L15.5854 41.6831C16.9238 45.737 16.658 49.8667 14.8006 53.8784V55.6467C16.2514 58.5041 14.6103 64.5101 14.6103 64.5101C17.7974 68.3811 15.2287 73.9126 14.3725 75.4869V76.274C16.3942 79.4225 14.9195 83.3259 14.1821 84.9002V86.1617C16.3941 89.8063 14.7768 94.6046 14.1821 96.1034H13.9919V96.9013H14.1821C16.5606 100.309 14.42 105.204 13.7779 106.498V107.08C15.5496 110.477 15.4762 114.018 13.5638 117.399C15.9423 121.065 13.3497 127.352 13.3497 127.352C15.2049 130.975 13.9205 136.323 13.3497 138.264H13.1119V139.04C14.2703 142.162 14.1977 145.353 12.8978 148.464V149.251C14.0386 152.653 13.9663 156.115 12.6837 159.506C14.8243 163.355 12.4459 169.447 12.4459 169.447C15.2525 173.167 12.208 180.586 12.208 180.586L4.04991 180.64V180.586H7.4511C7.4511 180.586 10.4956 173.189 7.68897 169.458C7.68897 169.458 10.0674 163.366 7.90302 159.516C9.20014 156.126 9.2804 152.664 8.14081 149.262V148.475C9.4157 145.363 9.48819 142.174 8.35494 139.051V139.051V138.264H8.56899C9.13982 136.323 10.448 130.975 8.56899 127.352C8.56899 127.352 11.2804 121.065 8.78304 117.399C10.7127 114.023 10.7944 110.485 9.02091 107.091V106.498C9.63931 105.204 11.7324 100.309 9.40147 96.9121H9.23496V96.125H9.4252C10.0198 94.6262 11.661 89.8386 9.4252 86.2049V84.9325C10.1625 83.3474 11.6372 79.4657 9.61552 76.3063V75.5084C10.448 73.9342 13.0167 68.4026 9.85331 64.5316C9.85331 64.5316 11.4707 58.5257 10.0436 55.6683V53.8999C11.9118 49.8854 12.1856 45.752 10.8523 41.6939L10.329 41.9311V40.6695C10.329 40.6695 13.1119 34.6204 10.8523 31.1376H10.5431V30.3182H10.7096C12.2508 27.028 12.3719 23.6336 11.0664 20.3226L10.7571 20.4196V19.3414L10.8523 19.2659C11.5421 17.9396 13.4924 13.5079 10.8523 10.0036V9.38893C12.0563 6.74157 12.2253 4.01892 11.3518 1.34504H11.0425V1.08626H15.7995L15.8708 1.36661Z" fill="#A95424"/>
<path d="M15.8708 1.36661H16.2039C17.0643 4.04084 16.8953 6.76245 15.7044 9.4105V10.0143C18.3207 13.5295 16.3942 17.9612 15.7044 19.2767L15.4904 19.3521V20.4304L15.8233 20.3334C17.1387 23.6445 17.0094 27.0404 15.4427 30.3289H15.2762V31.1269H15.5617C17.9402 34.6097 15.0622 40.6588 15.0622 40.6588V41.9096L15.5854 41.6831C16.9238 45.737 16.658 49.8667 14.8006 53.8784V55.6467C16.2514 58.5041 14.6103 64.5101 14.6103 64.5101C17.7974 68.3811 15.2287 73.9126 14.3725 75.4869V76.274C16.3942 79.4225 14.9195 83.3259 14.1821 84.9002V86.1617C16.3941 89.8063 14.7768 94.6046 14.1821 96.1034H13.9919V96.9013H14.1821C16.5606 100.309 14.42 105.204 13.7779 106.498V107.08C15.5496 110.477 15.4762 114.018 13.5638 117.399C15.9423 121.065 13.3497 127.352 13.3497 127.352C15.2049 130.975 13.9205 136.323 13.3497 138.264H13.1119V139.04C14.2703 142.162 14.1977 145.353 12.8978 148.464V149.251C14.0386 152.653 13.9663 156.115 12.6837 159.506C14.8243 163.355 12.4459 169.447 12.4459 169.447C15.2525 173.167 12.208 180.586 12.208 180.586L4.04991 180.64V180.586H7.4511C7.4511 180.586 10.4956 173.189 7.68897 169.458C7.68897 169.458 10.0674 163.366 7.90302 159.516C9.20014 156.126 9.2804 152.664 8.14081 149.262V148.475C9.4157 145.363 9.48819 142.174 8.35494 139.051V139.051V138.264H8.56899C9.13982 136.323 10.448 130.975 8.56899 127.352C8.56899 127.352 11.2804 121.065 8.78304 117.399C10.7127 114.023 10.7944 110.485 9.02091 107.091V106.498C9.63931 105.204 11.7324 100.309 9.40147 96.9121H9.23496V96.125H9.4252C10.0198 94.6262 11.661 89.8386 9.4252 86.2049V84.9325C10.1625 83.3474 11.6372 79.4657 9.61552 76.3063V75.5084C10.448 73.9342 13.0167 68.4026 9.85331 64.5316C9.85331 64.5316 11.4707 58.5257 10.0436 55.6683V53.8999C11.9118 49.8854 12.1856 45.752 10.8523 41.6939L10.329 41.9311V40.6695C10.329 40.6695 13.1119 34.6204 10.8523 31.1376H10.5431V30.3182H10.7096C12.2508 27.028 12.3719 23.6336 11.0664 20.3226L10.7571 20.4196V19.3414L10.8523 19.2659C11.5421 17.9396 13.4924 13.5079 10.8523 10.0036V9.38893C12.0563 6.74157 12.2253 4.01892 11.3518 1.34504H11.0425V1.08626H15.7995L15.8708 1.36661Z" stroke="#882900" stroke-width="0.27" stroke-linecap="round" stroke-linejoin="round"/>
</g>
<g style="mix-blend-mode:screen">
<path d="M5.45314 162.525C4.31893 159.531 4.75071 156.458 6.71373 153.554C6.71373 153.554 1.67137 158.88 5.45314 162.525Z" fill="#C06A42"/>
</g>
<g style="mix-blend-mode:screen">
<path d="M5.80995 151.677C4.66135 148.684 5.09334 145.61 7.07054 142.706C7.07054 142.706 2.05197 148.033 5.80995 151.677Z" fill="#C06A42"/>
</g>
<g style="mix-blend-mode:screen">
<path d="M6.38075 141.337C5.24617 138.342 5.68624 135.269 7.66515 132.366C7.66515 132.366 2.62276 137.692 6.38075 141.337Z" fill="#C06A42"/>
</g>
<g style="mix-blend-mode:screen">
<path d="M6.71377 120.246C5.57919 117.251 6.01919 114.178 7.99809 111.275C7.99809 111.275 2.97957 116.601 6.71377 120.246Z" fill="#C06A42"/>
</g>
<g style="mix-blend-mode:screen">
<path d="M7.18941 99.0578C6.04062 96.0607 6.47259 92.9828 8.45 90.0759C8.45 90.0759 3.40764 95.3594 7.18941 99.0578Z" fill="#C06A42"/>
</g>
<g style="mix-blend-mode:screen">
<path d="M8.14081 87.7252C6.9924 84.7353 7.42449 81.6644 9.40147 78.7648C9.40147 78.7648 4.38283 84.0807 8.14081 87.7252Z" fill="#C06A42"/>
</g>
<g style="mix-blend-mode:screen">
<path d="M8.73536 43.3868C7.60099 40.3958 8.04108 37.3256 10.0198 34.4264C10.0198 34.4264 4.97738 39.753 8.73536 43.3868Z" fill="#C06A42"/>
</g>
<g style="mix-blend-mode:screen">
<path d="M9.52034 11.8474C8.3976 8.85615 8.83752 5.78721 10.8047 2.88698C10.8047 2.88698 5.78614 8.21364 9.52034 11.8474Z" fill="#C06A42"/>
</g>
<path d="M9.97219 237.076V237.4C8.74002 238.283 7.40625 239.136 5.97638 239.955C4.24139 239.76 2.587 239.44 1.07673 239.007C0.802116 236.213 1.26521 233.415 2.45621 230.672C5.37966 229.285 7.98549 227.768 10.2338 226.143C12.0652 229.777 10.7808 235.125 10.2338 237.066L9.97219 237.076Z" fill="#A95424" stroke="#882900" stroke-width="0.27" stroke-linecap="round" stroke-linejoin="round"/>
<path d="M10.2339 226.1C7.98556 227.724 5.37973 229.242 2.45629 230.628C1.31486 227.328 1.38718 223.965 2.67034 220.676C5.59189 219.299 8.19044 217.789 10.4242 216.169C12.8978 219.824 10.2339 226.1 10.2339 226.1Z" fill="#A95424" stroke="#882900" stroke-width="0.27" stroke-linecap="round" stroke-linejoin="round"/>
<path d="M12.7789 108.223L12.7551 108.277V108.288L12.7789 108.223Z" fill="#A95424" stroke="#882900" stroke-width="0.27" stroke-linecap="round" stroke-linejoin="round"/>
<path d="M12.9215 100.136H13.2308C14.1048 102.81 13.9358 105.533 12.7313 108.18V108.245C10.4934 109.86 7.89513 111.367 4.97746 112.741C1.38596 107.145 5.26286 99.8019 5.26286 99.8019H12.9215V100.136Z" fill="#A95424" stroke="#882900" stroke-width="0.27" stroke-linecap="round" stroke-linejoin="round"/>
<path d="M10.8523 195.682H11.0663C13.4448 199.078 11.2804 203.974 10.662 205.267V205.192C8.42828 206.812 5.82973 208.322 2.90818 209.699C-0.65953 207.111 3.09842 199.768 3.09842 199.768C6.02983 198.393 8.63654 196.882 10.8761 195.261L10.8523 195.682Z" fill="#A95424" stroke="#882900" stroke-width="0.27" stroke-linecap="round" stroke-linejoin="round"/>
<path d="M10.662 205.257V205.807L10.4955 205.559C10.4955 205.559 10.5669 205.472 10.662 205.257Z" fill="#A95424" stroke="#882900" stroke-width="0.27" stroke-linecap="round" stroke-linejoin="round"/>
<path d="M10.6621 205.257C10.6621 205.472 10.4955 205.591 10.4955 205.591L10.6621 205.839C12.4233 209.24 12.3417 212.785 10.4242 216.169C8.19045 217.789 5.5919 219.299 2.67035 220.676C1.0479 217.046 1.12895 213.303 2.90822 209.688C5.82977 208.312 8.42831 206.801 10.6621 205.181V205.257Z" fill="#A95424" stroke="#882900" stroke-width="0.27" stroke-linecap="round" stroke-linejoin="round"/>
<path d="M11.8037 152.691V153.392L11.3518 153.705C11.3756 153.586 11.5658 153.219 11.8037 152.691Z" fill="#A95424" stroke="#882900" stroke-width="0.27" stroke-linecap="round" stroke-linejoin="round"/>
<path d="M12.4459 140.323C12.6124 140.248 12.4458 140.582 12.6123 140.496C13.9322 144.551 13.6584 148.679 11.8037 152.691C11.5658 153.219 11.3756 153.586 11.328 153.705C9.18037 155.207 6.72777 156.615 4.00228 157.91C1.83787 152.713 4.31149 143.644 4.31149 143.644C7.24808 142.267 9.85508 140.752 12.0891 139.126L12.4459 140.323Z" fill="#A95424" stroke="#882900" stroke-width="0.27" stroke-linecap="round" stroke-linejoin="round"/>
<path d="M12.541 129.681C12.541 129.681 12.541 129.918 12.541 129.896C14.8005 133.39 12.0653 139.428 12.0653 139.428V139.094C9.83132 140.72 7.22424 142.234 4.28766 143.612C2.07568 140.593 4.52552 133.681 4.52552 133.681C7.43527 132.296 10.0328 130.782 12.2794 129.163L12.541 129.681Z" fill="#A95424" stroke="#882900" stroke-width="0.27" stroke-linecap="round" stroke-linejoin="round"/>
<path d="M12.541 118.208L12.8502 119.114C13.3259 118.887 12.8502 119.114 12.8502 119.114C14.145 122.425 14.0239 125.819 12.4934 129.109H12.3031V129.249C10.0565 130.869 7.45909 132.382 4.54934 133.767C2.36115 124.128 4.78721 122.435 4.78721 122.435V122.78C7.72374 121.385 10.3231 119.853 12.541 118.208Z" fill="#A95424" stroke="#882900" stroke-width="0.27" stroke-linecap="round" stroke-linejoin="round"/>
<path d="M12.7313 108.288V108.849L12.5648 108.622C12.5648 108.622 12.66 108.493 12.7313 108.288Z" fill="#A95424" stroke="#882900" stroke-width="0.27" stroke-linecap="round" stroke-linejoin="round"/>
<path d="M12.5886 108.611L12.755 108.838C15.3951 112.353 13.4448 116.785 12.755 118.089L12.541 118.176C10.3086 119.802 7.70145 121.317 4.76338 122.694V122.349C2.5514 119.297 4.95363 112.752 4.95363 112.752C7.8713 111.378 10.4696 109.871 12.7075 108.256C12.6599 108.493 12.5886 108.611 12.5886 108.611Z" fill="#A95424" stroke="#882900" stroke-width="0.27" stroke-linecap="round" stroke-linejoin="round"/>
<path d="M10.8523 184.457L11.2328 183.734V184.241L10.8998 184.468L10.8523 184.457Z" fill="#A95424" stroke="#882900" stroke-width="0.27" stroke-linecap="round" stroke-linejoin="round"/>
<path d="M11.328 174.321V175.097L11.1139 174.742L11.328 174.321Z" fill="#A95424" stroke="#882900" stroke-width="0.27" stroke-linecap="round" stroke-linejoin="round"/>
<path d="M11.0901 174.742L11.3042 175.097C12.6655 177.943 12.6086 180.89 11.1377 183.724L10.7571 184.446C8.59203 185.99 6.09859 187.435 3.3125 188.759C2.36444 185.457 2.43655 182.111 3.52662 178.817C6.45148 177.439 9.05757 175.929 11.3042 174.31L11.0901 174.742Z" fill="#A95424" stroke="#882900" stroke-width="0.27" stroke-linecap="round" stroke-linejoin="round"/>
<path d="M11.328 153.705L11.7799 153.392V154.47C11.6784 154.227 11.5271 153.989 11.328 153.758C11.3179 153.741 11.3179 153.722 11.328 153.705Z" fill="#A95424" stroke="#882900" stroke-width="0.27" stroke-linecap="round" stroke-linejoin="round"/>
<path d="M11.3042 153.748C11.5033 153.978 11.6546 154.216 11.7561 154.459C13.207 157.317 11.5658 163.323 11.5658 163.323C10.3162 164.232 8.95015 165.106 7.4748 165.943C6.47153 166.675 5.18194 167.318 3.6693 167.841C1.93301 166.245 2.50384 163.905 2.69412 162.201C2.82085 160.955 3.16279 159.714 3.71684 158.492C3.71684 158.373 3.71683 158.007 4.00225 157.91C6.72774 156.615 9.18034 155.207 11.328 153.705C11.3135 153.718 11.3054 153.733 11.3042 153.748Z" fill="#A95424" stroke="#882900" stroke-width="0.27" stroke-linecap="round" stroke-linejoin="round"/>
<path d="M11.1139 184.263V184.996L10.7809 184.489L11.1139 184.263Z" fill="#A95424" stroke="#882900" stroke-width="0.27" stroke-linecap="round" stroke-linejoin="round"/>
<path d="M11.1139 184.996C13.3259 188.641 11.6847 193.428 11.1139 194.927H10.8999V195.272C8.66031 196.893 6.05368 198.403 3.12227 199.779C0.577307 196.221 3.36013 188.792 3.36013 188.792C6.14622 187.467 8.63967 186.023 10.8048 184.478L11.1139 184.996Z" fill="#A95424" stroke="#882900" stroke-width="0.27" stroke-linecap="round" stroke-linejoin="round"/>
<path d="M11.3518 174.3V174.322V174.3Z" fill="#A95424" stroke="#882900" stroke-width="0.27" stroke-linecap="round" stroke-linejoin="round"/>
<path d="M11.328 174.3C9.08135 175.918 6.47519 177.429 3.55033 178.807C2.18354 175.241 2.13532 171.597 3.40763 168.024C3.50721 168.043 3.61082 168.058 3.71684 168.067V167.895C6.63085 166.511 9.2287 164.997 11.4707 163.377C14.753 167.194 12.1842 172.725 11.328 174.3Z" fill="#A95424" stroke="#882900" stroke-width="0.27" stroke-linecap="round" stroke-linejoin="round"/>
<g style="mix-blend-mode:multiply" opacity="0.7">
<path d="M12.755 118.089L12.541 118.176V119.254L12.874 119.157C14.1688 122.468 14.0477 125.862 12.5172 129.152H12.3269V129.972L12.6361 129.918C14.8957 133.412 12.1604 139.45 12.1604 139.45V140.722L12.7075 140.485C14.0274 144.54 13.7536 148.669 11.8988 152.68V154.449C13.3497 157.306 11.7085 163.312 11.7085 163.312C14.8957 167.183 12.327 172.714 11.4707 174.289V175.087C12.832 177.932 12.7751 180.879 11.3042 183.713V184.974C13.5162 188.619 11.875 193.407 11.3042 194.905H11.0901V195.682H11.3042C13.6827 199.078 11.5182 203.974 10.8998 205.267V205.807C12.6611 209.208 12.5796 212.752 10.662 216.136C13.0405 219.792 10.4717 226.067 10.4717 226.067C12.3031 229.701 11.0188 235.049 10.4717 236.99H10.2577V237.767C10.5822 238.46 10.8125 239.163 10.9474 239.869C9.38515 240.044 7.75278 240.044 6.1905 239.869C6.0519 239.163 5.82959 238.461 5.52453 237.767V236.979H5.73858C6.30941 235.038 7.61757 229.701 5.73858 226.057C5.73858 226.057 8.42622 219.792 5.92883 216.126C7.85689 212.746 7.94671 209.205 6.1905 205.807V205.214C6.8089 203.92 8.87813 199.024 6.5948 195.628H6.09534V194.841H6.28558C6.8802 193.342 8.49756 188.543 6.28558 184.91V183.702C7.78376 180.87 7.84885 177.921 6.4759 175.076V174.267C7.33215 172.704 9.90087 167.172 6.7375 163.312C6.7375 163.312 8.35488 157.295 6.90401 154.427V153.349V152.648C8.72389 148.634 8.98952 144.508 7.68895 140.453L7.14187 140.679V139.407C7.14187 139.407 9.92469 133.358 7.66514 129.864H7.35592V129.045H7.56998C9.08846 125.753 9.20153 122.36 7.903 119.049L7.59379 119.146V118.068L7.78403 117.992C8.47379 116.677 10.4241 112.245 7.78403 108.73V108.115C9.03555 105.494 9.26899 102.794 8.47381 100.136H8.1646V99.8881H12.9215V100.136H13.2308C14.1048 102.81 13.9358 105.533 12.7313 108.18V108.795C15.3952 112.353 13.4448 116.785 12.755 118.089Z" fill="#A95424"/>
<path d="M12.755 118.089L12.541 118.176V119.254L12.874 119.157C14.1688 122.468 14.0477 125.862 12.5172 129.152H12.3269V129.972L12.6361 129.918C14.8957 133.412 12.1604 139.45 12.1604 139.45V140.722L12.7075 140.485C14.0274 144.54 13.7536 148.669 11.8988 152.68V154.449C13.3497 157.306 11.7085 163.312 11.7085 163.312C14.8957 167.183 12.327 172.714 11.4707 174.289V175.087C12.832 177.932 12.7751 180.879 11.3042 183.713V184.974C13.5162 188.619 11.875 193.407 11.3042 194.905H11.0901V195.682H11.3042C13.6827 199.078 11.5182 203.974 10.8998 205.267V205.807C12.6611 209.208 12.5796 212.752 10.662 216.136C13.0405 219.792 10.4717 226.067 10.4717 226.067C12.3031 229.701 11.0188 235.049 10.4717 236.99H10.2577V237.767C10.5822 238.46 10.8125 239.163 10.9474 239.869C9.38515 240.044 7.75278 240.044 6.1905 239.869C6.0519 239.163 5.82959 238.461 5.52453 237.767V236.979H5.73858C6.30941 235.038 7.61757 229.701 5.73858 226.057C5.73858 226.057 8.42622 219.792 5.92883 216.126C7.85689 212.746 7.94671 209.205 6.1905 205.807V205.214C6.8089 203.92 8.87813 199.024 6.5948 195.628H6.09534V194.841H6.28558C6.8802 193.342 8.49756 188.543 6.28558 184.91V183.702C7.78376 180.87 7.84885 177.921 6.4759 175.076V174.267C7.33215 172.704 9.90087 167.172 6.7375 163.312C6.7375 163.312 8.35488 157.295 6.90401 154.427V153.349V152.648C8.72389 148.634 8.98952 144.508 7.68895 140.453L7.14187 140.679V139.407C7.14187 139.407 9.92469 133.358 7.66514 129.864H7.35592V129.045H7.56998C9.08846 125.753 9.20153 122.36 7.903 119.049L7.59379 119.146V118.068L7.78403 117.992C8.47379 116.677 10.4241 112.245 7.78403 108.73V108.115C9.03555 105.494 9.26899 102.794 8.47381 100.136H8.1646V99.8881H12.9215V100.136H13.2308C14.1048 102.81 13.9358 105.533 12.7313 108.18V108.795C15.3952 112.353 13.4448 116.785 12.755 118.089Z" stroke="#882900" stroke-width="0.27" stroke-linecap="round" stroke-linejoin="round"/>
</g>
<g style="mix-blend-mode:screen">
<path d="M3.21742 239.481L2.81305 239.395C0.434574 235.804 4.71587 231.178 4.71587 231.178C2.84547 233.86 2.33327 236.698 3.21742 239.481Z" fill="#C06A42"/>
</g>
<g style="mix-blend-mode:screen">
<path d="M3.71688 219.059C2.56828 216.065 3.00026 212.991 4.97746 210.087C4.97746 210.087 0.00645924 215.403 3.71688 219.059Z" fill="#C06A42"/>
</g>
<g style="mix-blend-mode:screen">
<path d="M4.24013 197.817C3.09192 194.822 3.5322 191.747 5.52452 188.845C5.52452 188.845 0.482141 194.172 4.24013 197.817Z" fill="#C06A42"/>
</g>
<g style="mix-blend-mode:screen">
<path d="M5.19155 186.538C4.04295 183.544 4.47494 180.47 6.45213 177.567C6.45213 177.567 1.33842 182.893 5.19155 186.538Z" fill="#C06A42"/>
</g>
<g style="mix-blend-mode:screen">
<path d="M5.78615 142.189C4.65157 139.194 5.09164 136.12 7.07054 133.217C7.07054 133.217 2.02816 138.566 5.78615 142.189Z" fill="#C06A42"/>
</g>
<g style="mix-blend-mode:screen">
<path d="M6.57107 110.671C5.45077 107.676 5.89055 104.604 7.85539 101.7C7.85539 101.7 2.83687 107.026 6.57107 110.671Z" fill="#C06A42"/>
</g>
</svg>
