<svg width="1440" height="2097" viewBox="0 0 1440 2097" fill="none" xmlns="http://www.w3.org/2000/svg">
<path d="M1486.05 241.268C1452.87 249.065 1422.53 264.517 1389.22 271.606C1350.94 279.97 1312.8 288.901 1274.67 297.407C1194.43 315.411 1110.64 314.844 1028.98 313.852C954.693 312.859 880.973 303.219 807.111 300.668C855.181 277.768 904.446 257.467 954.693 239.85C1020.05 216.459 1087.11 197.321 1153.17 175.347C1209.83 154.483 1262.56 124.191 1309.12 85.7516C1356.47 52.8621 1408.36 23.2333 1452.02 -14.9016C1453.74 -16.0691 1455.02 -17.7758 1455.66 -19.7523C1456.31 -21.7289 1456.27 -23.8627 1455.57 -25.8174H1454.71C1407.36 -27.5186 1360.01 10.4744 1322.02 33.8657C1274.41 62.8441 1224.53 87.9239 1172.88 108.859C1171.18 108.859 1169.05 108.859 1169.19 106.591C1170.75 11.7503 1213.71 -77.7035 1249.57 -164.18C1265.88 -203.591 1283.03 -242.576 1298.34 -282.554C1314.5 -325.084 1335.63 -363.502 1355.05 -404.189C1359.59 -413.545 1347.96 -414.963 1342.72 -409.576C1311.39 -377.537 1291.4 -333.164 1272.97 -292.903C1254.54 -252.642 1236.39 -214.365 1220.37 -174.387C1213.14 -161.912 1206.19 -149.295 1199.39 -136.394C1192.02 -109.034 1185.21 -81.2477 1178.69 -53.6035C1178.69 -51.1935 1174.15 -51.0517 1173.87 -53.6035C1165.36 -113.854 1128.5 -168.575 1128.22 -229.959C1128.22 -273.906 1144.95 -313.601 1161.53 -353.437C1165.83 -370.21 1165.59 -387.825 1160.83 -404.472L1152.75 -405.606C1129.21 -341.981 1113.32 -275.785 1105.39 -208.411C1105.57 -190.128 1107.76 -171.92 1111.92 -154.115C1112.56 -148.015 1113.56 -141.956 1114.89 -135.969C1127.79 -78.4123 1130.63 108.434 1047.41 133.385C1000.91 147.561 1004.88 142.316 957.954 155.5C935.554 161.879 913.013 168.259 891.322 176.481C862.968 187.114 837.307 203.7 809.946 215.892C817.46 198.171 825.257 180.451 832.062 162.305C842.387 128.997 849.741 94.8398 854.036 60.234C860.084 23.268 870.065 -12.9459 883.808 -47.7911C897.985 -83.3741 914.289 -118.674 926.339 -154.965C950.723 -229.959 956.819 -306.512 972.698 -383.066C979.928 -418.79 991.978 -453.948 1001.05 -488.822C1008.28 -515.758 1027.28 -539.999 1029.41 -567.927C1030.26 -578.56 1019.77 -576.858 1013.95 -571.755C979.219 -541.275 959.797 -493.926 945.336 -451.113C936.873 -421.228 930.104 -390.889 925.063 -360.241C917.974 -326.927 904.79 -295.596 897.56 -262.14C895.291 -251.366 893.448 -240.45 891.605 -229.392C887.069 -221.028 882.674 -212.522 877.428 -204.441C848.929 -144.109 827.292 -80.7692 812.923 -15.6104C811.789 -11.0739 810.513 -6.3957 809.521 -1.43392C809.191 -1.02629 808.745 -0.729857 808.241 -0.584984C807.737 -0.44011 807.201 -0.453799 806.706 -0.624137C806.21 -0.794475 805.779 -1.11323 805.471 -1.5371C805.163 -1.96097 804.993 -2.46943 804.984 -2.99334C803.115 -30.5335 798.605 -57.8304 791.516 -84.5082C786.633 -109.38 784.776 -134.751 785.987 -160.069C785.987 -171.41 787.404 -182.61 788.822 -193.809C788.217 -208.124 789.697 -222.45 793.217 -236.339C802.574 -271.638 821.571 -309.206 821.571 -346.632C833.338 -378.954 841.702 -412.978 832.487 -441.898C830.502 -447.994 822.563 -447.427 818.31 -445.584L815.191 -444.166C783.694 -356.072 762.986 -264.486 753.522 -171.41C746.291 -114.704 771.668 -65.7952 773.936 -11.3574C775.354 24.2256 752.529 68.7398 743.172 103.33C732.823 141.465 723.466 177.474 698.94 209.087C674.414 240.701 639.822 261.115 607.357 282.805C530.188 331.91 458.348 388.924 393.001 452.923C363.814 479.933 336.573 508.973 311.483 539.825C306.805 545.921 302.552 552.301 298.44 558.822C298.44 530.469 300.709 502.116 303.544 473.763C304.678 462.422 306.238 451.08 307.939 439.881C304.229 394.179 303.85 348.267 306.805 302.51C310.437 245.242 318.638 188.355 331.331 132.392C333.316 100.495 337.002 68.1728 342.106 35.8504L348.06 18.9803C359.676 -12.1234 380.874 -38.7321 408.596 -57.0058C461.617 -94.8571 524.847 -115.13 578.719 -152.981C625.929 -186.721 663.781 -234.637 697.239 -280.569C706.029 -292.336 755.506 -359.674 719.213 -367.046C690.009 -372.858 655.984 -328.061 640.247 -308.781C626.778 -291.315 614.916 -272.668 604.805 -253.067C593.322 -243.285 582.406 -232.795 571.489 -222.304C541.835 -194.323 509.334 -169.521 474.519 -148.303C441.77 -127.747 404.768 -115.271 372.161 -94.4318C383.775 -133.425 397.983 -171.598 414.692 -208.694C428.869 -241.017 453.537 -262.423 476.362 -288.65C501.88 -317.995 525.981 -348.475 549.94 -379.238C573.899 -410.001 597.858 -441.047 622.952 -471.102C645.493 -498.179 670.728 -522.846 686.323 -555.027C713.401 -611.733 721.482 -674.393 743.031 -733.084C740.282 -735.245 736.887 -736.42 733.39 -736.42C729.894 -736.42 726.498 -735.245 723.75 -733.084C711.581 -725.406 700.717 -715.835 691.568 -704.731C686.323 -695.799 681.502 -686.726 677.391 -677.37C667.581 -657.914 658.826 -637.943 651.164 -617.545C646.169 -600.97 639.569 -584.922 631.458 -569.628C621.477 -556.139 610.583 -543.35 598.851 -531.352C584.674 -513.773 571.347 -495.343 558.73 -476.63C536.614 -443.741 515.348 -410.143 490.68 -378.954C490.441 -378.658 490.139 -378.42 489.795 -378.256C489.452 -378.092 489.076 -378.006 488.696 -378.006C488.315 -378.006 487.939 -378.092 487.596 -378.256C487.252 -378.42 486.95 -378.658 486.711 -378.954C475.352 -409.819 469.126 -442.336 468.281 -475.213C465.964 -510.481 466.961 -545.888 471.258 -580.97C480.477 -651.546 500.713 -720.24 531.226 -784.544C523.273 -786.255 514.971 -785.047 507.835 -781.142C491.106 -738.612 471.967 -696.083 457.506 -653.553C449.118 -630.191 443.504 -605.925 440.777 -581.253C438.651 -557.72 438.509 -534.187 438.509 -510.371C438.509 -486.554 436.666 -464.013 434.965 -440.764C430.853 -382.924 454.529 -353.153 417.952 -298.999C390.591 -258.738 351.037 -228.116 326.227 -186.296C295.335 -130.773 272.155 -71.2983 257.327 -9.51452C243.15 41.6627 240.598 110.277 214.796 156.776C218.199 150.68 196.791 94.6829 194.807 87.0276C186.726 54.8469 194.807 17.4209 189.561 -15.3268C178.503 -80.5388 183.607 -144.9 186.442 -210.963C191.688 -339.26 217.632 -439.488 253.925 -559.563C270.937 -616.269 273.772 -675.81 277.742 -733.934C279.16 -756.475 246.836 -734.785 243.576 -723.585C226.988 -668.155 211.819 -612.3 195.941 -556.869C175.526 -485.987 139.233 -416.664 136.539 -342.521C133.846 -281.136 120.094 -236.906 100.246 -141.781C86.0693 -167.299 87.9123 -201.039 86.0693 -229.817C84.3937 -264.366 77.2644 -298.433 64.9455 -330.754C38.5764 -401.637 18.4451 -473.37 -8.7747 -543.402C-34.8603 -610.457 -65.4826 -676.519 -86.7481 -745.559C-102.91 -799.146 -115.102 -862.09 -89.0163 -914.543C-103.193 -916.811 -117.37 -907.88 -131.547 -904.336C-144.408 -875.189 -152.544 -844.179 -155.648 -812.472C-160.78 -764.633 -150.498 -716.405 -126.302 -674.818C-115.527 -640.511 -102.343 -606.346 -89.867 -573.031C-112.834 -587.207 -137.36 -599.115 -160.752 -611.307C-200.731 -632.572 -240.71 -653.837 -279.555 -676.661C-298.17 -687.496 -316.156 -699.376 -333.428 -712.244C-345.138 -723.696 -359.907 -731.523 -375.958 -734.785C-380.598 -734.804 -385.166 -733.642 -389.233 -731.41C-393.3 -729.179 -396.733 -725.949 -399.209 -722.026C-399.209 -714.229 -398.075 -706.857 -390.703 -703.738C-379.448 -697.359 -369.141 -689.438 -360.08 -680.205C-345.903 -669.006 -331.726 -658.232 -317.549 -648.024C-264.972 -612.982 -209.806 -581.988 -152.529 -555.31C-127.536 -544.297 -104.126 -529.994 -82.9202 -512.781C-62.9207 -494.125 -46.993 -471.537 -36.1363 -446.434C-10.9302 -388.714 7.61939 -328.311 19.154 -266.393C19.3707 -265.798 19.3707 -265.145 19.154 -264.55C30.3538 -207.844 34.7486 -149.295 41.27 -91.4547C44.6725 -62.2511 55.447 -34.7487 59.4165 -5.40332C60.0787 12.9838 59.0823 31.3933 56.4394 49.6016C35.741 24.5092 11.6402 2.81912 -10.0506 -21.2809C-41.5235 -55.8716 -74.4141 -89.1865 -108.297 -121.509C-175.354 -185.729 -245.956 -245.979 -316.699 -305.804C-340.232 -334.157 -360.08 -362.51 -382.338 -392.706C-412.677 -433.534 -443.157 -474.504 -456.625 -524.547C-459.603 -535.888 -475.481 -521.712 -476.898 -515.899C-479.025 -505.976 -480.585 -496.052 -481.86 -485.987C-470.377 -440.339 -425.153 -397.951 -405.305 -358.398C-386.733 -322.532 -373.407 -285.673 -344.344 -256.469C-324.087 -237.939 -304.827 -218.348 -286.643 -197.779C-317.779 -221.345 -352.74 -239.376 -389.994 -251.082C-500.007 -283.688 -610.871 -313.317 -718.616 -352.586C-736.69 -358.975 -753.96 -367.443 -770.078 -377.82C-778.443 -383.774 -792.62 -373.425 -791.202 -363.644C-790.116 -356.481 -788.457 -349.418 -786.24 -342.521L-780.995 -335.007C-771.921 -321.681 -754.767 -322.815 -740.023 -320.831C-667.153 -307.505 -601.514 -272.489 -534.032 -243.427C-501.482 -229.521 -467.683 -218.746 -433.092 -211.246C-400.059 -204.016 -279.271 -112.011 -254.036 -93.0142C-182.558 -39.2366 -124.239 30.0844 -83.4873 109.71C-51.7309 171.52 -40.9565 202.141 -41.8071 269.338C-41.8071 327.036 -35.8527 406.566 -48.7538 460.295C-87.0316 448.812 -102.059 403.589 -130.98 379.205C-166.399 349.529 -204.349 323.012 -244.396 299.959C-258.573 291.453 -274.31 283.514 -289.479 275.859L-298.694 266.077C-316.428 248.698 -333.273 230.434 -349.164 211.356C-364.988 187.22 -377.437 161.035 -386.166 133.527C-407.006 80.9317 -432.241 31.3139 -457.051 -19.2962C-478.6 -60.8334 -497.03 -109.175 -536.725 -136.394C-546.649 -143.199 -560.401 -130.015 -557.565 -119.382C-547.5 -81.9564 -520.138 -53.6035 -502.134 -20.1469C-480.585 20.1144 -470.802 64.9121 -455.633 108.434C-455.366 109.4 -455.034 110.347 -454.641 111.269C-446.012 145.846 -435.071 179.804 -421.892 212.915L-440.889 203.842C-530.487 159.47 -681.898 84.7594 -724.428 -11.6409C-742.717 -53.0363 -750.939 -96.7 -772.914 -137.103C-822.108 -226.557 -894.269 -301.551 -955.513 -380.939C-960.617 -387.602 -975.077 -377.111 -969.69 -370.165C-940.344 -325.651 -916.952 -276.033 -890.157 -229.817C-887.18 -224.572 -884.061 -219.61 -880.942 -214.507C-858.968 -181.759 -838.411 -148.303 -819.981 -113.57C-798.007 -72.5999 -780.711 -28.511 -759.871 12.4591C-759.533 13.2817 -759.481 14.1938 -759.724 15.0493C-759.966 15.9048 -760.489 16.6541 -761.208 17.1771C-761.927 17.7001 -762.801 17.9664 -763.69 17.9335C-764.578 17.9006 -765.43 17.5703 -766.109 16.9956C-800.007 -17.0494 -835.941 -49.0053 -873.712 -78.6959C-909.987 -109.077 -948.518 -136.659 -988.971 -161.203C-1045.68 -193.951 -1114.01 -209.262 -1168.31 -246.262C-1176.96 -239.174 -1182.49 -229.25 -1174.83 -220.177C-1126.63 -157.659 -1056.6 -119.382 -990.53 -79.2629C-957.356 -59.1323 -924.324 -36.7334 -891.292 -13.9092C-926.734 -22.1316 -962.176 -28.0857 -998.186 -33.4728C-1058.3 -42.6875 -1120.96 -40.2775 -1179.08 -59.1323C-1243.23 -82.0112 -1303.05 -115.562 -1356.01 -158.368C-1360.83 -162.054 -1372.6 -152.697 -1367.92 -148.161C-1329.49 -109.017 -1287.43 -73.6062 -1242.31 -42.404C-1187.59 -6.39569 -1133.43 0.125491 -1069.78 7.63904C-1004.5 13.3265 -939.821 24.4705 -876.406 40.9539C-841.194 52.1929 -806.882 66.0782 -773.764 82.4911C-740.165 119.917 -603.641 198.738 -526.376 254.736C-486.736 276.011 -445.884 294.945 -404.029 311.442C-372.839 323.633 -340.8 333.841 -310.603 348.301C-285.045 360.465 -261.21 375.957 -239.718 394.374C-206.103 413.562 -174.762 436.485 -146.291 462.705C-117.566 484.268 -92.1971 509.971 -71.0116 538.975C-53.9992 562.933 -28.4807 592.704 -28.4807 624.034C-28.4817 628.489 -28.7658 632.94 -29.3313 637.36C-25.9288 702.713 -21.9593 768.351 -19.5492 833.846C-19.5492 843.061 -19.5492 852.276 -18.8403 862.199C-5.51398 930.53 -13.7367 1006.23 -20.1163 1072.15C-34.2933 1220.58 -13.3113 1369.86 -43.7919 1517.44C-56.9196 1584.3 -66.385 1651.84 -72.1458 1719.74C-77.6748 1780.98 -93.2695 1836.98 -139.486 1880.07C-257.439 1990.37 -437.203 1964 -580.107 2017.87C-585.352 2017.87 -590.598 2017.87 -595.702 2018.72C-600.805 2019.57 -603.215 2025.38 -600.096 2027.22C-602.932 2031.19 -604.066 2037.57 -597.97 2035.87L-578.264 2030.63C-536.256 2039 -493.179 2040.58 -450.671 2035.31C-403.341 2027.75 -355.354 2025.14 -307.484 2027.51C-319.955 2033.55 -332.731 2038.95 -345.761 2043.67C-367.807 2053.91 -391.545 2060.01 -415.796 2061.67C-423.451 2061.67 -438.904 2076.7 -427.988 2082.23C-428.98 2084.36 -428.98 2086.77 -426.003 2087.19C-423.026 2087.62 -417.355 2087.9 -413.102 2087.9C-330.45 2114.98 -246.948 2064.37 -162.453 2071.03C-113.968 2074.72 -67.3257 2085.21 -18.5568 2082.09C28.4781 2078.6 75.1128 2070.96 120.803 2059.26C114.707 2065.64 107.477 2071.31 101.097 2077.55C94.7172 2083.79 91.5984 2095.56 102.373 2096.41C130.468 2097.44 158.471 2092.61 184.599 2082.23C209.976 2073.44 233.085 2074.29 252.082 2053.88C264.841 2039.7 304.678 2070.89 318.005 2076.98C338.983 2084.67 361.565 2086.91 383.644 2083.51C386.779 2082.9 389.619 2081.26 391.703 2078.84C393.787 2076.42 394.994 2073.37 395.127 2070.18C393.774 2063.16 391.781 2056.28 389.173 2049.62C396.12 2053.03 403.35 2056.43 410.297 2059.41C426.682 2065.26 443.821 2068.75 461.192 2069.75C501.784 2071.52 542.426 2067.7 581.98 2058.41C627.586 2051.02 673.721 2047.37 719.922 2047.5C764.012 2047.5 808.103 2043.81 851.626 2052.88C859.991 2054.73 873.742 2039.7 865.803 2032.33C825.824 1992.35 777.481 1975.62 724.033 1962.58C656.835 1945.85 591.762 1911.26 528.816 1883.05C480.898 1861.64 430.428 1830.03 403.917 1783.81C398.17 1773.51 393.921 1762.43 391.3 1750.92C381.257 1730.36 373.736 1708.65 368.9 1686.28C355.965 1618.94 350.215 1550.41 351.746 1481.85C350.47 1352.99 334.875 1224.98 324.526 1096.54C313.694 981.23 308.678 865.45 309.498 749.638C338.013 694.335 374.296 643.397 417.244 598.374C476.112 532.06 543.355 473.683 617.281 424.712C633.079 408.201 650.673 393.508 669.736 380.907C686.464 369.565 703.335 358.791 720.489 348.301C740.799 344.648 761.548 344.122 782.017 346.741C820.437 352.412 858.573 358.508 896.993 363.044C939.409 366.865 982.008 368.285 1024.59 367.297C1105.54 367.297 1187.05 365.454 1265.59 342.488C1303.45 331.431 1340.87 318.388 1377.59 304.07C1414.31 289.752 1448.48 268.062 1485.2 255.019C1490.58 253.034 1495.12 239.85 1486.05 241.268Z" fill="#784313"/>
<g style="mix-blend-mode:multiply" opacity="0.6">
<path d="M1492 244.529C1477.82 249.349 1463.65 254.452 1448.48 258.705C1413.46 271.039 1378.58 284.365 1342.72 294.147C1303.03 304.183 1262.73 311.617 1222.07 316.404C1181.67 321.933 1141.26 326.327 1101 331.431C1064.66 337.075 1028.02 340.531 991.269 341.78C916.593 340.619 842.182 332.599 768.974 317.821C768.534 317.721 768.129 317.506 767.799 317.197C767.469 316.889 767.227 316.499 767.097 316.067C766.967 315.634 766.955 315.175 767.06 314.736C767.166 314.297 767.386 313.894 767.698 313.568C781.875 297.832 805.409 292.304 824.406 288.051L841.277 284.932C878.137 268.629 915.564 254.027 953.559 240.418C1018.91 217.026 1085.97 197.888 1152.04 175.914C1208.7 155.05 1261.42 124.758 1307.98 86.3189V86.3189C1355.33 53.4294 1407.22 23.8004 1450.89 -14.3344C1452.07 -15.204 1453.05 -16.3077 1453.78 -17.5762C1454.52 -18.8448 1454.98 -20.2508 1455.14 -21.7062C1418.6 -4.43117 1383.02 14.7818 1348.53 35.8505C1316.86 57.1278 1283.7 76.0796 1249.29 92.5566C1215.77 104.596 1183.49 119.835 1152.89 138.063C1152.4 138.325 1151.83 138.42 1151.28 138.333C1150.73 138.246 1150.23 137.981 1149.84 137.58C1149.46 137.178 1149.21 136.662 1149.15 136.11C1149.08 135.557 1149.2 134.999 1149.48 134.519C1156.93 123.479 1163.11 111.638 1167.91 99.2195C1171.46 7.07221 1213 -80.5387 1248.01 -164.322C1264.32 -203.733 1281.47 -242.718 1296.78 -282.696C1312.94 -325.225 1334.07 -363.644 1353.49 -404.33C1358.03 -413.687 1346.4 -415.104 1341.16 -409.717C1309.83 -377.678 1289.84 -333.306 1271.41 -293.045C1252.98 -252.783 1234.83 -214.507 1218.81 -174.529C1211.58 -162.054 1204.63 -149.437 1197.83 -136.536C1190.46 -109.175 1183.65 -81.3893 1177.13 -53.7451C1177.13 -51.3351 1172.59 -51.1933 1172.31 -53.7451C1163.8 -113.995 1126.94 -168.717 1126.66 -230.101C1126.66 -274.048 1143.39 -313.742 1159.98 -353.578C1164.27 -370.351 1164.03 -387.966 1159.27 -404.614L1151.19 -405.748C1127.65 -342.122 1111.76 -275.927 1103.83 -208.553C1104.01 -190.27 1106.2 -172.061 1110.36 -154.257C1111 -148.156 1112 -142.098 1113.33 -136.111C1113.33 -133.559 1114.47 -130.724 1114.89 -127.746C1120 -112.152 1125.38 -96.7 1130.35 -81.1058C1147.78 -25.6756 1155.01 29.8964 1133.89 85.4683C1123 108.557 1105.35 127.789 1083.28 140.615C1058.07 156.593 1031.39 170.122 1003.6 181.018C934.987 209.371 865.378 234.747 795.06 259.272C794.638 259.357 794.202 259.333 793.791 259.204C793.381 259.074 793.01 258.843 792.713 258.532C792.416 258.221 792.203 257.84 792.092 257.424C791.982 257.008 791.979 256.571 792.083 256.154C798.197 237.392 805.782 219.142 814.766 201.574C820.295 188.815 825.682 175.914 830.502 162.872C841.389 129.429 849.265 95.0795 854.036 60.2341C860.084 23.2682 870.065 -12.9458 883.808 -47.791C897.985 -83.374 914.288 -118.674 926.339 -154.965C950.723 -229.959 956.819 -306.512 972.697 -383.065C979.928 -418.79 991.978 -453.948 1001.05 -488.822C1008.28 -515.758 1027.28 -539.999 1029.41 -567.927C1029.55 -568.973 1029.49 -570.039 1029.23 -571.062C1028.96 -572.084 1028.49 -573.043 1027.85 -573.881C964.758 -495.91 953.275 -390.863 931.868 -295.171C920.007 -237.281 905.052 -180.067 887.069 -123.777C868.355 -68.3469 842.128 -16.1773 823.272 39.2528C810.796 76.2535 799.738 113.963 786.129 150.68C779.324 169.251 770.676 187.397 764.154 206.11C759.618 219.436 755.79 233.188 749.977 245.946C736.651 275.859 712.266 293.863 685.897 311.867C656.409 331.856 625.362 349.718 595.59 368.573C565.818 387.428 538.882 411.103 511.946 432.368C485.009 453.632 459.491 472.912 433.831 494.177C382.226 536.707 332.89 584.056 301.701 644.023C301.405 644.472 300.975 644.815 300.472 645.005C299.969 645.195 299.419 645.221 298.9 645.079C298.381 644.938 297.92 644.636 297.583 644.217C297.246 643.798 297.05 643.284 297.023 642.747C297.023 614.394 297.023 586.041 299.007 557.688C299.007 529.335 301.276 500.982 304.111 472.629C305.245 461.288 306.805 449.946 308.506 438.747C304.796 393.045 304.417 347.134 307.372 301.377C311.004 244.108 319.205 187.221 331.898 131.258C333.883 99.3612 337.569 67.0388 342.673 34.7164L348.627 17.8463C360.243 -13.2574 381.441 -39.8662 409.163 -58.1399C462.184 -95.9912 525.414 -116.264 579.286 -154.115C626.496 -187.855 664.348 -235.772 697.806 -281.703C706.596 -293.47 756.073 -360.808 719.78 -368.18C690.576 -373.993 656.551 -329.195 640.815 -309.915C627.345 -292.45 615.483 -273.802 605.372 -254.201C593.889 -244.419 582.972 -233.929 572.056 -223.438C542.401 -195.457 509.901 -170.655 475.086 -149.437C442.337 -128.881 405.335 -116.405 372.728 -95.5658C384.342 -134.559 398.55 -172.732 415.259 -209.828C429.436 -242.151 454.104 -263.557 476.928 -289.784C502.447 -319.129 526.548 -349.609 550.507 -380.372C574.466 -411.135 598.425 -442.182 623.519 -472.236C646.06 -499.313 671.295 -523.98 686.89 -556.161C713.968 -612.867 722.049 -675.527 743.598 -734.218C740.849 -736.379 737.454 -737.554 733.957 -737.554C730.461 -737.554 727.065 -736.379 724.317 -734.218C712.148 -726.54 701.284 -716.969 692.135 -705.865C686.89 -696.933 682.069 -687.86 677.958 -678.504C668.148 -659.048 659.393 -639.077 651.731 -618.679C646.735 -602.104 640.136 -586.056 632.025 -570.762C621.904 -556.864 610.819 -543.695 598.851 -531.352C584.674 -513.773 571.347 -495.343 558.73 -476.63C536.614 -443.741 515.348 -410.143 490.68 -378.954C490.441 -378.658 490.139 -378.42 489.795 -378.256C489.452 -378.092 489.076 -378.006 488.695 -378.006C488.315 -378.006 487.939 -378.092 487.596 -378.256C487.252 -378.42 486.95 -378.658 486.711 -378.954C475.351 -409.819 469.126 -442.335 468.281 -475.213C465.964 -510.481 466.961 -545.888 471.258 -580.97C480.477 -651.546 500.713 -720.24 531.226 -784.544C523.273 -786.255 514.97 -785.047 507.834 -781.142C491.106 -738.612 471.967 -696.083 457.506 -653.553C449.118 -630.191 443.504 -605.925 440.777 -581.253C438.934 -560.839 438.509 -540.425 438.509 -519.869C438.509 -506.685 438.509 -493.5 439.927 -480.458C441.202 -460.327 443.187 -440.48 445.314 -420.491C447.44 -400.503 452.261 -378.671 452.97 -357.406C454.245 -318.704 434.823 -286.523 414.55 -254.768C374.157 -192.638 342.304 -125.358 319.848 -54.7374C308.623 -19.5316 299.906 16.4249 293.762 52.8623C287.524 91.4224 284.972 130.266 278.026 168.684C263.849 248.073 244.001 325.477 243.292 406.85C242.441 484.679 248.254 562.791 236.203 640.62C236.203 643.314 231.95 642.747 231.242 640.62C215.93 595.256 218.908 546.347 220.184 498.855C221.459 444.701 216.923 390.689 217.206 336.534C217.315 311.293 219.927 286.125 225.004 261.399C230.107 235.597 236.912 206.819 230.674 180.593C227.839 168.543 224.011 156.776 220.184 145.151C218.341 148.979 216.639 152.665 214.654 156.067C218.057 149.971 196.65 93.9742 194.665 86.3189C186.584 54.1382 194.665 16.7121 189.419 -16.0356C178.361 -81.2476 183.465 -145.609 186.301 -211.671C191.546 -339.969 217.49 -440.197 253.783 -560.272C270.795 -616.978 273.631 -676.519 277.6 -734.643C278.593 -750.095 263.423 -744.708 253.216 -736.344C249.29 -678.465 238.097 -621.31 219.9 -566.226C196.609 -495.549 177.158 -423.663 161.633 -350.885C133.279 -195.936 140.367 -38.1509 150.007 118.216C150.007 121.193 145.754 121.477 145.045 118.216C121.601 30.9185 106.973 -58.5104 101.38 -148.728L100.104 -143.057C85.9275 -168.575 87.7705 -202.315 85.9275 -231.093C84.2519 -265.642 77.1227 -299.708 64.8038 -332.03C38.4347 -402.913 18.3033 -474.646 -8.91651 -544.678C-35.0022 -611.733 -65.6244 -677.795 -86.8899 -746.835C-103.052 -800.422 -115.244 -863.366 -89.1581 -915.819C-103.024 -915.659 -116.681 -912.414 -129.137 -906.32C-132.593 -836.227 -124.646 -766.038 -105.603 -698.493C-83.6292 -626.476 -41.3817 -562.965 -17.2809 -491.799C-17.1589 -491.264 -17.2127 -490.704 -17.4342 -490.202C-17.6558 -489.7 -18.0333 -489.283 -18.5108 -489.012C-18.9883 -488.742 -19.5403 -488.632 -20.0849 -488.7C-20.6294 -488.768 -21.1377 -489.01 -21.534 -489.389C-49.888 -522.562 -82.0697 -553.184 -111.133 -586.073C-127.72 -595.288 -144.59 -603.935 -160.61 -612.583C-200.589 -633.848 -240.568 -655.113 -279.413 -677.937C-298.028 -688.771 -316.014 -700.651 -333.286 -713.52C-344.997 -724.972 -359.765 -732.799 -375.817 -736.061C-380.456 -736.079 -385.024 -734.918 -389.091 -732.686C-393.158 -730.454 -396.591 -727.225 -399.067 -723.302C-399.067 -715.505 -397.933 -708.133 -390.561 -705.014C-379.275 -698.232 -369.012 -689.879 -360.08 -680.205C-345.903 -669.006 -331.726 -658.232 -317.549 -648.024C-264.972 -612.982 -209.806 -581.988 -152.529 -555.31C-127.536 -544.297 -104.126 -529.994 -82.9202 -512.781C-62.9207 -494.125 -46.993 -471.537 -36.1363 -446.434C-10.9303 -388.714 7.61938 -328.311 19.154 -266.393C19.3707 -265.798 19.3707 -265.145 19.154 -264.55C30.3538 -207.844 34.7486 -149.295 41.27 -91.4547C44.6725 -62.251 55.447 -34.7486 59.4165 -5.40318C60.0787 12.984 59.0823 31.3935 56.4394 49.6017C35.741 24.5093 11.6402 2.81921 -10.0506 -21.2809C-41.5235 -55.8715 -74.4141 -89.1864 -108.297 -121.509C-175.354 -185.728 -245.956 -245.979 -316.699 -305.803C-340.232 -334.157 -360.08 -362.51 -382.338 -392.706C-412.677 -433.534 -443.157 -474.504 -456.625 -524.547C-458.468 -531.352 -464.99 -528.942 -470.802 -524.547C-440.464 -449.412 -408.14 -372.008 -355.26 -310.198C-285.793 -229.109 -207.819 -157.092 -136.084 -78.8376C-134.241 -76.8529 -136.084 -73.3087 -139.203 -75.0099C-203.141 -116.405 -252.619 -175.521 -311.311 -223.721C-302.709 -215.333 -294.568 -206.484 -286.927 -197.211C-318.063 -220.778 -353.023 -238.809 -390.277 -250.515C-500.29 -283.121 -611.155 -312.75 -718.9 -352.019C-736.973 -358.408 -754.244 -366.876 -770.362 -377.253C-778.726 -383.207 -792.903 -372.858 -791.486 -363.077C-791.068 -360.167 -790.501 -357.28 -789.784 -354.429C-736.763 -324.375 -674.1 -318.279 -617.251 -297.723C-583.651 -285.815 -552.604 -268.377 -519.004 -256.611C-482.428 -243.569 -445 -232.936 -408.707 -219.327C-343.763 -194.635 -283.679 -158.691 -231.212 -113.145C-178.048 -67.7799 -130.555 -16.4608 -79.6596 31.314C-40.1058 68.5983 -2.25333 107.867 12.349 161.88C32.622 236.448 20.2881 315.978 22.1311 392.248C24.1159 472.912 45.3813 552.301 56.0141 632.398C66.5393 707.526 69.1054 783.555 63.6697 859.222C63.6697 859.899 63.4008 860.548 62.9223 861.027C62.4437 861.505 61.7946 861.774 61.1178 861.774C60.441 861.774 59.7919 861.505 59.3133 861.027C58.8348 860.548 58.5659 859.899 58.5659 859.222C51.2654 766.456 32.7476 674.918 3.4175 586.608C-15.0466 537.002 -40.3874 490.235 -71.8622 447.678C-94.5454 428.965 -108.722 397.919 -130.98 379.206C-166.399 349.529 -204.349 323.012 -244.396 299.959C-258.573 291.453 -274.31 283.514 -289.479 275.859L-298.694 266.077C-316.428 248.698 -333.273 230.434 -349.164 211.356C-364.988 187.221 -377.437 161.035 -386.166 133.527C-407.006 80.9318 -432.241 31.314 -457.051 -19.2962C-478.6 -60.8333 -497.03 -109.175 -536.725 -136.394C-538.093 -137.346 -539.669 -137.958 -541.32 -138.18C-542.972 -138.402 -544.653 -138.227 -546.224 -137.67C-526.376 -98.6847 -506.67 -59.6992 -486.539 -20.8556C-464.205 17.0302 -444.774 56.5541 -428.413 97.3765C-415.087 136.078 -405.305 175.631 -383.756 210.789C-362.814 243.348 -339.098 274.036 -312.871 302.511C-311.028 304.637 -312.871 308.181 -315.848 306.48C-366.58 271.906 -415.156 234.268 -461.304 193.777C-551.895 148.554 -685.867 77.8129 -725.704 -11.9244C-743.993 -53.3198 -752.215 -96.9835 -774.19 -137.387C-822.108 -226.557 -894.269 -301.551 -955.513 -380.939C-958.207 -384.341 -963.452 -383.207 -967.28 -380.939C-945.589 -349.609 -921.063 -320.547 -897.529 -290.776C-867.988 -254.67 -842.859 -215.17 -822.675 -173.111C-802.808 -126.313 -779.838 -80.8947 -753.917 -37.1586C-732.368 -3.27673 -703.447 30.6051 -695.791 71.0082C-695.653 71.5053 -695.669 72.0324 -695.837 72.5201C-696.005 73.0079 -696.317 73.4333 -696.731 73.7403C-697.146 74.0473 -697.644 74.2215 -698.159 74.24C-698.675 74.2584 -699.183 74.1202 -699.619 73.8436C-747.537 50.4523 -783.688 11.1833 -816.295 -30.4956C-835.293 -47.5074 -854.573 -63.8104 -874.421 -79.4046C-910.493 -109.512 -948.785 -136.856 -988.971 -161.203C-1040.29 -190.548 -1099.98 -205.859 -1150.87 -235.913C-1139.53 -226.131 -1128.61 -215.783 -1117.7 -205.576C-1087.62 -175.769 -1054.34 -149.382 -1018.46 -126.896C-942.329 -81.6729 -862.512 -39.7104 -802.118 26.3522C-801.777 26.764 -801.574 27.2727 -801.538 27.8062C-801.501 28.3398 -801.633 28.8713 -801.915 29.3257C-802.198 29.78 -802.615 30.1343 -803.109 30.3384C-803.604 30.5426 -804.15 30.5863 -804.67 30.4634C-845.93 16.9465 -885.806 -0.475029 -923.757 -21.5645C-948.425 -26.3845 -973.235 -30.4956 -997.761 -34.1815C-1057.87 -43.3963 -1120.53 -40.9862 -1178.66 -59.841C-1242.8 -82.7199 -1302.62 -116.271 -1355.59 -159.077C-1357.71 -160.778 -1361.4 -159.077 -1364.24 -157.659C-1352.59 -143.341 -1339.53 -130.232 -1325.25 -118.532C-1303.39 -99.5436 -1280.22 -82.111 -1255.92 -66.3622C-1224.73 -48.0769 -1190.4 -35.7692 -1154.7 -30.0703C-1119.12 -22.415 -1083.81 -12.6332 -1048.23 -6.25374C-1009.24 0.69275 -970.116 6.22155 -931.412 14.3022C-899.324 19.6019 -868.091 29.1858 -838.553 42.797C-819.297 52.8179 -800.774 64.1874 -783.121 76.8206L-773.906 81.0735C-770.869 84.4132 -767.65 87.5842 -764.266 90.5719C-748.246 102.338 -732.509 114.672 -716.773 126.722C-660.065 165.849 -579.398 215.042 -526.518 253.318C-486.878 274.593 -446.025 293.528 -404.171 310.024C-372.981 322.216 -340.941 332.423 -310.744 346.883C-285.187 359.047 -261.352 374.539 -239.859 392.957C-206.245 412.145 -174.904 435.067 -146.433 461.288C-117.554 483.271 -92.1309 509.458 -71.0116 538.975C-56.8347 559.956 -34.8603 585.332 -29.7566 612.267C-8.98741 651.245 6.64289 692.75 16.7439 735.745C29.9473 796.439 38.5253 858.047 42.4042 920.039C49.4927 1001.84 60.6925 1084.2 55.447 1166.29C51.7482 1205.3 45.5448 1244.03 36.8752 1282.25C29.6069 1322.27 24.8718 1362.7 22.6982 1403.32C21.8476 1417.49 21.1387 1431.67 20.4298 1445.85C26.0167 1502.72 22.6682 1560.12 10.506 1615.96C2.70865 1656.51 -7.357 1696.49 -17.848 1736.32C-26.4959 1768.65 -33.7262 1801.82 -44.0754 1833.57C-49.9844 1854.76 -61.4933 1873.95 -77.3912 1889.15C-102.174 1909.25 -129.786 1925.58 -159.334 1937.63C-189.905 1952.14 -222.353 1962.3 -255.738 1967.83C-293.732 1973.64 -332.293 1974.35 -370.429 1980.73C-436.636 1991.78 -499.156 2013.33 -563.52 2031.19C-526.07 2037.86 -487.816 2038.72 -450.104 2033.75C-402.774 2026.19 -354.787 2023.58 -306.917 2025.95C-319.388 2031.99 -332.164 2037.39 -345.194 2042.11C-367.24 2052.35 -390.978 2058.45 -415.229 2060.11C-422.884 2060.11 -438.337 2075.14 -427.421 2080.67C-428.413 2082.8 -428.413 2085.21 -425.436 2085.63C-422.459 2086.06 -416.788 2086.34 -412.535 2086.34C-329.883 2113.42 -246.381 2062.81 -161.886 2069.47C-113.401 2073.16 -66.7586 2083.65 -17.9898 2080.53C29.0452 2077.04 75.6799 2069.4 121.37 2057.7C115.274 2064.08 108.044 2069.75 101.664 2075.99C95.2843 2082.23 92.1653 2094 102.94 2094.85C131.035 2095.88 159.038 2091.05 185.166 2080.67C210.543 2071.88 233.652 2072.73 252.649 2052.32C265.408 2038.14 305.245 2069.33 318.572 2075.43C339.55 2083.11 362.132 2085.35 384.211 2081.95C387.346 2081.34 390.186 2079.7 392.27 2077.28C394.354 2074.86 395.561 2071.81 395.694 2068.62C394.341 2061.6 392.347 2054.72 389.74 2048.06C396.687 2051.47 403.917 2054.87 410.864 2057.85C427.249 2063.7 444.388 2067.19 461.759 2068.19C502.351 2069.96 542.993 2066.14 582.547 2056.85C628.153 2049.46 674.288 2045.81 720.489 2045.94C764.579 2045.94 808.67 2042.25 852.193 2051.32C860.558 2053.17 874.309 2038.14 866.37 2030.77C826.391 1990.79 778.048 1974.06 724.6 1961.02C657.401 1944.29 592.329 1909.7 529.383 1881.49C481.465 1860.08 430.995 1828.47 404.484 1782.25C398.737 1771.95 394.488 1760.87 391.867 1749.37C381.824 1728.8 374.304 1707.09 369.467 1684.72C356.532 1617.38 350.782 1548.85 352.313 1480.29C351.037 1351.43 335.442 1223.42 325.093 1094.98C314.261 979.67 309.245 863.89 310.065 748.078C338.58 692.775 374.863 641.838 417.811 596.815C476.679 530.501 543.922 472.124 617.848 423.153C633.551 407.22 650.95 393.054 669.735 380.907C686.464 369.566 703.335 358.791 720.489 348.301C740.799 344.648 761.548 344.122 782.017 346.741C820.437 352.412 858.573 358.508 896.992 363.044C939.409 366.865 982.008 368.285 1024.59 367.297C1105.54 367.297 1187.05 365.454 1265.59 342.488C1303.45 331.431 1340.87 318.388 1377.59 304.07C1414.31 289.752 1448.48 268.062 1485.2 255.019C1487.17 254.048 1488.85 252.56 1490.05 250.713C1491.24 248.866 1491.92 246.729 1492 244.529V244.529ZM198.634 1566.77C190.979 1678.48 162.341 1793.6 77.5631 1871.71C77.1186 1872.13 76.5377 1872.38 75.9265 1872.4C75.3154 1872.43 74.7146 1872.24 74.2335 1871.86C73.7524 1871.48 73.4231 1870.94 73.3057 1870.34C73.1882 1869.74 73.2903 1869.12 73.5935 1868.59C124.489 1781.4 139.375 1679.62 141.501 1579.96C143.061 1510.77 138.949 1441.45 136.539 1372.27C133.846 1296.71 130.585 1221.43 126.474 1145.45C118.96 1006.52 111.588 865.885 129.734 727.664C119.527 597.099 101.38 466.675 108.611 335.4C108.611 334.723 108.879 334.074 109.358 333.596C109.837 333.117 110.486 332.848 111.163 332.848C111.839 332.848 112.488 333.117 112.967 333.596C113.446 334.074 113.714 334.723 113.714 335.4C145.754 623.75 181.197 912.101 191.121 1202.15C193.247 1263.96 195.516 1325.63 198.351 1387.3C201.869 1447.07 201.964 1506.99 198.634 1566.77V1566.77ZM297.873 1895.1C297.873 1897.37 295.321 1899.78 293.478 1897.51C199.769 1776.16 224.437 1617.52 232.659 1475.19C232.659 1471.93 237.763 1471.93 237.621 1475.19C236.01 1517.98 236.957 1560.82 240.457 1603.49C257.327 1701.45 283.129 1797.14 298.157 1895.1H297.873Z" fill="#7D4515"/>
</g>
<g style="mix-blend-mode:multiply" opacity="0.6">
<path d="M106.342 2070.04C156.381 2037.56 192.715 1987.81 208.416 1930.26C220.609 1882.06 214.229 1833.15 207.566 1784.67C202.179 1744.69 209.125 1704 204.447 1664.02C193.814 1715.2 200.619 1768.08 190.27 1819.96C179.921 1871.85 150.291 1908.14 119.385 1947.55C95.9931 1977.89 75.4364 2018.44 36.7333 2030.91C14.401 2037.56 -8.53649 2041.98 -31.7415 2044.1C-52.5247 2047.45 -73.7374 2047.12 -94.4038 2043.1C-97.0974 2043.1 -96.5303 2038.99 -94.4038 2038.14C-59.3866 2026.23 -31.5997 1997.03 -10.1925 1967.26C9.87018 1940.02 26.5776 1910.46 39.5687 1879.22C71.4669 1803.8 84.7932 1722.57 93.8665 1641.62C93.5442 1642.37 93.2603 1643.12 93.0159 1643.89C68.7733 1709.25 58.2823 1779.14 30.9208 1843.36C19.6855 1873.79 1.75943 1901.3 -21.5341 1923.88C-45.0027 1942.6 -70.2111 1959.02 -96.8138 1972.93C-125.526 1990.65 -155.578 2006.1 -186.696 2019.14C-218.311 2031.19 -250.918 2039.84 -282.391 2052.18C-327.757 2069.75 -384.748 2093.43 -430.965 2069.47C-433.375 2073.44 -433.659 2077.55 -428.839 2079.96C-429.831 2082.09 -429.831 2084.5 -426.854 2084.92C-423.877 2085.35 -418.206 2085.63 -413.953 2085.63C-331.301 2112.71 -247.799 2062.1 -163.304 2068.76C-114.819 2072.45 -68.1763 2082.94 -19.4075 2079.82C27.6274 2076.33 74.2621 2068.69 119.952 2057C115.841 2062.24 111.021 2066.35 106.342 2070.04Z" fill="#7D4515"/>
</g>
<g style="mix-blend-mode:multiply" opacity="0.3">
<path d="M36.8753 1281.82C30.1636 1316.26 25.4302 1351.05 22.6984 1386.02C23.9743 1378.93 25.392 1371.84 27.0932 1364.9C34.0399 1333.85 44.9561 1304.22 54.3129 1273.89C63.7474 1241.61 68.9888 1208.26 69.9077 1174.65C72.6231 1140.75 73.4277 1106.72 72.3177 1072.72C69.3214 1037.26 63.5382 1002.09 55.0218 967.531C50.2017 946.408 45.2397 925.001 40.8449 904.445L42.1208 919.756C49.2093 1001.55 60.4091 1083.92 55.1636 1166C51.5522 1204.96 45.4436 1243.65 36.8753 1281.82V1281.82Z" fill="#7D4515"/>
</g>
<g style="mix-blend-mode:multiply" opacity="0.3">
<path d="M1.43273 93.6905C-13.3814 62.2168 -34.5187 34.131 -60.6624 11.1833C-101.35 -25.5339 -149.977 -50.4845 -195.06 -80.6805C-155.79 -44.2468 -118.788 -5.40318 -79.6596 31.314C-40.5311 68.0311 -2.25333 107.867 12.349 161.88C17.1865 179.989 20.4125 198.49 21.9893 217.168C21.9893 210.08 21.9893 202.992 21.9893 195.903C21.8888 160.816 14.9048 126.089 1.43273 93.6905Z" fill="#7D4515"/>
</g>
<g style="mix-blend-mode:multiply" opacity="0.3">
<path d="M54.88 48.6094C56.2977 52.2953 57.7154 55.9811 59.4166 59.5252C62.252 38.6858 73.5936 19.9728 75.1531 -1.15023C74.887 -32.0819 70.6949 -62.8547 62.6774 -92.7305C56.2977 -124.344 48.5003 -155.674 42.6877 -187.288C37.0169 -215.641 32.9057 -245.412 27.3767 -274.332C22.189 -305.98 13.4381 -336.94 1.29095 -366.621C-5.93931 -382.924 -14.0201 -398.801 -22.6681 -414.396C-4.58151 -366.076 9.64017 -316.396 19.8629 -265.826C20.0796 -265.231 20.0796 -264.578 19.8629 -263.983C31.0627 -207.277 35.4575 -148.728 41.979 -90.8876C45.3814 -61.684 56.1559 -34.1815 60.1255 -4.83615C60.7877 13.551 59.7913 31.9604 57.1483 50.1687L54.88 48.6094Z" fill="#7D4515"/>
</g>
<g style="mix-blend-mode:multiply" opacity="0.3">
<path d="M393.426 553.151C431.624 511.47 473.681 473.496 519.034 439.739C573.19 397.21 633.726 361.485 683.487 314.703C655.133 334.124 624.511 351.561 595.59 370.558C566.669 389.555 538.882 413.088 511.946 434.352C485.009 455.617 459.491 474.897 433.83 496.162C383.219 538.691 334.592 584.198 303.544 642.605C300.709 652.529 297.731 662.452 295.321 672.518C331.047 634.241 359.685 591.428 393.426 553.151Z" fill="#7D4515"/>
</g>
<g style="mix-blend-mode:multiply" opacity="0.3">
<path d="M620.683 -218.193C595.26 -195.299 567.889 -174.665 538.882 -156.525C511.379 -138.521 484.017 -120.942 455.238 -104.922C426.373 -90.5283 399.219 -72.9334 374.287 -52.4692C361.262 -41.6835 350.309 -28.6172 341.964 -13.9091C333.622 4.07275 329.964 23.8723 331.331 43.6475C331.331 62.9275 333.599 82.0658 332.607 101.346C332.607 115.522 330.764 129.699 329.346 143.025C330.055 139.339 330.764 135.795 331.614 132.251C333.599 100.354 337.285 68.0311 342.389 35.7087L348.343 18.8386C359.959 -12.2651 381.158 -38.8738 408.879 -57.1475C461.901 -94.9988 525.13 -115.271 579.003 -153.122C626.212 -186.863 664.065 -234.779 697.522 -280.711C705.036 -290.918 743.314 -343.088 729.562 -361.375L689.441 -302.259C669.568 -271.878 646.518 -243.698 620.683 -218.193V-218.193Z" fill="#7D4515"/>
</g>
<g style="mix-blend-mode:multiply" opacity="0.3">
<path d="M129.734 728.231C124.914 665.571 118.109 603.053 113.147 540.392C112.391 568.745 111.399 597.099 110.17 625.452C108.327 666.138 105.917 706.825 103.649 747.511C101.38 788.198 97.6943 827.325 98.2614 867.019C98.8285 906.714 102.656 946.266 106.342 985.677C110.028 1025.09 113.714 1067.9 119.243 1108.73C122.22 1130.84 124.914 1153.1 128.033 1175.22C128.033 1165.58 127.041 1156.08 126.474 1146.86C118.96 1006.8 111.588 866.452 129.734 728.231Z" fill="#7D4515"/>
</g>
<g style="mix-blend-mode:multiply" opacity="0.6">
<path d="M200.903 781.393C213.52 1069.89 228.406 1358.8 277.884 1643.47C271.221 1493.76 273.914 1343.78 260.304 1194.35C247.687 1055.71 227.272 918.055 200.903 781.393Z" fill="#7D4515"/>
</g>
<g style="mix-blend-mode:multiply" opacity="0.3">
<path d="M832.345 2035.59C797.946 2023.82 762.805 2014.35 727.152 2007.24C689.231 1997.18 650.454 1990.68 611.326 1987.81C582.972 1986.82 556.036 1988.52 528.391 1989.52C477.637 1991.5 421.638 1992.35 386.621 1948.97C355.574 1909.99 344.09 1860.93 324.951 1815.43C326.072 1855.36 330.052 1895.15 336.86 1934.51C344.799 1972.5 361.953 2007.94 365.214 2046.93C365.182 2047.31 365.07 2047.68 364.883 2048.02C364.696 2048.36 364.439 2048.65 364.131 2048.87C363.822 2049.1 363.468 2049.26 363.092 2049.34C362.717 2049.42 362.328 2049.42 361.953 2049.34C326.227 2040.27 285.823 2026.52 274.765 1986.96C267.393 1960.31 267.393 1931.82 261.58 1904.88C256.528 1879.06 246.927 1854.34 233.226 1831.87C233.226 1870.86 248.679 1908.43 247.403 1947.41C245.682 1977.33 233.486 2005.68 212.953 2027.51C193.813 2050.57 170.899 2070.23 145.187 2085.63C139.517 2088.61 133.562 2091.73 127.324 2094.28C146.702 2091.71 165.727 2086.96 184.032 2080.1C209.409 2071.31 232.518 2072.16 251.515 2051.75C264.274 2037.57 304.111 2068.76 317.438 2074.86C338.416 2082.54 360.998 2084.78 383.077 2081.38C386.212 2080.78 389.052 2079.13 391.136 2076.71C393.22 2074.29 394.426 2071.24 394.56 2068.05C393.206 2061.03 391.213 2054.15 388.606 2047.5C395.553 2050.9 402.783 2054.3 409.73 2057.28C426.115 2063.14 443.254 2066.62 460.625 2067.63C501.217 2069.39 541.859 2065.58 581.413 2056.29C627.019 2048.89 673.154 2045.24 719.355 2045.37C763.445 2045.37 807.536 2041.68 851.059 2050.76C853.925 2051.1 856.815 2050.34 859.14 2048.63C850.665 2043.4 841.689 2039.03 832.345 2035.59V2035.59Z" fill="#7D4515"/>
</g>
<g style="mix-blend-mode:multiply" opacity="0.6">
<path d="M-200.731 2065.5C-163.162 2057.14 -124.033 2056.71 -89.1581 2038.42C-62.5248 2024.67 -38.9721 2005.64 -19.9361 1982.48C-0.900113 1959.33 13.2202 1932.54 21.564 1903.75C-25.5035 1969.67 -91.8517 2025.95 -172.093 2045.51C-223.698 2057.99 -277.145 2059.69 -328.04 2073.87C-360.467 2085.48 -395.535 2087.59 -429.122 2079.96C-429.122 2079.96 -429.122 2079.96 -428.271 2079.96C-427.421 2079.96 -429.264 2084.5 -426.287 2084.92C-423.31 2085.35 -417.639 2085.63 -413.386 2085.63C-353.417 2105.34 -293.165 2084.07 -232.204 2073.44C-221.996 2070.89 -211.505 2067.91 -200.731 2065.5Z" fill="#7D4515"/>
</g>
<g style="mix-blend-mode:multiply" opacity="0.6">
<path d="M807.677 2038.42C781.272 2027.46 752.905 2022.01 724.317 2022.4C694.687 2022.4 665.199 2023.4 635.711 2023.11C606.223 2022.83 580.846 2020.28 553.484 2019.85C528.273 2020.36 503.07 2018.51 478.205 2014.32C457.577 2009.73 437.875 2001.68 419.937 1990.51C391.384 1974.52 366.011 1953.43 345.083 1928.27C360.819 1972.22 373.437 2017.44 402.641 2054.59L409.588 2057.7C425.973 2063.56 443.112 2067.05 460.483 2068.05C501.075 2069.82 541.717 2066 581.271 2056.71C626.877 2049.32 673.012 2045.67 719.213 2045.8C755.27 2044.09 791.398 2044.66 827.383 2047.5C820.862 2044.09 814.34 2041.68 807.677 2038.42Z" fill="#7D4515"/>
</g>
<g style="mix-blend-mode:multiply" opacity="0.6">
<path d="M723.325 1960.31C656.126 1943.58 591.053 1908.99 528.107 1880.78C480.189 1859.37 429.719 1827.76 403.208 1781.55C397.461 1771.24 393.212 1760.16 390.591 1748.66C380.549 1728.09 373.028 1706.38 368.191 1684.01C355.256 1616.67 349.506 1548.14 351.037 1479.59C349.761 1350.72 334.166 1222.71 323.817 1094.27C312.985 978.961 307.969 863.181 308.79 747.369C337.304 692.066 373.587 641.129 416.535 596.106C475.403 529.792 542.646 471.415 616.572 422.444C632.711 406.685 650.54 392.755 669.736 380.907C686.464 369.565 703.335 358.791 720.489 348.301C730.344 346.686 740.285 345.645 750.261 345.182C719.355 331.005 670.586 366.163 647.336 381.615C599.822 411.053 554.266 443.538 510.953 478.866C463.602 519.836 418.945 563.925 374.004 607.873C331.473 648.559 288.942 692.932 262.714 745.243C246.045 773.513 239.354 806.564 243.717 839.091C246.978 854.26 252.365 869.004 255.342 884.314C258.108 901.004 259.671 917.87 260.021 934.783C264.983 1018.57 269.945 1101.92 281.428 1185C290.501 1251.2 294.613 1317.41 300.567 1383.47C303.119 1412.53 305.812 1441.59 306.096 1470.8C306.398 1482.01 306.067 1493.22 305.104 1504.4C309.64 1552.45 312.05 1600.8 318.146 1648.85C323.245 1705.14 338.773 1760 363.938 1810.61C393.546 1865.74 442.697 1907.81 501.738 1928.56C566.385 1950.96 635.002 1954.36 701.634 1967.97C735.709 1974.39 769.224 1983.49 801.865 1995.19C817 2000.11 831.33 2007.22 844.396 2016.31C852.381 2023.18 859.999 2030.47 867.221 2038.14C867.869 2036.73 868.067 2035.16 867.788 2033.64C867.508 2032.12 866.766 2030.72 865.662 2029.63C825.682 1990.08 777.197 1973.64 723.325 1960.31Z" fill="#7D4515"/>
</g>
<g style="mix-blend-mode:multiply" opacity="0.6">
<path d="M592.755 -211.104C564.781 -185.862 535.078 -162.603 503.865 -141.498C470.832 -119.382 435.39 -101.803 401.649 -81.2475C379.558 -69.2369 360.238 -52.7188 344.941 -32.7639C333.974 -15.8583 326.547 3.09435 323.108 22.9498C310.066 88.8706 305.812 157.06 298.157 223.831C289.084 302.511 281.003 381.332 273.347 460.295C266.826 528.626 261.864 602.06 289.084 666.847C294.634 659.656 299.077 651.676 302.268 643.172C301.946 643.909 301.567 644.62 301.134 645.299C300.838 645.747 300.408 646.091 299.905 646.281C299.401 646.47 298.851 646.496 298.333 646.355C297.814 646.213 297.353 645.912 297.016 645.493C296.679 645.074 296.483 644.56 296.456 644.023C296.456 615.67 296.456 587.317 298.44 558.964C298.44 530.611 300.709 502.258 303.544 473.905C304.678 462.563 306.238 451.222 307.939 440.023C304.229 394.321 303.85 348.409 306.805 302.652C310.437 245.384 318.638 188.497 331.331 132.534C333.316 100.637 337.002 68.3146 342.105 35.9922L348.06 19.1222C359.676 -11.9815 380.874 -38.5903 408.596 -56.8639C461.617 -94.7152 524.847 -114.988 578.719 -152.839C625.929 -186.579 663.781 -234.496 697.239 -280.427C705.178 -291.343 747.709 -348.9 726.302 -363.927C688.313 -307.632 643.451 -256.295 592.755 -211.104Z" fill="#7D4515"/>
</g>
<g style="mix-blend-mode:multiply" opacity="0.6">
<path d="M-108.581 -120.8C-156.924 -167.157 -207.819 -211.388 -258.148 -255.052C-226.533 -213.656 -193.359 -173.678 -158.909 -134.693C-134.383 -106.34 -109.857 -79.2628 -83.062 -53.8869C-58.9612 -30.9209 -34.0097 -8.52205 -12.1771 16.9957C9.37114 40.5614 27.0298 67.4075 40.1359 96.5259C52.8111 129.162 60.7827 163.434 63.8115 198.313C71.6088 263.809 69.4823 330.438 81.3909 395.508C84.0373 341.071 84.8879 286.538 83.9428 231.912C84.4272 169.948 80.4949 108.029 72.1759 46.6245C64.0957 1.28594 53.7334 -43.6161 41.1284 -87.9105C44.8144 -59.5575 55.3053 -32.7639 58.8496 -4.4109C59.5118 13.9763 58.5153 32.3858 55.8723 50.594C35.1739 25.5016 11.0731 3.81155 -10.6176 -20.2885C-41.807 -55.1627 -74.6976 -88.4776 -108.581 -120.8Z" fill="#7D4515"/>
</g>
<g style="mix-blend-mode:multiply" opacity="0.6">
<path d="M-53.2904 -645.331C-29.4731 -571.471 -2.82034 -499.596 13.1996 -423.469C29.2196 -347.341 38.7181 -266.109 54.4546 -187.997C62.3937 -148.444 71.3252 -109.034 81.5326 -69.9063C91.7401 -30.7792 102.089 8.63151 108.327 49.0346C120.094 126.155 124.064 204.976 139.233 281.246C159.081 240.417 153.41 188.248 148.306 145.009C147.03 135.511 145.754 126.013 144.195 116.656C121.412 30.2236 107.167 -58.2364 101.664 -147.452L100.388 -141.781C86.2109 -167.299 88.054 -201.039 86.2109 -229.817C84.5354 -264.366 77.4061 -298.433 65.0873 -330.754C38.7181 -401.637 18.5869 -473.37 -8.63291 -543.402C-27.2047 -591.177 -48.3285 -638.526 -66.475 -686.726C-62.5054 -672.975 -58.1106 -659.082 -53.2904 -645.331Z" fill="#7D4515"/>
</g>
<g style="mix-blend-mode:multiply" opacity="0.3">
<path d="M1011.54 -535.038C999.208 -501.298 984.464 -468.55 972.556 -434.668C960.254 -398.426 951.842 -360.978 947.462 -322.957C937.397 -248.672 927.473 -172.261 901.104 -101.803C874.735 -31.3462 833.621 33.2987 822.138 107.725C816.609 143.876 814.341 180.734 795.06 212.915C778.615 240.418 755.081 264.376 744.165 294.855C762.919 285.942 779.994 273.856 794.635 259.131C794.195 258.89 793.855 258.502 793.673 258.036C793.491 257.569 793.481 257.053 793.642 256.579C799.757 237.818 807.341 219.568 816.325 201.999C821.854 189.24 827.242 176.34 832.062 163.297C842.445 129.667 849.799 95.1749 854.036 60.2341C860.084 23.2682 870.064 -12.9458 883.808 -47.7909C897.985 -83.374 914.288 -118.674 926.339 -154.965C950.723 -229.959 956.819 -306.512 972.697 -383.065C979.928 -418.79 991.978 -453.948 1001.05 -488.822C1008.28 -515.758 1027.28 -539.999 1029.41 -567.927C1029.55 -568.973 1029.49 -570.039 1029.23 -571.061C1028.96 -572.084 1028.49 -573.043 1027.85 -573.881C1025.44 -571.046 1023.17 -567.927 1020.9 -564.95C1018.49 -554.885 1015.23 -544.819 1011.54 -535.038Z" fill="#7D4515"/>
</g>
<g style="mix-blend-mode:multiply" opacity="0.6">
<path d="M1336.05 57.8241C1275.66 90.8553 1213.28 118.5 1150.19 146.286C1126.52 156.918 1101.14 164.29 1076.47 172.654C1035.64 186.83 994.672 201.007 954.126 215.183C913.58 229.36 874.451 244.387 836.173 262.675C822.761 268.699 809.864 275.811 797.612 283.939C791.803 287.441 786.937 292.307 783.435 298.116C784.524 298.895 785.717 299.515 786.979 299.959C799.387 294.534 812.371 290.539 825.682 288.051L842.553 284.932C879.413 268.629 916.84 254.027 954.835 240.418C1020.19 217.026 1087.25 197.888 1153.31 175.914C1209.97 155.05 1262.7 124.758 1309.26 86.3189V86.3189C1350.51 57.9659 1395.17 31.5975 1434.73 0.125671C1402.26 20.3981 1369.79 39.6781 1336.05 57.8241Z" fill="#7D4515"/>
</g>
<g style="mix-blend-mode:multiply" opacity="0.6">
<path d="M209.834 729.365C221.626 697.608 227.674 664.006 227.697 630.13C216.214 587.6 218.766 543.228 219.9 499.848C221.176 445.693 216.639 391.681 216.923 337.527C217.031 312.285 219.643 287.117 224.72 262.391C229.824 236.59 236.629 207.812 230.391 181.585C227.555 169.535 223.728 157.769 219.9 146.144C218.057 149.971 216.356 153.657 214.371 157.06C217.773 150.964 196.366 94.9665 194.381 87.3112C186.3 55.1305 194.381 17.7045 189.136 -15.0432C178.078 -80.2552 183.181 -144.617 186.017 -210.679C186.867 -231.519 188.285 -251.649 190.27 -271.213C185.261 -243.427 181.197 -215.594 178.078 -187.713C169.268 -107.31 167.466 -26.2935 172.691 54.4217C175.526 96.9513 179.921 138.488 186.868 180.026C192.32 217.957 193.462 256.384 190.27 294.572C187.718 334.408 185.024 373.819 185.592 413.796C186.563 456.47 189.829 499.061 195.374 541.385C201.525 576.822 205.361 612.623 206.857 648.559C206.148 673.368 201.895 703.99 209.834 729.365Z" fill="#7D4515"/>
</g>
<g style="mix-blend-mode:multiply" opacity="0.6">
<path d="M344.941 2077.98C327.955 2070.68 313.259 2058.92 302.41 2043.95C279.16 2013.33 281.853 1971.94 273.063 1935.65C266.826 1963.15 271.362 1992.35 262.998 2019.29C254.832 2040.9 238.843 2058.66 218.199 2069.05L213.237 2072.16C227.703 2069.35 240.963 2062.18 251.231 2051.61C263.99 2037.43 303.828 2068.62 317.154 2074.72C329.926 2080.11 343.7 2082.72 357.558 2082.37C353.447 2080.95 349.194 2079.68 344.941 2077.98Z" fill="#7D4515"/>
</g>
<g style="mix-blend-mode:multiply" opacity="0.6">
<path d="M163.476 1979.73C149.807 2000.8 133.301 2019.88 114.423 2036.44C96.8639 2051.66 76.7545 2063.66 55.0217 2071.88C76.8543 2068.2 98.6869 2063.52 120.094 2057.7C113.998 2064.08 106.768 2069.75 100.388 2075.99C99.6193 2076.65 98.9506 2077.41 98.4033 2078.26C104.14 2075.35 109.36 2071.52 113.856 2066.92C119.947 2060.03 126.482 2053.54 133.42 2047.5C146.038 2037.01 161.774 2030.49 173.825 2019.14C186.397 2006.32 196.067 1990.95 202.179 1974.06C229.399 1903.18 212.528 1823.65 199.343 1751.07C196.153 1780.21 195.583 1809.58 197.642 1838.82C200.561 1865.84 199.27 1893.15 193.814 1919.77C187.318 1941.39 177.047 1961.69 163.476 1979.73V1979.73Z" fill="#7D4515"/>
</g>
<g style="mix-blend-mode:screen" opacity="0.3">
<path d="M-5.65567 331.005C-7.26265 304.44 -6.02694 277.778 -1.96962 251.475C-0.875924 227.262 -3.21477 203.016 -8.91642 179.458C-27.063 85.3264 -103.335 30.8887 -166.706 -33.4727C-168.266 -35.1739 -171.952 -31.6297 -170.392 -29.9286C-142.038 1.68506 -111.558 30.7468 -85.3304 63.3528C-55.3818 102.322 -35.8644 148.284 -28.6224 196.896C-23.1528 221.782 -21.48 247.353 -23.6605 272.74C-26.7031 294.68 -27.1314 316.903 -24.9364 338.944C-21.5339 362.619 -15.4378 386.152 -11.61 409.827C-6.93157 437.329 -4.66333 465.115 -0.835548 492.901C0.0150713 498.997 8.52128 492.901 8.37951 488.932C6.54784 436.075 1.86264 383.356 -5.65567 331.005V331.005Z" fill="#5D3308"/>
</g>
<g style="mix-blend-mode:screen" opacity="0.3">
<path d="M101.664 301.235C101.664 279.687 104.499 258.705 106.484 236.448C109.036 213.355 108.32 190.018 104.358 167.125C101.948 153.799 99.2538 140.473 98.1197 126.864C96.7839 127.866 95.8732 129.333 95.5678 130.975C98.9703 186.547 83.801 247.364 101.664 301.235Z" fill="#5D3308"/>
</g>
<g style="mix-blend-mode:screen" opacity="0.3">
<path d="M382.368 -234.496C362.237 -204.725 338.703 -177.79 319.564 -146.885C299.669 -115.025 285.29 -80.0384 277.033 -43.3962C267.393 -0.866707 266.684 39.3947 252.365 80.5066C246.395 95.3807 242.622 111.045 241.165 127.005C239.748 149.688 253.357 169.535 249.955 192.217C249.955 196.896 255.626 194.202 256.193 191.083C259.193 176.484 259.72 161.485 257.752 146.711C255 124.613 258.079 102.18 266.684 81.6406C280.1 45.9135 289.607 8.83837 295.038 -28.9361C301.027 -68.9822 313.426 -107.803 331.756 -143.908C347.776 -175.096 369.751 -202.74 386.479 -233.503C388.464 -236.764 383.786 -236.622 382.368 -234.496Z" fill="#EAA772"/>
</g>
<g style="mix-blend-mode:screen" opacity="0.3">
<path d="M728.57 215.892C715.527 220.996 709.431 232.479 700.216 242.686C684.377 260.943 665.882 276.713 645.351 289.468C603.954 315.978 560.289 339.228 521.586 368.998C485.293 396.501 452.686 428.965 417.669 458.31C379.031 492.29 344.146 530.311 313.61 571.722C310.066 576.401 315.595 578.953 319.139 575.55C335.584 559.672 350.754 542.519 367.057 526.358C383.361 510.196 405.618 494.319 423.765 476.456C457.52 439.811 494.795 406.572 535.054 377.221C573.049 351.419 615.013 332.281 653.432 307.189C669.579 296.869 684.103 284.208 696.53 269.621C708.013 255.445 715.102 230.494 729.562 220.145C731.831 219.011 732.398 214.333 728.57 215.892Z" fill="#EAA772"/>
</g>
<g style="mix-blend-mode:screen" opacity="0.3">
<path d="M854.036 -110.026C832.204 -75.577 824.265 -35.0321 810.513 3.38622C796.336 44.0728 775.921 82.0659 767.982 125.021C767.131 129.841 773.653 127.005 774.362 123.887C787.088 82.354 804.495 42.4031 826.249 4.80385C844.112 -30.6374 843.12 -72.1746 859.707 -108.608C862.826 -113.145 856.446 -113.145 854.036 -110.026Z" fill="#EAA772"/>
</g>
<g style="mix-blend-mode:screen" opacity="0.3">
<path d="M1128.64 14.444C1120.85 48.0423 1114.47 81.6406 1093.49 110.135C1089.52 115.664 1095.9 117.791 1100.01 114.388C1131.62 88.4454 1133.18 50.4523 1135.59 12.3175C1135.87 8.20628 1129.21 12.1757 1128.64 14.444Z" fill="#EAA772"/>
</g>
<g style="mix-blend-mode:screen" opacity="0.3">
<path d="M1014.24 161.171C985.257 165.612 956.772 172.828 929.174 182.719C913.517 187.872 898.138 193.834 883.099 200.581C868.922 207.67 856.305 218.586 841.56 225.532C838.867 226.808 837.874 232.195 841.56 230.494C853.753 225.249 864.244 218.16 876.011 211.923C890.076 206.636 904.743 203.112 919.676 201.432C951.149 193.635 981.062 175.347 1012.53 166.133C1015.51 165.424 1018.06 160.604 1014.24 161.171Z" fill="#EAA772"/>
</g>
<g style="mix-blend-mode:screen" opacity="0.3">
<path d="M1137.58 323.35C1085.4 324.768 1033.37 328.17 981.629 330.013C955.214 329.837 928.925 326.361 903.372 319.664C877.853 313.852 854.462 317.112 829.227 313.427C827.242 313.427 823.839 317.538 826.391 318.388C847.09 323.917 868.922 324.768 890.471 329.021C915.727 335.727 941.464 340.467 967.452 343.197C993.821 344.331 1020.47 338.944 1046.7 337.668C1076.33 336.251 1105.96 336.251 1135.45 332.14C1138.28 331.147 1142.68 323.067 1137.58 323.35Z" fill="#EAA772"/>
</g>
<g style="mix-blend-mode:screen" opacity="0.3">
<path d="M148.59 822.505C148.59 818.536 142.352 821.796 142.068 824.49C130.781 910.604 128.974 997.696 136.681 1084.2C144.337 1172.1 153.552 1259.99 160.215 1348.17C160.215 1350.72 164.185 1348.17 164.185 1346.47C162.767 1172.1 142.21 997.16 148.59 822.505Z" fill="#EAA772"/>
</g>
<g style="mix-blend-mode:screen" opacity="0.3">
<path d="M163.476 1522.26C163.476 1518.15 157.521 1522.26 157.379 1524.95C156.446 1574.54 152.373 1624.02 145.187 1673.1C136.114 1718.6 120.094 1762.83 114.281 1808.77C113.431 1815.85 122.646 1811.6 123.638 1807.06C134.555 1757.73 152.843 1710.52 162.908 1661.05C171.698 1616.39 166.453 1567.62 163.476 1522.26Z" fill="#EAA772"/>
</g>
<g style="mix-blend-mode:screen" opacity="0.3">
<path d="M73.3098 1326.2C73.3098 1320.81 65.3707 1326.2 65.0872 1329.6C58.424 1426.57 46.5153 1522.68 44.3888 1619.93C42.6393 1667.21 34.9226 1714.08 21.4221 1759.43C17.1128 1782.03 10.6079 1804.16 1.99967 1825.49C-10.6034 1848.44 -24.8159 1870.47 -40.5312 1891.41C-43.0831 1894.96 -38.8301 1897.37 -36.2782 1894.39C26.5258 1822.66 54.0291 1736.18 62.9606 1642.62C71.7966 1537.39 75.2508 1431.78 73.3098 1326.2V1326.2Z" fill="#EAA772"/>
</g>
<g style="mix-blend-mode:screen" opacity="0.3">
<path d="M94.4336 4.37857C90.9351 -30.9078 85.014 -65.9118 76.7125 -100.386C76.7125 -102.938 72.6012 -100.386 72.743 -98.6847C77.2796 -62.9599 82.9503 -27.8021 84.9351 8.34798C84.703 42.0598 87.6937 75.7168 93.8665 108.86C94.7171 111.695 99.3956 108.859 99.112 106.166C95.8528 72.3363 94.2913 38.3646 94.4336 4.37857V4.37857Z" fill="#EAA772"/>
</g>
<g style="mix-blend-mode:screen" opacity="0.3">
<path d="M114.281 345.465C114.281 343.481 111.304 345.465 111.304 346.741C106.768 452.498 124.064 554.285 136.681 658.624C136.681 660.893 140.509 658.624 140.225 657.065C131.01 553.151 117.684 449.521 114.281 345.465Z" fill="#EAA772"/>
</g>
<g style="mix-blend-mode:screen" opacity="0.3">
<path d="M167.87 509.63C166.817 472.403 163.408 435.281 157.663 398.486C157.663 396.501 154.686 398.486 154.828 399.762C157.805 434.352 154.828 468.943 157.805 503.675C161.633 542.519 168.579 581.505 174.817 619.923C174.817 621.624 177.511 619.923 177.369 618.931C173.541 582.497 170.706 546.063 167.87 509.63Z" fill="#EAA772"/>
</g>
<g style="mix-blend-mode:screen" opacity="0.3">
<path d="M5.68578 538.975C5.68578 537.274 2.28329 538.975 2.56683 540.676C7.74375 571.446 15.0867 601.812 24.5411 631.547C25.5335 634.241 29.6448 631.547 29.503 628.996C25.1324 598.156 17.1381 567.941 5.68578 538.975V538.975Z" fill="#EAA772"/>
</g>
<g style="mix-blend-mode:screen" opacity="0.3">
<path d="M19.0121 994.608C17.4526 916.354 4.83514 838.666 0.582052 760.837C0.582052 758.144 -3.38759 760.837 -3.38759 762.538C-5.08883 842.352 -1.26099 922.308 1.43264 1001.98C1.52663 1040.76 -0.508471 1079.52 -4.66347 1118.09C-7.7824 1156.93 -8.20768 1195.77 -9.05829 1234.76C-10.7595 1313.15 -10.7596 1390.7 -20.1164 1468.81C-28.6226 1539.69 -46.9108 1613.41 -45.0678 1685.15C-45.0678 1688.41 -40.3895 1685.15 -40.2477 1683.16C-35.0022 1602.64 -16.7139 1526.51 -2.5369 1447.41C10.6477 1373.83 10.7894 1299.83 12.9159 1225.4C15.0425 1150.97 20.5715 1071.16 19.0121 994.608Z" fill="#EAA772"/>
</g>
<g style="mix-blend-mode:screen" opacity="0.3">
<path d="M76.9961 1890.14C70.2378 1910.52 59.652 1929.43 45.8067 1945.85C30.4222 1963.39 16.4386 1982.12 3.98468 2001.85C1.29106 2005.96 5.54417 2007.52 8.66311 2004.97C28.8474 1987.74 46.9724 1968.24 62.6773 1946.84C75.153 1930.26 76.8543 1909.42 80.9656 1890.14C81.6745 1887.02 77.7049 1888.44 76.9961 1890.14Z" fill="#EAA772"/>
</g>
<g style="mix-blend-mode:screen" opacity="0.3">
<path d="M246.553 1724.7C246.553 1722.71 242.583 1724.7 243.008 1726.68C244.445 1737.45 245.25 1748.29 245.418 1759.15C244.322 1770.51 245.478 1781.97 248.821 1792.89C250.522 1796.72 256.193 1792.89 256.476 1789.63C257.197 1767.56 253.833 1745.54 246.553 1724.7V1724.7Z" fill="#EAA772"/>
</g>
<g style="mix-blend-mode:screen" opacity="0.3">
<path d="M318.288 1988.66C306.269 1969.05 296.428 1948.18 288.942 1926.43C288.091 1924.16 284.264 1927.28 284.831 1929.12C290.501 1951.1 295.747 1976.9 312.192 1993.48C314.46 1995.89 319.848 1991.22 318.288 1988.66Z" fill="#EAA772"/>
</g>
<g style="mix-blend-mode:screen" opacity="0.3">
<path d="M1406.94 -8.09674C1397.58 -15.7521 1368.38 7.07205 1360.86 11.7503C1325.85 33.7239 1293.95 60.8011 1258.51 81.4988C1256.66 82.4912 1256.66 86.4606 1259.21 85.043C1288.52 69.818 1316.92 52.92 1344.28 34.4328C1354.34 27.6281 1363.84 20.2563 1373.76 13.0262C1381.56 7.4974 1395.17 -5.54504 1405.52 -5.40327C1405.24 -5.40327 1406.94 -7.10438 1406.94 -8.09674Z" fill="#EAA772"/>
</g>
<g style="mix-blend-mode:screen" opacity="0.3">
<path d="M1352.92 287.342C1332.93 296.698 1310.39 295.848 1289.98 303.928C1287.14 304.921 1284.87 310.733 1289.98 310.166C1312.55 308.406 1334.44 301.625 1354.06 290.319C1354.91 289.327 1355.19 286.208 1352.92 287.342Z" fill="#EAA772"/>
</g>
<g style="mix-blend-mode:screen" opacity="0.3">
<path d="M265.266 900.901C263.565 869.855 255.484 839.517 251.089 808.612C246.473 776.093 249.93 742.938 261.155 712.07C263.99 703.706 253.074 705.265 250.947 711.22C239.839 735.813 233.076 762.146 230.958 789.049C230.958 820.946 250.097 853.977 255.626 885.307C261.864 919.189 262.289 953.496 265.691 987.661C269.094 1021.83 273.489 1059.39 275.757 1095.54C275.757 1098.1 279.727 1095.54 279.727 1093.7C279.16 1029.48 269.094 965.121 265.266 900.901Z" fill="#EAA772"/>
</g>
<g style="mix-blend-mode:screen" opacity="0.3">
<path d="M369.467 1830.74C357.275 1806.5 342.389 1783.96 331.756 1758.86C317.579 1726.12 316.587 1686.85 309.924 1651.97C303.261 1617.1 306.096 1583.5 302.126 1549.48C296.487 1518.06 293.17 1486.26 292.203 1454.35C292.203 1451.52 287.666 1454.35 287.524 1455.91C284.641 1485.76 285.451 1515.85 289.934 1545.51C293.62 1582.79 289.934 1620.64 296.739 1657.5C301.22 1688.39 308.674 1718.78 318.997 1748.23C331.708 1777.97 347.181 1806.45 365.214 1833.29C366.632 1835.7 370.459 1832.72 369.467 1830.74Z" fill="#EAA772"/>
</g>
<g style="mix-blend-mode:screen" opacity="0.3">
<path d="M518.892 1994.48C467.241 1981.29 422.538 1948.96 393.851 1904.03C392.717 1902.19 389.457 1904.74 390.307 1906.44C415.117 1957.9 455.096 1998.16 514.923 2001.28C517.617 2001.42 522.72 1995.61 518.892 1994.48Z" fill="#EAA772"/>
</g>
</svg>
