<svg width="48" height="43" viewBox="0 0 48 43" fill="none" xmlns="http://www.w3.org/2000/svg">
<path fill-rule="evenodd" clip-rule="evenodd" d="M0 22.6812L1.055 18.126C1.055 18.126 11.2306 4.88362 22.7805 0.200626C23.4287 -0.0660961 24.9586 0.21033 25.6214 0.00341797C25.6214 0.00341797 39.7399 8.11984 46.8769 18.8372L48 22.6812H0Z" fill="#E4B34C"/>
<path fill-rule="evenodd" clip-rule="evenodd" d="M45.5805 27.1446C38.625 37.1556 24.0397 42.9669 24.0397 42.9669L24.0024 41.3246L23.9668 42.9669C23.9668 42.9669 15.4733 39.5852 8.35248 33.5314H16.3841L6.89558 32.2285C3.97854 29.508 1.41477 26.3025 0 22.6783C4.98653 9.94673 23.9668 2.38477 23.9668 2.38477L24.0024 4.03359L24.0397 2.38477C24.0397 2.38477 43.0167 9.94674 47.9984 22.6815C47.6985 23.4428 47.3532 24.1856 46.9644 24.9058L45.5805 27.1446Z" fill="url(#paint0_linear_1570_302152)"/>
<path fill-rule="evenodd" clip-rule="evenodd" d="M22.7822 0.197213L23.1922 2.71248H24.8096L25.6215 0L22.7822 0.197213Z" fill="#E3B752"/>
<path fill-rule="evenodd" clip-rule="evenodd" d="M8.35254 33.5312V32.4287L16.3825 33.5312H8.35254Z" fill="#E4B34C"/>
<path fill-rule="evenodd" clip-rule="evenodd" d="M16.3818 33.5308L30.6835 34.1418H34.9812H38.9079L32.7951 34.6785L24.2011 34.1046L16.3818 33.5308Z" fill="#974832"/>
<g style="mix-blend-mode:multiply" opacity="0.2">
<path style="mix-blend-mode:multiply" opacity="0.2" fill-rule="evenodd" clip-rule="evenodd" d="M6.89355 32.2278C6.89355 32.2278 15.4016 14.9103 33.134 7.1123L35.1403 8.4055C35.1403 8.4055 15.8554 14.7907 7.80918 32.3458L6.89355 32.2278Z" fill="url(#paint1_linear_1570_302152)"/>
<path style="mix-blend-mode:multiply" opacity="0.2" fill-rule="evenodd" clip-rule="evenodd" d="M9.42773 32.4281C9.42773 32.4281 14.9928 14.1843 37.2645 9.9248L41.2705 13.2774C41.2705 13.2774 16.299 20.6923 11.7111 32.8904L9.42773 32.4281Z" fill="url(#paint2_linear_1570_302152)"/>
<path style="mix-blend-mode:multiply" opacity="0.2" fill-rule="evenodd" clip-rule="evenodd" d="M19.9404 25.4922C19.9404 25.4922 22.1655 20.5942 30.1501 20.5166C30.1469 20.5166 27.5215 24.5465 19.9404 25.4922Z" fill="url(#paint3_linear_1570_302152)"/>
<path style="mix-blend-mode:multiply" opacity="0.2" fill-rule="evenodd" clip-rule="evenodd" d="M16.8711 33.5308C16.8711 33.5308 35.1837 25.8815 43.3336 15.3921L43.6382 15.7316C43.6382 15.7316 34.3296 27.7163 17.6004 33.5308H16.8711Z" fill="url(#paint4_linear_1570_302152)"/>
<path style="mix-blend-mode:multiply" opacity="0.2" fill-rule="evenodd" clip-rule="evenodd" d="M15.4648 38.6085C15.4648 38.6085 28.1264 33.4696 37.3864 35.3367L33.0449 38.2949C33.0449 38.2949 23.9697 37.2054 18.928 40.5725L15.4648 38.6085Z" fill="url(#paint5_linear_1570_302152)"/>
<path style="mix-blend-mode:multiply" opacity="0.2" fill-rule="evenodd" clip-rule="evenodd" d="M45.8406 18.6025C45.8406 18.6025 35.9015 27.3316 34.0605 34.1419L36.1041 34.1047C36.1041 34.1047 40.47 23.5684 46.2246 19.1909L45.8406 18.6025Z" fill="url(#paint6_linear_1570_302152)"/>
<path style="mix-blend-mode:multiply" opacity="0.2" fill-rule="evenodd" clip-rule="evenodd" d="M3.23926 28.2641C3.23926 28.2641 8.16906 12.6633 18.228 5.15625L21.7706 3.35547C21.7706 3.35547 7.55324 16.9163 4.2505 29.4991L3.23926 28.2641Z" fill="url(#paint7_linear_1570_302152)"/>
</g>
<path fill-rule="evenodd" clip-rule="evenodd" d="M16.3818 39.1548L26.0373 42.0839L24.0375 42.9665C24.0375 42.9665 18.5907 40.5062 16.3818 39.1548Z" fill="#974832"/>
<path fill-rule="evenodd" clip-rule="evenodd" d="M6.89355 13.123L9.42814 15.1825L11.9417 15.3926L6.89355 13.123Z" fill="#974832"/>
<path fill-rule="evenodd" clip-rule="evenodd" d="M37.3867 31.3388L44.5432 28.5293L40.965 30.7746L37.3867 31.3388Z" fill="#974832"/>
<path fill-rule="evenodd" clip-rule="evenodd" d="M37.3867 31.3391L40.965 30.775L41.7445 30.2852L37.3867 31.3391Z" fill="#E49D4C"/>
<path fill-rule="evenodd" clip-rule="evenodd" d="M26.0391 34.228L27.6451 34.5255L32.7953 34.679L26.0391 34.228Z" fill="#E49D4C"/>
<path fill-rule="evenodd" clip-rule="evenodd" d="M39.5664 11.7572L39.8208 10.6758L40.1433 12.2519L38.1289 13.1232L39.5664 11.7572Z" fill="#974832"/>
<path fill-rule="evenodd" clip-rule="evenodd" d="M38.1289 13.1228L39.2649 12.3598L40.1433 12.2515L38.1289 13.1228Z" fill="#E49D4C"/>
<path opacity="0.4" fill-rule="evenodd" clip-rule="evenodd" d="M13.2656 29.9338C13.2656 29.9338 18.2165 21.3486 36.5744 14.9004C36.5744 14.8955 21.0947 20.7133 13.2656 29.9338Z" fill="#D5AA48"/>
<path opacity="0.4" fill-rule="evenodd" clip-rule="evenodd" d="M7.80957 32.3539C7.80957 32.3539 12.7588 17.5145 35.1407 8.41357C35.1407 8.41357 14.8623 16.9422 7.80957 32.3539Z" fill="#D5AA48"/>
<path opacity="0.4" fill-rule="evenodd" clip-rule="evenodd" d="M19.1162 32.9803C19.1162 32.9803 32.5233 27.6458 39.5647 20.0645C39.5647 20.0645 32.0663 28.4896 19.1162 32.9803Z" fill="#D5AA48"/>
<path fill-rule="evenodd" clip-rule="evenodd" d="M38.1287 18.1226L36.1338 24.1149L37.6782 21.1179L38.1287 18.1226Z" fill="#9C4B35"/>
<path fill-rule="evenodd" clip-rule="evenodd" d="M9.97852 10.5039L17.1058 7.13029L23.1927 2.7124L15.4658 6.05047L9.97852 10.5039Z" fill="#D89F48"/>
<path fill-rule="evenodd" clip-rule="evenodd" d="M24.8096 2.7124L26.9244 3.35577L32.6418 5.85811L34.9058 8.23112L24.8096 2.7124Z" fill="#D89F48"/>
<path fill-rule="evenodd" clip-rule="evenodd" d="M28.5068 4.73291L34.0622 8.61412L39.5673 11.7566L34.9065 8.23101L28.5068 4.73291Z" fill="#C17541"/>
<path fill-rule="evenodd" clip-rule="evenodd" d="M9.97791 10.5042L7.80957 12.2936L10.7331 10.6755L15.6013 7.8418L9.97791 10.5042Z" fill="#C17541"/>
<path fill-rule="evenodd" clip-rule="evenodd" d="M15.6006 14.7848L18.8353 14.2578L17.2179 14.7848H15.6006Z" fill="#9C4B35"/>
<path fill-rule="evenodd" clip-rule="evenodd" d="M15.6006 14.7848L17.1304 14.8963L18.8353 14.2578L17.2179 14.7848H15.6006Z" fill="#D89F48"/>
<path fill-rule="evenodd" clip-rule="evenodd" d="M7.52344 13.6338L9.06461 15.3925L11.4922 15.3537L9.42924 15.1824L7.52344 13.6338Z" fill="#D89F48"/>
<path fill-rule="evenodd" clip-rule="evenodd" d="M36.1338 24.1151L37.6782 21.1182L37.3865 22.1948L36.1338 24.1151Z" fill="#D89F48"/>
<path fill-rule="evenodd" clip-rule="evenodd" d="M18.71 12.1709L33.53 27.261L30.7863 29.9556L15.9663 14.8654L18.71 12.1709Z" fill="white"/>
<path fill-rule="evenodd" clip-rule="evenodd" d="M15.1953 27.292L30.2854 12.472L32.98 15.2156L17.8899 30.0356L15.1953 27.292Z" fill="white"/>
<defs>
<linearGradient id="paint0_linear_1570_302152" x1="23.9976" y1="42.9669" x2="23.9976" y2="2.38477" gradientUnits="userSpaceOnUse">
<stop stop-color="#A84D39"/>
<stop offset="1" stop-color="#D49447"/>
</linearGradient>
<linearGradient id="paint1_linear_1570_302152" x1="6.89355" y1="19.7323" x2="35.1403" y2="19.7323" gradientUnits="userSpaceOnUse">
<stop stop-color="#C8878E"/>
<stop offset="1" stop-color="#B2615A"/>
</linearGradient>
<linearGradient id="paint2_linear_1570_302152" x1="32547.7" y1="20911.6" x2="38804.5" y2="20911.6" gradientUnits="userSpaceOnUse">
<stop stop-color="#C8878E"/>
<stop offset="1" stop-color="#B2615A"/>
</linearGradient>
<linearGradient id="paint3_linear_1570_302152" x1="11114.9" y1="4598.05" x2="11757.9" y2="4598.05" gradientUnits="userSpaceOnUse">
<stop stop-color="#C8878E"/>
<stop offset="1" stop-color="#B2615A"/>
</linearGradient>
<linearGradient id="paint4_linear_1570_302152" x1="28598" y1="16866.6" x2="33019.1" y2="16866.6" gradientUnits="userSpaceOnUse">
<stop stop-color="#C8878E"/>
<stop offset="1" stop-color="#B2615A"/>
</linearGradient>
<linearGradient id="paint5_linear_1570_302152" x1="23232.4" y1="5742.58" x2="26197.8" y2="5742.58" gradientUnits="userSpaceOnUse">
<stop stop-color="#C8878E"/>
<stop offset="1" stop-color="#B2615A"/>
</linearGradient>
<linearGradient id="paint6_linear_1570_302152" x1="14312.8" y1="14638.7" x2="15225.8" y2="14638.7" gradientUnits="userSpaceOnUse">
<stop stop-color="#C8878E"/>
<stop offset="1" stop-color="#B2615A"/>
</linearGradient>
<linearGradient id="paint7_linear_1570_302152" x1="18231.6" y1="22991.9" x2="20350.8" y2="22991.9" gradientUnits="userSpaceOnUse">
<stop stop-color="#C8878E"/>
<stop offset="1" stop-color="#B2615A"/>
</linearGradient>
</defs>
</svg>
