<svg width="102" height="86" viewBox="0 0 102 86" fill="none" xmlns="http://www.w3.org/2000/svg">
<path fill-rule="evenodd" clip-rule="evenodd" d="M101.31 44.9089L84.234 80.1457C84.234 80.1457 41.8998 97.3621 11.9573 72.6539L4.69511 57.2755L13.071 55.5823L2.91704 53.4946L0.689453 48.7747L4.06579 33.8509L15.5534 13.3381C15.5534 13.3381 61.9481 -13.0883 91.7558 16.1351L101.31 44.9089Z" fill="url(#paint0_linear_1570_302122)"/>
<path fill-rule="evenodd" clip-rule="evenodd" d="M91.7608 16.1598L84.3289 6.53026C84.3289 6.53026 54.2215 -9.6772 13.116 9.73178L3.62627 30.8939L0.689453 48.8045L4.07079 33.8757L15.5583 13.3629C15.5583 13.3629 51.7791 -6.77534 91.7608 16.1598Z" fill="#E4B84C"/>
<path fill-rule="evenodd" clip-rule="evenodd" d="M13.1159 9.73193L15.5383 13.363L4.07567 33.8758L0.694336 48.8046L3.62616 30.894L13.1159 9.73193Z" fill="#DBA649"/>
<path fill-rule="evenodd" clip-rule="evenodd" d="M12.0273 19.6462L26.4417 8.98779L14.2649 11.4501L12.0273 19.6462Z" fill="#DBA649"/>
<path fill-rule="evenodd" clip-rule="evenodd" d="M43.2979 5.5813L48.9467 7.78891L68.7203 7.11464L57.058 4.63232L43.2979 5.5813Z" fill="#DBA649"/>
<path fill-rule="evenodd" clip-rule="evenodd" d="M57.0029 85.8293L65.6735 84.0812L82.1557 75.5105L93.0839 61.9053L84.2534 80.1455C84.2534 80.1455 68.3756 85.9292 57.0029 85.8293Z" fill="#A85639"/>
<path fill-rule="evenodd" clip-rule="evenodd" d="M99.5969 39.769L79.9182 47.6305L55.0352 52.6551L99.5969 39.769Z" fill="#B15D3B"/>
<g style="mix-blend-mode:multiply" opacity="0.2">
<path style="mix-blend-mode:multiply" opacity="0.2" fill-rule="evenodd" clip-rule="evenodd" d="M11.9717 72.6736C11.9717 72.6736 37.4441 30.679 93.2686 20.6499L95.5961 27.6423C95.5961 27.6423 46.8489 25.145 16.247 75.8551L11.9717 72.6736Z" fill="url(#paint1_linear_1570_302122)"/>
<path style="mix-blend-mode:multiply" opacity="0.2" fill-rule="evenodd" clip-rule="evenodd" d="M29.8076 82.5282C29.8076 82.5282 62.8718 53.8193 97.6442 52.4458L93.9132 60.1475C93.9132 60.1475 59.92 55.058 35.4465 84.1415L29.8076 82.5282Z" fill="url(#paint2_linear_1570_302122)"/>
<path style="mix-blend-mode:multiply" opacity="0.2" fill-rule="evenodd" clip-rule="evenodd" d="M10.3089 69.1825C10.3089 69.1825 40.4962 19.4364 74.2397 8.56816L68.7456 7.11475C68.7456 7.11475 35.9461 23.8366 9.20508 66.845L10.3089 69.1825Z" fill="url(#paint3_linear_1570_302122)"/>
<path style="mix-blend-mode:multiply" opacity="0.2" fill-rule="evenodd" clip-rule="evenodd" d="M20.6182 38.506C20.6182 38.506 25.9124 18.0282 46.1705 19.7813C46.1705 19.7813 29.8082 34.8999 20.6182 38.506Z" fill="url(#paint4_linear_1570_302122)"/>
<path style="mix-blend-mode:multiply" opacity="0.2" fill-rule="evenodd" clip-rule="evenodd" d="M44.0723 49.3438C44.0723 49.3438 48.2078 41.3924 66.2532 36.5776C66.2532 36.5776 54.2562 41.5722 44.0723 49.3438Z" fill="url(#paint5_linear_1570_302122)"/>
</g>
<path fill-rule="evenodd" clip-rule="evenodd" d="M76.3525 9.24219L87.3656 16.0698L91.656 22.8325L97.7993 34.345L91.7608 16.1597L84.5686 12.0242L76.3525 9.24219Z" fill="#C98043"/>
<path fill-rule="evenodd" clip-rule="evenodd" d="M12.0271 19.646L5.91368 34.1453L4.27546 42.4513L0.694336 48.8044L4.07567 33.8756L12.0271 19.646Z" fill="#BE6C40"/>
<path fill-rule="evenodd" clip-rule="evenodd" d="M73.3604 48.9542L80.5875 48.3498L92.0751 42.7759L73.3604 48.9542Z" fill="#D9934B"/>
<path fill-rule="evenodd" clip-rule="evenodd" d="M4.69531 57.3005L8.3114 54.6284L13.0762 55.6074L4.69531 57.3005Z" fill="#E4B84C"/>
<path fill-rule="evenodd" clip-rule="evenodd" d="M25.6523 80.96L29.2684 73.2334L26.9709 81.5144L25.6523 80.96Z" fill="#B15D3B"/>
<path fill-rule="evenodd" clip-rule="evenodd" d="M31.6006 14.6164L40.5509 13.8822L36.8099 13.3877L31.6006 14.6164Z" fill="#B15D3B"/>
<path fill-rule="evenodd" clip-rule="evenodd" d="M57.2881 77.9681L64.795 72.8037L61.3936 77.134L57.2881 77.9681Z" fill="#B15D3B"/>
<path fill-rule="evenodd" clip-rule="evenodd" d="M98.5386 36.5776V45.8626L96.5957 54.6281L101.311 44.9086L98.5386 36.5776Z" fill="#BE6C40"/>
<path opacity="0.4" fill-rule="evenodd" clip-rule="evenodd" d="M11.9727 72.6735C11.9727 72.6735 32.7202 42.5112 63.7466 29.75C63.7266 29.75 32.4155 39.1648 11.9727 72.6735Z" fill="#D9B148"/>
<path opacity="0.4" fill-rule="evenodd" clip-rule="evenodd" d="M29.8076 82.528C29.8076 82.528 57.9971 56.1915 97.6442 52.4456C97.6442 52.4656 65.2093 51.3718 29.8076 82.528Z" fill="#D9B148"/>
<path fill-rule="evenodd" clip-rule="evenodd" d="M88.2351 61.5708L85.1484 68.3035L80.1738 75.3858L88.2351 61.5708Z" fill="#A85639"/>
<path fill-rule="evenodd" clip-rule="evenodd" d="M76.3525 75.865L82.7206 67.0845L79.5391 72.8033L76.3525 75.865Z" fill="#A85639"/>
<path d="M54.06 38.1874C60.0417 33.4375 68.8376 27.8495 80.3845 24.1316C79.9099 24.522 79.3806 24.9627 78.8028 25.4514C76.1498 27.6957 72.4739 30.9548 68.3779 35.0179C60.4112 42.9206 50.8312 53.8883 44.1074 66.3644L28.0763 37.7206L43.789 47.3638L44.2737 47.6612L44.6238 47.2133L44.6239 47.2132L44.6239 47.2131L44.6251 47.2116L44.631 47.2041L44.6569 47.1717C44.6804 47.1423 44.7163 47.0978 44.7647 47.0388C44.8614 46.9208 45.008 46.7451 45.2041 46.5177C45.5965 46.0629 46.1873 45.4018 46.9754 44.5837C48.5517 42.9473 50.9164 40.6837 54.06 38.1874Z" fill="url(#paint6_radial_1570_302122)" stroke="white" stroke-width="1.27368"/>
<defs>
<linearGradient id="paint0_linear_1570_302122" x1="58.9839" y1="86.3775" x2="42.3106" y2="3.83585" gradientUnits="userSpaceOnUse">
<stop stop-color="#B4593C"/>
<stop offset="1" stop-color="#D89D48"/>
</linearGradient>
<linearGradient id="paint1_linear_1570_302122" x1="8.89191" y1="57.5051" x2="97.9693" y2="39.5116" gradientUnits="userSpaceOnUse">
<stop stop-color="#BC4A4B"/>
<stop offset="1" stop-color="#BD5345"/>
</linearGradient>
<linearGradient id="paint2_linear_1570_302122" x1="14655.4" y1="13079.4" x2="24495.7" y2="13079.4" gradientUnits="userSpaceOnUse">
<stop stop-color="#BC4A4B"/>
<stop offset="1" stop-color="#BD5345"/>
</linearGradient>
<linearGradient id="paint3_linear_1570_302122" x1="11805.8" y1="21235.5" x2="21609.1" y2="21235.5" gradientUnits="userSpaceOnUse">
<stop stop-color="#BC4A4B"/>
<stop offset="1" stop-color="#BD5345"/>
</linearGradient>
<linearGradient id="paint4_linear_1570_302122" x1="5515.14" y1="6061.47" x2="6985.93" y2="6061.47" gradientUnits="userSpaceOnUse">
<stop stop-color="#BC4A4B"/>
<stop offset="1" stop-color="#BD5345"/>
</linearGradient>
<linearGradient id="paint5_linear_1570_302122" x1="5739.26" y1="4602.53" x2="6817.03" y2="4602.53" gradientUnits="userSpaceOnUse">
<stop stop-color="#BC4A4B"/>
<stop offset="1" stop-color="#BD5345"/>
</linearGradient>
<radialGradient id="paint6_radial_1570_302122" cx="0" cy="0" r="1" gradientUnits="userSpaceOnUse" gradientTransform="translate(46.8015 26.6626) rotate(-2.93486) scale(35.6434 22.855)">
<stop stop-color="#12C30E"/>
<stop offset="1" stop-color="#9CC30F"/>
</radialGradient>
</defs>
</svg>
