<svg width="120" height="103" viewBox="0 0 120 103" fill="none" xmlns="http://www.w3.org/2000/svg">
<path fill-rule="evenodd" clip-rule="evenodd" d="M119.688 53.3811L99.4285 95.186C99.4285 95.186 49.2034 115.611 13.6796 86.2976L5.06382 68.0528L15.001 66.044L2.95432 63.5672L0.311523 57.9675L4.3172 40.2619L17.946 15.9256C17.946 15.9256 72.9886 -15.4266 108.352 19.2439L119.688 53.3811Z" fill="url(#paint0_linear_1570_320406)"/>
<path fill-rule="evenodd" clip-rule="evenodd" d="M108.358 19.2734L99.5411 7.84889C99.5411 7.84889 63.8218 -11.3796 15.0543 11.6472L3.79575 36.7538L0.311523 58.0029L4.32313 40.2914L17.9519 15.9551C17.9519 15.9551 60.9242 -7.93684 108.358 19.2734Z" fill="#E4B84C"/>
<path fill-rule="evenodd" clip-rule="evenodd" d="M15.0543 11.647L17.9282 15.9549L4.32899 40.2912L0.317383 58.0027L3.79569 36.7536L15.0543 11.647Z" fill="#DBA649"/>
<path fill-rule="evenodd" clip-rule="evenodd" d="M13.7627 23.4098L30.8639 10.7646L16.4173 13.686L13.7627 23.4098Z" fill="#DBA649"/>
<path fill-rule="evenodd" clip-rule="evenodd" d="M50.8623 6.72351L57.5641 9.34262L81.0235 8.54266L67.1872 5.59766L50.8623 6.72351Z" fill="#DBA649"/>
<path fill-rule="evenodd" clip-rule="evenodd" d="M67.1221 101.929L77.4088 99.8554L96.9632 89.6871L109.928 73.5459L99.452 95.186C99.452 95.186 80.6146 102.048 67.1221 101.929Z" fill="#A85639"/>
<path fill-rule="evenodd" clip-rule="evenodd" d="M117.656 47.2837L94.3093 56.6105L64.7881 62.5717L117.656 47.2837Z" fill="#B15D3B"/>
<g style="mix-blend-mode:multiply" opacity="0.2">
<path style="mix-blend-mode:multiply" opacity="0.2" fill-rule="evenodd" clip-rule="evenodd" d="M13.6973 86.3218C13.6973 86.3218 43.9177 36.4996 110.148 24.6011L112.909 32.8969C112.909 32.8969 55.0755 29.9341 18.7696 90.0964L13.6973 86.3218Z" fill="url(#paint1_linear_1570_320406)"/>
<path style="mix-blend-mode:multiply" opacity="0.2" fill-rule="evenodd" clip-rule="evenodd" d="M34.8574 98.0124C34.8574 98.0124 74.0847 63.9523 115.338 62.3228L110.912 71.46C110.912 71.46 70.5827 65.4218 41.5474 99.9264L34.8574 98.0124Z" fill="url(#paint2_linear_1570_320406)"/>
<path style="mix-blend-mode:multiply" opacity="0.2" fill-rule="evenodd" clip-rule="evenodd" d="M11.7236 82.1795C11.7236 82.1795 47.5378 23.1608 87.5709 10.2668L81.0528 8.54248C81.0528 8.54248 42.1396 28.3813 10.4141 79.4063L11.7236 82.1795Z" fill="url(#paint3_linear_1570_320406)"/>
<path style="mix-blend-mode:multiply" opacity="0.2" fill-rule="evenodd" clip-rule="evenodd" d="M23.9551 45.7846C23.9551 45.7846 30.2362 21.4898 54.2703 23.5697C54.2703 23.5697 34.8581 41.5064 23.9551 45.7846Z" fill="url(#paint4_linear_1570_320406)"/>
<path style="mix-blend-mode:multiply" opacity="0.2" fill-rule="evenodd" clip-rule="evenodd" d="M51.7812 58.6433C51.7812 58.6433 56.6876 49.2098 78.0967 43.4976C78.0967 43.4976 63.8635 49.4231 51.7812 58.6433Z" fill="url(#paint5_linear_1570_320406)"/>
</g>
<path fill-rule="evenodd" clip-rule="evenodd" d="M90.0781 11.0664L103.144 19.1667L108.234 27.1899L115.523 40.8483L108.358 19.2733L99.8257 14.3669L90.0781 11.0664Z" fill="#C98043"/>
<path fill-rule="evenodd" clip-rule="evenodd" d="M13.7625 23.4092L6.5096 40.6111L4.56602 50.4653L0.317383 58.0026L4.32899 40.2911L13.7625 23.4092Z" fill="#BE6C40"/>
<path fill-rule="evenodd" clip-rule="evenodd" d="M86.5293 58.1805L95.1036 57.4635L108.732 50.8506L86.5293 58.1805Z" fill="#D9934B"/>
<path fill-rule="evenodd" clip-rule="evenodd" d="M5.06445 68.0823L9.35456 64.9121L15.0076 66.0735L5.06445 68.0823Z" fill="#E4B84C"/>
<path fill-rule="evenodd" clip-rule="evenodd" d="M29.9277 96.1517L34.2178 86.9849L31.4921 96.8095L29.9277 96.1517Z" fill="#B15D3B"/>
<path fill-rule="evenodd" clip-rule="evenodd" d="M36.9854 17.4426L47.604 16.5715L43.1657 15.9849L36.9854 17.4426Z" fill="#B15D3B"/>
<path fill-rule="evenodd" clip-rule="evenodd" d="M67.46 92.6021L76.3661 86.4751L72.3308 91.6126L67.46 92.6021Z" fill="#B15D3B"/>
<path fill-rule="evenodd" clip-rule="evenodd" d="M116.4 43.4976V54.5132L114.095 64.9126L119.688 53.3814L116.4 43.4976Z" fill="#BE6C40"/>
<path opacity="0.4" fill-rule="evenodd" clip-rule="evenodd" d="M13.6973 86.3213C13.6973 86.3213 38.3121 50.5368 75.1217 35.397C75.098 35.397 37.9506 46.5667 13.6973 86.3213Z" fill="#D9B148"/>
<path opacity="0.4" fill-rule="evenodd" clip-rule="evenodd" d="M34.8584 98.0125C34.8584 98.0125 68.3023 66.767 115.339 62.3228C115.339 62.3465 76.8588 61.0488 34.8584 98.0125Z" fill="#D9B148"/>
<path fill-rule="evenodd" clip-rule="evenodd" d="M104.175 73.1484L100.513 81.1361L94.6113 89.5386L104.175 73.1484Z" fill="#A85639"/>
<path fill-rule="evenodd" clip-rule="evenodd" d="M90.0781 90.1076L97.6332 79.6904L93.8586 86.4752L90.0781 90.1076Z" fill="#A85639"/>
<g filter="url(#filter0_i_1570_320406)">
<path fill-rule="evenodd" clip-rule="evenodd" d="M86.444 69.4595L67.9331 50.9486L86.444 32.4376L78.5107 24.5044L59.9998 43.0153L41.4889 24.5044L33.5557 32.4376L52.0666 50.9486L33.5557 69.4595L41.4889 77.3927L59.9998 58.8818L78.5107 77.3927L86.444 69.4595Z" fill="#DF0000"/>
</g>
<path fill-rule="evenodd" clip-rule="evenodd" d="M86.444 69.4595L67.9331 50.9486L86.444 32.4376L78.5107 24.5044L59.9998 43.0153L41.4889 24.5044L33.5557 32.4376L52.0666 50.9486L33.5557 69.4595L41.4889 77.3927L59.9998 58.8818L78.5107 77.3927L86.444 69.4595Z" stroke="white" stroke-width="1.5111" stroke-linecap="round" stroke-linejoin="round"/>
<defs>
<filter id="filter0_i_1570_320406" x="32.7998" y="23.749" width="54.3994" height="57.4216" filterUnits="userSpaceOnUse" color-interpolation-filters="sRGB">
<feFlood flood-opacity="0" result="BackgroundImageFix"/>
<feBlend mode="normal" in="SourceGraphic" in2="BackgroundImageFix" result="shape"/>
<feColorMatrix in="SourceAlpha" type="matrix" values="0 0 0 0 0 0 0 0 0 0 0 0 0 0 0 0 0 0 127 0" result="hardAlpha"/>
<feOffset dy="3.02219"/>
<feGaussianBlur stdDeviation="1.5111"/>
<feComposite in2="hardAlpha" operator="arithmetic" k2="-1" k3="1"/>
<feColorMatrix type="matrix" values="0 0 0 0 0 0 0 0 0 0 0 0 0 0 0 0 0 0 0.25 0"/>
<feBlend mode="normal" in2="shape" result="effect1_innerShadow_1570_320406"/>
</filter>
<linearGradient id="paint0_linear_1570_320406" x1="69.4718" y1="102.579" x2="49.6907" y2="4.65216" gradientUnits="userSpaceOnUse">
<stop stop-color="#B4593C"/>
<stop offset="1" stop-color="#D89D48"/>
</linearGradient>
<linearGradient id="paint1_linear_1570_320406" x1="10.0434" y1="68.326" x2="115.725" y2="46.9785" gradientUnits="userSpaceOnUse">
<stop stop-color="#BC4A4B"/>
<stop offset="1" stop-color="#BD5345"/>
</linearGradient>
<linearGradient id="paint2_linear_1570_320406" x1="17386.6" y1="15517.4" x2="29061.2" y2="15517.4" gradientUnits="userSpaceOnUse">
<stop stop-color="#BC4A4B"/>
<stop offset="1" stop-color="#BD5345"/>
</linearGradient>
<linearGradient id="paint3_linear_1570_320406" x1="14005.9" y1="25193.9" x2="25636.5" y2="25193.9" gradientUnits="userSpaceOnUse">
<stop stop-color="#BC4A4B"/>
<stop offset="1" stop-color="#BD5345"/>
</linearGradient>
<linearGradient id="paint4_linear_1570_320406" x1="6542.64" y1="7191.41" x2="8287.58" y2="7191.41" gradientUnits="userSpaceOnUse">
<stop stop-color="#BC4A4B"/>
<stop offset="1" stop-color="#BD5345"/>
</linearGradient>
<linearGradient id="paint5_linear_1570_320406" x1="6808.53" y1="5460.53" x2="8087.2" y2="5460.53" gradientUnits="userSpaceOnUse">
<stop stop-color="#BC4A4B"/>
<stop offset="1" stop-color="#BD5345"/>
</linearGradient>
</defs>
</svg>
