<svg width="140" height="42" viewBox="0 0 140 42" fill="none" xmlns="http://www.w3.org/2000/svg">
<path fill-rule="evenodd" clip-rule="evenodd" d="M123.95 35.9634L113.52 40.1571L134.823 33.7148C132.54 36.5484 129.983 39.1439 127.19 41.4626H13.9965C13.9965 41.4626 0.770504 33.972 0.0599911 22.914C0.011253 22.2071 0.011253 21.4977 0.0599911 20.7908L0.307696 20.6984L7.34114 17.9884L2.02205 15.4035L1.63096 15.2189C3.5865 11.2032 7.38681 6.90401 13.977 2.45312L15.1894 2.56521C23.859 3.35648 77.5906 7.88649 123.93 3.88399C123.93 3.88399 148.107 12.2517 137.046 30.5102L123.95 35.9634Z" fill="url(#paint0_linear_1570_283854)"/>
<path fill-rule="evenodd" clip-rule="evenodd" d="M123.95 3.89702L120.75 0L55.4218 2.44635L18.3513 0.00660035L14.0034 2.45295C14.0034 2.45295 75.818 9.37656 123.95 3.89702Z" fill="#E4B84C"/>
<path fill-rule="evenodd" clip-rule="evenodd" d="M139.958 21.0016C139.958 21.0016 141.81 8.3281 120.749 0L123.949 3.89702C123.949 3.89702 139.248 9.72604 139.958 21.0016Z" fill="#DEAB4A"/>
<path fill-rule="evenodd" clip-rule="evenodd" d="M0.0796621 20.7906L0.327367 20.6982C0.196675 21.431 0.107422 22.1707 0.0600876 22.9138C0.0600876 23.0786 0.0600876 23.2567 0.0600876 23.4347C-0.0193782 22.5574 -0.0193782 21.6745 0.0600876 20.7972L0.0796621 20.7906Z" fill="#DEAB4A"/>
<path fill-rule="evenodd" clip-rule="evenodd" d="M18.351 0.00585938L15.2091 2.5643C15.2091 2.5643 6.18753 6.84375 2.05482 15.3895L1.66373 15.2048L1.26611 15.007C3.0978 9.79122 7.59551 3.43469 18.351 0.00585938Z" fill="#DEAB4A"/>
<path fill-rule="evenodd" clip-rule="evenodd" d="M117.588 4.68162H125.867L122.758 2.44629L117.588 4.68162Z" fill="#DBA649"/>
<path fill-rule="evenodd" clip-rule="evenodd" d="M11.6763 4.68093L18.9444 2.99949L15.6004 1.54883L11.6763 4.68093Z" fill="#DBA649"/>
<path fill-rule="evenodd" clip-rule="evenodd" d="M0.327148 20.6919L3.69719 16.208L7.36057 17.9884L0.327148 20.6919Z" fill="#E4B84C"/>
<path fill-rule="evenodd" clip-rule="evenodd" d="M134.855 33.7075L133.082 32.1777L113.546 40.1498L134.855 33.7075Z" fill="#E4B84C"/>
<g style="mix-blend-mode:multiply" opacity="0.2">
<path style="mix-blend-mode:multiply" opacity="0.2" fill-rule="evenodd" clip-rule="evenodd" d="M13.9961 41.4626C13.9961 41.4626 27.4502 18.4564 69.755 5.85547L79.4806 5.98075C79.4806 5.98075 38.121 11.5592 18.9437 41.4362L13.9961 41.4626Z" fill="url(#paint1_linear_1570_283854)"/>
<path style="mix-blend-mode:multiply" opacity="0.2" fill-rule="evenodd" clip-rule="evenodd" d="M22.0396 41.4623C22.0396 41.4623 48.8695 14.1767 87.1655 6.00684H99.4398C99.4398 6.00684 44.639 14.9284 34.731 41.4623H22.0396Z" fill="url(#paint2_linear_1570_283854)"/>
<path style="mix-blend-mode:multiply" opacity="0.2" fill-rule="evenodd" clip-rule="evenodd" d="M59.606 29.9753C59.606 29.9753 68.7317 17.2689 81.9447 17.3678C81.9447 17.3678 77.5839 29.461 59.606 29.9753Z" fill="url(#paint3_linear_1570_283854)"/>
<path style="mix-blend-mode:multiply" opacity="0.2" fill-rule="evenodd" clip-rule="evenodd" d="M27.8479 3.56738C27.8479 3.56738 7.67979 16.7552 6.53906 35.5874L8.76841 37.671C8.76841 37.671 5.8416 18.318 29.1256 3.65311L27.8479 3.56738Z" fill="url(#paint4_linear_1570_283854)"/>
<path style="mix-blend-mode:multiply" opacity="0.2" fill-rule="evenodd" clip-rule="evenodd" d="M67.5704 41.4628C67.5704 41.4628 95.4042 27.3057 109.523 5.19629L106.994 5.34794C106.994 5.34794 96.1538 28.7101 62.6294 41.4891L67.5704 41.4628Z" fill="url(#paint5_linear_1570_283854)"/>
<path style="mix-blend-mode:multiply" opacity="0.2" fill-rule="evenodd" clip-rule="evenodd" d="M75.667 41.4623C75.667 41.4623 114.126 15.1658 128.519 6.00684C131.196 7.77989 133.694 9.81633 135.976 12.0864C135.976 12.0864 101.663 27.5689 91.9305 41.4623H75.667Z" fill="url(#paint6_linear_1570_283854)"/>
<path style="mix-blend-mode:multiply" opacity="0.2" fill-rule="evenodd" clip-rule="evenodd" d="M97.8689 38.7463C97.8689 38.7463 97.4583 33.0294 115.99 24.998C115.99 24.998 104.602 30.5369 97.8689 38.7463Z" fill="url(#paint7_linear_1570_283854)"/>
<path style="mix-blend-mode:multiply" opacity="0.2" fill-rule="evenodd" clip-rule="evenodd" d="M139.528 18.4492L101.454 41.4554H105.567L139.959 20.9945L139.528 18.4492Z" fill="url(#paint8_linear_1570_283854)"/>
</g>
<path fill-rule="evenodd" clip-rule="evenodd" d="M37.3579 4.4375L52.761 6.96956L88.0585 6.00685L57.337 4.68147L37.3579 4.4375Z" fill="#DBA649"/>
<path fill-rule="evenodd" clip-rule="evenodd" d="M99.4404 6.00685L115.359 5.16283L121.121 6.00685L128.695 6.96956L137.365 13.8668L133.701 9.51481L125.866 4.68147L118.155 4.4375L99.4404 6.00685Z" fill="#C98043"/>
<path fill-rule="evenodd" clip-rule="evenodd" d="M2.88232 13.8538L9.79188 6.48184L15.2934 5.16306L26.0229 3.96956L37.9712 4.43114L18.9177 3.00684L11.6496 4.68171L7.3344 8.20944C7.3344 8.20944 4.01654 11.2163 2.88232 13.8538Z" fill="#C98043"/>
<path opacity="0.4" fill-rule="evenodd" clip-rule="evenodd" d="M71.4961 39.2793C83.5638 32.692 94.3522 23.948 103.339 13.4707C103.339 13.4707 92.6224 29.4411 71.4961 39.2793Z" fill="#D9B148"/>
<path opacity="0.4" fill-rule="evenodd" clip-rule="evenodd" d="M35.2666 40.1565C35.2666 40.1565 45.0443 18.9109 92.3488 7.4375C92.3488 7.4375 48.1666 15.7854 35.2666 40.1565Z" fill="#D9B148"/>
<path opacity="0.4" fill-rule="evenodd" clip-rule="evenodd" d="M18.9185 41.4627C18.9185 41.4627 36.049 15.5684 77.0501 6.31055C77.0762 6.31055 43.7538 9.23824 18.9185 41.4627Z" fill="#D9B148"/>
<path opacity="0.4" fill-rule="evenodd" clip-rule="evenodd" d="M8.78906 32.8574C8.78906 32.8574 9.69518 16.6891 28.4814 4.06836C28.4814 4.06836 12.1787 11.0777 8.78906 32.8574Z" fill="#D9B148"/>
<path fill-rule="evenodd" clip-rule="evenodd" d="M7.36084 17.9883H21.558L78.4381 20.6127L12.7321 18.6675L7.36084 17.9883Z" fill="#A35237"/>
<path fill-rule="evenodd" clip-rule="evenodd" d="M12.7314 18.668L16.9619 19.3537H26.5571L12.7314 18.668Z" fill="#E4A54C"/>
<path fill-rule="evenodd" clip-rule="evenodd" d="M13.9966 41.4562L47.5927 39.6956L71.2222 41.4562L93.9846 40.5792L97.8696 38.7461L94.6365 41.4562H13.9966Z" fill="#A35237"/>
<path fill-rule="evenodd" clip-rule="evenodd" d="M109.01 41.456L113.547 40.1504L111.728 41.456H109.01Z" fill="#A35237"/>
<path fill-rule="evenodd" clip-rule="evenodd" d="M30.084 37.6639L24.752 32.1777L29.1258 35.1318L30.084 37.6639Z" fill="#A35237"/>
<path fill-rule="evenodd" clip-rule="evenodd" d="M86.0781 38.8976L100.223 36.1611L91.1364 38.7459L86.0781 38.8976Z" fill="#A35237"/>
<path fill-rule="evenodd" clip-rule="evenodd" d="M37.3581 2.44629L33.1016 4.06839L35.2657 7.43788L35.6372 4.06839L37.3581 2.44629Z" fill="#B15D3B"/>
<path fill-rule="evenodd" clip-rule="evenodd" d="M35.2663 7.43789L34.3472 6.00702L35.5726 4.68164L35.2663 7.43789Z" fill="#E4B84C"/>
<path fill-rule="evenodd" clip-rule="evenodd" d="M94.7534 16.208L101.454 21.9513L97.8692 20.0852L94.7534 16.208Z" fill="#B15D3B"/>
<path fill-rule="evenodd" clip-rule="evenodd" d="M86.0781 38.8976L91.1364 38.7459L100.223 36.1611L90.6867 38.4163L86.0781 38.8976Z" fill="#E4B84C"/>
<path fill-rule="evenodd" clip-rule="evenodd" d="M24.752 32.1777L27.418 35.5274L30.084 37.6639L24.752 32.1777Z" fill="#E4A54C"/>
<g style="mix-blend-mode:soft-light">
<path fill-rule="evenodd" clip-rule="evenodd" d="M96.9633 5.76277L93.9844 1.00197L115.997 0.177734L117.588 4.68137L96.9633 5.76277Z" fill="#E3C150"/>
</g>
<g style="mix-blend-mode:soft-light">
<path fill-rule="evenodd" clip-rule="evenodd" d="M20.7303 3.11232L22.8227 0.296726L18.3575 0L16.1543 1.79354L18.9442 3.00023L20.7303 3.11232Z" fill="#E3C150"/>
</g>
<path fill-rule="evenodd" clip-rule="evenodd" d="M102.048 17.9887L99.2383 9.06055L101.455 13.8675L102.048 17.9887Z" fill="#B15D3B"/>
<path fill-rule="evenodd" clip-rule="evenodd" d="M125.867 29.4545L126.975 28.1094L131.134 29.4545L130.019 31.6305H127.275L125.867 29.4545Z" fill="#A35237"/>
<path fill-rule="evenodd" clip-rule="evenodd" d="M19.8501 25.4858L20.3716 24.9648L22.5944 26.0594L21.1733 26.9892L19.8501 25.9737V25.4858Z" fill="#B15D3B"/>
<path fill-rule="evenodd" clip-rule="evenodd" d="M125.867 29.4551L127.255 31.2025L129.556 31.4662H130.104L130.019 31.6311L127.275 31.8025L125.867 29.4551Z" fill="#E0A54D"/>
<path fill-rule="evenodd" clip-rule="evenodd" d="M19.8501 25.9736L20.7822 26.5473H21.7274L22.5944 26.0594L21.4536 26.9891H21.1733L19.8501 25.9736Z" fill="#E0A54D"/>
<path opacity="0.4" fill-rule="evenodd" clip-rule="evenodd" d="M60.5122 29.9361C60.5122 29.9361 76.4498 32.2242 81.9448 17.3682C81.9448 17.3682 77.8709 29.8372 60.5122 29.9361Z" fill="#D9B148"/>
<defs>
<linearGradient id="paint0_linear_1570_283854" x1="69.9966" y1="41.4626" x2="69.9966" y2="2.45312" gradientUnits="userSpaceOnUse">
<stop stop-color="#B4593C"/>
<stop offset="1" stop-color="#D89D48"/>
</linearGradient>
<linearGradient id="paint1_linear_1570_283854" x1="13.9961" y1="23.6722" x2="79.4806" y2="23.6722" gradientUnits="userSpaceOnUse">
<stop stop-color="#BC4A4B"/>
<stop offset="1" stop-color="#BD5345"/>
</linearGradient>
<linearGradient id="paint2_linear_1570_283854" x1="107979" y1="32482.5" x2="117170" y2="32482.5" gradientUnits="userSpaceOnUse">
<stop stop-color="#BC4A4B"/>
<stop offset="1" stop-color="#BD5345"/>
</linearGradient>
<linearGradient id="paint3_linear_1570_283854" x1="32504.8" y1="11565" x2="33270.3" y2="11565" gradientUnits="userSpaceOnUse">
<stop stop-color="#BC4A4B"/>
<stop offset="1" stop-color="#BD5345"/>
</linearGradient>
<linearGradient id="paint4_linear_1570_283854" x1="30972.8" y1="31080.9" x2="31755.5" y2="31080.9" gradientUnits="userSpaceOnUse">
<stop stop-color="#BC4A4B"/>
<stop offset="1" stop-color="#BD5345"/>
</linearGradient>
<linearGradient id="paint5_linear_1570_283854" x1="68389.7" y1="33225.8" x2="71763.2" y2="33225.8" gradientUnits="userSpaceOnUse">
<stop stop-color="#BC4A4B"/>
<stop offset="1" stop-color="#BD5345"/>
</linearGradient>
<linearGradient id="paint6_linear_1570_283854" x1="89155.3" y1="32482.5" x2="94735.1" y2="32482.5" gradientUnits="userSpaceOnUse">
<stop stop-color="#BC4A4B"/>
<stop offset="1" stop-color="#BD5345"/>
</linearGradient>
<linearGradient id="paint7_linear_1570_283854" x1="27482.5" y1="12787.9" x2="27986.3" y2="12787.9" gradientUnits="userSpaceOnUse">
<stop stop-color="#BC4A4B"/>
<stop offset="1" stop-color="#BD5345"/>
</linearGradient>
<linearGradient id="paint8_linear_1570_283854" x1="6095.07" y1="1063.62" x2="8369.54" y2="1063.62" gradientUnits="userSpaceOnUse">
<stop stop-color="#BC4A4B"/>
<stop offset="1" stop-color="#BD5345"/>
</linearGradient>
</defs>
</svg>
