<svg width="16" height="16" viewBox="0 0 16 16" fill="none" xmlns="http://www.w3.org/2000/svg">
<path fill-rule="evenodd" clip-rule="evenodd" d="M16 7.55214L15.6213 9.61312C14.5731 10.8021 12.5484 12.154 12.5484 12.154C7.94696 15.0294 2.24511 15.593 2.24511 15.593L1.38596 15.1166C0.716546 12.8216 0.355705 10.5161 0.168841 8.47055H1.85061L0.0729062 7.15864C-0.121833 3.80401 0.135194 1.41487 0.135194 1.41487L1.38382 0.55126C10.1142 -0.49434 16 7.55214 16 7.55214Z" fill="url(#paint0_linear_1531_18571)"/>
<path fill-rule="evenodd" clip-rule="evenodd" d="M0.138672 1.4128L1.70589 0.0074275C1.70589 0.0074275 8.06856 -0.475317 15.9992 6.34287V7.55149C15.9992 7.55149 7.60821 -1.15131 0.138672 1.4128Z" fill="#E4B84C"/>
<path fill-rule="evenodd" clip-rule="evenodd" d="M0.171875 8.46943L1.2501 8.02393L1.85365 8.46943H0.171875Z" fill="#E4B84C"/>
<path fill-rule="evenodd" clip-rule="evenodd" d="M5.34912 1.19434L7.01729 2.27577L10.3472 3.20965L7.84851 1.87313L5.86962 1.27796L5.34912 1.19434Z" fill="#DBA649"/>
<path fill-rule="evenodd" clip-rule="evenodd" d="M0.138496 1.41183L0.0883789 2.0063L1.01196 1.19399L0.467834 1.1167L0.138496 1.41183Z" fill="#DBA649"/>
<path fill-rule="evenodd" clip-rule="evenodd" d="M15.4473 7.01611H15.9993V7.55156L15.9141 8.02377L15.4473 7.01611Z" fill="#DBA649"/>
<g style="mix-blend-mode:multiply" opacity="0.2">
<path style="mix-blend-mode:multiply" opacity="0.2" fill-rule="evenodd" clip-rule="evenodd" d="M0.466309 10.9059C0.466309 10.9059 4.54151 5.53318 12.2953 4.45947L12.7349 4.77498C12.7349 4.77498 4.31885 5.42146 0.606633 11.752L0.466309 10.9059Z" fill="url(#paint1_linear_1531_18571)"/>
<path style="mix-blend-mode:multiply" opacity="0.2" fill-rule="evenodd" clip-rule="evenodd" d="M0.850098 12.9906C0.850098 12.9906 6.75886 5.65107 13.3463 5.23438L14.1726 5.89561C14.1726 5.89561 4.65038 7.70643 1.29399 14.7888L0.850098 12.9906Z" fill="url(#paint2_linear_1531_18571)"/>
<path style="mix-blend-mode:multiply" opacity="0.2" fill-rule="evenodd" clip-rule="evenodd" d="M3.21387 13.0681C3.21387 13.0681 3.67279 10.5757 7.18025 10.0156C7.17882 10.0121 6.39127 12.8489 3.21387 13.0681Z" fill="url(#paint3_linear_1531_18571)"/>
<path style="mix-blend-mode:multiply" opacity="0.2" fill-rule="evenodd" clip-rule="evenodd" d="M0.0751953 7.15768C0.0751953 7.15768 1.11548 2.99073 3.67286 0.959961L4.46041 1.03937C4.46041 1.03937 1.78274 1.83762 0.46467 7.44648L0.0751953 7.15768Z" fill="url(#paint4_linear_1531_18571)"/>
<path style="mix-blend-mode:multiply" opacity="0.2" fill-rule="evenodd" clip-rule="evenodd" d="M2.24512 15.5922C2.24512 15.5922 10.6934 12.5706 15.7229 8.55127V9.06283C15.7229 9.06283 9.44761 13.4898 2.24512 15.5922Z" fill="url(#paint5_linear_1531_18571)"/>
</g>
<path fill-rule="evenodd" clip-rule="evenodd" d="M2.99463 2.58362L3.276 2.25195L4.32773 2.58362L4.04565 3.11766H3.35117L2.99463 2.58362Z" fill="#B15D3B"/>
<path fill-rule="evenodd" clip-rule="evenodd" d="M0.930664 4.08291L1.06168 3.95361L1.62514 4.22415L1.26501 4.45112L0.930664 4.20236V4.08291Z" fill="#B15D3B"/>
<path fill-rule="evenodd" clip-rule="evenodd" d="M2.99463 2.5835L3.34616 3.01143L3.92823 3.07608H4.06784L4.04565 3.11754L3.35117 3.159L2.99463 2.5835Z" fill="#E0A54D"/>
<path fill-rule="evenodd" clip-rule="evenodd" d="M0.930664 4.20264L1.16764 4.34388H1.40606L1.62514 4.22442L1.33733 4.45139H1.26501L0.930664 4.20264Z" fill="#E0A54D"/>
<path fill-rule="evenodd" clip-rule="evenodd" d="M1.38623 15.1151L7.51121 14.2206L10.2805 13.3633C10.2805 13.3633 7.21051 14.9584 2.24537 15.5915L1.38623 15.1151Z" fill="#A85639"/>
<path opacity="0.4" fill-rule="evenodd" clip-rule="evenodd" d="M5.37744 14.3416C5.37744 14.3416 12.5298 11.3995 15.723 8.55078C15.723 8.55078 10.2295 12.4114 5.37744 14.3416Z" fill="#D9B148"/>
<path opacity="0.4" fill-rule="evenodd" clip-rule="evenodd" d="M2.46777 11.2286C2.46777 11.2286 7.89828 5.51439 13.346 5.23402C13.346 5.23402 7.9756 5.00283 2.46777 11.2286Z" fill="#D9B148"/>
<path fill-rule="evenodd" clip-rule="evenodd" d="M1.85352 8.46924L4.79608 9.17755L6.6726 9.427L9.4104 10.1683L6.601 9.74954L1.85352 8.46924Z" fill="#B15D3B"/>
<path fill-rule="evenodd" clip-rule="evenodd" d="M4.1543 9.08984L5.19744 9.53113L6.60071 9.74967L4.1543 9.08984Z" fill="#D9934B"/>
<path fill-rule="evenodd" clip-rule="evenodd" d="M12.022 12.4689L12.7351 10.9391L13.6064 9.41992L12.9584 10.9441L12.6685 12.0712L12.022 12.4689Z" fill="#B15D3B"/>
<path fill-rule="evenodd" clip-rule="evenodd" d="M10.8198 3.98085L10.6816 3.40676L10.9508 2.87061L10.8198 3.98085Z" fill="#B15D3B"/>
<path fill-rule="evenodd" clip-rule="evenodd" d="M0.0883789 2.00684L1.27758 1.36177L4.15428 1.11723L5.37784 1.36177L7.01666 2.27597L10.0917 3.2787L10.6816 3.4073L10.2241 3.13957L7.01666 2.27597L5.34849 1.19453L3.66099 0.910645H1.8711L0.93034 1.18329L0.0883789 2.00684Z" fill="#C98043"/>
<path style="mix-blend-mode:multiply" opacity="0.6" fill-rule="evenodd" clip-rule="evenodd" d="M5.06738 11.7615L5.22847 12.0854C5.22847 12.0854 8.54047 10.8866 10.9561 8.65067L10.9368 8.31689C10.9368 8.31689 8.46745 10.5276 5.06738 11.7615Z" fill="url(#paint6_linear_1531_18571)"/>
<path fill-rule="evenodd" clip-rule="evenodd" d="M3.96677 5.50146C3.96677 5.50146 3.58087 9.31426 4.64979 11.8819C4.64979 11.8819 7.8773 11.1089 10.9402 8.31644C10.9402 8.31644 8.14793 5.8767 3.96677 5.50146Z" fill="url(#paint7_radial_1531_18571)"/>
<path fill-rule="evenodd" clip-rule="evenodd" d="M10.9402 8.31701L10.9158 7.90874C10.9158 7.90874 8.89542 5.05232 4.48371 4.66162L3.9668 5.50485C3.9668 5.50485 7.70909 5.76344 10.9402 8.31701Z" fill="url(#paint8_radial_1531_18571)"/>
<path fill-rule="evenodd" clip-rule="evenodd" d="M5.92236 9.29917L8.1905 8.28027L6.7049 9.15653L5.92236 9.29917Z" fill="#0FC38D"/>
<path fill-rule="evenodd" clip-rule="evenodd" d="M4.81982 10.1245L5.45631 10.8434L5.19785 10.4421L4.81982 10.1245Z" fill="#0FC38D"/>
<path fill-rule="evenodd" clip-rule="evenodd" d="M5.92236 9.29917L6.8173 8.80307L8.1905 8.28027L5.92236 9.29917Z" fill="#C3B71E"/>
<path fill-rule="evenodd" clip-rule="evenodd" d="M4.81982 10.1245L5.19785 10.4421L5.45631 10.8434L5.23723 10.381L4.81982 10.1245Z" fill="#C3B71E"/>
<path fill-rule="evenodd" clip-rule="evenodd" d="M5.021 5.65692L5.4835 6.12421L5.20428 5.69346L5.16705 5.5459L5.021 5.65692Z" fill="#0FC38D"/>
<path fill-rule="evenodd" clip-rule="evenodd" d="M8.87695 6.99676L9.05308 6.5618L8.38724 6.22803L7.78369 6.48732C7.78369 6.48732 8.73734 6.92439 8.87695 6.99676Z" fill="#0FC38D"/>
<path fill-rule="evenodd" clip-rule="evenodd" d="M8.70166 9.14189L9.08971 9.3288L8.88996 9.13135L8.70166 9.14189Z" fill="#0FC38D"/>
<path fill-rule="evenodd" clip-rule="evenodd" d="M9.08971 9.32888L8.95368 9.00635L8.70166 9.14197L8.88996 9.13143L9.08971 9.32888Z" fill="#C3B71E"/>
<path style="mix-blend-mode:screen" opacity="0.5" fill-rule="evenodd" clip-rule="evenodd" d="M7.6691 6.44141L6.78418 11.0279L8.01276 10.3708L8.95495 7.03307L7.6691 6.44141Z" fill="url(#paint9_linear_1531_18571)"/>
<path fill-rule="evenodd" clip-rule="evenodd" d="M5.48344 6.12421L5.3424 5.72298L5.16699 5.5459L5.20422 5.69346L5.48344 6.12421Z" fill="#C3B71E"/>
<path fill-rule="evenodd" clip-rule="evenodd" d="M5.3418 5.72314C5.3418 5.72314 9.44278 6.90366 10.6814 8.28023C10.6814 8.28023 10.3907 8.81005 9.59241 9.41999C10.0701 9.08694 10.5209 8.7181 10.9406 8.31677C10.9406 8.31677 8.88505 6.49118 5.3418 5.72314Z" fill="#0FC38D"/>
<defs>
<linearGradient id="paint0_linear_1531_18571" x1="8.00137" y1="15.5916" x2="8.00137" y2="0.456396" gradientUnits="userSpaceOnUse">
<stop stop-color="#B4593C"/>
<stop offset="1" stop-color="#D89D48"/>
</linearGradient>
<linearGradient id="paint1_linear_1531_18571" x1="0.466309" y1="8.10572" x2="12.7349" y2="8.10572" gradientUnits="userSpaceOnUse">
<stop stop-color="#BC4A4B"/>
<stop offset="1" stop-color="#BD5345"/>
</linearGradient>
<linearGradient id="paint2_linear_1531_18571" x1="23189.9" y1="11800.3" x2="25669" y2="11800.3" gradientUnits="userSpaceOnUse">
<stop stop-color="#BC4A4B"/>
<stop offset="1" stop-color="#BD5345"/>
</linearGradient>
<linearGradient id="paint3_linear_1531_18571" x1="7038.07" y1="3844.63" x2="7257.81" y2="3844.63" gradientUnits="userSpaceOnUse">
<stop stop-color="#BC4A4B"/>
<stop offset="1" stop-color="#BD5345"/>
</linearGradient>
<linearGradient id="paint4_linear_1531_18571" x1="7585.53" y1="7472.46" x2="7854.21" y2="7472.46" gradientUnits="userSpaceOnUse">
<stop stop-color="#BC4A4B"/>
<stop offset="1" stop-color="#BD5345"/>
</linearGradient>
<linearGradient id="paint5_linear_1531_18571" x1="23724.4" y1="8907.03" x2="26261.6" y2="8907.03" gradientUnits="userSpaceOnUse">
<stop stop-color="#BC4A4B"/>
<stop offset="1" stop-color="#BD5345"/>
</linearGradient>
<linearGradient id="paint6_linear_1531_18571" x1="5.41834" y1="10.2269" x2="11.4824" y2="9.8562" gradientUnits="userSpaceOnUse">
<stop stop-color="#987054"/>
<stop offset="1" stop-color="#73512D"/>
</linearGradient>
<radialGradient id="paint7_radial_1531_18571" cx="0" cy="0" r="1" gradientUnits="userSpaceOnUse" gradientTransform="translate(6.43434 6.09181) rotate(-3.37016) scale(4.38062 3.22373)">
<stop stop-color="#12C30E"/>
<stop offset="1" stop-color="#9CC30F"/>
</radialGradient>
<radialGradient id="paint8_radial_1531_18571" cx="0" cy="0" r="1" gradientUnits="userSpaceOnUse" gradientTransform="translate(7.85726 6.34292) rotate(-3.37016) scale(3.51497 3.4503)">
<stop stop-color="#0EC38D"/>
<stop offset="1" stop-color="#58C31D"/>
</radialGradient>
<linearGradient id="paint9_linear_1531_18571" x1="8.42118" y1="10.8047" x2="8.15441" y2="6.27453" gradientUnits="userSpaceOnUse">
<stop/>
<stop offset="1" stop-color="#1DC300"/>
</linearGradient>
</defs>
</svg>
