<svg width="251" height="57" viewBox="0 0 251 57" fill="none" xmlns="http://www.w3.org/2000/svg">
<path fill-rule="evenodd" clip-rule="evenodd" d="M5.52324 42.1156L95.446 50.0312C95.446 50.0312 31.0336 47.3484 2.9236 44.4807C4.87912 50.2285 10.4679 53.4231 10.4679 53.4231C76.1339 61.4404 241.89 53.4231 241.89 53.4231L247.806 26.0748L229.975 24.903L222.743 26.1735H184.482L212.306 24.7797L228.147 21.3076L250.41 23.0036L250.996 11.4185C164.795 5.70775 0.289246 4.01794 0.289246 4.01794C-0.173599 16.9628 2.86188 33.0098 5.52324 42.1156Z" fill="url(#paint0_linear_1311_5687)"/>
<path fill-rule="evenodd" clip-rule="evenodd" d="M251 11.4278L249.203 7.72751L242.646 4.02721C242.646 4.02721 66.283 3.10214 5.24554 0.0185547L0.289261 4.02721C0.289261 4.02721 151.122 6.0007 251 11.4278Z" fill="#E4B84C"/>
<path fill-rule="evenodd" clip-rule="evenodd" d="M249.187 7.7213C249.187 7.7213 190.175 6.74072 129.349 6.74072L251 11.4278L249.187 7.7213Z" fill="#DBA649"/>
<path fill-rule="evenodd" clip-rule="evenodd" d="M247.814 26.0809L243.988 24.7087L229.602 23.8577L222.744 24.9708L205.835 25.1096L184.494 26.1796H201.954L222.863 27.3421L229.351 25.0202L247.814 26.0809Z" fill="#DCA44B"/>
<path fill-rule="evenodd" clip-rule="evenodd" d="M250.414 23.0097L243.988 24.7087L229.602 23.8577L222.744 24.9708L206.444 25.5382L184.494 26.1796L211.925 24.4066L228.151 21.3137L250.414 23.0097Z" fill="#B15D3B"/>
<g style="mix-blend-mode:multiply" opacity="0.2">
<path style="mix-blend-mode:multiply" opacity="0.2" fill-rule="evenodd" clip-rule="evenodd" d="M203.81 54.9649C203.81 54.9649 182.017 27.7985 129.369 15.7541C76.7205 3.70959 1.02626 19.2015 1.02626 19.2015L1.62794 23.7467C1.62794 23.7467 71.1085 2.93561 123.834 16.0624C176.56 29.1892 196.211 55.2239 196.211 55.2239L203.81 54.9649Z" fill="url(#paint1_linear_1311_5687)"/>
<path style="mix-blend-mode:multiply" opacity="0.2" fill-rule="evenodd" clip-rule="evenodd" d="M192.416 55.224C192.416 55.224 179.507 33.4385 129.365 23.7468C79.2238 14.0551 54.1107 29.032 38.0808 35.3657C22.051 41.6994 3.92685 35.9547 3.92685 35.9547L5.52367 42.1218C5.52367 42.1218 23.4974 42.4302 36.2912 37.9035C49.085 33.3768 85.6264 14.9586 125.639 25.0265C165.652 35.0943 173.879 55.8962 173.879 55.8962L192.416 55.224Z" fill="url(#paint2_linear_1311_5687)"/>
<path style="mix-blend-mode:multiply" opacity="0.2" fill-rule="evenodd" clip-rule="evenodd" d="M222.743 54.2557C222.743 54.2557 196.662 43.7191 178.314 30.5122C159.966 17.3052 154.362 7.70907 154.362 7.70907L141.989 3.11145L153.205 3.24405L172.135 6.89501C172.135 6.89501 202.652 42.1804 238.291 53.5989L222.743 54.2557Z" fill="url(#paint3_linear_1311_5687)"/>
<path style="mix-blend-mode:multiply" opacity="0.2" fill-rule="evenodd" clip-rule="evenodd" d="M148.133 56.4944C148.133 56.4944 131.976 38.0392 93.5173 33.1949C55.0589 28.3506 15.2504 53.9659 15.2504 53.9659L18.1664 54.2557C18.1664 54.2557 56.7367 28.7237 93.66 34.1693C130.583 39.6149 144.661 56.4944 144.661 56.4944H148.133Z" fill="url(#paint4_linear_1311_5687)"/>
<path style="mix-blend-mode:multiply" opacity="0.2" fill-rule="evenodd" clip-rule="evenodd" d="M113.944 46.4234C113.944 46.4234 104.687 38.3383 86.706 37.5273C68.7245 36.7163 61.211 42.8126 61.211 42.8126C61.211 42.8126 97.1393 50.1052 113.944 46.4234Z" fill="url(#paint5_linear_1311_5687)"/>
<path style="mix-blend-mode:multiply" opacity="0.2" fill-rule="evenodd" clip-rule="evenodd" d="M46.2884 26.1796C46.2884 26.1796 67.6216 16.0994 90.999 17.854C90.999 17.8385 61.0299 15.0571 46.2884 26.1796Z" fill="url(#paint6_linear_1311_5687)"/>
<path style="mix-blend-mode:multiply" opacity="0.2" fill-rule="evenodd" clip-rule="evenodd" d="M163.199 23.7467L141.033 7.19097L131.757 2.97572L125.643 2.89554L137.751 6.74077L152.334 17.5271L120.174 6.74077L103.793 2.57485L100.607 2.52551L116.263 6.74077L163.199 23.7467Z" fill="url(#paint7_linear_1311_5687)"/>
<path style="mix-blend-mode:multiply" opacity="0.2" fill-rule="evenodd" clip-rule="evenodd" d="M244.594 40.9809L226.763 25.9453L229.351 25.0203L235.676 25.2824L246.275 33.1948L244.594 40.9809Z" fill="url(#paint8_linear_1311_5687)"/>
<path style="mix-blend-mode:multiply" opacity="0.2" fill-rule="evenodd" clip-rule="evenodd" d="M230.419 21.3137L221.301 9.97231L214.335 7.25568L186.086 3.58313H182.295L211.08 7.29576L216.156 10.0833L221.39 22.6027L228.174 21.3137H230.419Z" fill="url(#paint9_linear_1311_5687)"/>
</g>
<path fill-rule="evenodd" clip-rule="evenodd" d="M184.493 26.1796L161.991 27.2557L100.607 26.7161L184.493 26.1796Z" fill="#B15D3B"/>
<path fill-rule="evenodd" clip-rule="evenodd" d="M13.4304 42.8125L2.92389 44.4745L41.9454 48.4123L95.4463 50.0312L13.4304 42.8125Z" fill="#DCA44B"/>
<path fill-rule="evenodd" clip-rule="evenodd" d="M208.438 54.8014L168.27 54.2556L112.648 56.9599C112.648 56.9599 180.64 55.9238 208.438 54.8014Z" fill="#A85639"/>
<path fill-rule="evenodd" clip-rule="evenodd" d="M1.62398 23.7467L61.8438 26.0193L21.2755 25.0202L1.62398 23.7467Z" fill="#A85639"/>
<path fill-rule="evenodd" clip-rule="evenodd" d="M135.675 27.0245L131.328 28.0297L121.624 26.9011L135.675 27.0245Z" fill="#DCA44B"/>
<path opacity="0.4" fill-rule="evenodd" clip-rule="evenodd" d="M145.846 54.2556C145.846 54.2556 133.503 39.1769 105.042 35.1652C105.042 35.1652 130.664 39.4853 145.846 54.2556Z" fill="#D9B148"/>
<path opacity="0.4" fill-rule="evenodd" clip-rule="evenodd" d="M220.599 45.9454C220.599 45.9454 196.504 32.6366 185.735 20.5675C185.735 20.5675 205.707 36.8735 220.599 45.9454Z" fill="#D9B148"/>
<path opacity="0.4" fill-rule="evenodd" clip-rule="evenodd" d="M121.62 22.4115C121.62 22.4115 103.947 18.6125 83.181 21.3137C62.4147 24.015 44.6878 32.0508 35.7395 36.1982C35.7395 36.1982 44.1903 31.2645 61.1959 25.5968C78.2015 19.9292 103.801 18.4152 121.62 22.4115Z" fill="#D9B148"/>
<path opacity="0.4" fill-rule="evenodd" clip-rule="evenodd" d="M107.812 12.3497C107.812 12.3497 79.3274 6.55262 1.02199 19.2015C1.02199 19.2015 57.782 6.74071 107.812 12.3497Z" fill="#D9B148"/>
<path fill-rule="evenodd" clip-rule="evenodd" d="M24.5576 0.789429L15.2506 4.23996L17.6882 9.08426L17.8965 4.93685L24.5576 0.789429Z" fill="#B15D3B"/>
<path fill-rule="evenodd" clip-rule="evenodd" d="M216.155 23.8577L209.702 20.5675L212.31 24.7858L216.155 23.8577Z" fill="#B15D3B"/>
<path fill-rule="evenodd" clip-rule="evenodd" d="M243.822 44.5393L236.521 48.181L243.822 45.9454V44.5393Z" fill="#B15D3B"/>
<path fill-rule="evenodd" clip-rule="evenodd" d="M183.336 50.0312L176.671 46.3617L181.018 50.0312H183.336Z" fill="#A85639"/>
<path fill-rule="evenodd" clip-rule="evenodd" d="M56.0428 56.4079L61.8438 53.4323L52.7566 56.3L56.0428 56.4079Z" fill="#A85639"/>
<path fill-rule="evenodd" clip-rule="evenodd" d="M183.336 50.0312L181.419 49.658L176.671 46.3617L181.018 50.0312H183.336Z" fill="#D9934B"/>
<path fill-rule="evenodd" clip-rule="evenodd" d="M243.822 45.9453L243.309 46.9012L236.521 48.1809L243.822 45.9453Z" fill="#D9934B"/>
<path fill-rule="evenodd" clip-rule="evenodd" d="M60.2393 54.2556L57.9752 56.408L56.6252 56.4943L60.2393 54.2556Z" fill="#D9934B"/>
<path fill-rule="evenodd" clip-rule="evenodd" d="M203.169 9.58381H177.543L86.4205 6.74075L17.8966 4.93685L18.9187 4.30164L150.162 7.54248L203.169 9.58381Z" fill="#C98043"/>
<path fill-rule="evenodd" clip-rule="evenodd" d="M15.251 4.23991L2.90849 4.93679L1.60868 13.136L3.19777 22.5471L8.4202 23.7466H1.60868C1.60868 23.7466 -0.828955 10.7956 0.26644 4.01172L15.251 4.23991Z" fill="#C98043"/>
<path fill-rule="evenodd" clip-rule="evenodd" d="M241.898 53.4292L243.309 46.9013L242.604 45.9454L243.822 44.5393V38.6249L247.814 26.0809L244.181 45.9454L241.898 53.4292Z" fill="#B6623D"/>
<path fill-rule="evenodd" clip-rule="evenodd" d="M12.042 42.6891L4.93349 39.8461L5.5236 42.1156L12.042 42.6891Z" fill="#B6623D"/>
<path fill-rule="evenodd" clip-rule="evenodd" d="M26.0654 54.9185L7.62498 51.2799L10.4715 53.4292L26.0654 54.9185Z" fill="#A85639"/>
<g style="mix-blend-mode:soft-light">
<path fill-rule="evenodd" clip-rule="evenodd" d="M18.3672 0.570463L8.27335 0.789397L4.07304 2.32502L3.71047 4.01482H0.285431L5.24173 0L18.3672 0.570463Z" fill="#E3C150"/>
</g>
<g style="mix-blend-mode:soft-light">
<path fill-rule="evenodd" clip-rule="evenodd" d="M249.206 7.72135L232.995 7.48391L240.042 6.74077L244.824 6.9412L245.596 6.41699L242.942 4.30165L239.32 4.83511L235.795 4.30165L224.301 3.89771L242.638 4.01488L249.206 7.72135Z" fill="#E3C150"/>
</g>
<defs>
<linearGradient id="paint0_linear_1311_5687" x1="125.616" y1="57.0001" x2="125.616" y2="4.01486" gradientUnits="userSpaceOnUse">
<stop stop-color="#B4593C"/>
<stop offset="1" stop-color="#D89D48"/>
</linearGradient>
<linearGradient id="paint1_linear_1311_5687" x1="203.81" y1="33.1948" x2="1.0224" y2="33.1948" gradientUnits="userSpaceOnUse">
<stop stop-color="#BC4A4B"/>
<stop offset="1" stop-color="#BD5345"/>
</linearGradient>
<linearGradient id="paint2_linear_1311_5687" x1="-63364.2" y1="10004.8" x2="-155477" y2="10004.8" gradientUnits="userSpaceOnUse">
<stop stop-color="#BC4A4B"/>
<stop offset="1" stop-color="#BD5345"/>
</linearGradient>
<linearGradient id="paint3_linear_1311_5687" x1="-20779.7" y1="12874.1" x2="-44824.4" y2="12874.1" gradientUnits="userSpaceOnUse">
<stop stop-color="#BC4A4B"/>
<stop offset="1" stop-color="#BD5345"/>
</linearGradient>
<linearGradient id="paint4_linear_1311_5687" x1="-59910.7" y1="7279.23" x2="-105695" y2="7279.23" gradientUnits="userSpaceOnUse">
<stop stop-color="#BC4A4B"/>
<stop offset="1" stop-color="#BD5345"/>
</linearGradient>
<linearGradient id="paint5_linear_1311_5687" x1="-28395.8" y1="3003.35" x2="-35605.5" y2="3003.35" gradientUnits="userSpaceOnUse">
<stop stop-color="#BC4A4B"/>
<stop offset="1" stop-color="#BD5345"/>
</linearGradient>
<linearGradient id="paint6_linear_1311_5687" x1="-26741.2" y1="2001.81" x2="-31924.1" y2="2001.81" gradientUnits="userSpaceOnUse">
<stop stop-color="#BC4A4B"/>
<stop offset="1" stop-color="#BD5345"/>
</linearGradient>
<linearGradient id="paint7_linear_1311_5687" x1="-14085.2" y1="906.549" x2="-24242.6" y2="906.549" gradientUnits="userSpaceOnUse">
<stop stop-color="#BC4A4B"/>
<stop offset="1" stop-color="#BD5345"/>
</linearGradient>
<linearGradient id="paint8_linear_1311_5687" x1="7.24473" y1="1733.13" x2="-979.708" y2="1733.13" gradientUnits="userSpaceOnUse">
<stop stop-color="#BC4A4B"/>
<stop offset="1" stop-color="#BD5345"/>
</linearGradient>
<linearGradient id="paint9_linear_1311_5687" x1="-2337.49" y1="811.152" x2="-8341.94" y2="811.152" gradientUnits="userSpaceOnUse">
<stop stop-color="#BC4A4B"/>
<stop offset="1" stop-color="#BD5345"/>
</linearGradient>
</defs>
</svg>
