<svg width="349" height="138" viewBox="0 0 349 138" fill="none" xmlns="http://www.w3.org/2000/svg">
<path fill-rule="evenodd" clip-rule="evenodd" d="M343.81 94.8494L291.7 106.397L340.498 102.626C339.77 104.127 338.963 105.59 338.082 107.007L323.686 119.189C185.206 156.185 25.6544 119.617 25.6544 119.617L10.9225 109.242C-1.01625 86.5798 -1.51124 68.0994 1.67084 54.5808H41.9832L2.74333 50.5164C7.18646 36.0418 15.4304 28.2297 15.4304 28.2297L36.7327 18.6816C195.613 -10.4906 327.157 22.2944 327.157 22.2944L341.618 33.6899C353.362 58.7038 348.742 81.536 343.81 94.8494Z" fill="url(#paint0_linear_1175_2373)"/>
<path fill-rule="evenodd" clip-rule="evenodd" d="M340.507 102.626L338.15 96.0986L291.703 106.392L340.507 102.626Z" fill="#DCA44B"/>
<g style="mix-blend-mode:multiply" opacity="0.2">
<path style="mix-blend-mode:multiply" opacity="0.2" fill-rule="evenodd" clip-rule="evenodd" d="M67.3711 127.059C67.3711 127.059 95.1554 66.9613 168.29 38.2055C241.425 9.4498 346.564 46.4164 346.564 46.4164L348.444 57.2666C348.444 57.2666 249.21 7.58473 175.992 38.921C102.775 70.2574 77.3829 128.443 77.3829 128.443L67.3711 127.059Z" fill="url(#paint1_linear_1175_2373)"/>
<path style="mix-blend-mode:multiply" opacity="0.2" fill-rule="evenodd" clip-rule="evenodd" d="M82.0908 129.065C82.0908 129.065 98.6436 80.4158 168.29 57.2669C237.936 34.118 272.822 69.8882 295.09 85.008C317.359 100.128 348.06 78.3806 348.06 78.3806L343.8 94.8494C343.8 94.8494 315.332 101.887 297.559 91.0547C279.787 80.2222 229.027 36.2763 173.464 60.3108C117.901 84.3453 107.683 131.951 107.683 131.951L82.0908 129.065Z" fill="url(#paint2_linear_1175_2373)"/>
<path style="mix-blend-mode:multiply" opacity="0.2" fill-rule="evenodd" clip-rule="evenodd" d="M47.148 123.793C47.148 123.793 74.8085 104.96 100.301 73.413C125.793 41.8656 133.565 18.9689 133.565 18.9689L150.754 8.00146L135.174 8.31816L108.88 17.0159C108.88 17.0159 77.4249 92.8494 27.9199 120.11L47.148 123.793Z" fill="url(#paint3_linear_1175_2373)"/>
<path style="mix-blend-mode:multiply" opacity="0.2" fill-rule="evenodd" clip-rule="evenodd" d="M142.204 135.464C142.204 135.464 164.667 91.3771 218.085 79.8349C271.503 68.2927 318.008 120.667 318.008 120.667L309.694 122.672C309.694 122.672 269.222 69.1607 217.908 82.1574C166.594 95.1541 147.077 135.464 147.077 135.464H142.204Z" fill="url(#paint4_linear_1175_2373)"/>
<path style="mix-blend-mode:multiply" opacity="0.2" fill-rule="evenodd" clip-rule="evenodd" d="M189.711 111.412C189.711 111.412 202.592 92.1102 227.542 90.1748C252.492 88.2393 262.958 102.796 262.958 102.796C262.958 102.796 213.052 120.209 189.711 111.412Z" fill="url(#paint5_linear_1175_2373)"/>
<path style="mix-blend-mode:multiply" opacity="0.2" fill-rule="evenodd" clip-rule="evenodd" d="M283.689 63.0847C283.689 63.0847 254.054 39.0385 221.579 43.1439C221.579 43.1909 263.206 36.5224 283.689 63.0847Z" fill="url(#paint6_linear_1175_2373)"/>
<path style="mix-blend-mode:multiply" opacity="0.2" fill-rule="evenodd" clip-rule="evenodd" d="M121.296 57.2726L152.086 17.743L164.973 7.68462L173.464 7.48521L156.647 16.6697L136.387 42.4226L181.06 16.6697L203.812 6.72277L208.243 6.59961L186.493 16.6697L121.296 57.2726Z" fill="url(#paint7_linear_1175_2373)"/>
<path style="mix-blend-mode:multiply" opacity="0.2" fill-rule="evenodd" clip-rule="evenodd" d="M7.09456 101.254C7.09456 101.254 75.7333 66.4804 82.0916 11.8721L72.0739 13.133C72.0739 13.133 56.0221 77.483 5.05566 96.1042L7.09456 101.254Z" fill="url(#paint8_linear_1175_2373)"/>
</g>
<path fill-rule="evenodd" clip-rule="evenodd" d="M36.748 18.6933C36.748 18.6933 88.2743 5.42093 165.133 0.588232C241.993 -4.24447 327.184 22.2885 327.184 22.2885C327.184 22.2885 181.733 -7.78102 36.748 18.6933Z" fill="#E4B84C"/>
<path fill-rule="evenodd" clip-rule="evenodd" d="M27.9199 120.11C27.9199 120.11 193.306 150.783 323.689 119.189C323.689 119.189 213.194 159.07 27.9199 120.11Z" fill="#A85639"/>
<path fill-rule="evenodd" clip-rule="evenodd" d="M72.0684 54.575L99.3223 54.5808L157.702 57.2728H92.2039L72.0684 54.575Z" fill="#A85639"/>
<path fill-rule="evenodd" clip-rule="evenodd" d="M1.67383 54.5751L8.24425 51.0854L72.0687 54.5751L41.3085 56.5105L1.67383 54.5751Z" fill="#DCA44B"/>
<path fill-rule="evenodd" clip-rule="evenodd" d="M291.703 106.392L272.622 109.887L242.263 119.189L266.983 113.893L291.703 106.392Z" fill="#A85639"/>
<path fill-rule="evenodd" clip-rule="evenodd" d="M32.9579 108.89L24.6963 96.0986L32.9579 102.491V108.89Z" fill="#A85639"/>
<path fill-rule="evenodd" clip-rule="evenodd" d="M320.378 82.5682L316.106 77.8411L305.404 55.9238L320.378 82.5682Z" fill="#A85639"/>
<path fill-rule="evenodd" clip-rule="evenodd" d="M314.307 82.5683L309.652 81.0845L299.734 84.1049L314.307 82.5683Z" fill="#A85639"/>
<path fill-rule="evenodd" clip-rule="evenodd" d="M46.9941 45.5078L57.0295 42.4229H81.7437L46.9941 45.5078Z" fill="#A85639"/>
<path fill-rule="evenodd" clip-rule="evenodd" d="M178.491 119.394L189.947 117.688L194.078 120.391L178.491 119.394Z" fill="#A85639"/>
<path fill-rule="evenodd" clip-rule="evenodd" d="M173.465 7.48546L192.045 11.8666L247.484 11.4971L208.244 6.59985L173.465 7.48546Z" fill="#DBA649"/>
<path fill-rule="evenodd" clip-rule="evenodd" d="M273.572 14.189L291.704 15.5731L305.405 18.5114L297.161 22.306L273.572 14.189Z" fill="#DBA649"/>
<path fill-rule="evenodd" clip-rule="evenodd" d="M305.398 18.5115L323.077 24.2181L339.27 36.5755L348.451 61.2786C348.451 61.2786 349.14 48.3757 341.639 33.7134L327.178 22.3178L305.398 18.5115Z" fill="#C98043"/>
<path fill-rule="evenodd" clip-rule="evenodd" d="M2.74609 50.5163C2.74609 50.5163 11.379 35.1854 19.6406 28.9216C27.9023 22.6579 59.5228 14.9807 59.5228 14.9807L36.7355 18.6932L15.4332 28.2413C8.88891 34.1004 4.43605 41.9184 2.74609 50.5163Z" fill="#C98043"/>
<path fill-rule="evenodd" clip-rule="evenodd" d="M1.67383 54.575L21.4912 57.0558L41.3085 56.5104L1.67383 54.575Z" fill="#C66C43"/>
<path fill-rule="evenodd" clip-rule="evenodd" d="M137.289 8.27159L147.554 18.5118L142.422 9.23344L145.963 4.54736L137.289 8.27159Z" fill="#B15D3B"/>
<path fill-rule="evenodd" clip-rule="evenodd" d="M147.554 18.5118L140.265 9.23344L145.963 4.54736L137.289 8.27159L147.554 18.5118Z" fill="#DBA44C"/>
<path fill-rule="evenodd" clip-rule="evenodd" d="M46.9941 45.5078H59.5339L81.7437 42.4229L46.9941 45.5078Z" fill="#DBA44C"/>
<path fill-rule="evenodd" clip-rule="evenodd" d="M24.6963 96.0986L27.077 101.946L32.9579 108.89L24.6963 96.0986Z" fill="#D9934B"/>
<path fill-rule="evenodd" clip-rule="evenodd" d="M242.263 119.189L287.036 107.811L270.866 113.893L256.293 116.866L242.263 119.189Z" fill="#D9934B"/>
<path fill-rule="evenodd" clip-rule="evenodd" d="M178.491 119.394L183.641 120.895L194.078 120.391L178.491 119.394Z" fill="#D9934B"/>
<path fill-rule="evenodd" clip-rule="evenodd" d="M7.4375 65.5833L10.7551 64.4514L14.4676 65.0144L12.1458 66.9264L7.4375 65.5833Z" fill="#B15D3B"/>
<path fill-rule="evenodd" clip-rule="evenodd" d="M206.789 19.4733L209.111 16.7051L217.761 19.4733L215.445 23.9365H209.724L206.789 19.4733Z" fill="#B15D3B"/>
<path fill-rule="evenodd" clip-rule="evenodd" d="M229.192 26.7046L230.277 25.6255L234.908 27.8835L231.95 29.7779L229.192 27.7017V26.7046Z" fill="#B15D3B"/>
<path fill-rule="evenodd" clip-rule="evenodd" d="M206.789 19.4734L209.688 23.051L214.479 23.5906H215.622L215.445 23.9366L209.724 24.2826L206.789 19.4734Z" fill="#E0A54D"/>
<path fill-rule="evenodd" clip-rule="evenodd" d="M229.192 27.7017L231.143 28.8805H233.105L234.908 27.8835L232.539 29.7778H231.95L229.192 27.7017Z" fill="#E0A54D"/>
<path fill-rule="evenodd" clip-rule="evenodd" d="M7.4375 65.5835L10.3073 66.9266L13.3185 67.3372L14.4676 65.0146L12.5112 66.1759L7.4375 65.5835Z" fill="#E0A54D"/>
<g style="mix-blend-mode:soft-light">
<path fill-rule="evenodd" clip-rule="evenodd" d="M220.083 1.69092L247.484 11.5205L267.425 13.5088L262.959 7.41509C262.959 7.41509 232.994 2.67623 220.083 1.69092Z" fill="#E3C150"/>
</g>
<g style="mix-blend-mode:soft-light">
<path fill-rule="evenodd" clip-rule="evenodd" d="M127.03 8.68208L139.882 2.53564C139.882 2.53564 114.39 4.1485 85.5273 9.23926L76.9121 12.7289C76.9121 12.7289 107.513 9.35655 127.03 8.68208Z" fill="#E3C150"/>
</g>
<path opacity="0.4" fill-rule="evenodd" clip-rule="evenodd" d="M111.438 120.896C111.438 120.896 130.095 81.6006 169.747 61.9883C169.747 61.9883 135.039 71.7417 111.438 120.896Z" fill="#D9B148"/>
<path opacity="0.4" fill-rule="evenodd" clip-rule="evenodd" d="M47.1484 123.793C47.1484 123.793 79.0105 101.142 105.958 66.1758C105.958 66.1758 97.1131 88.0109 47.1484 123.793Z" fill="#D9B148"/>
<g clip-path="url(#clip0_1175_2373)">
<path style="mix-blend-mode:multiply" opacity="0.6" fill-rule="evenodd" clip-rule="evenodd" d="M23.5967 65.6264V79.9559L32.113 86.6437H47.7336L54.8658 79.4022V60.9395L23.5967 65.6264Z" fill="url(#paint9_linear_1175_2373)"/>
<path fill-rule="evenodd" clip-rule="evenodd" d="M25.0306 74.803L22.8652 60.9504L31.2141 54.5203H47.7332L54.8655 60.9395L53.8609 75.0058L45.4786 79.9559H32.4642L25.0306 74.803Z" fill="url(#paint10_radial_1175_2373)"/>
<path fill-rule="evenodd" clip-rule="evenodd" d="M47.733 54.5203L45.5174 50.5405L32.1124 51.4231L31.2139 54.5203H47.733Z" fill="#FFC803"/>
<path fill-rule="evenodd" clip-rule="evenodd" d="M54.8654 60.9395L45.5176 50.5405L46.9797 54.5203L54.8654 60.9395Z" fill="#FFA003"/>
<path fill-rule="evenodd" clip-rule="evenodd" d="M32.1126 51.4231L31.2141 54.5203L22.8652 60.9505L24.9804 57.5463L32.1126 51.4231Z" fill="#FFA003"/>
<g style="mix-blend-mode:soft-light">
<path fill-rule="evenodd" clip-rule="evenodd" d="M22.8652 60.9504L34.0547 63.5105L42.984 62.88L54.8655 60.9395L46.9798 54.5203H31.2141L22.8652 60.9504Z" fill="#FD9725"/>
</g>
<path fill-rule="evenodd" clip-rule="evenodd" d="M42.9844 54.5204L50.1892 56.735L46.584 53.4514L42.9844 54.5204Z" fill="#FFE604"/>
<path fill-rule="evenodd" clip-rule="evenodd" d="M31.5269 53.4514L33.0114 54.5204L29.5234 55.825L31.5269 53.4514Z" fill="#FFE604"/>
<path fill-rule="evenodd" clip-rule="evenodd" d="M48.4417 78.0154L42.2471 79.9559H45.4783L48.4417 78.0154Z" fill="#F86600"/>
<path fill-rule="evenodd" clip-rule="evenodd" d="M29.6631 78.0154L35.6066 79.9559H32.4646L29.6631 78.0154Z" fill="#F86600"/>
<g style="mix-blend-mode:multiply" opacity="0.3">
<path fill-rule="evenodd" clip-rule="evenodd" d="M53.8606 75.0059L44.4737 70.8835L34.0879 71.5578L25.0303 74.803L32.4639 79.956H45.4783L53.8606 75.0059Z" fill="#C805C7"/>
</g>
<g style="mix-blend-mode:soft-light">
<path fill-rule="evenodd" clip-rule="evenodd" d="M27.4922 75.4663L33.0116 79.1062L45.5181 78.9308L49.5977 76.316L45.8139 77.2863L33.0116 78.0154L27.4922 75.4663Z" fill="#FD9725"/>
</g>
<path style="mix-blend-mode:multiply" opacity="0.6" fill-rule="evenodd" clip-rule="evenodd" d="M296.072 65.6264V79.9559L304.589 86.6437H320.204L327.336 79.4022V60.9395L296.072 65.6264Z" fill="url(#paint11_linear_1175_2373)"/>
<path fill-rule="evenodd" clip-rule="evenodd" d="M297.507 74.8032L295.342 60.9507L303.691 54.5205H320.204L327.336 60.9397L326.337 75.0061L317.955 79.9562H304.941L297.507 74.8032Z" fill="url(#paint12_radial_1175_2373)"/>
<path fill-rule="evenodd" clip-rule="evenodd" d="M320.204 54.5203L317.988 50.5405L304.589 51.4231L303.69 54.5203H320.204Z" fill="#FFC803"/>
<path fill-rule="evenodd" clip-rule="evenodd" d="M327.336 60.9395L317.988 50.5405L319.456 54.5203L327.336 60.9395Z" fill="#FFA003"/>
<path fill-rule="evenodd" clip-rule="evenodd" d="M304.589 51.4231L303.691 54.5203L295.342 60.9505L297.457 57.5463L304.589 51.4231Z" fill="#FFA003"/>
<g style="mix-blend-mode:soft-light">
<path fill-rule="evenodd" clip-rule="evenodd" d="M295.342 60.9507L306.531 63.5107L315.455 62.8803L327.336 60.9397L319.456 54.5205H303.691L295.342 60.9507Z" fill="#FD9725"/>
</g>
<path fill-rule="evenodd" clip-rule="evenodd" d="M315.455 54.5204L322.665 56.735L319.06 53.4514L315.455 54.5204Z" fill="#FFE604"/>
<path fill-rule="evenodd" clip-rule="evenodd" d="M303.997 53.4514L305.481 54.5204L301.999 55.825L303.997 53.4514Z" fill="#FFE604"/>
<path fill-rule="evenodd" clip-rule="evenodd" d="M320.918 78.0154L314.724 79.9559H317.955L320.918 78.0154Z" fill="#F86600"/>
<path fill-rule="evenodd" clip-rule="evenodd" d="M302.139 78.0154L308.082 79.9559H304.94L302.139 78.0154Z" fill="#F86600"/>
<g style="mix-blend-mode:multiply" opacity="0.3">
<path fill-rule="evenodd" clip-rule="evenodd" d="M326.337 75.006L317.821 70.8289L306.559 71.5579L297.507 74.8032L304.94 79.9561H317.955L326.337 75.006Z" fill="#C805C7"/>
</g>
<g style="mix-blend-mode:soft-light">
<path fill-rule="evenodd" clip-rule="evenodd" d="M299.962 75.4663L305.481 79.1062L317.988 78.9308L322.067 76.316L318.284 77.2863L305.481 78.0154L299.962 75.4663Z" fill="#FD9725"/>
</g>
</g>
<defs>
<linearGradient id="paint0_linear_1175_2373" x1="174.494" y1="135.746" x2="174.494" y2="6.60569" gradientUnits="userSpaceOnUse">
<stop stop-color="#B4593C"/>
<stop offset="1" stop-color="#D89D48"/>
</linearGradient>
<linearGradient id="paint1_linear_1175_2373" x1="67.3711" y1="77.8407" x2="348.444" y2="77.8407" gradientUnits="userSpaceOnUse">
<stop stop-color="#BC4A4B"/>
<stop offset="1" stop-color="#BD5345"/>
</linearGradient>
<linearGradient id="paint2_linear_1175_2373" x1="98397.7" y1="76911.6" x2="218448" y2="76911.6" gradientUnits="userSpaceOnUse">
<stop stop-color="#BC4A4B"/>
<stop offset="1" stop-color="#BD5345"/>
</linearGradient>
<linearGradient id="paint3_linear_1175_2373" x1="34141.5" y1="103260" x2="59746.3" y2="103260" gradientUnits="userSpaceOnUse">
<stop stop-color="#BC4A4B"/>
<stop offset="1" stop-color="#BD5345"/>
</linearGradient>
<linearGradient id="paint4_linear_1175_2373" x1="83062.1" y1="55162.3" x2="135505" y2="55162.3" gradientUnits="userSpaceOnUse">
<stop stop-color="#BC4A4B"/>
<stop offset="1" stop-color="#BD5345"/>
</linearGradient>
<linearGradient id="paint5_linear_1175_2373" x1="40642.5" y1="22867.6" x2="49747.1" y2="22867.6" gradientUnits="userSpaceOnUse">
<stop stop-color="#BC4A4B"/>
<stop offset="1" stop-color="#BD5345"/>
</linearGradient>
<linearGradient id="paint6_linear_1175_2373" x1="37882.4" y1="17995.9" x2="44428.7" y2="17995.9" gradientUnits="userSpaceOnUse">
<stop stop-color="#BC4A4B"/>
<stop offset="1" stop-color="#BD5345"/>
</linearGradient>
<linearGradient id="paint7_linear_1175_2373" x1="18018.6" y1="2766.25" x2="30847.7" y2="2766.25" gradientUnits="userSpaceOnUse">
<stop stop-color="#BC4A4B"/>
<stop offset="1" stop-color="#BD5345"/>
</linearGradient>
<linearGradient id="paint8_linear_1175_2373" x1="18410.5" y1="78291.3" x2="28481.4" y2="78291.3" gradientUnits="userSpaceOnUse">
<stop stop-color="#BC4A4B"/>
<stop offset="1" stop-color="#BD5345"/>
</linearGradient>
<linearGradient id="paint9_linear_1175_2373" x1="39.2285" y1="86.6437" x2="39.2285" y2="60.9395" gradientUnits="userSpaceOnUse">
<stop stop-color="#BF48DD"/>
<stop offset="1" stop-color="#B91DB0"/>
</linearGradient>
<radialGradient id="paint10_radial_1175_2373" cx="0" cy="0" r="1" gradientUnits="userSpaceOnUse" gradientTransform="translate(38.1064 55.6249) scale(18.2715 13.4606)">
<stop stop-color="#FFB005"/>
<stop offset="1" stop-color="#FF6105"/>
</radialGradient>
<linearGradient id="paint11_linear_1175_2373" x1="16476.9" y1="1753.82" x2="16476.9" y2="548.549" gradientUnits="userSpaceOnUse">
<stop stop-color="#BF48DD"/>
<stop offset="1" stop-color="#B91DB0"/>
</linearGradient>
<radialGradient id="paint12_radial_1175_2373" cx="0" cy="0" r="1" gradientUnits="userSpaceOnUse" gradientTransform="translate(24789.2 92565.5) scale(1047.5 832.763)">
<stop stop-color="#FFB005"/>
<stop offset="1" stop-color="#FF6105"/>
</radialGradient>
<clipPath id="clip0_1175_2373">
<rect width="304.471" height="36.1033" fill="white" transform="translate(22.8652 50.5405)"/>
</clipPath>
</defs>
</svg>
