<svg width="309" height="75" viewBox="0 0 309 75" fill="none" xmlns="http://www.w3.org/2000/svg">
<path fill-rule="evenodd" clip-rule="evenodd" d="M273.419 64.7411L250.471 72.282L297.459 60.6874C292.423 65.7894 286.781 70.4622 280.617 74.636H30.9355C30.9355 74.636 1.76805 61.1562 0.202396 41.248C0.107132 39.973 0.123858 38.694 0.252346 37.4209L0.795021 37.2561L16.3019 32.3834L4.56877 27.7476L3.70797 27.4128C7.96207 20.2016 16.3954 12.434 30.9355 4.42444C30.9355 4.42444 31.8587 4.50168 33.6052 4.63045C52.7299 6.0521 171.215 14.2111 273.419 7.04109C273.419 7.04109 326.739 22.1074 302.343 54.9442L273.419 64.7411Z" fill="url(#paint0_linear_1311_2984)"/>
<path fill-rule="evenodd" clip-rule="evenodd" d="M273.414 7.01531L266.353 0.0101318L122.324 4.40384L40.5359 0.0101318L30.9424 4.41412C30.9424 4.41412 167.267 16.8741 273.414 7.01531Z" fill="#E4B84C"/>
<path fill-rule="evenodd" clip-rule="evenodd" d="M308.719 37.8023C308.719 37.8023 312.805 14.989 266.353 0L273.414 7.01548C273.414 7.01548 307.159 17.5233 308.719 37.8023Z" fill="#DEAB4A"/>
<path fill-rule="evenodd" clip-rule="evenodd" d="M0.252637 37.4209L0.795313 37.2561C0.488531 38.5749 0.280216 39.9081 0.171544 41.248C0.171544 41.5468 0.171502 41.8661 0.127838 42.1855C-0.0426127 40.6142 -0.0426127 39.0335 0.127838 37.4622V37.4622L0.252637 37.4209Z" fill="#DEAB4A"/>
<path fill-rule="evenodd" clip-rule="evenodd" d="M40.5416 0.0101318L33.6053 4.64592C33.6053 4.64592 13.7071 12.3722 4.59385 27.7424L3.73305 27.4076L2.85352 27.0522C6.92672 17.6313 16.826 6.19118 40.5416 0.0101318Z" fill="#DEAB4A"/>
<path fill-rule="evenodd" clip-rule="evenodd" d="M259.392 8.42688H277.637L270.788 4.40405L259.392 8.42688Z" fill="#DBA649"/>
<path fill-rule="evenodd" clip-rule="evenodd" d="M25.8203 8.4267L41.8387 5.40314L34.4657 2.7865L25.8203 8.4267Z" fill="#DBA649"/>
<path fill-rule="evenodd" clip-rule="evenodd" d="M0.794922 37.2564L8.21776 29.1798L16.308 32.3785L0.794922 37.2564Z" fill="#E4B84C"/>
<path fill-rule="evenodd" clip-rule="evenodd" d="M297.459 60.6876L293.561 57.9268L250.471 72.2822L297.459 60.6876Z" fill="#E4B84C"/>
<g style="mix-blend-mode:multiply" opacity="0.2">
<path style="mix-blend-mode:multiply" opacity="0.2" fill-rule="evenodd" clip-rule="evenodd" d="M30.9355 74.6364C30.9355 74.6364 60.6144 33.2182 153.893 10.5905L175.35 10.8119C175.35 10.8119 84.1305 20.8613 41.864 74.6364H30.9355Z" fill="url(#paint1_linear_1311_2984)"/>
<path style="mix-blend-mode:multiply" opacity="0.2" fill-rule="evenodd" clip-rule="evenodd" d="M48.6816 74.6362C48.6816 74.6362 107.846 25.5227 192.292 10.8118H219.363C219.363 10.8118 98.5145 26.8722 76.6639 74.6362H48.6816Z" fill="url(#paint2_linear_1311_2984)"/>
<path style="mix-blend-mode:multiply" opacity="0.2" fill-rule="evenodd" clip-rule="evenodd" d="M131.513 53.9605C131.513 53.9605 151.642 31.0906 180.79 31.2658C180.79 31.2658 171.166 53.0334 131.513 53.9605Z" fill="url(#paint3_linear_1311_2984)"/>
<path style="mix-blend-mode:multiply" opacity="0.2" fill-rule="evenodd" clip-rule="evenodd" d="M61.4882 6.41296C61.4882 6.41296 17.0073 30.107 14.4873 64.0564L19.4026 67.8062C19.4026 67.8062 12.9591 32.9709 64.3139 6.57264L61.4882 6.41296Z" fill="url(#paint4_linear_1311_2984)"/>
<path style="mix-blend-mode:multiply" opacity="0.2" fill-rule="evenodd" clip-rule="evenodd" d="M149.09 74.6364C149.09 74.6364 210.463 49.1499 241.601 9.2821L236.025 9.56024C236.025 9.56024 212.147 51.6377 138.181 74.6364H149.09Z" fill="url(#paint5_linear_1311_2984)"/>
<path style="mix-blend-mode:multiply" opacity="0.2" fill-rule="evenodd" clip-rule="evenodd" d="M166.942 74.6363C166.942 74.6363 251.675 27.3101 283.487 10.8273C283.487 10.8273 293.268 16.0296 299.93 21.7677C299.93 21.7677 224.267 49.6494 202.803 74.6517L166.942 74.6363Z" fill="url(#paint6_linear_1311_2984)"/>
<path style="mix-blend-mode:multiply" opacity="0.2" fill-rule="evenodd" clip-rule="evenodd" d="M215.89 69.7535C215.89 69.7535 214.992 59.4518 255.855 44.9984C255.868 44.9984 230.755 54.9654 215.89 69.7535Z" fill="url(#paint7_linear_1311_2984)"/>
<path style="mix-blend-mode:multiply" opacity="0.2" fill-rule="evenodd" clip-rule="evenodd" d="M307.771 33.2129L223.799 74.6362H232.875L308.719 37.8023L307.771 33.2129Z" fill="url(#paint8_linear_1311_2984)"/>
</g>
<path fill-rule="evenodd" clip-rule="evenodd" d="M82.459 7.98376L116.417 12.5474L194.269 10.8116L126.522 8.42674L82.459 7.98376Z" fill="#DBA649"/>
<path fill-rule="evenodd" clip-rule="evenodd" d="M219.363 10.8116L254.463 9.29724L267.175 10.8116L283.88 12.5474L302.992 24.961L294.914 17.1266L277.636 8.42674L260.638 7.98376L219.363 10.8116Z" fill="#C98043"/>
<path fill-rule="evenodd" clip-rule="evenodd" d="M6.42773 24.8941L21.6852 11.6666L33.8299 9.29726L57.4895 7.15448L83.8374 7.98376L41.8391 5.40833L25.8207 8.43189L16.2833 14.7778C16.2833 14.7778 8.92281 20.1656 6.42773 24.8941Z" fill="#C98043"/>
<path opacity="0.4" fill-rule="evenodd" clip-rule="evenodd" d="M157.735 70.7161C157.735 70.7161 196.322 54.8668 227.965 24.2449C227.965 24.2449 204.325 52.9919 157.735 70.7161Z" fill="#D9B148"/>
<path opacity="0.4" fill-rule="evenodd" clip-rule="evenodd" d="M77.8369 72.2823C77.8369 72.2823 99.4442 34.0422 203.732 13.3872C203.732 13.4027 106.287 28.4175 77.8369 72.2823Z" fill="#D9B148"/>
<path opacity="0.4" fill-rule="evenodd" clip-rule="evenodd" d="M41.8584 74.6363C41.8584 74.6363 79.6463 28.0209 170.062 11.3527C170.043 11.3424 96.5566 16.6117 41.8584 74.6363Z" fill="#D9B148"/>
<path opacity="0.4" fill-rule="evenodd" clip-rule="evenodd" d="M19.4521 59.1422C19.4521 59.1422 21.4482 30.045 62.8727 7.32446C62.8727 7.32446 26.9311 19.9441 19.4521 59.1422Z" fill="#D9B148"/>
<path fill-rule="evenodd" clip-rule="evenodd" d="M16.3086 32.3787H47.603L173.049 37.1123L28.1477 33.6097L16.3086 32.3787Z" fill="#A35237"/>
<path fill-rule="evenodd" clip-rule="evenodd" d="M28.1475 33.6095L37.4728 34.8354H58.6373L28.1475 33.6095Z" fill="#E4A54C"/>
<path fill-rule="evenodd" clip-rule="evenodd" d="M30.9355 74.6363L105.027 71.4634L157.13 74.6363L207.325 73.0499L215.901 69.7533L208.766 74.6363H30.9355Z" fill="#A35237"/>
<path fill-rule="evenodd" clip-rule="evenodd" d="M240.466 74.6363L250.471 72.2823L246.466 74.6363H240.466Z" fill="#A35237"/>
<path fill-rule="evenodd" clip-rule="evenodd" d="M66.4156 67.8061L54.6514 57.9268L64.3073 63.2528L66.4156 67.8061Z" fill="#A35237"/>
<path fill-rule="evenodd" clip-rule="evenodd" d="M189.896 70.0262L221.091 65.1019L201.049 69.7532L189.896 70.0262Z" fill="#A35237"/>
<path fill-rule="evenodd" clip-rule="evenodd" d="M82.4584 4.40906L73.0645 7.32445L77.8363 13.387L78.6597 7.32445L82.4584 4.40906Z" fill="#B15D3B"/>
<path fill-rule="evenodd" clip-rule="evenodd" d="M77.8368 13.3869L75.8096 10.8115L78.5105 8.42664L77.8368 13.3869Z" fill="#E4B84C"/>
<path fill-rule="evenodd" clip-rule="evenodd" d="M209.034 29.1798L223.799 39.5228L215.902 36.1592L209.034 29.1798Z" fill="#B15D3B"/>
<path fill-rule="evenodd" clip-rule="evenodd" d="M189.896 70.0262L201.049 69.7532L221.091 65.1019L200.051 69.1505L189.896 70.0262Z" fill="#E4B84C"/>
<path fill-rule="evenodd" clip-rule="evenodd" d="M54.6514 57.9268L60.5335 63.9636L66.4156 67.8061L54.6514 57.9268Z" fill="#E4A54C"/>
<g style="mix-blend-mode:soft-light">
<path fill-rule="evenodd" clip-rule="evenodd" d="M213.906 10.379L207.325 1.80279L255.867 0.319336L259.391 8.42681L213.906 10.379Z" fill="#E3C150"/>
</g>
<g style="mix-blend-mode:soft-light">
<path fill-rule="evenodd" clip-rule="evenodd" d="M45.7816 5.60425L50.3975 0.530638L40.5482 0.00524902L35.6953 3.22454L41.8394 5.40336L45.7816 5.60425Z" fill="#E3C150"/>
</g>
<path fill-rule="evenodd" clip-rule="evenodd" d="M225.114 32.3783L218.92 16.3127L223.798 24.9611L225.114 32.3783Z" fill="#B15D3B"/>
<path fill-rule="evenodd" clip-rule="evenodd" d="M277.637 53.0283L280.094 50.597L289.251 53.0283L286.8 56.9481H280.743L277.637 53.0283Z" fill="#A35237"/>
<path fill-rule="evenodd" clip-rule="evenodd" d="M43.8418 45.8839L44.9833 44.9362L49.8924 46.9192L46.7548 48.583L43.8418 46.7596V45.8839Z" fill="#B15D3B"/>
<path fill-rule="evenodd" clip-rule="evenodd" d="M277.637 53.0281L280.706 56.1701L285.777 56.644H286.987L286.8 56.9479L280.743 57.2518L277.637 53.0281Z" fill="#E0A54D"/>
<path fill-rule="evenodd" clip-rule="evenodd" d="M43.8418 46.7595L45.9065 47.7948H47.9836L49.8924 46.9192L47.3786 48.5829H46.7548L43.8418 46.7595Z" fill="#E0A54D"/>
<path opacity="0.4" fill-rule="evenodd" clip-rule="evenodd" d="M133.508 53.8885C133.508 53.8885 168.663 58.0092 180.789 31.2659C180.789 31.2659 171.795 53.7082 133.508 53.8885Z" fill="#D9B148"/>
<path fill-rule="evenodd" clip-rule="evenodd" d="M56.9561 48.2373L58.8118 49.275H60.6788L62.3945 48.3973L60.135 50.0648H59.5743L56.9561 48.2373Z" fill="#F2774F"/>
<path opacity="0.4" fill-rule="evenodd" clip-rule="evenodd" d="M137.552 55.3819C137.552 55.3819 169.15 59.5119 180.05 32.7083C180.05 32.7083 171.965 55.2012 137.552 55.3819Z" fill="#D9772F"/>
<path style="mix-blend-mode:multiply" opacity="0.6" fill-rule="evenodd" clip-rule="evenodd" d="M52.9932 59.6461L55.0508 63.549C55.0508 63.549 168.865 67.0079 251.596 65.9444L255.834 60.7819C255.834 60.7819 138.454 64.3337 52.9932 59.6461Z" fill="url(#paint9_linear_1311_2984)"/>
<path fill-rule="evenodd" clip-rule="evenodd" d="M58.835 19.9672C58.835 19.9672 32.2485 31.4279 49.6345 59.4551C49.6345 59.4551 177.594 67.8028 262.461 60.2553C262.461 60.2553 275.502 40.4726 258.396 21.7637C258.396 21.7379 114.194 23.6996 58.835 19.9672Z" fill="url(#paint10_linear_1311_2984)"/>
<path fill-rule="evenodd" clip-rule="evenodd" d="M258.396 21.738L255.172 20.3131C255.172 20.3131 123.748 25.6718 61.3074 19.1412L58.835 19.9414C58.835 19.9414 137.961 27.4838 258.396 21.738Z" fill="url(#paint11_radial_1311_2984)"/>
<path style="mix-blend-mode:screen" opacity="0.8" fill-rule="evenodd" clip-rule="evenodd" d="M182.258 23.896L164.962 63.5491L227.363 62.2585L245.389 21.8878L182.258 23.896Z" fill="url(#paint12_linear_1311_2984)"/>
<path style="mix-blend-mode:screen" opacity="0.8" fill-rule="evenodd" clip-rule="evenodd" d="M58.8346 19.9672C58.8346 19.9672 51.888 41.185 56.8218 59.899L70.4402 60.6476L75.346 20.8293L58.8346 19.9672Z" fill="url(#paint13_linear_1311_2984)"/>
<g style="mix-blend-mode:soft-light">
<path fill-rule="evenodd" clip-rule="evenodd" d="M50.9688 58.1699C50.9688 58.1699 162.052 67.2404 259.237 59.4554C259.254 59.4296 102.718 62.9452 50.9688 58.1699Z" fill="#FFFF1D"/>
</g>
<path fill-rule="evenodd" clip-rule="evenodd" d="M219.323 44.1846L234.119 38.8776L224.352 43.5961L219.323 44.1846Z" fill="#FFFF1D"/>
<path fill-rule="evenodd" clip-rule="evenodd" d="M212.019 48.7327L215.792 53.2344L214.295 50.7564L212.019 48.7327Z" fill="#FFFF1D"/>
<path fill-rule="evenodd" clip-rule="evenodd" d="M164.155 29.3529L173.266 32.3781L166.802 30.8655L164.155 29.3529Z" fill="#FFFF1D"/>
<path fill-rule="evenodd" clip-rule="evenodd" d="M122.89 30.535L119.504 31.7172H122.391L122.89 30.535Z" fill="#FFFF1D"/>
<path fill-rule="evenodd" clip-rule="evenodd" d="M219.323 44.1846L225.193 41.5311L234.119 38.8776L219.323 44.1846Z" fill="#FF7539"/>
<path fill-rule="evenodd" clip-rule="evenodd" d="M212.019 48.7327L214.295 50.7564L215.792 53.2344L214.57 50.4053L212.019 48.7327Z" fill="#FF7539"/>
<path fill-rule="evenodd" clip-rule="evenodd" d="M92.8164 58.6346L98.9388 57.886L95.8608 57.8292L92.8164 58.6346Z" fill="#FFFF1D"/>
<path fill-rule="evenodd" clip-rule="evenodd" d="M92.8164 58.6345L95.8608 57.8291L98.9388 57.8859L95.6646 57.4368L92.8164 58.6345Z" fill="#FF7539"/>
<path fill-rule="evenodd" clip-rule="evenodd" d="M164.155 29.3529H166.303L173.266 32.3781L164.155 29.3529Z" fill="#FF8B39"/>
<path fill-rule="evenodd" clip-rule="evenodd" d="M119.504 31.7168L120.171 29.9254L122.89 30.5346L119.504 31.7168Z" fill="#FF8B39"/>
<path fill-rule="evenodd" clip-rule="evenodd" d="M246.763 22.254L260.611 24.9643L258.396 21.7378L246.763 22.254Z" fill="#FFFF18"/>
<path fill-rule="evenodd" clip-rule="evenodd" d="M55.1572 22.0375L72.2798 20.9121L58.8352 19.9415L55.1572 22.0375Z" fill="#FFFF18"/>
<path fill-rule="evenodd" clip-rule="evenodd" d="M77.7969 21.3303L87.5131 22.8016L104.843 22.6777L77.7969 21.3303Z" fill="#FFFF18"/>
<defs>
<linearGradient id="paint0_linear_1311_2984" x1="154.435" y1="74.636" x2="154.435" y2="4.40898" gradientUnits="userSpaceOnUse">
<stop stop-color="#B4593C"/>
<stop offset="1" stop-color="#D89D48"/>
</linearGradient>
<linearGradient id="paint1_linear_1311_2984" x1="30.9355" y1="42.6134" x2="175.35" y2="42.6134" gradientUnits="userSpaceOnUse">
<stop stop-color="#BC4A4B"/>
<stop offset="1" stop-color="#BD5345"/>
</linearGradient>
<linearGradient id="paint2_linear_1311_2984" x1="245649" y1="58851.9" x2="292353" y2="58851.9" gradientUnits="userSpaceOnUse">
<stop stop-color="#BC4A4B"/>
<stop offset="1" stop-color="#BD5345"/>
</linearGradient>
<linearGradient id="paint3_linear_1311_2984" x1="77582.7" y1="20950.2" x2="81475.7" y2="20950.2" gradientUnits="userSpaceOnUse">
<stop stop-color="#BC4A4B"/>
<stop offset="1" stop-color="#BD5345"/>
</linearGradient>
<linearGradient id="paint4_linear_1311_2984" x1="68980.5" y1="55937.5" x2="72959.6" y2="55937.5" gradientUnits="userSpaceOnUse">
<stop stop-color="#BC4A4B"/>
<stop offset="1" stop-color="#BD5345"/>
</linearGradient>
<linearGradient id="paint5_linear_1311_2984" x1="163793" y1="60165.3" x2="180940" y2="60165.3" gradientUnits="userSpaceOnUse">
<stop stop-color="#BC4A4B"/>
<stop offset="1" stop-color="#BD5345"/>
</linearGradient>
<linearGradient id="paint6_linear_1311_2984" x1="216741" y1="58851.9" x2="245094" y2="58851.9" gradientUnits="userSpaceOnUse">
<stop stop-color="#BC4A4B"/>
<stop offset="1" stop-color="#BD5345"/>
</linearGradient>
<linearGradient id="paint7_linear_1311_2984" x1="68439.3" y1="23571.5" x2="71000" y2="23571.5" gradientUnits="userSpaceOnUse">
<stop stop-color="#BC4A4B"/>
<stop offset="1" stop-color="#BD5345"/>
</linearGradient>
<linearGradient id="paint8_linear_1311_2984" x1="30686.2" y1="4369.82" x2="42247.2" y2="4369.82" gradientUnits="userSpaceOnUse">
<stop stop-color="#BC4A4B"/>
<stop offset="1" stop-color="#BD5345"/>
</linearGradient>
<linearGradient id="paint9_linear_1311_2984" x1="288921" y1="6288.94" x2="362307" y2="6288.94" gradientUnits="userSpaceOnUse">
<stop stop-color="#C77CBD"/>
<stop offset="1" stop-color="#974577"/>
</linearGradient>
<linearGradient id="paint10_linear_1311_2984" x1="155.476" y1="63.3889" x2="155.476" y2="19.9414" gradientUnits="userSpaceOnUse">
<stop stop-color="#479100"/>
<stop offset="1" stop-color="#B8D502"/>
</linearGradient>
<radialGradient id="paint11_radial_1311_2984" cx="0" cy="0" r="1" gradientUnits="userSpaceOnUse" gradientTransform="translate(158.616 21.516) scale(88.3095 81.3142)">
<stop stop-color="#FFF447"/>
<stop offset="1" stop-color="#FFBD36"/>
</radialGradient>
<linearGradient id="paint12_linear_1311_2984" x1="205.172" y1="63.5491" x2="205.172" y2="21.8878" gradientUnits="userSpaceOnUse">
<stop/>
<stop offset="1" stop-color="#FFBD00"/>
</linearGradient>
<linearGradient id="paint13_linear_1311_2984" x1="29398.1" y1="38818.9" x2="29398.1" y2="35613.3" gradientUnits="userSpaceOnUse">
<stop/>
<stop offset="1" stop-color="#233000"/>
</linearGradient>
</defs>
</svg>
