<svg width="375" height="727" viewBox="0 0 375 727" fill="none" xmlns="http://www.w3.org/2000/svg">
<path fill-rule="evenodd" clip-rule="evenodd" d="M-129.626 722.748C-101.483 730.398 582.919 726.65 691 718.081L688.588 670.722L649.925 667.049L687.985 657.486C684.456 580.977 682.021 503.882 680.681 426.2L660.043 418.549L680.145 410.898C678.537 300.649 679.408 190.018 683.093 79.9984L634.112 1.65352C627.411 -1.63635 -128.219 4.63736 -238.98 9.30439C-237.104 45.0084 -235.563 80.5339 -234.356 115.881L-219.347 125.904L-226.048 135.391L-224.775 142.659L-233.217 148.933C-230.001 263.696 -230.336 378.025 -234.222 491.921L-227.819 498.195L-229 508.5L-222.5 518.5L-235.429 524.131C-237.305 571.311 -239.784 618.466 -242.866 665.596L-129.559 722.518L-129.626 722.748Z" fill="url(#paint0_linear_1262_1895)"/>
<defs>
<linearGradient id="paint0_linear_1262_1895" x1="224.033" y1="726.956" x2="224.033" y2="0.811938" gradientUnits="userSpaceOnUse">
<stop stop-color="#EDD6B9"/>
<stop offset="1" stop-color="#D4B492"/>
</linearGradient>
</defs>
</svg>
