<svg width="1180" height="762" viewBox="0 0 1180 762" fill="none" xmlns="http://www.w3.org/2000/svg">
<path fill-rule="evenodd" clip-rule="evenodd" d="M80.8105 762L48.9995 636.992L474.946 617.25L80.8105 614.952L0.0267639 51.6533C0.0267639 51.6533 656.108 93.75 1180 51.6533L1102.88 492.581L1061.74 494.831L1122.85 499.839L1089.43 761.927L80.8105 762Z" fill="url(#paint0_linear_208_15336)"/>
<path fill-rule="evenodd" clip-rule="evenodd" d="M1180 51.6532L1159.12 0L364.115 34.4274L72.1762 14.371L0 51.6532C0 51.6532 751.594 98.8065 1180 51.6532Z" fill="#E8BC42"/>
<g style="mix-blend-mode:multiply" opacity="0.2">
<path style="mix-blend-mode:multiply" opacity="0.2" fill-rule="evenodd" clip-rule="evenodd" d="M19.6212 188.395L143.23 64.0403L199.554 61.4758L30.3674 263.202L19.6212 188.395Z" fill="url(#paint1_linear_208_15336)"/>
<path style="mix-blend-mode:multiply" opacity="0.2" fill-rule="evenodd" clip-rule="evenodd" d="M41.1672 338.589C41.1672 338.589 143.23 164.806 244.33 68.1049L284.722 64.4758C284.722 64.4758 90.7014 224.806 49.1065 378.121L41.1672 338.589Z" fill="url(#paint2_linear_208_15336)"/>
<path style="mix-blend-mode:multiply" opacity="0.2" fill-rule="evenodd" clip-rule="evenodd" d="M80.8105 614.952C80.8105 614.952 235.054 253.089 506.783 72.6532L658.567 79.1613L164.561 678.556L80.8105 614.952Z" fill="url(#paint3_linear_208_15336)"/>
<path style="mix-blend-mode:multiply" opacity="0.2" fill-rule="evenodd" clip-rule="evenodd" d="M267.185 762L369.676 698.25L768.73 71.3952L815.243 71.5888L336.02 762H267.185Z" fill="url(#paint4_linear_208_15336)"/>
<path style="mix-blend-mode:multiply" opacity="0.2" fill-rule="evenodd" clip-rule="evenodd" d="M942.46 68.129L541.214 762H658.567L1016.32 64.5L942.46 68.129Z" fill="url(#paint5_linear_208_15336)"/>
<path style="mix-blend-mode:multiply" opacity="0.2" fill-rule="evenodd" clip-rule="evenodd" d="M1089.43 64.0404L707.513 762H777.818L1132.71 56.4436L1089.43 64.0404Z" fill="url(#paint6_linear_208_15336)"/>
</g>
<path fill-rule="evenodd" clip-rule="evenodd" d="M164.561 678.556L154.136 632.129L81.051 137.685C81.051 137.685 627.959 142.064 1089.43 111.218L1003.73 701.758L607.162 721.113L164.561 678.556Z" fill="#B25933"/>
<path fill-rule="evenodd" clip-rule="evenodd" d="M48.9995 637.016L79.1799 603.677L80.8105 614.976L151.65 615.387L154.136 632.129L48.9995 637.016Z" fill="#E8BC42"/>
<path fill-rule="evenodd" clip-rule="evenodd" d="M1003.73 701.758L978.655 678.556L554.527 702.919L183.621 672.266L164.562 678.556L564.899 721.04L1003.73 701.758Z" fill="#DFA940"/>
<path fill-rule="evenodd" clip-rule="evenodd" d="M978.655 678.556L1014.45 485.855L1068.63 112.597L1089.43 111.242L1034.02 493.065L1032.25 505.185L1003.73 701.758L978.655 678.556Z" fill="#9C482C"/>
<path fill-rule="evenodd" clip-rule="evenodd" d="M81.0511 137.686L109.574 137.831L164.562 610.452L151.65 615.387L81.0511 137.686Z" fill="#9C482C"/>
<path fill-rule="evenodd" clip-rule="evenodd" d="M154.136 632.129L164.562 678.556L183.621 672.266L168.865 620.758L154.136 632.129Z" fill="#9C482C"/>
<path style="mix-blend-mode:multiply" opacity="0.6" fill-rule="evenodd" clip-rule="evenodd" d="M1089.43 111.242L1065 137.685L111.392 153.411L81.0511 137.685L1089.43 111.242Z" fill="url(#paint7_linear_208_15336)"/>
<path fill-rule="evenodd" clip-rule="evenodd" d="M154.136 632.129L141.412 613.694L151.65 615.387L164.562 610.452L211.182 603.677L590.027 617.903L199.554 615.653L154.136 632.129Z" fill="#9C482C"/>
<path fill-rule="evenodd" clip-rule="evenodd" d="M590.027 617.903L687.946 603.677L786.373 617.903H590.027Z" fill="#9C482C"/>
<path fill-rule="evenodd" clip-rule="evenodd" d="M1034.04 44.6129L1089.43 64.0403L1052.09 91.9113L1061.74 64.5L1034.04 44.6129Z" fill="#B55C33"/>
<path fill-rule="evenodd" clip-rule="evenodd" d="M312.175 65.9758L541.214 51.7258L815.243 71.5887L608.365 90.3387L312.175 65.9758Z" fill="#DFA940"/>
<path fill-rule="evenodd" clip-rule="evenodd" d="M473.609 711.339L688.186 715.621L556.585 735.411L473.609 711.339Z" fill="#D38F3D"/>
<path fill-rule="evenodd" clip-rule="evenodd" d="M1122.85 499.911L1104.16 485.347L1102.88 492.653L1058.5 495.29L1122.85 499.911Z" fill="#E8BC42"/>
<g style="mix-blend-mode:multiply" opacity="0.2">
<path style="mix-blend-mode:multiply" opacity="0.2" fill-rule="evenodd" clip-rule="evenodd" d="M155.874 535.621L1048.83 249.145L1043.21 287.686L158.788 560.758L155.874 535.621Z" fill="url(#paint8_linear_208_15336)"/>
<path style="mix-blend-mode:multiply" opacity="0.2" fill-rule="evenodd" clip-rule="evenodd" d="M151.704 499.911L688.186 143.903L526.966 142.065L134.568 352.427L151.704 499.911Z" fill="url(#paint9_linear_208_15336)"/>
<path style="mix-blend-mode:multiply" opacity="0.2" fill-rule="evenodd" clip-rule="evenodd" d="M284.641 439.548C284.641 439.548 444.391 323.105 563.723 287.686C563.696 287.686 440.675 402.46 284.641 439.548Z" fill="url(#paint10_linear_208_15336)"/>
<path style="mix-blend-mode:multiply" opacity="0.2" fill-rule="evenodd" clip-rule="evenodd" d="M299.451 681.823C299.451 681.823 568.855 375.242 1036.29 335.347L1028.94 386.008C1028.94 386.008 657.364 384.46 358.368 686.71L299.451 681.823Z" fill="url(#paint11_linear_208_15336)"/>
<path style="mix-blend-mode:multiply" opacity="0.2" fill-rule="evenodd" clip-rule="evenodd" d="M441.263 693.556C441.263 693.556 607.643 465.919 1024.5 416.686L1016.32 473.032C1016.32 473.032 643.437 507.629 540.492 701.758L441.263 693.556Z" fill="url(#paint12_linear_208_15336)"/>
<path style="mix-blend-mode:multiply" opacity="0.2" fill-rule="evenodd" clip-rule="evenodd" d="M724.034 585.629C724.034 585.629 792.601 491.855 940.696 518.855C940.696 518.855 857.453 592.21 724.034 585.629Z" fill="url(#paint13_linear_208_15336)"/>
</g>
<path fill-rule="evenodd" clip-rule="evenodd" d="M1089.43 64.0403L1140.22 68.1291L1170.83 64.0403L1165.32 82.7661L1150.01 184.137L1148.03 234.508L1180 51.7258L1075.02 58.9839L1089.43 64.0403Z" fill="#CD823A"/>
<path fill-rule="evenodd" clip-rule="evenodd" d="M318.831 65.5645L0.0266724 51.7258L47.9837 386.008L58.329 360.702L25.7428 153.411L19.6212 119.323V82.742L41.1671 71.0323L178.115 72.6532L193.993 68.1291L267.185 71.3952L318.831 65.5645Z" fill="#CD823A"/>
<g style="mix-blend-mode:soft-light">
<path fill-rule="evenodd" clip-rule="evenodd" d="M738.309 18.3145L803.428 72.6532L951.095 66.1451L897.898 11.3951L738.309 18.3145Z" fill="#E7DB48"/>
</g>
<g style="mix-blend-mode:soft-light">
<path fill-rule="evenodd" clip-rule="evenodd" d="M97.9724 55.9839L155.874 20.2017L186.001 22.2823L162.904 58.7904L97.9724 55.9839Z" fill="#E7DB48"/>
</g>
<g style="mix-blend-mode:soft-light">
<path fill-rule="evenodd" clip-rule="evenodd" d="M1061.74 4.28225H1132.71L1158.59 17.9516L1152.63 30.4113L1161.34 36.3629L1140.22 54.4839L1180 51.7258L1159.12 0.0725708L1061.74 4.28225Z" fill="#E7DB48"/>
</g>
<g style="mix-blend-mode:soft-light">
<path fill-rule="evenodd" clip-rule="evenodd" d="M81.0511 55.2581L49.6144 51.7258L32.4525 42.0242L67.6584 27.6532L68.2732 20.2016L92.1716 15.8226L72.1761 14.4435L0.0266724 51.7258L81.0511 55.2581Z" fill="#E7DB48"/>
</g>
<path fill-rule="evenodd" clip-rule="evenodd" d="M1061.74 64.5L1063.72 75.2903L1083.79 68.25L1052.09 91.9113L1061.74 64.5Z" fill="#E8BC42"/>
<path fill-rule="evenodd" clip-rule="evenodd" d="M1058.5 292.984L1075.02 317.347L1055.06 305.153L1058.5 292.984Z" fill="#9C482C"/>
<path fill-rule="evenodd" clip-rule="evenodd" d="M109.574 305.613L81.0511 342.556L109.574 324.073V305.613Z" fill="#9C482C"/>
<defs>
<linearGradient id="paint0_linear_208_15336" x1="590" y1="762" x2="590" y2="51.7258" gradientUnits="userSpaceOnUse">
<stop stop-color="#B85734"/>
<stop offset="1" stop-color="#DC9E3E"/>
</linearGradient>
<linearGradient id="paint1_linear_208_15336" x1="19.6212" y1="162.339" x2="199.554" y2="162.339" gradientUnits="userSpaceOnUse">
<stop stop-color="#C04642"/>
<stop offset="1" stop-color="#C1503D"/>
</linearGradient>
<linearGradient id="paint2_linear_208_15336" x1="338075" y1="83531.7" x2="360256" y2="83531.7" gradientUnits="userSpaceOnUse">
<stop stop-color="#C04642"/>
<stop offset="1" stop-color="#C1503D"/>
</linearGradient>
<linearGradient id="paint3_linear_208_15336" x1="810529" y1="199960" x2="935400" y2="199960" gradientUnits="userSpaceOnUse">
<stop stop-color="#C04642"/>
<stop offset="1" stop-color="#C1503D"/>
</linearGradient>
<linearGradient id="paint4_linear_208_15336" x1="55040.1" y1="119000" x2="167403" y2="119000" gradientUnits="userSpaceOnUse">
<stop stop-color="#C04642"/>
<stop offset="1" stop-color="#C1503D"/>
</linearGradient>
<linearGradient id="paint5_linear_208_15336" x1="96726.5" y1="119184" x2="181167" y2="119184" gradientUnits="userSpaceOnUse">
<stop stop-color="#C04642"/>
<stop offset="1" stop-color="#C1503D"/>
</linearGradient>
<linearGradient id="paint6_linear_208_15336" x1="113240" y1="119373" x2="180872" y2="119373" gradientUnits="userSpaceOnUse">
<stop stop-color="#C04642"/>
<stop offset="1" stop-color="#C1503D"/>
</linearGradient>
<linearGradient id="paint7_linear_208_15336" x1="30645.1" y1="2416.22" x2="411027" y2="2416.22" gradientUnits="userSpaceOnUse">
<stop stop-color="#C04642"/>
<stop offset="1" stop-color="#C1503D"/>
</linearGradient>
<linearGradient id="paint8_linear_208_15336" x1="52215" y1="52397.6" x2="350497" y2="52397.6" gradientUnits="userSpaceOnUse">
<stop stop-color="#C04642"/>
<stop offset="1" stop-color="#C1503D"/>
</linearGradient>
<linearGradient id="paint9_linear_208_15336" x1="27998.2" y1="47610.4" x2="142652" y2="47610.4" gradientUnits="userSpaceOnUse">
<stop stop-color="#C04642"/>
<stop offset="1" stop-color="#C1503D"/>
</linearGradient>
<linearGradient id="paint10_linear_208_15336" x1="413043" y1="49634" x2="442179" y2="49634" gradientUnits="userSpaceOnUse">
<stop stop-color="#C04642"/>
<stop offset="1" stop-color="#C1503D"/>
</linearGradient>
<linearGradient id="paint11_linear_208_15336" x1="1.09417e+06" y1="135919" x2="1.29727e+06" y2="135919" gradientUnits="userSpaceOnUse">
<stop stop-color="#C04642"/>
<stop offset="1" stop-color="#C1503D"/>
</linearGradient>
<linearGradient id="paint12_linear_208_15336" x1="897221" y1="116099" x2="1.02447e+06" y2="116099" gradientUnits="userSpaceOnUse">
<stop stop-color="#C04642"/>
<stop offset="1" stop-color="#C1503D"/>
</linearGradient>
<linearGradient id="paint13_linear_208_15336" x1="356780" y1="29487.3" x2="374341" y2="29487.3" gradientUnits="userSpaceOnUse">
<stop stop-color="#C04642"/>
<stop offset="1" stop-color="#C1503D"/>
</linearGradient>
</defs>
</svg>
