<svg width="248" height="257" viewBox="0 0 248 257" fill="none" xmlns="http://www.w3.org/2000/svg">
<path d="M244.973 36.6097C244.251 27.3363 240.149 18.6506 233.444 12.2012C226.74 5.75186 217.9 1.98776 208.602 1.62354C154.496 -0.541181 100.634 -0.541181 47.0165 1.62354C43.1283 1.7944 39.2879 2.54982 35.6248 3.86444C33.8222 4.54426 32.0649 5.33868 30.3637 6.24268C22.3975 11.2452 16.0437 18.4385 12.0641 26.96C6.82797 35.5196 3.46045 45.0888 2.18227 55.0403C1.72477 63.0437 1.31303 71.0929 1.03854 79.0962C0.969913 79.9486 0.969913 80.805 1.03854 81.6573C1.10549 82.1275 1.10549 82.6048 1.03854 83.075C0.673352 85.544 1.12305 88.0647 2.31951 90.2552C3.12214 91.5976 4.23636 92.727 5.56779 93.5481C5.56779 93.5481 4.33248 94.5542 4.19524 94.6914C3.7338 95.1153 3.30556 95.574 2.91427 96.0634C2.13734 97.0428 1.51979 98.1387 1.08433 99.3105C0.632028 100.47 0.339591 101.685 0.215088 102.923C0.0778409 107.908 0.0778465 112.939 0.0778465 117.97C-0.098032 122.394 0.0241806 126.825 0.443778 131.232C0.443778 132.284 0.443862 133.382 0.672607 134.48C1.19998 136.881 2.1114 139.182 3.37179 141.294C1.5614 143.39 0.570175 146.07 0.58102 148.84C0.58102 151.996 1.03851 155.105 0.58102 158.307C0.199362 166.983 0.367517 175.674 1.08433 184.329C1.15091 185.314 1.2885 186.292 1.49606 187.256C1.72928 189.716 2.39521 192.116 3.46324 194.345C4.06144 195.292 4.82009 196.128 5.70504 196.814C4.8358 196.814 4.14946 197.592 3.73772 198.415C1.37498 202.834 0.801827 207.992 2.13661 212.821C2.60226 218.396 3.55128 223.92 4.97303 229.331C7.57714 236.34 12.1639 242.441 18.1748 246.891C24.1856 251.341 31.3611 253.947 38.8273 254.393C93.473 257.775 148.273 257.867 202.929 254.668H203.616C209.992 254.164 216.142 252.072 221.503 248.585C226.737 245.193 231.082 240.599 234.176 235.185C237.376 228.667 239.729 221.766 241.176 214.651C242.731 210.086 243.519 205.295 243.509 200.473C243.234 197.912 243.966 195.351 243.829 192.79C243.713 189.854 242.947 186.98 241.587 184.375C241.418 184.058 241.295 183.72 241.221 183.369C241.221 182.5 242.045 181.951 242.685 181.402C244.229 180.193 245.258 178.445 245.568 176.509C245.659 176.041 245.659 175.559 245.568 175.091C245.454 174.318 245.454 173.532 245.568 172.759C245.888 166.813 246.116 160.822 246.345 154.877C246.574 148.931 246.803 141.843 246.94 135.303C247.077 128.763 247.214 122.452 247.26 116.003C247.306 109.555 247.26 103.289 247.26 96.9323V87.557C247.26 85.9563 247.26 84.4014 247.26 82.9836C247.146 81.4613 247.146 79.9326 247.26 78.4103C247.328 77.9248 247.328 77.4322 247.26 76.9468C247.172 76.312 247.034 75.6851 246.848 75.0717C246.488 73.8418 245.981 72.6596 245.339 71.5502C244.664 70.4424 243.866 69.4144 242.96 68.486C242.731 68.2573 240.261 65.9707 240.032 66.1993C240.764 65.4766 241.437 64.6967 242.045 63.867C243.498 61.6368 244.522 59.1552 245.064 56.5496C245.384 55.2233 245.522 53.8971 245.751 52.5708C245.751 52.2964 245.751 52.0677 245.751 51.8391C245.887 50.8376 245.887 49.8221 245.751 48.8206C245.522 44.7961 245.247 40.5885 244.973 36.6097Z" fill="url(#paint0_linear_208_14915)"/>
<path d="M247.49 80.7881V100.911C247.49 104.112 247.49 107.359 247.49 110.561C247.49 112.344 247.49 114.036 247.49 115.774C247.49 124.921 247.49 134.068 247.032 143.214C247.032 147.788 246.803 152.361 246.62 156.934C246.716 159.561 246.392 162.185 245.66 164.709C244.916 167.704 244.502 170.771 244.424 173.856C244.406 174.83 244.05 175.767 243.418 176.508C242.709 177.083 241.813 177.376 240.902 177.332L236.327 177.835C227.68 178.704 218.988 179.527 210.296 179.756C203.835 179.931 197.37 179.671 190.944 178.978L205.583 181.173L209.747 181.768L239.621 186.341C240.539 186.423 241.421 186.737 242.183 187.256C242.615 187.769 242.93 188.371 243.104 189.019C243.278 189.667 243.307 190.345 243.189 191.006C243.094 193.014 242.88 195.014 242.549 196.997C242 200.976 241.268 204.909 241.085 208.934C241.13 209.756 241.13 210.581 241.085 211.403C240.36 213.958 239.096 216.328 237.379 218.355C234.078 222.958 229.798 226.773 224.846 229.525C219.894 232.277 214.394 233.897 208.74 234.27C154.911 237.492 100.938 237.492 47.1086 234.27C38.9922 233.748 31.2528 230.657 25.0118 225.443C21.2126 222.261 18.0998 218.34 15.862 213.919C14.9012 211.861 14.6724 209.62 13.7574 207.562C13.5357 207.136 13.352 206.693 13.2085 206.235C13.0017 205.579 12.9866 204.878 13.1649 204.214C13.3432 203.549 13.7075 202.95 14.2149 202.485C15.5937 201.661 17.1855 201.264 18.7898 201.342C36.5862 200.747 54.4284 199.604 72.2706 199.101H72.8195C78.2179 199.101 83.7078 198.872 89.152 198.826L83.1131 198.049C73.9632 196.951 64.8134 196.585 55.3433 196.265H54.9316C43.7726 196.06 32.6359 195.189 21.5806 193.659C19.4561 193.37 17.3793 192.801 15.4045 191.966C14.0165 191.344 12.8057 190.385 11.8817 189.177C11.8904 189.07 11.8904 188.963 11.8817 188.857C10.5993 186.68 10.1142 184.126 10.5093 181.631C10.83 179.018 10.83 176.377 10.5093 173.765C10.2805 169.191 10.006 164.252 9.77727 159.541L9.36555 151.767C9.13869 150.34 9.43082 148.88 10.189 147.651C11.0198 146.862 12.0747 146.351 13.2085 146.187C16.6854 145.318 20.2081 144.449 23.7308 143.9C25.332 143.626 26.9333 143.443 28.3057 143.306L16.0907 140.562C14.841 140.341 13.6258 139.957 12.4765 139.419L11.7444 138.961C10.8896 138.287 10.1927 137.435 9.70272 136.463C9.2127 135.491 8.94141 134.424 8.90803 133.336C8.90803 132.604 8.90799 131.873 8.58775 131.141C8.31326 129.494 8.08454 127.802 7.90154 126.064C7.62705 123.503 7.48987 120.896 7.39837 118.335C7.12387 112.619 6.8494 105.347 10.4178 100.591C11.1612 99.8322 12.0521 99.2338 13.0356 98.8326C14.0191 98.4315 15.0745 98.2361 16.1365 98.2583C24.417 97.2522 32.7433 96.3375 41.0696 95.6515L46.2393 95.1941C54.6571 94.5538 63.0292 94.0051 71.4928 93.6392C61.3215 94.0737 51.134 93.9363 40.9782 93.2276C34.6191 92.8617 28.2599 92.2215 21.9465 91.3983C19.2516 91.1292 16.6136 90.4506 14.1235 89.386C13.4787 89.0814 12.8658 88.7138 12.2936 88.2884C11.0348 87.2631 10.0715 85.9214 9.50279 84.4011C9.11539 82.9012 9.11539 81.3276 9.50279 79.8277C9.50279 79.2332 9.50279 78.6386 9.50279 78.044C9.50279 74.4768 9.50279 70.8182 9.50279 67.251C9.50279 65.4216 9.50273 63.5466 9.73148 61.7172C10.006 53.7291 10.3721 45.7257 10.8296 37.7071C11.4109 28.3279 15.4517 19.4977 22.1702 12.925C28.8887 6.35241 37.8072 2.50467 47.2 2.12639C100.818 -0.0688225 154.68 -0.0688225 208.786 2.12639C217.325 2.52207 225.486 5.76264 231.97 11.3321C238.453 16.9016 242.886 24.4798 244.562 32.8594C245.689 38.2017 245.813 43.707 244.928 49.0947C244.674 50.4197 244.307 51.7204 243.83 52.9821C243.552 53.9852 243.07 54.9197 242.411 55.7262C241.91 55.9752 241.367 56.1301 240.81 56.1834C237.654 56.9608 234.451 57.6011 231.249 58.1957C224.935 59.339 218.485 60.1166 212.034 60.7111C199.041 61.8544 186.003 62.0373 173.01 62.266H172.644L183.304 62.9062C193.002 63.4093 202.656 64.0495 212.309 64.5983L231.615 65.696C235.361 65.5164 239.1 66.1888 242.549 67.6625C247.124 70.681 247.535 75.8946 247.49 80.7881Z" fill="url(#paint1_linear_208_14915)"/>
<path d="M247.49 80.7418V100.91C247.49 104.112 247.49 107.313 247.49 110.56C247.49 112.298 247.49 114.036 247.49 115.774C222.694 117.374 197.852 119.57 172.964 121.079C144.005 122.863 115 124.829 86.0411 126.658C70.4407 127.665 54.9775 128.854 39.4228 130.637C29.3484 132.25 19.1563 133.015 8.95386 132.924C8.95386 132.192 8.95382 131.46 8.63358 130.729C8.35908 129.037 8.13041 127.39 7.99316 125.652C18.3851 124.005 28.9032 123.285 39.4228 123.503C54.0167 123 68.4276 121.994 82.9301 120.667C111.935 117.923 140.94 115.088 169.853 111.795C187.101 109.783 204.394 108.045 221.687 106.124H219.949C191.63 104.615 163.769 99.4012 135.542 96.9774C107.314 94.5535 79.4989 92.404 51.3632 90.6661C40.0174 89.9801 26.979 90.163 14.1235 89.2484C13.4865 88.9376 12.8877 88.5539 12.3392 88.105C11.0537 87.1244 10.0837 85.7889 9.54862 84.2634C9.12865 82.7679 9.12865 81.1856 9.54862 79.6901C9.54862 79.0955 9.54862 78.5009 9.54862 77.9064C9.54862 74.3392 9.54861 70.6805 9.8231 67.0676C9.8231 65.2382 9.8231 63.4089 9.8231 61.5796C24.0968 60.7564 38.7823 61.5796 51.4548 61.854C79.5448 61.854 107.589 63.4546 135.633 65.0553C163.677 66.6559 191.904 66.0157 220.04 67.3419C227.634 67.7078 235.275 67.9822 242.915 68.1651C247.124 70.6805 247.535 75.8941 247.49 80.7418ZM154.436 146.598C106.582 148.885 56.1211 146.598 9.45703 159.129C9.68577 163.703 9.91454 168.596 10.189 173.307C10.5328 175.918 10.5328 178.562 10.189 181.173C9.81284 183.667 10.2969 186.216 11.5616 188.399C25.8187 191.975 40.3356 194.421 54.9774 195.716C64.1273 196.631 73.2771 197.134 82.7014 197.5C106.674 198.369 130.829 197.82 154.299 198.049C183.578 198.323 212.949 197.683 242.228 196.676C242.555 194.693 242.769 192.693 242.869 190.685C242.987 190.025 242.958 189.346 242.784 188.698C242.61 188.05 242.295 187.448 241.863 186.935C241.124 186.405 240.253 186.088 239.346 186.021L205.263 180.944L190.623 178.795C205.75 180.022 220.965 179.623 236.007 177.606L240.582 177.148C241.489 177.162 242.374 176.872 243.098 176.325C243.69 175.564 244.026 174.636 244.058 173.673C244.17 170.588 244.599 167.523 245.339 164.526C246.037 161.98 246.345 159.343 246.254 156.705C246.483 152.132 246.575 147.559 246.666 142.985C216.06 144.174 185.225 145.135 154.436 146.598Z" fill="url(#paint2_linear_208_14915)"/>
<path d="M11.653 188.719C10.2547 186.468 9.70339 183.793 10.0975 181.173C10.4413 178.562 10.4413 175.917 10.0975 173.307C9.68578 165.989 9.31979 158.672 8.9538 151.354C8.68737 149.934 8.96489 148.464 9.73146 147.238C10.5622 146.45 11.6172 145.939 12.7509 145.775C16.2271 144.812 19.7556 144.049 23.3189 143.488C21.3643 145.026 19.2474 146.345 17.0057 147.421C16.1547 147.772 15.3898 148.302 14.7639 148.976C14.1731 149.772 13.781 150.697 13.6202 151.675C12.0657 160.986 12.0657 170.49 13.6202 179.801C14.0776 183.688 14.5352 187.621 14.8555 191.554C13.5716 190.886 12.4718 189.912 11.653 188.719Z" fill="#C78142"/>
<path d="M8.40485 130.729C7.73451 126.475 7.33717 122.182 7.21532 117.878C6.94083 112.207 6.66635 104.935 10.2348 100.179C10.9837 99.4246 11.8747 98.8263 12.8562 98.4181C13.8377 98.0099 14.8904 97.8001 15.9534 97.8007C25.9572 96.6116 35.9915 95.6054 46.0563 94.7822C36.5404 97.9836 25.6065 97.9836 16.3651 101.917C14.6195 102.483 13.098 103.588 12.0189 105.072C11.4393 106.149 11.0816 107.331 10.9668 108.548C10.2851 112.226 10.009 115.969 10.1433 119.707C10.1433 122.177 10.5092 124.601 10.738 127.07C11.1039 131.049 11.653 135.028 12.3392 138.961C12.0708 138.842 11.811 138.704 11.5615 138.549C8.86235 136.583 8.90809 133.656 8.40485 130.729Z" fill="#C78142"/>
<path d="M203.799 180.396C204.193 180.616 204.607 180.8 205.034 180.944C204.586 180.86 204.163 180.672 203.799 180.396Z" fill="#C78142"/>
<path d="M243.052 190.869C242.823 196.906 241.176 202.76 240.993 208.797C241.039 209.619 241.039 210.444 240.993 211.266C240.268 213.821 239.005 216.191 237.288 218.218C233.992 222.826 229.712 226.644 224.759 229.397C219.806 232.149 214.304 233.767 208.649 234.133C154.83 237.286 100.87 237.195 47.0627 233.859C38.9301 233.385 31.1661 230.306 24.9202 225.078C21.1049 221.893 17.9897 217.953 15.7704 213.507C14.8554 211.495 14.5809 209.254 13.666 207.196C13.666 206.739 13.2999 206.327 13.1626 205.87C12.9447 205.218 12.9195 204.518 13.0899 203.853C13.2603 203.188 13.6193 202.586 14.1235 202.12C15.4846 201.254 17.0898 200.853 18.6984 200.976C36.5405 200.382 54.3369 199.238 72.1791 198.735C56.5036 199.725 40.904 201.68 25.4692 204.589C23.2812 204.829 21.1112 205.211 18.9729 205.733C18.6355 205.782 18.3185 205.924 18.0578 206.144C17.9532 206.382 17.8992 206.639 17.8992 206.899C17.8992 207.159 17.9532 207.415 18.0578 207.653C18.3941 209.456 19.2168 211.132 20.4369 212.501C23.7174 217.498 28.0404 221.726 33.1093 224.895C45.8276 231.618 58.7746 230.657 73.1856 230.291C76.1076 230.317 79.0278 230.133 81.9237 229.743C83.445 229.595 84.9772 229.595 86.4986 229.743L96.6091 230.017L116.83 230.566L154.619 231.618C166.633 232.182 178.669 232.06 190.669 231.252C202.571 230.51 214.27 227.822 225.301 223.294C226.256 222.973 227.163 222.527 228.001 221.968C228.595 221.556 229.053 221.008 229.647 220.642C231.484 219.522 233.215 218.236 234.817 216.8C236.106 215.788 237.18 214.529 237.974 213.096C238.294 212.318 238.431 211.449 238.706 210.626C239.488 208.45 239.935 206.168 240.033 203.857C240.186 201.31 240.109 198.754 239.804 196.22C239.851 194.79 239.634 193.364 239.163 192.012C238.636 191.468 237.996 191.047 237.288 190.778C235.694 190.036 233.997 189.543 232.255 189.314C223.088 187.623 214.151 184.86 205.629 181.082L239.712 186.159C240.619 186.226 241.49 186.543 242.228 187.073C242.636 187.607 242.921 188.223 243.063 188.879C243.206 189.535 243.202 190.215 243.052 190.869Z" fill="#C78142"/>
<path d="M9.2283 83.8521C8.81702 81.9607 8.67839 80.0203 8.81657 78.0896C9.09107 68.9429 9.31982 59.3389 9.82306 49.9635C9.57397 41.2513 10.8751 32.5641 13.666 24.3069C16.546 17.8173 21.1808 12.2601 27.0486 8.26066C32.9165 4.2612 39.7846 1.97827 46.8799 1.66887C100.498 -0.526342 154.36 -0.526342 208.466 1.66887C216.998 2.06218 225.155 5.29625 231.637 10.8568C238.12 16.4173 242.556 23.9849 244.241 32.3561C245.391 37.7113 245.515 43.2358 244.607 48.6372C244.391 49.9657 244.039 51.2684 243.555 52.5246C243.242 53.5222 242.745 54.4528 242.091 55.2686C240.993 46.6707 243.098 37.2495 239.987 29.1547C238.387 24.11 235.388 19.6224 231.34 16.2121C217.615 5.51046 197.211 6.24224 180.65 5.96784C134.901 5.14463 89.3807 3.72691 43.8146 7.84293C41.7101 7.84293 39.6515 7.29404 37.5928 7.61418C32.9886 8.75399 28.7817 11.1255 25.4235 14.4742C20.8904 18.7024 17.4119 23.934 15.2672 29.7492C14.6725 31.4414 14.1235 33.1335 13.666 34.8714C9.09105 51.8385 11.1498 71.4583 13.2542 88.6999C12.2773 88.3126 11.4088 87.6941 10.7236 86.8975C10.0383 86.1009 9.55658 85.1501 9.31974 84.1265C9.31974 84.1265 9.2283 83.9436 9.2283 83.8521Z" fill="#C78142"/>
<path d="M247.49 80.7418V100.91C247.49 104.112 247.49 107.313 247.49 110.56C247.49 125.972 247.169 141.385 246.575 156.751C246.665 159.389 246.357 162.026 245.66 164.572C244.92 167.568 244.49 170.633 244.379 173.718C244.346 174.682 244.01 175.61 243.418 176.371C242.694 176.918 241.809 177.208 240.902 177.194L236.327 177.651C237.208 177.051 237.918 176.231 238.386 175.273C239.028 173.735 239.385 172.092 239.438 170.425C241.397 143.276 241.916 116.041 240.993 88.8367C240.993 85.2695 240.765 81.6565 240.582 78.0435C240.582 77.2203 240.582 76.4429 240.582 75.6196C240.402 74.55 239.927 73.5519 239.209 72.7384C237.546 70.9206 235.406 69.6056 233.033 68.9426C216.426 63.3631 197.852 67.4334 181.016 62.3569H183.075L231.386 65.1924C235.249 65.1266 239.074 65.9727 242.549 67.662C247.124 70.589 247.535 75.8483 247.49 80.7418Z" fill="#C78142"/>
<path d="M205.446 181.173L209.609 181.767C208.909 184.43 207.697 186.931 206.041 189.131C199.316 197.82 186.781 199.375 176.899 199.924C160.063 200.884 143.319 201.89 126.575 201.799C108.504 201.799 90.7075 200.015 72.6823 198.735C78.0807 198.735 83.5706 198.506 89.0148 198.46L82.9759 197.683C73.826 196.585 64.6762 196.219 55.2061 195.899H54.7944L52.5527 195.259C50.9358 194.887 49.3905 194.254 47.9778 193.384C45.1455 190.758 43.2631 187.268 42.6251 183.46C40.8585 175.071 40.503 166.446 41.573 157.94C42.0762 148.793 42.1219 139.418 41.9389 130.226C41.7102 118.655 41.1612 106.902 40.841 95.2853L46.0106 94.8279C50.2653 94.5078 54.5657 94.1876 58.8661 93.9589C58.8661 109.188 59.8269 124.509 60.4674 139.693C60.4674 141.339 60.4674 142.985 60.4674 144.632C60.4674 145.592 60.4673 146.141 61.1078 146.918C62.519 148.208 64.2616 149.079 66.1402 149.434C67.9981 149.571 69.8637 149.571 71.7216 149.434H83.7993C79.8768 150.074 75.9205 150.486 71.9503 150.669C70.1445 150.567 68.3331 150.674 66.5519 150.989C64.9965 151.538 63.3953 151.766 61.977 152.178C61.4986 152.268 61.0549 152.489 60.6961 152.818C60.4434 153.134 60.2848 153.514 60.2386 153.916C59.9941 155.614 60.119 157.346 60.6046 158.992C61.083 160.183 61.3163 161.459 61.2908 162.742C61.1303 165.96 61.3607 169.185 61.977 172.346C62.0208 173.492 62.3511 174.608 62.9377 175.593C64.6601 177.625 67.0103 179.025 69.6172 179.572C88.2371 184.694 107.863 184.923 127.215 185.106C138.607 185.106 150.09 185.38 161.481 185.106C169.259 184.832 183.441 186.432 190.166 181.63C191.116 180.978 191.938 180.156 192.591 179.206L205.446 181.173ZM59.0492 84.0805C59.0492 80.8334 59.4151 77.6321 59.6896 74.385C59.758 73.8536 59.758 73.3156 59.6896 72.7843C59.5075 71.8171 59.5075 70.8246 59.6896 69.8574C59.8873 68.6914 60.3222 67.5784 60.9675 66.5872C61.6127 65.596 62.4547 64.7478 63.441 64.0949C64.8887 63.4896 66.4471 63.1936 68.016 63.226C76.022 63.226 84.0281 62.9516 92.0342 63.226L72.9568 61.2137C69.3997 60.5964 65.7628 60.5964 62.2057 61.2137C62.2057 61.2137 62.709 60.299 62.8005 60.1618C63.033 59.7486 63.2929 59.3514 63.5783 58.9728C64.1593 58.2477 64.8021 57.5744 65.4997 56.9605C66.7349 55.9086 67.8787 54.7195 69.1597 53.7591C71.9411 51.6923 75.0282 50.0722 78.3095 48.9571C81.3955 47.8869 84.5425 47.001 87.7338 46.3045C89.9167 45.8685 92.1424 45.6844 94.3673 45.7557C119.438 45.3441 144.691 45.2526 169.625 45.024C173.892 45.336 178.103 46.1811 182.16 47.5394C185.251 48.1974 188.064 49.7948 190.212 52.1128C192.085 54.8281 193.235 57.9762 193.551 61.2595C199.499 61.0308 205.446 60.7106 211.485 60.2075C211.545 53.1408 209.152 46.2718 204.714 40.7708C199.224 34.8711 189.937 33.6821 182.434 33.2705C173.971 32.7675 165.461 32.4473 156.998 32.2644C150.364 32.2644 143.731 32.0356 137.143 32.0356C123.418 32.0356 110.288 32.493 96.8378 33.2248C82.3354 34.0022 63.9443 29.063 51.5462 39.0787C45.7297 43.8464 42.0305 50.7162 41.2527 58.1953C40.4574 64.2588 40.1362 70.3752 40.292 76.4887C40.292 81.8395 40.292 87.1904 40.5665 92.587C46.6054 92.9986 52.5985 93.2272 58.8661 93.2272C58.8661 90.5289 58.866 87.2361 58.9118 84.0805H59.0492ZM214.139 104.569C213.864 92.9528 213.3 81.3517 212.446 69.7658C212.446 67.9365 212.217 66.0615 212.08 64.2321L194.146 63.1802C194.741 69.5372 194.146 76.6259 194.466 81.4736C194.924 88.7453 195.61 96.0626 196.205 103.334C196.525 106.856 196.8 110.377 196.983 113.944C197.252 114.94 197.138 116.001 196.662 116.917C195.972 117.629 195.137 118.185 194.214 118.548C193.291 118.911 192.3 119.072 191.31 119.021C181.506 119.235 171.739 120.306 162.122 122.222C174.249 122.657 186.39 122.428 198.492 121.536C198.218 122.634 197.943 123.732 197.715 124.829C197.398 125.777 197.199 126.76 197.12 127.756C197.182 128.343 197.289 128.924 197.44 129.494C197.509 130.545 197.509 131.599 197.44 132.65C197.44 137.223 197.44 141.568 197.44 146.05C197.44 149.8 197.44 153.55 197.166 157.3C197.166 157.712 197.166 158.169 197.166 158.581C197.166 164.709 196.845 173.81 192.591 179.252C198.458 179.831 204.356 180.045 210.25 179.892C211.193 175.057 211.849 170.17 212.217 165.258C213.734 149.313 214.361 133.297 214.093 117.283C214.093 113.121 214.093 109.005 214.093 104.844C214.047 104.661 214.001 104.615 214.001 104.569H214.139Z" fill="url(#paint3_linear_208_14915)"/>
<path d="M151.051 200.611C158.821 200.665 166.585 200.192 174.291 199.193C175.892 198.964 177.631 199.193 179.232 198.873C182.709 198.644 186.14 198.278 189.571 197.775C191.824 197.547 194.047 197.087 196.205 196.403C199.484 195.231 202.411 193.242 204.708 190.626C207.005 188.009 208.598 184.851 209.335 181.448L198.035 181.128C199.702 180.884 201.405 181.105 202.955 181.766C204.505 182.428 205.842 183.505 206.819 184.878C203.053 188.452 198.535 191.139 193.597 192.744C190.935 193.355 188.226 193.738 185.5 193.888C166.926 195.305 148.351 196.769 129.731 196.449C120.81 196.449 111.889 195.763 102.968 196.083L95.191 196.449C93.6696 196.598 92.1374 196.598 90.6161 196.449C89.5955 196.38 88.5714 196.38 87.5508 196.449H80.9173C76.3424 196.449 72.0876 195.946 67.6499 195.488C63.2123 195.031 58.0885 194.299 53.3306 193.43C51.0039 193.234 48.7818 192.377 46.9256 190.961C45.8884 189.84 45.0664 188.538 44.5009 187.119C42.5625 182.628 41.2687 177.886 40.658 173.033C39.8808 176.025 39.8411 179.161 40.5423 182.172C41.2434 185.183 42.6646 187.979 44.6839 190.32C48.6406 194.708 53.9882 197.599 59.8269 198.507C64.2505 199.404 68.7795 199.666 73.2771 199.284C74.2345 199.17 75.202 199.17 76.1593 199.284L82.8845 199.65C87.4594 199.879 91.8055 200.016 96.2889 200.153C100.772 200.29 105.439 200.382 109.648 200.382C111.78 200.542 113.921 200.542 116.053 200.382C118.138 200.199 120.235 200.199 122.32 200.382C131.47 200.702 140.254 200.931 149.266 200.839L151.051 200.611Z" fill="#C78142"/>
<path d="M218.347 66.0159L210.479 65.7871L202.381 65.3298L198.355 65.0554H196.342H195.198H194.741H193.963L190.807 64.2322V63.7748C191.339 63.7261 191.875 63.7261 192.408 63.7748C192.834 63.8202 193.263 63.8202 193.689 63.7748C194.039 63.7525 194.39 63.7525 194.741 63.7748H196.388C198.63 63.7748 200.963 63.7748 203.067 63.7748C205.172 63.7748 207.642 64.0035 209.747 64.1864C211.851 64.3694 214.322 64.5981 216.426 64.8725L218.805 65.1469C218.759 65.3756 218.347 65.4671 218.347 66.0159Z" fill="#C78142"/>
<path d="M61.3366 93.5933C54.2455 94.325 47.2 95.2854 40.2004 96.5659C39.9723 96.3843 39.7999 96.1421 39.7028 95.8671C39.6058 95.5922 39.5879 95.2956 39.6515 95.011C47.0628 94.0963 53.9253 93.9591 61.3366 93.5933Z" fill="#C78142"/>
<defs>
<linearGradient id="paint0_linear_208_14915" x1="238.476" y1="-125.733" x2="168.345" y2="30.2606" gradientUnits="userSpaceOnUse">
<stop stop-color="#C88342"/>
<stop offset="1" stop-color="#B15D3B"/>
</linearGradient>
<linearGradient id="paint1_linear_208_14915" x1="93105.4" y1="56921.6" x2="80428.1" y2="86684.4" gradientUnits="userSpaceOnUse">
<stop stop-color="#C77C41"/>
<stop offset="1" stop-color="#59173E"/>
</linearGradient>
<linearGradient id="paint2_linear_208_14915" x1="91389" y1="35167.8" x2="86635.8" y2="54369" gradientUnits="userSpaceOnUse">
<stop stop-color="#D29246"/>
<stop offset="1" stop-color="#59173E"/>
</linearGradient>
<linearGradient id="paint3_linear_208_14915" x1="64598.6" y1="56868.9" x2="64323.4" y2="47972.6" gradientUnits="userSpaceOnUse">
<stop stop-color="#C1AF6D"/>
<stop offset="1" stop-color="#9C5A2E"/>
</linearGradient>
</defs>
</svg>
