<svg width="1184" height="102" viewBox="0 0 1184 102" fill="none" xmlns="http://www.w3.org/2000/svg">
<path fill-rule="evenodd" clip-rule="evenodd" d="M1048.4 87.61L960.477 97.8146L1140.5 82.1244C1121.21 89.0285 1099.59 95.3519 1075.98 101H119.369C119.369 101 7.61992 82.7587 1.62139 55.8184C1.25641 54.093 1.32049 52.3622 1.81277 50.6395L3.89193 50.4164L63.3036 43.8225L18.3503 37.5492L15.0523 37.0961C31.3511 27.3377 63.662 16.8264 119.369 5.98755C119.369 5.98755 122.906 6.09208 129.598 6.26634C202.871 8.19015 656.823 19.2312 1048.4 9.52849C1048.4 9.52849 1252.68 29.9167 1159.22 74.3525L1048.4 87.61Z" fill="url(#paint0_linear_208_14475)"/>
<path fill-rule="evenodd" clip-rule="evenodd" d="M1048.38 9.49354L1021.32 0.013916L469.506 5.95962L156.149 0.013916L119.393 5.97354C119.393 5.97354 641.695 22.8347 1048.38 9.49354Z" fill="#E4B84C"/>
<path fill-rule="evenodd" clip-rule="evenodd" d="M1183.64 51.1552C1183.64 51.1552 1199.3 20.2836 1021.32 0L1048.38 9.49358C1048.38 9.49358 1177.67 23.7131 1183.64 51.1552Z" fill="#DEAB4A"/>
<path fill-rule="evenodd" clip-rule="evenodd" d="M1.81263 50.6394L3.89179 50.4164C2.71641 52.2011 1.91829 54.0051 1.50194 55.8184C1.50194 56.2227 1.50177 56.6548 1.33448 57.087C0.681434 54.9607 0.681434 52.8216 1.33448 50.6952L1.81263 50.6394Z" fill="#DEAB4A"/>
<path fill-rule="evenodd" clip-rule="evenodd" d="M156.173 0.013916L129.598 6.28721C129.598 6.28721 53.3616 16.7427 18.4459 37.5422L15.1479 37.0891L11.7782 36.6081C27.3839 23.8594 65.3109 8.37831 156.173 0.013916Z" fill="#DEAB4A"/>
<path fill-rule="evenodd" clip-rule="evenodd" d="M994.652 11.4034H1064.56L1038.31 5.95959L994.652 11.4034Z" fill="#DBA649"/>
<path fill-rule="evenodd" clip-rule="evenodd" d="M99.7725 11.4035L161.144 7.31192L132.896 3.771L99.7725 11.4035Z" fill="#DBA649"/>
<path fill-rule="evenodd" clip-rule="evenodd" d="M3.89171 50.4164L32.3309 39.4869L63.3273 43.8155L3.89171 50.4164Z" fill="#E4B84C"/>
<path fill-rule="evenodd" clip-rule="evenodd" d="M1140.5 82.1244L1125.57 78.3883L960.477 97.8146L1140.5 82.1244Z" fill="#E4B84C"/>
<g style="mix-blend-mode:multiply" opacity="0.2">
<path style="mix-blend-mode:multiply" opacity="0.2" fill-rule="evenodd" clip-rule="evenodd" d="M119.369 101C119.369 101 233.078 44.9517 590.457 14.3311L672.668 14.6308C672.668 14.6308 323.176 28.2299 161.239 101H119.369Z" fill="url(#paint1_linear_208_14475)"/>
<path style="mix-blend-mode:multiply" opacity="0.2" fill-rule="evenodd" clip-rule="evenodd" d="M187.36 101C187.36 101 414.038 34.538 737.576 14.6307H841.295C841.295 14.6307 378.286 36.3642 294.569 101H187.36Z" fill="url(#paint2_linear_208_14475)"/>
<path style="mix-blend-mode:multiply" opacity="0.2" fill-rule="evenodd" clip-rule="evenodd" d="M504.709 73.0212C504.709 73.0212 581.829 42.073 693.507 42.3099C693.507 42.3099 656.632 71.7665 504.709 73.0212Z" fill="url(#paint3_linear_208_14475)"/>
<path style="mix-blend-mode:multiply" opacity="0.2" fill-rule="evenodd" clip-rule="evenodd" d="M236.424 8.6781C236.424 8.6781 66.0039 40.7416 56.3489 86.683L75.181 91.7574C75.181 91.7574 50.4938 44.6171 247.25 8.89418L236.424 8.6781Z" fill="url(#paint4_linear_208_14475)"/>
<path style="mix-blend-mode:multiply" opacity="0.2" fill-rule="evenodd" clip-rule="evenodd" d="M572.055 101C572.055 101 807.192 66.5109 926.493 12.5605L905.128 12.9369C905.128 12.9369 813.645 69.8775 530.256 101H572.055Z" fill="url(#paint5_linear_208_14475)"/>
<path style="mix-blend-mode:multiply" opacity="0.2" fill-rule="evenodd" clip-rule="evenodd" d="M640.452 101C640.452 101 965.09 36.9568 1086.97 14.6517C1086.97 14.6517 1124.44 21.6918 1149.97 29.4567C1149.97 29.4567 860.08 67.1871 777.845 101.021L640.452 101Z" fill="url(#paint6_linear_208_14475)"/>
<path style="mix-blend-mode:multiply" opacity="0.2" fill-rule="evenodd" clip-rule="evenodd" d="M827.984 94.3922C827.984 94.3922 824.542 80.4516 981.101 60.8928C981.149 60.8928 884.934 74.3804 827.984 94.3922Z" fill="url(#paint7_linear_208_14475)"/>
<path style="mix-blend-mode:multiply" opacity="0.2" fill-rule="evenodd" clip-rule="evenodd" d="M1180.01 44.9447L858.287 101H893.06L1183.64 51.1553L1180.01 44.9447Z" fill="url(#paint8_linear_208_14475)"/>
</g>
<path fill-rule="evenodd" clip-rule="evenodd" d="M316.771 10.8041L446.874 16.9798L745.152 14.6308L485.59 11.4035L316.771 10.8041Z" fill="#DBA649"/>
<path fill-rule="evenodd" clip-rule="evenodd" d="M841.295 14.6308L975.772 12.5815L1024.48 14.6308L1088.48 16.9798L1161.7 33.7783L1130.75 23.1764L1064.56 11.4035L999.432 10.8041L841.295 14.6308Z" fill="#C98043"/>
<path fill-rule="evenodd" clip-rule="evenodd" d="M25.4719 33.6876L83.9279 15.7878L130.458 12.5815L221.105 9.6818L322.053 10.804L161.144 7.31885L99.7726 11.4104L63.2317 19.9979C63.2317 19.9979 35.0313 27.2888 25.4719 33.6876Z" fill="#C98043"/>
<path opacity="0.4" fill-rule="evenodd" clip-rule="evenodd" d="M605.178 95.6956C605.178 95.6956 753.014 74.2479 874.251 32.8093C874.251 32.8093 783.676 71.7107 605.178 95.6956Z" fill="#D9B148"/>
<path opacity="0.4" fill-rule="evenodd" clip-rule="evenodd" d="M299.062 97.8146C299.062 97.8146 381.847 46.0668 781.406 18.1158C781.406 18.1368 408.063 38.4553 299.062 97.8146Z" fill="#D9B148"/>
<path opacity="0.4" fill-rule="evenodd" clip-rule="evenodd" d="M161.216 101C161.216 101 305.993 37.9187 652.402 15.3627C652.33 15.3488 370.782 22.4794 161.216 101Z" fill="#D9B148"/>
<path opacity="0.4" fill-rule="evenodd" clip-rule="evenodd" d="M75.372 80.0333C75.372 80.0333 83.0195 40.658 241.73 9.91187C241.73 9.91187 104.026 26.9891 75.372 80.0333Z" fill="#D9B148"/>
<path fill-rule="evenodd" clip-rule="evenodd" d="M63.3273 43.8154H183.226L663.849 50.2212L108.687 45.4813L63.3273 43.8154Z" fill="#A35237"/>
<path fill-rule="evenodd" clip-rule="evenodd" d="M108.687 45.4814L144.415 47.1404H225.503L108.687 45.4814Z" fill="#E4A54C"/>
<path fill-rule="evenodd" clip-rule="evenodd" d="M119.369 101L403.236 96.7062L602.86 101L795.171 98.8531L828.032 94.3921L800.692 101H119.369Z" fill="#A35237"/>
<path fill-rule="evenodd" clip-rule="evenodd" d="M922.144 101L960.477 97.8146L945.134 101H922.144Z" fill="#A35237"/>
<path fill-rule="evenodd" clip-rule="evenodd" d="M255.304 91.7574L210.231 78.3883L247.226 85.5956L255.304 91.7574Z" fill="#A35237"/>
<path fill-rule="evenodd" clip-rule="evenodd" d="M728.399 94.7615L847.915 88.0979L771.129 94.3921L728.399 94.7615Z" fill="#A35237"/>
<path fill-rule="evenodd" clip-rule="evenodd" d="M316.771 5.96667L280.78 9.91188L299.062 18.116L302.217 9.91188L316.771 5.96667Z" fill="#B15D3B"/>
<path fill-rule="evenodd" clip-rule="evenodd" d="M299.062 18.1159L291.295 14.6307L301.643 11.4034L299.062 18.1159Z" fill="#E4B84C"/>
<path fill-rule="evenodd" clip-rule="evenodd" d="M801.719 39.4869L858.287 53.4834L828.032 48.9317L801.719 39.4869Z" fill="#B15D3B"/>
<path fill-rule="evenodd" clip-rule="evenodd" d="M728.399 94.7615L771.129 94.3921L847.915 88.0979L767.306 93.5766L728.399 94.7615Z" fill="#E4B84C"/>
<path fill-rule="evenodd" clip-rule="evenodd" d="M210.231 78.3883L232.768 86.5575L255.304 91.7574L210.231 78.3883Z" fill="#E4A54C"/>
<g style="mix-blend-mode:soft-light">
<path fill-rule="evenodd" clip-rule="evenodd" d="M820.384 14.0452L795.171 2.43958L981.149 0.432129L994.652 11.4034L820.384 14.0452Z" fill="#E3C150"/>
</g>
<g style="mix-blend-mode:soft-light">
<path fill-rule="evenodd" clip-rule="evenodd" d="M176.248 7.5837L193.933 0.717931L156.197 0.00695801L137.604 4.36341L161.144 7.31186L176.248 7.5837Z" fill="#E3C150"/>
</g>
<path fill-rule="evenodd" clip-rule="evenodd" d="M863.33 43.8155L839.599 22.0751L858.287 33.7782L863.33 43.8155Z" fill="#B15D3B"/>
<path fill-rule="evenodd" clip-rule="evenodd" d="M1064.56 71.7595L1073.97 68.4695L1109.05 71.7595L1099.66 77.0639H1076.46L1064.56 71.7595Z" fill="#A35237"/>
<path fill-rule="evenodd" clip-rule="evenodd" d="M168.815 62.0916L173.189 60.8091L191.997 63.4927L179.976 65.7441L168.815 63.2766V62.0916Z" fill="#B15D3B"/>
<path fill-rule="evenodd" clip-rule="evenodd" d="M1064.56 71.7595L1076.31 76.0114L1095.74 76.6527H1100.38L1099.66 77.0639L1076.46 77.4752L1064.56 71.7595Z" fill="#E0A54D"/>
<path fill-rule="evenodd" clip-rule="evenodd" d="M168.815 63.2766L176.726 64.6776H184.684L191.997 63.4927L182.366 65.7441H179.976L168.815 63.2766Z" fill="#E0A54D"/>
<path opacity="0.4" fill-rule="evenodd" clip-rule="evenodd" d="M512.356 72.9236C512.356 72.9236 647.048 78.4999 693.507 42.3099C693.507 42.3099 659.046 72.6796 512.356 72.9236Z" fill="#D9B148"/>
<defs>
<linearGradient id="paint0_linear_208_14475" x1="592.536" y1="101" x2="592.536" y2="5.96664" gradientUnits="userSpaceOnUse">
<stop stop-color="#B4593C"/>
<stop offset="1" stop-color="#D89D48"/>
</linearGradient>
<linearGradient id="paint1_linear_208_14475" x1="119.369" y1="57.6656" x2="672.668" y2="57.6656" gradientUnits="userSpaceOnUse">
<stop stop-color="#BC4A4B"/>
<stop offset="1" stop-color="#BD5345"/>
</linearGradient>
<linearGradient id="paint2_linear_208_14475" x1="941160" y1="79640.2" x2="1.1201e+06" y2="79640.2" gradientUnits="userSpaceOnUse">
<stop stop-color="#BC4A4B"/>
<stop offset="1" stop-color="#BD5345"/>
</linearGradient>
<linearGradient id="paint3_linear_208_14475" x1="297244" y1="28350.4" x2="312160" y2="28350.4" gradientUnits="userSpaceOnUse">
<stop stop-color="#BC4A4B"/>
<stop offset="1" stop-color="#BD5345"/>
</linearGradient>
<linearGradient id="paint4_linear_208_14475" x1="264287" y1="75696.4" x2="279532" y2="75696.4" gradientUnits="userSpaceOnUse">
<stop stop-color="#BC4A4B"/>
<stop offset="1" stop-color="#BD5345"/>
</linearGradient>
<linearGradient id="paint5_linear_208_14475" x1="627544" y1="81417.6" x2="693240" y2="81417.6" gradientUnits="userSpaceOnUse">
<stop stop-color="#BC4A4B"/>
<stop offset="1" stop-color="#BD5345"/>
</linearGradient>
<linearGradient id="paint6_linear_208_14475" x1="830403" y1="79640.2" x2="939031" y2="79640.2" gradientUnits="userSpaceOnUse">
<stop stop-color="#BC4A4B"/>
<stop offset="1" stop-color="#BD5345"/>
</linearGradient>
<linearGradient id="paint7_linear_208_14475" x1="262213" y1="31897.7" x2="272024" y2="31897.7" gradientUnits="userSpaceOnUse">
<stop stop-color="#BC4A4B"/>
<stop offset="1" stop-color="#BD5345"/>
</linearGradient>
<linearGradient id="paint8_linear_208_14475" x1="117569" y1="5913.38" x2="161863" y2="5913.38" gradientUnits="userSpaceOnUse">
<stop stop-color="#BC4A4B"/>
<stop offset="1" stop-color="#BD5345"/>
</linearGradient>
</defs>
</svg>
