<svg width="86" height="78" viewBox="0 0 86 78" fill="none" xmlns="http://www.w3.org/2000/svg">
<path fill-rule="evenodd" clip-rule="evenodd" d="M0 41.6301L1.89021 33.4686C1.89021 33.4686 20.1215 9.74271 40.8151 1.35235C41.9765 0.874477 44.7175 1.36974 45.905 0.999023C45.905 0.999023 71.2007 15.5409 83.9879 34.7429L86 41.6301H0Z" fill="#E4B34C"/>
<path fill-rule="evenodd" clip-rule="evenodd" d="M81.665 49.6266C69.203 67.5629 43.0711 77.9748 43.0711 77.9748L43.0044 75.0323L42.9405 77.9748C42.9405 77.9748 27.723 71.9159 14.9649 61.0696H29.3548L12.3546 58.7352C7.12821 53.8609 2.53479 48.1177 0 41.6243C8.9342 18.8137 42.9405 5.26514 42.9405 5.26514L43.0044 8.21929L43.0711 5.26514C43.0711 5.26514 77.0716 18.8137 85.9971 41.6301C85.4598 42.9942 84.8412 44.325 84.1446 45.6153L81.665 49.6266Z" fill="url(#paint0_linear_208_15122)"/>
<path fill-rule="evenodd" clip-rule="evenodd" d="M40.818 1.3465L41.5526 5.85303H44.4503L45.905 0.993164L40.818 1.3465Z" fill="#E3B752"/>
<path fill-rule="evenodd" clip-rule="evenodd" d="M14.9649 61.0695V59.0942L29.3519 61.0695H14.9649Z" fill="#E4B34C"/>
<path fill-rule="evenodd" clip-rule="evenodd" d="M29.3519 61.0693L54.9757 62.1641H62.6759H69.7111L58.759 63.1257L43.3615 62.0975L29.3519 61.0693Z" fill="#974832"/>
<g style="mix-blend-mode:multiply" opacity="0.2">
<path style="mix-blend-mode:multiply" opacity="0.2" fill-rule="evenodd" clip-rule="evenodd" d="M12.3517 58.7355C12.3517 58.7355 27.5953 27.7082 59.3658 13.7368L62.9604 16.0538C62.9604 16.0538 28.4083 27.4939 13.9922 58.9469L12.3517 58.7355Z" fill="url(#paint1_linear_208_15122)"/>
<path style="mix-blend-mode:multiply" opacity="0.2" fill-rule="evenodd" clip-rule="evenodd" d="M16.8928 59.0942C16.8928 59.0942 26.8636 26.4074 66.7669 18.7759L73.9445 24.7826C73.9445 24.7826 29.2038 38.0676 20.9839 59.9225L16.8928 59.0942Z" fill="url(#paint2_linear_208_15122)"/>
<path style="mix-blend-mode:multiply" opacity="0.2" fill-rule="evenodd" clip-rule="evenodd" d="M35.7281 46.667C35.7281 46.667 39.7147 37.8915 54.0204 37.7524C54.0146 37.7524 49.3109 44.9727 35.7281 46.667Z" fill="url(#paint3_linear_208_15122)"/>
<path style="mix-blend-mode:multiply" opacity="0.2" fill-rule="evenodd" clip-rule="evenodd" d="M30.2288 61.0698C30.2288 61.0698 63.0388 47.3649 77.6407 28.5713L78.1866 29.1795C78.1866 29.1795 61.5086 50.6521 31.5354 61.0698H30.2288Z" fill="url(#paint4_linear_208_15122)"/>
<path style="mix-blend-mode:multiply" opacity="0.2" fill-rule="evenodd" clip-rule="evenodd" d="M27.7085 70.1671C27.7085 70.1671 50.3939 60.96 66.9847 64.3051L59.2061 69.6052C59.2061 69.6052 42.9463 67.6532 33.9134 73.686L27.7085 70.1671Z" fill="url(#paint5_linear_208_15122)"/>
<path style="mix-blend-mode:multiply" opacity="0.2" fill-rule="evenodd" clip-rule="evenodd" d="M82.1325 34.3232C82.1325 34.3232 64.3251 49.9629 61.0266 62.1646L64.688 62.098C64.688 62.098 72.5102 43.2204 82.8206 35.3775L82.1325 34.3232Z" fill="url(#paint6_linear_208_15122)"/>
<path style="mix-blend-mode:multiply" opacity="0.2" fill-rule="evenodd" clip-rule="evenodd" d="M5.80419 51.6338C5.80419 51.6338 14.6368 23.6823 32.659 10.2323L39.0062 7.00586C39.0062 7.00586 13.5334 31.3023 7.616 53.8465L5.80419 51.6338Z" fill="url(#paint7_linear_208_15122)"/>
</g>
<path fill-rule="evenodd" clip-rule="evenodd" d="M29.3519 71.1455L46.6512 76.3935L43.0682 77.9748C43.0682 77.9748 33.3094 73.5668 29.3519 71.1455Z" fill="#974832"/>
<path fill-rule="evenodd" clip-rule="evenodd" d="M12.3517 24.5044L16.8928 28.1942L21.3962 28.5707L12.3517 24.5044Z" fill="#974832"/>
<path fill-rule="evenodd" clip-rule="evenodd" d="M66.9847 57.142L79.8068 52.1084L73.3957 56.1313L66.9847 57.142Z" fill="#974832"/>
<path fill-rule="evenodd" clip-rule="evenodd" d="M66.9847 57.1422L73.3957 56.1315L74.7923 55.2539L66.9847 57.1422Z" fill="#E49D4C"/>
<path fill-rule="evenodd" clip-rule="evenodd" d="M46.6541 62.3179L49.5315 62.8508L58.759 63.1259L46.6541 62.3179Z" fill="#E49D4C"/>
<path fill-rule="evenodd" clip-rule="evenodd" d="M70.89 22.0577L71.3458 20.1201L71.9236 22.9439L68.3145 24.505L70.89 22.0577Z" fill="#974832"/>
<path fill-rule="evenodd" clip-rule="evenodd" d="M68.3145 24.5049L70.3499 23.1379L71.9236 22.9438L68.3145 24.5049Z" fill="#E49D4C"/>
<path opacity="0.4" fill-rule="evenodd" clip-rule="evenodd" d="M23.7684 54.6253C23.7684 54.6253 32.6387 39.2435 65.53 27.6904C65.53 27.6817 37.7954 38.1053 23.7684 54.6253Z" fill="#D5AA48"/>
<path opacity="0.4" fill-rule="evenodd" clip-rule="evenodd" d="M13.9922 58.961C13.9922 58.961 22.8596 32.3736 62.9604 16.0679C62.9604 16.0679 26.6284 31.3484 13.9922 58.961Z" fill="#D5AA48"/>
<path opacity="0.4" fill-rule="evenodd" clip-rule="evenodd" d="M34.2502 60.0822C34.2502 60.0822 58.2712 50.5247 70.8871 36.9414C70.8871 36.9414 57.4524 52.0365 34.2502 60.0822Z" fill="#D5AA48"/>
<path fill-rule="evenodd" clip-rule="evenodd" d="M68.3145 33.4629L64.7403 44.1992L67.5073 38.8296L68.3145 33.4629Z" fill="#9C4B35"/>
<path fill-rule="evenodd" clip-rule="evenodd" d="M17.8771 19.8128L30.6469 13.7684L41.5526 5.85303L27.7085 11.8337L17.8771 19.8128Z" fill="#D89F48"/>
<path fill-rule="evenodd" clip-rule="evenodd" d="M44.4503 5.85303L48.2394 7.00572L58.4831 11.4891L62.5394 15.7407L44.4503 5.85303Z" fill="#D89F48"/>
<path fill-rule="evenodd" clip-rule="evenodd" d="M51.0733 9.47314L61.0266 16.427L70.89 22.0572L62.5394 15.7406L51.0733 9.47314Z" fill="#C17541"/>
<path fill-rule="evenodd" clip-rule="evenodd" d="M17.8771 19.8131L13.9922 23.0192L19.2302 20.12L27.9524 15.043L17.8771 19.8131Z" fill="#C17541"/>
<path fill-rule="evenodd" clip-rule="evenodd" d="M27.9524 27.4823L33.7479 26.5381L30.8501 27.4823H27.9524Z" fill="#9C4B35"/>
<path fill-rule="evenodd" clip-rule="evenodd" d="M27.9524 27.4823L30.6933 27.6821L33.7479 26.5381L30.8501 27.4823H27.9524Z" fill="#D89F48"/>
<path fill-rule="evenodd" clip-rule="evenodd" d="M13.4782 25.4199L16.2395 28.571L20.589 28.5015L16.8928 28.1945L13.4782 25.4199Z" fill="#D89F48"/>
<path fill-rule="evenodd" clip-rule="evenodd" d="M64.7403 44.1992L67.5073 38.8296L66.9847 40.7585L64.7403 44.1992Z" fill="#D89F48"/>
<defs>
<linearGradient id="paint0_linear_208_15122" x1="42.9956" y1="77.9748" x2="42.9956" y2="5.26514" gradientUnits="userSpaceOnUse">
<stop stop-color="#A84D39"/>
<stop offset="1" stop-color="#D49447"/>
</linearGradient>
<linearGradient id="paint1_linear_208_15122" x1="12.3517" y1="36.3476" x2="62.9604" y2="36.3476" gradientUnits="userSpaceOnUse">
<stop stop-color="#C8878E"/>
<stop offset="1" stop-color="#B2615A"/>
</linearGradient>
<linearGradient id="paint2_linear_208_15122" x1="58314.6" y1="37467.6" x2="69524.7" y2="37467.6" gradientUnits="userSpaceOnUse">
<stop stop-color="#C8878E"/>
<stop offset="1" stop-color="#B2615A"/>
</linearGradient>
<linearGradient id="paint3_linear_208_15122" x1="19914.2" y1="8239.17" x2="21066.2" y2="8239.17" gradientUnits="userSpaceOnUse">
<stop stop-color="#C8878E"/>
<stop offset="1" stop-color="#B2615A"/>
</linearGradient>
<linearGradient id="paint4_linear_208_15122" x1="51238.1" y1="30220.4" x2="59159.3" y2="30220.4" gradientUnits="userSpaceOnUse">
<stop stop-color="#C8878E"/>
<stop offset="1" stop-color="#B2615A"/>
</linearGradient>
<linearGradient id="paint5_linear_208_15122" x1="41624.8" y1="10289.8" x2="46937.6" y2="10289.8" gradientUnits="userSpaceOnUse">
<stop stop-color="#C8878E"/>
<stop offset="1" stop-color="#B2615A"/>
</linearGradient>
<linearGradient id="paint6_linear_208_15122" x1="25643.7" y1="26228.6" x2="27279.6" y2="26228.6" gradientUnits="userSpaceOnUse">
<stop stop-color="#C8878E"/>
<stop offset="1" stop-color="#B2615A"/>
</linearGradient>
<linearGradient id="paint7_linear_208_15122" x1="32664.9" y1="41194.9" x2="36461.9" y2="41194.9" gradientUnits="userSpaceOnUse">
<stop stop-color="#C8878E"/>
<stop offset="1" stop-color="#B2615A"/>
</linearGradient>
</defs>
</svg>
