<svg width="593" height="234" viewBox="0 0 593 234" fill="none" xmlns="http://www.w3.org/2000/svg">
<path fill-rule="evenodd" clip-rule="evenodd" d="M583.45 161.723L495.02 181.413L577.83 174.983C576.594 177.542 575.225 180.036 573.73 182.453L549.3 203.223C314.3 266.303 43.54 203.953 43.54 203.953L18.54 186.263C-1.71999 147.623 -2.56 116.113 2.84 93.0631H71.25L4.66 86.1331C12.2 61.4531 26.19 48.1331 26.19 48.1331L62.34 31.8532C331.96 -17.8868 555.19 38.0131 555.19 38.0131L579.73 57.4431C599.66 100.093 591.82 139.023 583.45 161.723Z" fill="url(#paint0_linear_208_15287)"/>
<path fill-rule="evenodd" clip-rule="evenodd" d="M577.84 174.983L573.84 163.853L495.02 181.403L577.84 174.983Z" fill="#DCA44B"/>
<g style="mix-blend-mode:multiply" opacity="0.2">
<path style="mix-blend-mode:multiply" opacity="0.2" fill-rule="evenodd" clip-rule="evenodd" d="M114.33 216.643C114.33 216.643 161.48 114.173 285.59 65.143C409.7 16.113 588.12 79.143 588.12 79.143L591.31 97.643C591.31 97.643 422.91 12.9329 298.66 66.3629C174.41 119.793 131.32 219.003 131.32 219.003L114.33 216.643Z" fill="url(#paint1_linear_208_15287)"/>
<path style="mix-blend-mode:multiply" opacity="0.2" fill-rule="evenodd" clip-rule="evenodd" d="M139.31 220.063C139.31 220.063 167.4 137.113 285.59 97.6428C403.78 58.1728 462.98 119.163 500.77 144.943C538.56 170.723 590.66 133.643 590.66 133.643L583.43 161.723C583.43 161.723 535.12 173.723 504.96 155.253C474.8 136.783 388.66 61.8528 294.37 102.833C200.08 143.813 182.74 224.983 182.74 224.983L139.31 220.063Z" fill="url(#paint2_linear_208_15287)"/>
<path style="mix-blend-mode:multiply" opacity="0.2" fill-rule="evenodd" clip-rule="evenodd" d="M80.01 211.073C80.01 211.073 126.95 178.963 170.21 125.173C213.47 71.3831 226.66 32.3431 226.66 32.3431L255.83 13.6431L229.39 14.183L184.77 29.0131C184.77 29.0131 131.39 158.313 47.38 204.793L80.01 211.073Z" fill="url(#paint3_linear_208_15287)"/>
<path style="mix-blend-mode:multiply" opacity="0.2" fill-rule="evenodd" clip-rule="evenodd" d="M241.32 230.973C241.32 230.973 279.44 155.803 370.09 136.123C460.74 116.443 539.66 205.743 539.66 205.743L525.55 209.163C525.55 209.163 456.87 117.923 369.79 140.083C282.71 162.243 249.59 230.973 249.59 230.973H241.32Z" fill="url(#paint4_linear_208_15287)"/>
<path style="mix-blend-mode:multiply" opacity="0.2" fill-rule="evenodd" clip-rule="evenodd" d="M321.94 189.963C321.94 189.963 343.8 157.053 386.14 153.753C428.48 150.453 446.24 175.273 446.24 175.273C446.24 175.273 361.55 204.963 321.94 189.963Z" fill="url(#paint5_linear_208_15287)"/>
<path style="mix-blend-mode:multiply" opacity="0.2" fill-rule="evenodd" clip-rule="evenodd" d="M481.42 107.563C481.42 107.563 431.13 66.5627 376.02 73.5627C376.02 73.6427 446.66 62.2727 481.42 107.563Z" fill="url(#paint6_linear_208_15287)"/>
<path style="mix-blend-mode:multiply" opacity="0.2" fill-rule="evenodd" clip-rule="evenodd" d="M205.84 97.6529L258.09 30.2529L279.96 13.1029L294.37 12.7629L265.83 28.4229L231.45 72.3329L307.26 28.4229L345.87 11.4629L353.39 11.2529L316.48 28.4229L205.84 97.6529Z" fill="url(#paint7_linear_208_15287)"/>
<path style="mix-blend-mode:multiply" opacity="0.2" fill-rule="evenodd" clip-rule="evenodd" d="M12.04 172.643C12.04 172.643 128.52 113.353 139.31 20.2427L122.31 22.3927C122.31 22.3927 95.07 132.113 8.58 163.863L12.04 172.643Z" fill="url(#paint8_linear_208_15287)"/>
</g>
<path fill-rule="evenodd" clip-rule="evenodd" d="M62.36 31.873C62.36 31.873 149.8 9.24297 280.23 1.00297C410.66 -7.23703 555.23 38.003 555.23 38.003C555.23 38.003 308.4 -13.267 62.36 31.873Z" fill="#E4B84C"/>
<path fill-rule="evenodd" clip-rule="evenodd" d="M47.38 204.793C47.38 204.793 328.04 257.093 549.3 203.223C549.3 203.223 361.79 271.223 47.38 204.793Z" fill="#A85639"/>
<path fill-rule="evenodd" clip-rule="evenodd" d="M122.3 93.0532L168.55 93.0632L267.62 97.6532H156.47L122.3 93.0532Z" fill="#A85639"/>
<path fill-rule="evenodd" clip-rule="evenodd" d="M2.84 93.053L13.99 87.103L122.3 93.053L70.1 96.353L2.84 93.053Z" fill="#DCA44B"/>
<path fill-rule="evenodd" clip-rule="evenodd" d="M495.02 181.403L462.64 187.363L411.12 203.223L453.07 194.193L495.02 181.403Z" fill="#A85639"/>
<path fill-rule="evenodd" clip-rule="evenodd" d="M55.93 185.663L41.91 163.853L55.93 174.753V185.663Z" fill="#A85639"/>
<path fill-rule="evenodd" clip-rule="evenodd" d="M543.68 140.783L536.43 132.723L518.27 95.353L543.68 140.783Z" fill="#A85639"/>
<path fill-rule="evenodd" clip-rule="evenodd" d="M533.38 140.783L525.48 138.253L508.65 143.403L533.38 140.783Z" fill="#A85639"/>
<path fill-rule="evenodd" clip-rule="evenodd" d="M79.75 77.593L96.78 72.333H138.72L79.75 77.593Z" fill="#A85639"/>
<path fill-rule="evenodd" clip-rule="evenodd" d="M302.9 203.573L322.34 200.663L329.35 205.273L302.9 203.573Z" fill="#A85639"/>
<path fill-rule="evenodd" clip-rule="evenodd" d="M294.37 12.7629L325.9 20.2329L419.98 19.6029L353.39 11.2529L294.37 12.7629Z" fill="#DBA649"/>
<path fill-rule="evenodd" clip-rule="evenodd" d="M464.25 24.1929L495.02 26.5529L518.27 31.5629L504.28 38.0329L464.25 24.1929Z" fill="#DBA649"/>
<path fill-rule="evenodd" clip-rule="evenodd" d="M518.26 31.563L548.26 41.293L575.74 62.363L591.32 104.483C591.32 104.483 592.49 82.483 579.76 57.483L555.22 38.053L518.26 31.563Z" fill="#C98043"/>
<path fill-rule="evenodd" clip-rule="evenodd" d="M4.66 86.1329C4.66 86.1329 19.31 59.9929 33.33 49.3129C47.35 38.6329 101.01 25.543 101.01 25.543L62.34 31.8729L26.19 48.153C15.0844 58.143 7.52786 71.473 4.66 86.1329Z" fill="#C98043"/>
<path fill-rule="evenodd" clip-rule="evenodd" d="M2.84 93.0532L36.47 97.2832L70.1 96.3532L2.84 93.0532Z" fill="#C66C43"/>
<path fill-rule="evenodd" clip-rule="evenodd" d="M232.98 14.1029L250.4 31.5629L241.69 15.7429L247.7 7.75293L232.98 14.1029Z" fill="#B15D3B"/>
<path fill-rule="evenodd" clip-rule="evenodd" d="M250.4 31.5629L238.03 15.7429L247.7 7.75293L232.98 14.1029L250.4 31.5629Z" fill="#DBA44C"/>
<path fill-rule="evenodd" clip-rule="evenodd" d="M79.75 77.593H101.03L138.72 72.333L79.75 77.593Z" fill="#DBA44C"/>
<path fill-rule="evenodd" clip-rule="evenodd" d="M41.91 163.853L45.95 173.823L55.93 185.663L41.91 163.853Z" fill="#D9934B"/>
<path fill-rule="evenodd" clip-rule="evenodd" d="M411.12 203.223L487.1 183.823L459.66 194.193L434.93 199.263L411.12 203.223Z" fill="#D9934B"/>
<path fill-rule="evenodd" clip-rule="evenodd" d="M302.9 203.573L311.64 206.133L329.35 205.273L302.9 203.573Z" fill="#D9934B"/>
<path fill-rule="evenodd" clip-rule="evenodd" d="M12.62 111.823L18.25 109.893L24.55 110.853L20.61 114.113L12.62 111.823Z" fill="#B15D3B"/>
<path fill-rule="evenodd" clip-rule="evenodd" d="M350.92 33.2029L354.86 28.4829L369.54 33.2029L365.61 40.8129H355.9L350.92 33.2029Z" fill="#B15D3B"/>
<path fill-rule="evenodd" clip-rule="evenodd" d="M388.94 45.5329L390.78 43.6929L398.64 47.5429L393.62 50.7729L388.94 47.2329V45.5329Z" fill="#B15D3B"/>
<path fill-rule="evenodd" clip-rule="evenodd" d="M350.92 33.2031L355.84 39.3031L363.97 40.2231H365.91L365.61 40.8131L355.9 41.4031L350.92 33.2031Z" fill="#E0A54D"/>
<path fill-rule="evenodd" clip-rule="evenodd" d="M388.94 47.2329L392.25 49.2429H395.58L398.64 47.5429L394.62 50.7729H393.62L388.94 47.2329Z" fill="#E0A54D"/>
<path fill-rule="evenodd" clip-rule="evenodd" d="M12.62 111.823L17.49 114.113L22.6 114.813L24.55 110.853L21.23 112.833L12.62 111.823Z" fill="#E0A54D"/>
<g style="mix-blend-mode:soft-light">
<path fill-rule="evenodd" clip-rule="evenodd" d="M373.48 2.88281L419.98 19.6428L453.82 23.0328L446.24 12.6428C446.24 12.6428 395.39 4.56281 373.48 2.88281Z" fill="#E3C150"/>
</g>
<g style="mix-blend-mode:soft-light">
<path fill-rule="evenodd" clip-rule="evenodd" d="M215.57 14.8032L237.38 4.32324C237.38 4.32324 194.12 7.07323 145.14 15.7532L130.52 21.7032C130.52 21.7032 182.45 15.9532 215.57 14.8032Z" fill="#E3C150"/>
</g>
<path opacity="0.4" fill-rule="evenodd" clip-rule="evenodd" d="M189.11 206.133C189.11 206.133 220.77 139.133 288.06 105.693C288.06 105.693 229.16 122.323 189.11 206.133Z" fill="#D9B148"/>
<path opacity="0.4" fill-rule="evenodd" clip-rule="evenodd" d="M80.01 211.073C80.01 211.073 134.08 172.453 179.81 112.833C179.81 112.833 164.8 150.063 80.01 211.073Z" fill="#D9B148"/>
<defs>
<linearGradient id="paint0_linear_208_15287" x1="296.12" y1="231.453" x2="296.12" y2="11.2631" gradientUnits="userSpaceOnUse">
<stop stop-color="#B4593C"/>
<stop offset="1" stop-color="#D89D48"/>
</linearGradient>
<linearGradient id="paint1_linear_208_15287" x1="114.33" y1="132.723" x2="591.31" y2="132.723" gradientUnits="userSpaceOnUse">
<stop stop-color="#BC4A4B"/>
<stop offset="1" stop-color="#BD5345"/>
</linearGradient>
<linearGradient id="paint2_linear_208_15287" x1="166981" y1="131138" x2="370707" y2="131138" gradientUnits="userSpaceOnUse">
<stop stop-color="#BC4A4B"/>
<stop offset="1" stop-color="#BD5345"/>
</linearGradient>
<linearGradient id="paint3_linear_208_15287" x1="57938.1" y1="176064" x2="101390" y2="176064" gradientUnits="userSpaceOnUse">
<stop stop-color="#BC4A4B"/>
<stop offset="1" stop-color="#BD5345"/>
</linearGradient>
<linearGradient id="paint4_linear_208_15287" x1="140956" y1="94054.6" x2="229951" y2="94054.6" gradientUnits="userSpaceOnUse">
<stop stop-color="#BC4A4B"/>
<stop offset="1" stop-color="#BD5345"/>
</linearGradient>
<linearGradient id="paint5_linear_208_15287" x1="68970.3" y1="38990.4" x2="84420.8" y2="38990.4" gradientUnits="userSpaceOnUse">
<stop stop-color="#BC4A4B"/>
<stop offset="1" stop-color="#BD5345"/>
</linearGradient>
<linearGradient id="paint6_linear_208_15287" x1="64286.4" y1="30684" x2="75395.5" y2="30684" gradientUnits="userSpaceOnUse">
<stop stop-color="#BC4A4B"/>
<stop offset="1" stop-color="#BD5345"/>
</linearGradient>
<linearGradient id="paint7_linear_208_15287" x1="30577.5" y1="4716.6" x2="52348.5" y2="4716.6" gradientUnits="userSpaceOnUse">
<stop stop-color="#BC4A4B"/>
<stop offset="1" stop-color="#BD5345"/>
</linearGradient>
<linearGradient id="paint8_linear_208_15287" x1="31242.6" y1="133491" x2="48332.9" y2="133491" gradientUnits="userSpaceOnUse">
<stop stop-color="#BC4A4B"/>
<stop offset="1" stop-color="#BD5345"/>
</linearGradient>
</defs>
</svg>
