<svg width="297" height="124" viewBox="0 0 297 124" fill="none" xmlns="http://www.w3.org/2000/svg">
<path style="mix-blend-mode:multiply" opacity="0.6" fill-rule="evenodd" clip-rule="evenodd" d="M35.6206 116.2L41.0202 118.95L122.232 124L266.23 114.691L276.434 105.946L35.6206 116.2Z" fill="url(#paint0_linear_375_497)"/>
<path fill-rule="evenodd" clip-rule="evenodd" d="M1.52588e-05 25.3889L23.6159 10.2108C23.6159 10.2108 156.89 8.06679 276.434 2.80371L296.744 15.7455L283.349 101.662L266.23 111.732L120.566 118.955L31.2591 116.045L12.1051 106.343L1.52588e-05 25.3889Z" fill="url(#paint1_radial_375_497)"/>
<path fill-rule="evenodd" clip-rule="evenodd" d="M276.434 2.82314L270.323 0L143.362 5.50076L20.8869 8.43548L21.5817 10.1672C21.5817 10.1672 187.554 7.69816 276.434 2.82314Z" fill="#37C824"/>
<path fill-rule="evenodd" clip-rule="evenodd" d="M296.752 15.765L292.575 10.5068L270.323 0V3.14814L296.752 15.765Z" fill="#70C831"/>
<path fill-rule="evenodd" clip-rule="evenodd" d="M0 25.4081L2.77933 18.6898L20.8952 8.4353L23.6243 10.2301L0 25.4081Z" fill="#70C831"/>
<path fill-rule="evenodd" clip-rule="evenodd" d="M260.83 3.61862L275.246 5.50072L270.323 1.39697L260.83 3.61862Z" fill="#2FC824"/>
<path fill-rule="evenodd" clip-rule="evenodd" d="M18.4005 13.5822L31.8786 10.0605L23.0802 9.87134L18.4005 13.5822Z" fill="#2FC824"/>
<path style="mix-blend-mode:multiply" opacity="0.2" fill-rule="evenodd" clip-rule="evenodd" d="M120.549 118.95L289.477 55.9148L283.374 101.682L266.23 111.723L120.549 118.95Z" fill="url(#paint2_linear_375_497)"/>
<path style="mix-blend-mode:screen" opacity="0.5" fill-rule="evenodd" clip-rule="evenodd" d="M186.734 6.42239L172.729 99.4794L250.022 70.0499L260.83 3.61865L186.734 6.42239Z" fill="url(#paint3_linear_375_497)"/>
<path style="mix-blend-mode:screen" opacity="0.5" fill-rule="evenodd" clip-rule="evenodd" d="M30.1875 10.5068L50.48 116.685L69.1651 117.287L56.1307 9.87134L30.1875 10.5068Z" fill="url(#paint4_linear_375_497)"/>
<path fill-rule="evenodd" clip-rule="evenodd" d="M146.986 72.2908L185.277 63.6467L159.987 71.34L146.986 72.2908Z" fill="#36C824"/>
<path fill-rule="evenodd" clip-rule="evenodd" d="M128.067 79.7029L137.836 87.0324L133.969 82.9966L128.067 79.7029Z" fill="#36C824"/>
<path fill-rule="evenodd" clip-rule="evenodd" d="M146.986 72.2908L162.181 67.9688L185.277 63.6467L146.986 72.2908Z" fill="#C7BA35"/>
<path fill-rule="evenodd" clip-rule="evenodd" d="M128.067 79.7029L133.969 82.9966L137.836 87.0324L134.68 82.4242L128.067 79.7029Z" fill="#C7BA35"/>
<path fill-rule="evenodd" clip-rule="evenodd" d="M30.1875 54.2219L43.9335 45.9028L38.0065 51.4036L30.1875 54.2219Z" fill="#36C824"/>
<path fill-rule="evenodd" clip-rule="evenodd" d="M212.376 106.596L223.225 103.913L221.568 106.135L212.376 106.596Z" fill="#36C824"/>
<path fill-rule="evenodd" clip-rule="evenodd" d="M254.124 109.758H258.36V107.731L254.124 109.758Z" fill="#36C824"/>
<path fill-rule="evenodd" clip-rule="evenodd" d="M258.36 107.731L255.054 106.979L254.124 109.758L258.36 107.731Z" fill="#C7BA35"/>
<path fill-rule="evenodd" clip-rule="evenodd" d="M223.225 103.913L216.779 103.889L212.376 106.595L223.225 103.913Z" fill="#C7BA35"/>
<g style="mix-blend-mode:multiply" opacity="0.6">
<path fill-rule="evenodd" clip-rule="evenodd" d="M283.374 101.682L265.225 109.69L120.549 118.95L266.23 111.723L283.374 101.682Z" fill="#B6A660"/>
</g>
<g style="mix-blend-mode:multiply" opacity="0.6">
<path fill-rule="evenodd" clip-rule="evenodd" d="M12.0968 106.368L37.4205 114.973L94.2879 118.102L31.2423 116.059L12.0968 106.368Z" fill="#B6A660"/>
</g>
<path style="mix-blend-mode:multiply" opacity="0.6" fill-rule="evenodd" clip-rule="evenodd" d="M258.955 18.8744V26.7181L266.857 30.3804H281.34L287.962 26.4125V16.3083L258.955 18.8744Z" fill="url(#paint5_linear_375_497)"/>
<path fill-rule="evenodd" clip-rule="evenodd" d="M260.286 23.8995L258.268 16.3178L266.02 12.7961H281.34L287.962 16.3081L287.033 24.0063L279.256 26.7178H267.176L260.286 23.8995Z" fill="url(#paint6_radial_375_497)"/>
<path fill-rule="evenodd" clip-rule="evenodd" d="M281.34 12.7962L279.289 10.6182L266.857 11.1032L266.02 12.7962H281.34Z" fill="#37C824"/>
<path fill-rule="evenodd" clip-rule="evenodd" d="M287.962 16.3081L279.289 10.6182L280.645 12.7962L287.962 16.3081Z" fill="#70C831"/>
<path fill-rule="evenodd" clip-rule="evenodd" d="M266.857 11.1033L266.02 12.7962L258.268 16.3178L260.236 14.4551L266.857 11.1033Z" fill="#70C831"/>
<g style="mix-blend-mode:soft-light">
<path fill-rule="evenodd" clip-rule="evenodd" d="M258.268 16.3178L266.02 19.757L283.626 18.9712L287.962 16.3081L280.645 12.7961H266.02L258.268 16.3178Z" fill="#9DC64C"/>
</g>
<path fill-rule="evenodd" clip-rule="evenodd" d="M267.686 23.696L265.92 23.0994L264.455 24.0065L267.686 25.03V23.696Z" fill="#B5C22D"/>
<path fill-rule="evenodd" clip-rule="evenodd" d="M276.937 12.7964L283.626 14.0091L280.285 12.2095L276.937 12.7964Z" fill="#2FC824"/>
<path fill-rule="evenodd" clip-rule="evenodd" d="M266.305 12.2095L267.686 12.7964L264.455 13.5095L266.305 12.2095Z" fill="#2FC824"/>
<path fill-rule="evenodd" clip-rule="evenodd" d="M282.01 25.6555L276.259 26.7178H279.256L282.01 25.6555Z" fill="#B5C22D"/>
<path fill-rule="evenodd" clip-rule="evenodd" d="M264.58 25.6555L270.097 26.7178H267.176L264.58 25.6555Z" fill="#B5C22D"/>
<path style="mix-blend-mode:multiply" opacity="0.6" fill-rule="evenodd" clip-rule="evenodd" d="M10.975 26.4415V34.2804L18.8777 37.9427H33.3687L39.9822 33.9796V23.8755L10.975 26.4415Z" fill="url(#paint7_linear_375_497)"/>
<path fill-rule="evenodd" clip-rule="evenodd" d="M12.3061 31.4621L10.2969 23.8803L18.0405 20.3635H33.3687L39.9822 23.8755L39.0529 31.5688L31.2758 34.2804H19.2042L12.3061 31.4621Z" fill="url(#paint8_radial_375_497)"/>
<path fill-rule="evenodd" clip-rule="evenodd" d="M33.3687 20.3635L31.3093 18.1807L18.8777 18.6657L18.0405 20.3635H33.3687Z" fill="#37C824"/>
<path fill-rule="evenodd" clip-rule="evenodd" d="M39.9822 23.8755L31.3093 18.1807L32.6739 20.3635L39.9822 23.8755Z" fill="#70C831"/>
<path fill-rule="evenodd" clip-rule="evenodd" d="M18.8777 18.6658L18.0405 20.3635L10.2969 23.8803L12.2558 22.0176L18.8777 18.6658Z" fill="#70C831"/>
<g style="mix-blend-mode:soft-light">
<path fill-rule="evenodd" clip-rule="evenodd" d="M10.2969 23.8803L18.0405 27.3244L35.6457 26.5385L39.9822 23.8755L32.6739 20.3635H18.0405L10.2969 23.8803Z" fill="#9DC64C"/>
</g>
<path fill-rule="evenodd" clip-rule="evenodd" d="M22.4104 32.374L20.4013 32.1558L19.539 33.2957L23.1806 33.6304L22.4104 32.374Z" fill="#B5C22D"/>
<path fill-rule="evenodd" clip-rule="evenodd" d="M28.9569 20.3636L35.6457 21.5714L32.3055 19.7766L28.9569 20.3636Z" fill="#2FC824"/>
<path fill-rule="evenodd" clip-rule="evenodd" d="M18.3335 19.7766L19.7064 20.3636L16.4751 21.0718L18.3335 19.7766Z" fill="#2FC824"/>
<path fill-rule="evenodd" clip-rule="evenodd" d="M34.03 33.218L28.2788 34.2803H31.2758L34.03 33.218Z" fill="#B5C22D"/>
<path fill-rule="evenodd" clip-rule="evenodd" d="M16.6006 33.218L22.1174 34.2803H19.2042L16.6006 33.218Z" fill="#B5C22D"/>
<path style="mix-blend-mode:multiply" opacity="0.6" fill-rule="evenodd" clip-rule="evenodd" d="M20.0832 100.062V107.9L27.9858 111.563H42.4685L49.0903 107.6V97.4907L20.0832 100.062Z" fill="url(#paint9_linear_375_497)"/>
<path fill-rule="evenodd" clip-rule="evenodd" d="M21.4142 105.082L19.4051 97.5002L27.1487 93.9834H42.4685L49.0903 97.4905L48.1611 105.189L40.384 107.9H28.3123L21.4142 105.082Z" fill="url(#paint10_radial_375_497)"/>
<path fill-rule="evenodd" clip-rule="evenodd" d="M42.4685 93.9836L40.4175 91.8008L27.9858 92.2859L27.1487 93.9836H42.4685Z" fill="#37C824"/>
<path fill-rule="evenodd" clip-rule="evenodd" d="M49.0903 97.4907L40.4175 91.8008L41.7737 93.9836L49.0903 97.4907Z" fill="#70C831"/>
<path fill-rule="evenodd" clip-rule="evenodd" d="M27.9858 92.2859L27.1487 93.9837L19.4051 97.5005L21.364 95.6378L27.9858 92.2859Z" fill="#70C831"/>
<g style="mix-blend-mode:soft-light">
<path fill-rule="evenodd" clip-rule="evenodd" d="M19.4051 97.5002L27.1487 100.939L44.7539 100.158L49.0903 97.4905L41.7737 93.9834H27.1487L19.4051 97.5002Z" fill="#9DC64C"/>
</g>
<path fill-rule="evenodd" clip-rule="evenodd" d="M38.0651 93.9836L44.7539 95.1915L41.4137 93.3918L38.0651 93.9836Z" fill="#2FC824"/>
<path fill-rule="evenodd" clip-rule="evenodd" d="M27.4333 93.3918L28.8146 93.9836L25.5832 94.6919L27.4333 93.3918Z" fill="#2FC824"/>
<path fill-rule="evenodd" clip-rule="evenodd" d="M43.1382 106.838L37.387 107.9H40.384L43.1382 106.838Z" fill="#B5C22D"/>
<path fill-rule="evenodd" clip-rule="evenodd" d="M25.7088 106.838L31.2256 107.9H28.3123L25.7088 106.838Z" fill="#B5C22D"/>
<path style="mix-blend-mode:multiply" opacity="0.6" fill-rule="evenodd" clip-rule="evenodd" d="M246.665 97.1364V104.98L254.568 108.642H269.059L275.681 104.674V94.5703L246.665 97.1364Z" fill="url(#paint11_linear_375_497)"/>
<path fill-rule="evenodd" clip-rule="evenodd" d="M247.997 102.157L245.987 94.5802L253.731 91.0586H269.059L275.681 94.5705L274.752 102.269L266.975 104.98H254.895L247.997 102.157Z" fill="url(#paint12_radial_375_497)"/>
<path fill-rule="evenodd" clip-rule="evenodd" d="M269.059 91.0586L267 88.8806L254.568 89.3657L253.731 91.0586H269.059Z" fill="#37C824"/>
<path fill-rule="evenodd" clip-rule="evenodd" d="M275.681 94.5706L267 88.8806L268.364 91.0586L275.681 94.5706Z" fill="#70C831"/>
<path fill-rule="evenodd" clip-rule="evenodd" d="M254.568 89.3655L253.731 91.0584L245.987 94.58L247.955 92.7125L254.568 89.3655Z" fill="#70C831"/>
<g style="mix-blend-mode:soft-light">
<path fill-rule="evenodd" clip-rule="evenodd" d="M245.987 94.5802L253.731 98.0194L271.345 97.2336L275.681 94.5705L268.364 91.0586H253.731L245.987 94.5802Z" fill="#9DC64C"/>
</g>
<path fill-rule="evenodd" clip-rule="evenodd" d="M264.656 91.0586L271.345 92.2713L267.996 90.4717L264.656 91.0586Z" fill="#2FC824"/>
<path fill-rule="evenodd" clip-rule="evenodd" d="M254.024 90.4717L255.397 91.0586L252.166 91.7717L254.024 90.4717Z" fill="#2FC824"/>
<path fill-rule="evenodd" clip-rule="evenodd" d="M269.72 103.918L263.969 104.98H266.975L269.72 103.918Z" fill="#B5C22D"/>
<path fill-rule="evenodd" clip-rule="evenodd" d="M252.299 103.918L257.808 104.98H254.895L252.299 103.918Z" fill="#B5C22D"/>
<defs>
<linearGradient id="paint0_linear_375_497" x1="156.028" y1="124" x2="156.028" y2="105.946" gradientUnits="userSpaceOnUse">
<stop stop-color="#BB9447"/>
<stop offset="1" stop-color="#917C4B"/>
</linearGradient>
<radialGradient id="paint1_radial_375_497" cx="0" cy="0" r="1" gradientUnits="userSpaceOnUse" gradientTransform="translate(141.352 24.1422) scale(153.273 66.6095)">
<stop stop-color="#55C832"/>
<stop offset="1" stop-color="#C7C832"/>
</radialGradient>
<linearGradient id="paint2_linear_375_497" x1="205.009" y1="118.95" x2="205.009" y2="55.9148" gradientUnits="userSpaceOnUse">
<stop stop-color="#A18A42"/>
<stop offset="1" stop-color="white"/>
</linearGradient>
<linearGradient id="paint3_linear_375_497" x1="216.779" y1="99.4794" x2="216.779" y2="3.61865" gradientUnits="userSpaceOnUse">
<stop/>
<stop offset="1" stop-color="#66C82E"/>
</linearGradient>
<linearGradient id="paint4_linear_375_497" x1="2343.12" y1="25981.8" x2="2343.12" y2="2195.77" gradientUnits="userSpaceOnUse">
<stop/>
<stop offset="1" stop-color="#66C82E"/>
</linearGradient>
<linearGradient id="paint5_linear_375_497" x1="9734.15" y1="897.642" x2="9734.15" y2="489.411" gradientUnits="userSpaceOnUse">
<stop stop-color="#BB9447"/>
<stop offset="1" stop-color="#917C4B"/>
</linearGradient>
<radialGradient id="paint6_radial_375_497" cx="0" cy="0" r="1" gradientUnits="userSpaceOnUse" gradientTransform="translate(36826.1 27555.3) scale(601.296 211.436)">
<stop stop-color="#55C832"/>
<stop offset="1" stop-color="#C7C832"/>
</radialGradient>
<linearGradient id="paint7_linear_375_497" x1="893.953" y1="1124.21" x2="893.953" y2="716.264" gradientUnits="userSpaceOnUse">
<stop stop-color="#BB9447"/>
<stop offset="1" stop-color="#917C4B"/>
</linearGradient>
<radialGradient id="paint8_radial_375_497" cx="0" cy="0" r="1" gradientUnits="userSpaceOnUse" gradientTransform="translate(27774.5 27767.4) scale(601.126 211.362)">
<stop stop-color="#55C832"/>
<stop offset="1" stop-color="#C7C832"/>
</radialGradient>
<linearGradient id="paint9_linear_375_497" x1="1218.37" y1="3333.93" x2="1218.37" y2="2925.69" gradientUnits="userSpaceOnUse">
<stop stop-color="#BB9447"/>
<stop offset="1" stop-color="#917C4B"/>
</linearGradient>
<radialGradient id="paint10_radial_375_497" cx="0" cy="0" r="1" gradientUnits="userSpaceOnUse" gradientTransform="translate(28106.3 29929) scale(601.126 211.362)">
<stop stop-color="#55C832"/>
<stop offset="1" stop-color="#C7C832"/>
</radialGradient>
<linearGradient id="paint11_linear_375_497" x1="9298.93" y1="3246.29" x2="9298.93" y2="2838.06" gradientUnits="userSpaceOnUse">
<stop stop-color="#BB9447"/>
<stop offset="1" stop-color="#917C4B"/>
</linearGradient>
<radialGradient id="paint12_radial_375_497" cx="0" cy="0" r="1" gradientUnits="userSpaceOnUse" gradientTransform="translate(36378.2 29853.9) scale(601.296 211.436)">
<stop stop-color="#55C832"/>
<stop offset="1" stop-color="#C7C832"/>
</radialGradient>
</defs>
</svg>
