<svg width="449" height="103" viewBox="0 0 449 103" fill="none" xmlns="http://www.w3.org/2000/svg">
<g clip-path="url(#clip0_208_15556)">
<path fill-rule="evenodd" clip-rule="evenodd" d="M9.88028 76.1036L170.738 90.4071C170.738 90.4071 55.5144 85.5594 5.22992 80.3774C8.72803 90.7637 18.7256 96.5364 18.7256 96.5364C136.192 111.024 432.703 96.5364 432.703 96.5364L443.287 47.1176L411.39 45.0002L398.453 47.2959H330.009L379.783 44.7773L408.12 38.5031L447.944 41.5678L448.993 20.6334C294.793 10.3139 0.517487 7.26044 0.517487 7.26044C-0.310486 30.6521 5.11954 59.6492 9.88028 76.1036Z" fill="url(#paint0_linear_208_15556)"/>
<path fill-rule="evenodd" clip-rule="evenodd" d="M449 20.6501L445.785 13.9636L434.055 7.27713C434.055 7.27713 118.57 5.6055 9.38351 0.0334167L0.517517 7.27713C0.517517 7.27713 270.334 10.8433 449 20.6501Z" fill="#E4B84C"/>
<path fill-rule="evenodd" clip-rule="evenodd" d="M445.757 13.9525C445.757 13.9525 340.193 12.1806 231.386 12.1806L449 20.6501L445.757 13.9525Z" fill="#DBA649"/>
<path fill-rule="evenodd" clip-rule="evenodd" d="M443.301 47.1287L436.456 44.6491L410.721 43.1112L398.453 45.1228L368.205 45.3735L330.03 47.307H361.264L398.667 49.4077L410.272 45.2119L443.301 47.1287Z" fill="#DCA44B"/>
<path fill-rule="evenodd" clip-rule="evenodd" d="M447.951 41.5789L436.456 44.6491L410.721 43.1112L398.453 45.1227L369.296 46.148L330.03 47.307L379.1 44.1031L408.127 38.5143L447.951 41.5789Z" fill="#B15D3B"/>
<g style="mix-blend-mode:multiply" opacity="0.2">
<path style="mix-blend-mode:multiply" opacity="0.2" fill-rule="evenodd" clip-rule="evenodd" d="M364.583 99.3224C364.583 99.3224 325.6 50.2324 231.42 28.4678C137.24 6.70323 1.83531 34.6974 1.83531 34.6974L2.91164 42.9106C2.91164 42.9106 127.202 5.30463 221.519 29.025C315.837 52.7454 350.991 99.7905 350.991 99.7905L364.583 99.3224Z" fill="url(#paint1_linear_208_15556)"/>
<path style="mix-blend-mode:multiply" opacity="0.2" fill-rule="evenodd" clip-rule="evenodd" d="M344.202 99.7905C344.202 99.7905 321.109 60.4237 231.413 42.9106C141.718 25.3976 96.7948 52.4612 68.12 63.9062C39.4451 75.3513 7.02382 64.9705 7.02382 64.9705L9.88026 76.1147C9.88026 76.1147 42.0325 76.6719 64.9186 68.4921C87.8046 60.3123 153.172 27.0302 224.748 45.223C296.325 63.4159 311.042 101.005 311.042 101.005L344.202 99.7905Z" fill="url(#paint2_linear_208_15556)"/>
<path style="mix-blend-mode:multiply" opacity="0.2" fill-rule="evenodd" clip-rule="evenodd" d="M398.453 98.0408C398.453 98.0408 351.798 79.001 318.977 55.1358C286.155 31.2705 276.13 13.9302 276.13 13.9302L253.996 5.62222L274.06 5.86183L307.923 12.4592C307.923 12.4592 362.513 76.2205 426.266 96.854L398.453 98.0408Z" fill="url(#paint3_linear_208_15556)"/>
<path style="mix-blend-mode:multiply" opacity="0.2" fill-rule="evenodd" clip-rule="evenodd" d="M264.987 102.086C264.987 102.086 236.085 68.7373 167.288 59.9835C98.4922 51.2298 27.2811 97.5171 27.2811 97.5171L32.4972 98.0409C32.4972 98.0409 101.494 51.904 167.544 61.7443C233.594 71.5846 258.777 102.086 258.777 102.086H264.987Z" fill="url(#paint4_linear_208_15556)"/>
<path style="mix-blend-mode:multiply" opacity="0.2" fill-rule="evenodd" clip-rule="evenodd" d="M203.829 83.8877C203.829 83.8877 187.27 69.2777 155.104 67.8123C122.938 66.3468 109.497 77.3628 109.497 77.3628C109.497 77.3628 173.767 90.5408 203.829 83.8877Z" fill="url(#paint5_linear_208_15556)"/>
<path style="mix-blend-mode:multiply" opacity="0.2" fill-rule="evenodd" clip-rule="evenodd" d="M82.8024 47.307C82.8024 47.307 120.964 29.0919 162.783 32.2624C162.783 32.2345 109.173 27.2085 82.8024 47.307Z" fill="url(#paint6_linear_208_15556)"/>
<path style="mix-blend-mode:multiply" opacity="0.2" fill-rule="evenodd" clip-rule="evenodd" d="M291.937 42.9106L252.285 12.9941L235.691 5.37706L224.755 5.23219L246.413 12.1806L272.501 31.6717L214.972 12.1806L185.669 4.65269L179.97 4.56354L207.975 12.1806L291.937 42.9106Z" fill="url(#paint7_linear_208_15556)"/>
<path style="mix-blend-mode:multiply" opacity="0.2" fill-rule="evenodd" clip-rule="evenodd" d="M437.54 74.053L405.643 46.8835L410.272 45.2119L421.588 45.6855L440.548 59.9835L437.54 74.053Z" fill="url(#paint8_linear_208_15556)"/>
<path style="mix-blend-mode:multiply" opacity="0.2" fill-rule="evenodd" clip-rule="evenodd" d="M412.184 38.5143L395.873 18.0201L383.412 13.1111L332.879 6.47476H326.097L377.589 13.1836L386.669 18.2207L396.032 40.8434L408.168 38.5143H412.184Z" fill="url(#paint9_linear_208_15556)"/>
</g>
<path fill-rule="evenodd" clip-rule="evenodd" d="M330.03 47.307L289.777 49.2517L179.97 48.2765L330.03 47.307Z" fill="#B15D3B"/>
<path fill-rule="evenodd" clip-rule="evenodd" d="M24.0245 77.3628L5.22992 80.3662L75.0334 87.4817L170.738 90.4071L24.0245 77.3628Z" fill="#DCA44B"/>
<path fill-rule="evenodd" clip-rule="evenodd" d="M372.863 99.0271L301.01 98.0408L201.51 102.928C201.51 102.928 323.137 101.055 372.863 99.0271Z" fill="#A85639"/>
<path fill-rule="evenodd" clip-rule="evenodd" d="M2.90475 42.9106L110.629 47.0173L38.0583 45.2119L2.90475 42.9106Z" fill="#A85639"/>
<path fill-rule="evenodd" clip-rule="evenodd" d="M242.701 48.8338L234.925 50.6503L217.566 48.6109L242.701 48.8338Z" fill="#DCA44B"/>
<path opacity="0.4" fill-rule="evenodd" clip-rule="evenodd" d="M260.896 98.0409C260.896 98.0409 238.817 70.7934 187.904 63.5441C187.904 63.5441 233.739 71.3506 260.896 98.0409Z" fill="#D9B148"/>
<path opacity="0.4" fill-rule="evenodd" clip-rule="evenodd" d="M394.617 83.0241C394.617 83.0241 351.515 58.9749 332.251 37.1658C332.251 37.1658 367.978 66.631 394.617 83.0241Z" fill="#D9B148"/>
<path opacity="0.4" fill-rule="evenodd" clip-rule="evenodd" d="M217.559 40.4979C217.559 40.4979 185.945 33.6331 148.797 38.5142C111.65 43.3954 79.939 57.9162 63.9319 65.4107C63.9319 65.4107 79.049 56.4954 109.469 46.2539C139.89 36.0124 185.683 33.2765 217.559 40.4979Z" fill="#D9B148"/>
<path opacity="0.4" fill-rule="evenodd" clip-rule="evenodd" d="M192.858 22.3162C192.858 22.3162 141.905 11.8407 1.8284 34.6974C1.8284 34.6974 103.363 12.1806 192.858 22.3162Z" fill="#D9B148"/>
<path fill-rule="evenodd" clip-rule="evenodd" d="M43.9299 1.42645L27.2811 7.66162L31.6417 16.4154L32.0143 8.92091L43.9299 1.42645Z" fill="#B15D3B"/>
<path fill-rule="evenodd" clip-rule="evenodd" d="M386.669 43.1112L375.126 37.1658L379.79 44.7884L386.669 43.1112Z" fill="#B15D3B"/>
<path fill-rule="evenodd" clip-rule="evenodd" d="M436.16 80.4832L423.099 87.0639L436.16 83.0241V80.4832Z" fill="#B15D3B"/>
<path fill-rule="evenodd" clip-rule="evenodd" d="M327.96 90.4071L316.037 83.7763L323.813 90.4071H327.96Z" fill="#A85639"/>
<path fill-rule="evenodd" clip-rule="evenodd" d="M100.252 101.93L110.629 96.5531L94.3731 101.735L100.252 101.93Z" fill="#A85639"/>
<path fill-rule="evenodd" clip-rule="evenodd" d="M327.96 90.4071L324.531 89.7329L316.037 83.7763L323.813 90.4071H327.96Z" fill="#D9934B"/>
<path fill-rule="evenodd" clip-rule="evenodd" d="M436.16 83.0241L435.242 84.7514L423.099 87.0638L436.16 83.0241Z" fill="#D9934B"/>
<path fill-rule="evenodd" clip-rule="evenodd" d="M107.758 98.0408L103.708 101.93L101.293 102.086L107.758 98.0408Z" fill="#D9934B"/>
<path fill-rule="evenodd" clip-rule="evenodd" d="M363.438 17.3181H317.597L154.593 12.1806L32.0143 8.92092L33.8427 7.77307L268.616 13.6293L363.438 17.3181Z" fill="#C98043"/>
<path fill-rule="evenodd" clip-rule="evenodd" d="M27.2811 7.6616L5.20231 8.92089L2.87714 23.7371L5.71978 40.7431L15.0619 42.9106H2.87714C2.87714 42.9106 -1.48341 19.5079 0.476082 7.24927L27.2811 7.6616Z" fill="#C98043"/>
<path fill-rule="evenodd" clip-rule="evenodd" d="M432.717 96.5475L435.242 84.7514L433.98 83.0241L436.16 80.4832V69.7959L443.301 47.1287L436.801 83.0241L432.717 96.5475Z" fill="#B6623D"/>
<path fill-rule="evenodd" clip-rule="evenodd" d="M21.5406 77.14L8.82465 72.0025L9.88027 76.1036L21.5406 77.14Z" fill="#B6623D"/>
<path fill-rule="evenodd" clip-rule="evenodd" d="M46.6277 99.2389L13.6406 92.6638L18.7325 96.5475L46.6277 99.2389Z" fill="#A85639"/>
<g style="mix-blend-mode:soft-light">
<path fill-rule="evenodd" clip-rule="evenodd" d="M32.856 1.03084L14.7997 1.42645L7.28602 4.20135L6.63746 7.25486H0.51059L9.37663 0L32.856 1.03084Z" fill="#E3C150"/>
</g>
<g style="mix-blend-mode:soft-light">
<path fill-rule="evenodd" clip-rule="evenodd" d="M445.792 13.9525L416.793 13.5235L429.398 12.1806L437.954 12.5428L439.334 11.5955L434.587 7.77306L428.108 8.73704L421.802 7.77306L401.241 7.04312L434.042 7.25486L445.792 13.9525Z" fill="#E3C150"/>
</g>
</g>
<defs>
<linearGradient id="paint0_linear_208_15556" x1="224.707" y1="103" x2="224.707" y2="7.25487" gradientUnits="userSpaceOnUse">
<stop stop-color="#B4593C"/>
<stop offset="1" stop-color="#D89D48"/>
</linearGradient>
<linearGradient id="paint1_linear_208_15556" x1="364.583" y1="59.9835" x2="1.82845" y2="59.9835" gradientUnits="userSpaceOnUse">
<stop stop-color="#BC4A4B"/>
<stop offset="1" stop-color="#BD5345"/>
</linearGradient>
<linearGradient id="paint2_linear_208_15556" x1="-113349" y1="18078.9" x2="-278124" y2="18078.9" gradientUnits="userSpaceOnUse">
<stop stop-color="#BC4A4B"/>
<stop offset="1" stop-color="#BD5345"/>
</linearGradient>
<linearGradient id="paint3_linear_208_15556" x1="-37171.6" y1="23263.7" x2="-80183.9" y2="23263.7" gradientUnits="userSpaceOnUse">
<stop stop-color="#BC4A4B"/>
<stop offset="1" stop-color="#BD5345"/>
</linearGradient>
<linearGradient id="paint4_linear_208_15556" x1="-107171" y1="13153.7" x2="-189073" y2="13153.7" gradientUnits="userSpaceOnUse">
<stop stop-color="#BC4A4B"/>
<stop offset="1" stop-color="#BD5345"/>
</linearGradient>
<linearGradient id="paint5_linear_208_15556" x1="-50795.6" y1="5427.1" x2="-63692.7" y2="5427.1" gradientUnits="userSpaceOnUse">
<stop stop-color="#BC4A4B"/>
<stop offset="1" stop-color="#BD5345"/>
</linearGradient>
<linearGradient id="paint6_linear_208_15556" x1="-47835.9" y1="3617.3" x2="-57107.2" y2="3617.3" gradientUnits="userSpaceOnUse">
<stop stop-color="#BC4A4B"/>
<stop offset="1" stop-color="#BD5345"/>
</linearGradient>
<linearGradient id="paint7_linear_208_15556" x1="-25196.3" y1="1638.15" x2="-43366.3" y2="1638.15" gradientUnits="userSpaceOnUse">
<stop stop-color="#BC4A4B"/>
<stop offset="1" stop-color="#BD5345"/>
</linearGradient>
<linearGradient id="paint8_linear_208_15556" x1="12.9593" y1="3131.79" x2="-1752.55" y2="3131.79" gradientUnits="userSpaceOnUse">
<stop stop-color="#BC4A4B"/>
<stop offset="1" stop-color="#BD5345"/>
</linearGradient>
<linearGradient id="paint9_linear_208_15556" x1="-4181.4" y1="1465.77" x2="-14922.4" y2="1465.77" gradientUnits="userSpaceOnUse">
<stop stop-color="#BC4A4B"/>
<stop offset="1" stop-color="#BD5345"/>
</linearGradient>
<clipPath id="clip0_208_15556">
<rect width="449" height="103" fill="white" transform="matrix(-1 0 0 1 449 0)"/>
</clipPath>
</defs>
</svg>
