<svg width="auto" height="156" viewBox="0 0 466 156" fill="none" xmlns="http://www.w3.org/2000/svg">
<path fill-rule="evenodd" clip-rule="evenodd" d="M412.595 135.29L377.965 151.049L448.872 126.819C441.272 137.481 432.758 147.246 423.458 155.968H46.6827C46.6827 155.968 2.66852 127.799 0.305912 86.1967C0.162158 83.5323 0.187398 80.8595 0.381287 78.1992L1.20019 77.8547L24.6004 67.6721L6.89486 57.9847L5.59589 57.2851C12.0154 42.2158 24.7415 25.9839 46.6827 9.24619C46.6827 9.24619 48.0758 9.4076 50.7114 9.6767C79.571 12.6475 258.367 29.6975 412.595 14.7142C412.595 14.7142 493.056 46.1984 456.242 114.818L412.595 135.29Z" fill="url(#paint0_linear_208_15788)"/>
<path fill-rule="evenodd" clip-rule="evenodd" d="M412.586 14.6604L401.93 0.0216064L184.589 9.20317L61.169 0.0216064L46.6921 9.22466C46.6921 9.22466 252.408 35.2623 412.586 14.6604Z" fill="#E4B84C"/>
<path fill-rule="evenodd" clip-rule="evenodd" d="M465.862 78.9957C465.862 78.9957 472.028 31.3227 401.931 0L412.586 14.6603C412.586 14.6603 463.509 36.6185 465.862 78.9957Z" fill="#DEAB4A"/>
<path fill-rule="evenodd" clip-rule="evenodd" d="M0.381235 78.1992L1.20014 77.8547C0.737203 80.6107 0.422851 83.3966 0.258864 86.1967C0.258864 86.821 0.2588 87.4884 0.19291 88.1557C-0.0643034 84.8722 -0.0643034 81.5689 0.19291 78.2853L0.381235 78.1992Z" fill="#DEAB4A"/>
<path fill-rule="evenodd" clip-rule="evenodd" d="M61.1784 0.0216064L50.7114 9.70904C50.7114 9.70904 20.6846 25.8548 6.93251 57.974L5.63354 57.2743L4.3063 56.5316C10.4529 36.8446 25.391 12.9382 61.1784 0.0216064Z" fill="#DEAB4A"/>
<path fill-rule="evenodd" clip-rule="evenodd" d="M391.426 17.6097H418.958L408.623 9.20312L391.426 17.6097Z" fill="#DBA649"/>
<path fill-rule="evenodd" clip-rule="evenodd" d="M38.9642 17.6096L63.1362 11.2912L52.0103 5.82318L38.9642 17.6096Z" fill="#DBA649"/>
<path fill-rule="evenodd" clip-rule="evenodd" d="M1.2001 77.8547L12.4013 60.977L24.6097 67.6613L1.2001 77.8547Z" fill="#E4B84C"/>
<path fill-rule="evenodd" clip-rule="evenodd" d="M448.872 126.819L442.989 121.05L377.965 151.049L448.872 126.819Z" fill="#E4B84C"/>
<g style="mix-blend-mode:multiply" opacity="0.2">
<path style="mix-blend-mode:multiply" opacity="0.2" fill-rule="evenodd" clip-rule="evenodd" d="M46.6827 155.968C46.6827 155.968 91.4687 69.4158 232.227 22.1304L264.607 22.5932C264.607 22.5932 126.955 43.5934 63.1739 155.968H46.6827Z" fill="url(#paint1_linear_208_15788)"/>
<path style="mix-blend-mode:multiply" opacity="0.2" fill-rule="evenodd" clip-rule="evenodd" d="M73.462 155.968C73.462 155.968 162.742 53.3347 290.173 22.5933H331.024C331.024 22.5933 148.661 56.1549 115.688 155.968H73.462Z" fill="url(#paint2_linear_208_15788)"/>
<path style="mix-blend-mode:multiply" opacity="0.2" fill-rule="evenodd" clip-rule="evenodd" d="M198.454 112.762C198.454 112.762 228.829 64.9704 272.815 65.3364C272.815 65.3364 258.291 110.824 198.454 112.762Z" fill="url(#paint3_linear_208_15788)"/>
<path style="mix-blend-mode:multiply" opacity="0.2" fill-rule="evenodd" clip-rule="evenodd" d="M92.7864 13.401C92.7864 13.401 25.6639 62.9146 21.8612 133.859L29.2784 141.695C29.2784 141.695 19.555 68.8992 97.0505 13.7347L92.7864 13.401Z" fill="url(#paint4_linear_208_15788)"/>
<path style="mix-blend-mode:multiply" opacity="0.2" fill-rule="evenodd" clip-rule="evenodd" d="M224.98 155.968C224.98 155.968 317.592 102.708 364.581 19.3965L356.166 19.9777C356.166 19.9777 320.133 107.907 208.517 155.968H224.98Z" fill="url(#paint5_linear_208_15788)"/>
<path style="mix-blend-mode:multiply" opacity="0.2" fill-rule="evenodd" clip-rule="evenodd" d="M251.919 155.968C251.919 155.968 379.782 57.0698 427.787 22.6256C427.787 22.6256 442.547 33.497 452.599 45.4879C452.599 45.4879 338.422 103.752 306.033 156L251.919 155.968Z" fill="url(#paint6_linear_208_15788)"/>
<path style="mix-blend-mode:multiply" opacity="0.2" fill-rule="evenodd" clip-rule="evenodd" d="M325.781 145.764C325.781 145.764 324.426 124.236 386.089 94.0328C386.107 94.0328 348.212 114.861 325.781 145.764Z" fill="url(#paint7_linear_208_15788)"/>
<path style="mix-blend-mode:multiply" opacity="0.2" fill-rule="evenodd" clip-rule="evenodd" d="M464.431 69.4051L337.716 155.968H351.412L465.862 78.9956L464.431 69.4051Z" fill="url(#paint8_linear_208_15788)"/>
</g>
<path fill-rule="evenodd" clip-rule="evenodd" d="M124.432 16.6839L175.675 26.2207L293.156 22.5933L190.924 17.6096L124.432 16.6839Z" fill="#DBA649"/>
<path fill-rule="evenodd" clip-rule="evenodd" d="M331.024 22.5933L383.99 19.4287L403.173 22.5933L428.38 26.2207L457.221 52.1615L445.032 35.7897L418.958 17.6096L393.308 16.6839L331.024 22.5933Z" fill="#C98043"/>
<path fill-rule="evenodd" clip-rule="evenodd" d="M9.6998 52.0215L32.7235 24.3801L51.0502 19.4287L86.7529 14.951L126.513 16.6839L63.1362 11.302L38.9642 17.6204L24.572 30.8814C24.572 30.8814 13.4649 42.1404 9.6998 52.0215Z" fill="#C98043"/>
<path opacity="0.4" fill-rule="evenodd" clip-rule="evenodd" d="M238.026 147.776C238.026 147.776 296.253 114.656 344.004 50.6653C344.004 50.6653 308.33 110.738 238.026 147.776Z" fill="#D9B148"/>
<path opacity="0.4" fill-rule="evenodd" clip-rule="evenodd" d="M117.457 151.049C117.457 151.049 150.063 71.1381 307.436 27.9752C307.436 28.0075 160.389 59.384 117.457 151.049Z" fill="#D9B148"/>
<path opacity="0.4" fill-rule="evenodd" clip-rule="evenodd" d="M63.1644 155.968C63.1644 155.968 120.187 58.5553 256.625 23.7236C256.597 23.702 145.705 34.7134 63.1644 155.968Z" fill="#D9B148"/>
<path opacity="0.4" fill-rule="evenodd" clip-rule="evenodd" d="M29.3537 123.59C29.3537 123.59 32.3658 62.7854 94.8761 15.3062C94.8761 15.3062 40.6396 41.6775 29.3537 123.59Z" fill="#D9B148"/>
<path fill-rule="evenodd" clip-rule="evenodd" d="M24.6097 67.6614H71.8336L261.134 77.5533L42.4752 70.234L24.6097 67.6614Z" fill="#A35237"/>
<path fill-rule="evenodd" clip-rule="evenodd" d="M42.4752 70.2339L56.5473 72.7957H88.4848L42.4752 70.2339Z" fill="#E4A54C"/>
<path fill-rule="evenodd" clip-rule="evenodd" d="M46.6827 155.968L158.488 149.337L237.113 155.968L312.857 152.652L325.8 145.764L315.032 155.968H46.6827Z" fill="#A35237"/>
<path fill-rule="evenodd" clip-rule="evenodd" d="M362.867 155.968L377.966 151.049L371.923 155.968H362.867Z" fill="#A35237"/>
<path fill-rule="evenodd" clip-rule="evenodd" d="M100.223 141.695L82.4701 121.05L97.041 132.18L100.223 141.695Z" fill="#A35237"/>
<path fill-rule="evenodd" clip-rule="evenodd" d="M286.558 146.334L333.631 136.044L303.388 145.764L286.558 146.334Z" fill="#A35237"/>
<path fill-rule="evenodd" clip-rule="evenodd" d="M124.432 9.21381L110.257 15.3061L117.457 27.9751L118.7 15.3061L124.432 9.21381Z" fill="#B15D3B"/>
<path fill-rule="evenodd" clip-rule="evenodd" d="M117.457 27.9752L114.398 22.5933L118.474 17.6096L117.457 27.9752Z" fill="#E4B84C"/>
<path fill-rule="evenodd" clip-rule="evenodd" d="M315.436 60.977L337.717 82.5908L325.8 75.562L315.436 60.977Z" fill="#B15D3B"/>
<path fill-rule="evenodd" clip-rule="evenodd" d="M286.558 146.334L303.388 145.764L333.631 136.044L301.882 144.504L286.558 146.334Z" fill="#E4B84C"/>
<path fill-rule="evenodd" clip-rule="evenodd" d="M82.4701 121.05L91.3463 133.665L100.223 141.695L82.4701 121.05Z" fill="#E4A54C"/>
<g style="mix-blend-mode:soft-light">
<path fill-rule="evenodd" clip-rule="evenodd" d="M322.788 21.6891L312.857 3.76737L386.108 0.667389L391.426 17.6096L322.788 21.6891Z" fill="#E3C150"/>
</g>
<g style="mix-blend-mode:soft-light">
<path fill-rule="evenodd" clip-rule="evenodd" d="M69.0851 11.711L76.0506 1.10868L61.1878 0.0107727L53.8646 6.73816L63.1362 11.2913L69.0851 11.711Z" fill="#E3C150"/>
</g>
<path fill-rule="evenodd" clip-rule="evenodd" d="M339.703 67.6614L330.356 34.089L337.716 52.1615L339.703 67.6614Z" fill="#B15D3B"/>
<path fill-rule="evenodd" clip-rule="evenodd" d="M418.958 110.814L422.667 105.733L436.485 110.814L432.786 119.005H423.646L418.958 110.814Z" fill="#A35237"/>
<path fill-rule="evenodd" clip-rule="evenodd" d="M66.1577 95.8841L67.8803 93.9036L75.2881 98.0476L70.5535 101.524L66.1577 97.714V95.8841Z" fill="#B15D3B"/>
<path fill-rule="evenodd" clip-rule="evenodd" d="M418.958 110.814L423.589 117.379L431.242 118.37H433.068L432.786 119.005L423.646 119.64L418.958 110.814Z" fill="#E0A54D"/>
<path fill-rule="evenodd" clip-rule="evenodd" d="M66.1577 97.7139L69.2733 99.8775H72.4078L75.2881 98.0476L71.4948 101.524H70.5535L66.1577 97.7139Z" fill="#E0A54D"/>
<path opacity="0.4" fill-rule="evenodd" clip-rule="evenodd" d="M201.466 112.611C201.466 112.611 254.517 121.222 272.815 65.3364C272.815 65.3364 259.242 112.234 201.466 112.611Z" fill="#D9B148"/>
<defs>
<linearGradient id="paint0_linear_208_15788" x1="233.046" y1="155.968" x2="233.046" y2="9.21389" gradientUnits="userSpaceOnUse">
<stop stop-color="#B4593C"/>
<stop offset="1" stop-color="#D89D48"/>
</linearGradient>
<linearGradient id="paint1_linear_208_15788" x1="46.6827" y1="89.049" x2="264.607" y2="89.049" gradientUnits="userSpaceOnUse">
<stop stop-color="#BC4A4B"/>
<stop offset="1" stop-color="#BD5345"/>
</linearGradient>
<linearGradient id="paint2_linear_208_15788" x1="370690" y1="122983" x2="441166" y2="122983" gradientUnits="userSpaceOnUse">
<stop stop-color="#BC4A4B"/>
<stop offset="1" stop-color="#BD5345"/>
</linearGradient>
<linearGradient id="paint3_linear_208_15788" x1="117074" y1="43779.7" x2="122948" y2="43779.7" gradientUnits="userSpaceOnUse">
<stop stop-color="#BC4A4B"/>
<stop offset="1" stop-color="#BD5345"/>
</linearGradient>
<linearGradient id="paint4_linear_208_15788" x1="104093" y1="116893" x2="110097" y2="116893" gradientUnits="userSpaceOnUse">
<stop stop-color="#BC4A4B"/>
<stop offset="1" stop-color="#BD5345"/>
</linearGradient>
<linearGradient id="paint5_linear_208_15788" x1="247167" y1="125728" x2="273042" y2="125728" gradientUnits="userSpaceOnUse">
<stop stop-color="#BC4A4B"/>
<stop offset="1" stop-color="#BD5345"/>
</linearGradient>
<linearGradient id="paint6_linear_208_15788" x1="327066" y1="122983" x2="369851" y2="122983" gradientUnits="userSpaceOnUse">
<stop stop-color="#BC4A4B"/>
<stop offset="1" stop-color="#BD5345"/>
</linearGradient>
<linearGradient id="paint7_linear_208_15788" x1="103276" y1="49257.5" x2="107140" y2="49257.5" gradientUnits="userSpaceOnUse">
<stop stop-color="#BC4A4B"/>
<stop offset="1" stop-color="#BD5345"/>
</linearGradient>
<linearGradient id="paint8_linear_208_15788" x1="46306.1" y1="9131.64" x2="63751.8" y2="9131.64" gradientUnits="userSpaceOnUse">
<stop stop-color="#BC4A4B"/>
<stop offset="1" stop-color="#BD5345"/>
</linearGradient>
</defs>
</svg>
