<svg width="950" height="57" viewBox="0 0 950 57" fill="none" xmlns="http://www.w3.org/2000/svg">
<path style="mix-blend-mode:multiply" opacity="0.6" fill-rule="evenodd" clip-rule="evenodd" d="M39.4087 49.1118L48.1499 53.8075C48.1499 53.8075 531.649 57.969 883.103 56.6895L901.109 50.4783C901.109 50.4783 402.462 54.7516 39.4087 49.1118Z" fill="url(#paint0_linear_208_14797)"/>
<path fill-rule="evenodd" clip-rule="evenodd" d="M64.2268 1.37268C64.2268 1.37268 -48.7168 15.1615 25.1419 48.882C25.1419 48.882 568.733 58.9255 929.262 49.8447C929.262 49.8447 984.662 26.0435 911.994 3.53416C911.994 3.5031 299.403 5.86336 64.2268 1.37268Z" fill="url(#paint1_linear_208_14797)"/>
<path fill-rule="evenodd" clip-rule="evenodd" d="M911.994 3.50311L898.299 1.78882C898.299 1.78882 339.988 8.23605 74.7303 0.378906L64.2269 1.34163C64.2269 1.34163 400.366 10.4162 911.994 3.50311Z" fill="url(#paint2_radial_208_14797)"/>
<path style="mix-blend-mode:screen" opacity="0.8" fill-rule="evenodd" clip-rule="evenodd" d="M588.55 6.09938L515.072 53.8074L780.163 52.2547L856.737 3.68323L588.55 6.09938Z" fill="url(#paint3_linear_208_14797)"/>
<path style="mix-blend-mode:screen" opacity="0.8" fill-rule="evenodd" clip-rule="evenodd" d="M64.227 1.37268C64.227 1.37268 34.7166 26.9006 55.6762 49.4161L113.529 50.3168L134.37 2.40994L64.227 1.37268Z" fill="url(#paint4_linear_208_14797)"/>
<g style="mix-blend-mode:soft-light">
<path fill-rule="evenodd" clip-rule="evenodd" d="M30.8106 47.3354C30.8106 47.3354 502.711 58.2485 915.567 48.882C915.638 48.851 250.648 53.0808 30.8106 47.3354Z" fill="#FFFF1D"/>
</g>
<path fill-rule="evenodd" clip-rule="evenodd" d="M746.008 30.5094L808.863 24.1243L767.373 29.8013L746.008 30.5094Z" fill="#FFFF1D"/>
<path fill-rule="evenodd" clip-rule="evenodd" d="M714.974 35.9814L731.003 41.3976L724.644 38.4162L714.974 35.9814Z" fill="#FFFF1D"/>
<path fill-rule="evenodd" clip-rule="evenodd" d="M511.642 12.6647L550.346 16.3044L522.884 14.4846L511.642 12.6647Z" fill="#FFFF1D"/>
<path fill-rule="evenodd" clip-rule="evenodd" d="M336.344 14.087L321.958 15.5094H334.224L336.344 14.087Z" fill="#FFFF1D"/>
<path fill-rule="evenodd" clip-rule="evenodd" d="M746.008 30.5094L770.946 27.3168L808.863 24.1243L746.008 30.5094Z" fill="#FF7539"/>
<path fill-rule="evenodd" clip-rule="evenodd" d="M714.974 35.9814L724.644 38.4162L731.003 41.3976L725.811 37.9939L714.974 35.9814Z" fill="#FF7539"/>
<path fill-rule="evenodd" clip-rule="evenodd" d="M208.586 47.8945L234.595 46.9939L221.519 46.9255L208.586 47.8945Z" fill="#FFFF1D"/>
<path fill-rule="evenodd" clip-rule="evenodd" d="M208.586 47.8945L221.519 46.9255L234.595 46.9939L220.685 46.4535L208.586 47.8945Z" fill="#FF7539"/>
<path fill-rule="evenodd" clip-rule="evenodd" d="M511.642 12.6647H520.764L550.346 16.3044L511.642 12.6647Z" fill="#FF8B39"/>
<path fill-rule="evenodd" clip-rule="evenodd" d="M321.958 15.5093L324.792 13.354L336.344 14.0869L321.958 15.5093Z" fill="#FF8B39"/>
<path fill-rule="evenodd" clip-rule="evenodd" d="M862.572 4.12429L921.402 7.38516L911.994 3.50317L862.572 4.12429Z" fill="#FFFF18"/>
<path fill-rule="evenodd" clip-rule="evenodd" d="M48.6024 3.86341L121.342 2.50937L64.2268 1.34167L48.6024 3.86341Z" fill="#FFFF18"/>
<path fill-rule="evenodd" clip-rule="evenodd" d="M144.778 3.01245L186.054 4.78264L259.675 4.63357L144.778 3.01245Z" fill="#FFFF18"/>
<defs>
<linearGradient id="paint0_linear_208_14797" x1="1.2272e+06" y1="7543.8" x2="1.53895e+06" y2="7543.8" gradientUnits="userSpaceOnUse">
<stop stop-color="#C77CBD"/>
<stop offset="1" stop-color="#974577"/>
</linearGradient>
<linearGradient id="paint1_linear_208_14797" x1="474.772" y1="53.6149" x2="474.772" y2="1.34163" gradientUnits="userSpaceOnUse">
<stop stop-color="#479100"/>
<stop offset="1" stop-color="#B8D502"/>
</linearGradient>
<radialGradient id="paint2_radial_208_14797" cx="0" cy="0" r="1" gradientUnits="userSpaceOnUse" gradientTransform="translate(488.11 3.23604) scale(375.153 97.832)">
<stop stop-color="#FFF447"/>
<stop offset="1" stop-color="#FFBD36"/>
</radialGradient>
<linearGradient id="paint3_linear_208_14797" x1="685.893" y1="53.8074" x2="685.893" y2="3.68323" gradientUnits="userSpaceOnUse">
<stop/>
<stop offset="1" stop-color="#FFBD00"/>
</linearGradient>
<linearGradient id="paint4_linear_208_14797" x1="124702" y1="46681.8" x2="124702" y2="42825" gradientUnits="userSpaceOnUse">
<stop/>
<stop offset="1" stop-color="#233000"/>
</linearGradient>
</defs>
</svg>
