<svg width="33" height="32" viewBox="0 0 33 32" fill="none" xmlns="http://www.w3.org/2000/svg">
<path d="M6.63781 24.502C6.66898 24.6335 6.72643 24.7573 6.80669 24.866C6.88695 24.9746 6.98836 25.0659 7.10483 25.1344C7.2213 25.2029 7.35041 25.247 7.4844 25.2643C7.61839 25.2816 7.75449 25.2715 7.8845 25.2348C13.8457 23.5889 20.1413 23.5883 26.1028 25.2331C26.2327 25.2698 26.3688 25.2798 26.5027 25.2625C26.6366 25.2453 26.7657 25.2011 26.8821 25.1327C26.9986 25.0643 27.1 24.973 27.1802 24.8644C27.2605 24.7558 27.318 24.6321 27.3492 24.5007L30.5353 10.9611C30.5779 10.7798 30.5691 10.5902 30.5098 10.4137C30.4506 10.2372 30.3432 10.0807 30.1998 9.96193C30.0564 9.84314 29.8827 9.76674 29.6982 9.74134C29.5138 9.71595 29.3259 9.74256 29.1557 9.81819L22.8327 12.6284C22.6044 12.7299 22.3464 12.7422 22.1094 12.663C21.8725 12.5837 21.6738 12.4186 21.5524 12.2002L17.8709 5.57344C17.7843 5.41755 17.6576 5.28765 17.5039 5.19721C17.3502 5.10677 17.1751 5.05908 16.9967 5.05908C16.8184 5.05908 16.6433 5.10677 16.4896 5.19721C16.3359 5.28765 16.2092 5.41755 16.1226 5.57344L12.441 12.2002C12.3197 12.4186 12.121 12.5837 11.884 12.663C11.6471 12.7422 11.3891 12.7299 11.1607 12.6284L4.8368 9.81776C4.66668 9.74215 4.47882 9.71553 4.29438 9.74091C4.10995 9.76628 3.93626 9.84263 3.79287 9.96137C3.64948 10.0801 3.54208 10.2365 3.48277 10.413C3.42346 10.5895 3.41459 10.779 3.45716 10.9602L6.63781 24.502Z" stroke="#882900" stroke-width="3" stroke-linecap="round" stroke-linejoin="round"/>
</svg>
