<svg width="33" height="32" viewBox="0 0 33 32" fill="none" xmlns="http://www.w3.org/2000/svg">
<path d="M16.9707 9V11" stroke="#882900" stroke-width="3" stroke-linecap="round" stroke-linejoin="round"/>
<path d="M16.9707 21V23" stroke="#882900" stroke-width="3" stroke-linecap="round" stroke-linejoin="round"/>
<path d="M16.9707 28C23.5981 28 28.9707 22.6274 28.9707 16C28.9707 9.37258 23.5981 4 16.9707 4C10.3433 4 4.9707 9.37258 4.9707 16C4.9707 22.6274 10.3433 28 16.9707 28Z" stroke="#882900" stroke-width="3" stroke-linecap="round" stroke-linejoin="round"/>
<path d="M13.9707 21H18.4707C19.1337 21 19.7696 20.7366 20.2385 20.2678C20.7073 19.7989 20.9707 19.163 20.9707 18.5C20.9707 17.837 20.7073 17.2011 20.2385 16.7322C19.7696 16.2634 19.1337 16 18.4707 16H15.4707C14.8077 16 14.1718 15.7366 13.7029 15.2678C13.2341 14.7989 12.9707 14.163 12.9707 13.5C12.9707 12.837 13.2341 12.2011 13.7029 11.7322C14.1718 11.2634 14.8077 11 15.4707 11H19.9707" stroke="#882900" stroke-width="3" stroke-linecap="round" stroke-linejoin="round"/>
</svg>
