<svg width="33" height="32" viewBox="0 0 33 32" fill="none" xmlns="http://www.w3.org/2000/svg">
<path d="M6.99707 17.4485V26C6.99707 26.2652 7.10243 26.5195 7.28996 26.7071C7.4775 26.8946 7.73185 27 7.99707 27H25.9971C26.2623 27 26.5166 26.8946 26.7042 26.7071C26.8917 26.5195 26.9971 26.2652 26.9971 26V17.4487" stroke="#882900" stroke-width="3" stroke-linecap="round" stroke-linejoin="round"/>
<path d="M7.75137 5H26.2428C26.4601 5 26.6715 5.07079 26.845 5.20165C27.0185 5.33251 27.1446 5.51633 27.2043 5.72528L28.9971 12H4.99707L6.78985 5.72528C6.84955 5.51633 6.97569 5.33251 7.14918 5.20165C7.32267 5.07079 7.53406 5 7.75137 5Z" stroke="#882900" stroke-width="3" stroke-linecap="round" stroke-linejoin="round"/>
<path d="M12.9971 12V14C12.9971 15.0609 12.5756 16.0783 11.8255 16.8284C11.0754 17.5786 10.0579 18 8.99707 18C7.9362 18 6.91879 17.5786 6.16864 16.8284C5.4185 16.0783 4.99707 15.0609 4.99707 14V12" stroke="#882900" stroke-width="3" stroke-linecap="round" stroke-linejoin="round"/>
<path d="M20.9971 12V14C20.9971 15.0609 20.5756 16.0783 19.8255 16.8284C19.0754 17.5786 18.0579 18 16.9971 18C15.9362 18 14.9188 17.5786 14.1686 16.8284C13.4185 16.0783 12.9971 15.0609 12.9971 14V12" stroke="#882900" stroke-width="3" stroke-linecap="round" stroke-linejoin="round"/>
<path d="M28.9971 12V14C28.9971 15.0609 28.5756 16.0783 27.8255 16.8284C27.0754 17.5786 26.0579 18 24.9971 18C23.9362 18 22.9188 17.5786 22.1686 16.8284C21.4185 16.0783 20.9971 15.0609 20.9971 14V12" stroke="#882900" stroke-width="3" stroke-linecap="round" stroke-linejoin="round"/>
</svg>
