<svg width="33" height="32" viewBox="0 0 33 32" fill="none" xmlns="http://www.w3.org/2000/svg">
<path d="M11.9707 20C15.5606 20 18.4707 17.0899 18.4707 13.5C18.4707 9.91015 15.5606 7 11.9707 7C8.38085 7 5.4707 9.91015 5.4707 13.5C5.4707 17.0899 8.38085 20 11.9707 20Z" stroke="#882900" stroke-width="3" stroke-linecap="round" stroke-linejoin="round"/>
<path d="M20.3975 7.24215C21.2915 6.99026 22.2291 6.93287 23.1472 7.07386C24.0653 7.21486 24.9424 7.55095 25.7197 8.0595C26.4969 8.56805 27.1562 9.23726 27.653 10.022C28.1498 10.8068 28.4727 11.689 28.5999 12.6091C28.7271 13.5291 28.6557 14.4658 28.3904 15.3559C28.1251 16.2461 27.6721 17.069 27.062 17.7694C26.4519 18.4697 25.6988 19.0312 24.8534 19.416C24.008 19.8008 23.09 19.9999 22.1612 20" stroke="#882900" stroke-width="3" stroke-linecap="round" stroke-linejoin="round"/>
<path d="M2.9707 24.6746C3.98581 23.2306 5.33346 22.052 6.89986 21.2384C8.46626 20.4248 10.2054 20.0001 11.9705 20C13.7356 19.9999 15.4748 20.4246 17.0413 21.238C18.6078 22.0515 19.9555 23.23 20.9707 24.6739" stroke="#882900" stroke-width="3" stroke-linecap="round" stroke-linejoin="round"/>
<path d="M22.1611 20C23.9264 19.9987 25.666 20.4228 27.2327 21.2364C28.7993 22.05 30.1468 23.2291 31.1612 24.6739" stroke="#882900" stroke-width="3" stroke-linecap="round" stroke-linejoin="round"/>
</svg>
