<svg width="32" height="32" viewBox="0 0 32 32" fill="none" xmlns="http://www.w3.org/2000/svg">
<path d="M9.97949 12.4645H3.97949V6.46448" stroke="#882900" stroke-width="3" stroke-linecap="round" stroke-linejoin="round"/>
<path d="M23.7785 8.22183C22.757 7.20038 21.5444 6.39013 20.2098 5.83733C18.8752 5.28452 17.4448 5 16.0003 5C14.5558 5 13.1254 5.28452 11.7908 5.83733C10.4562 6.39013 9.24358 7.20038 8.22213 8.22183L3.97949 12.4645" stroke="#882900" stroke-width="3" stroke-linecap="round" stroke-linejoin="round"/>
<path d="M22.0205 19.5355H28.0205V25.5355" stroke="#882900" stroke-width="3" stroke-linecap="round" stroke-linejoin="round"/>
<path d="M8.22168 23.7782C9.24312 24.7996 10.4558 25.6099 11.7903 26.1627C13.1249 26.7155 14.5553 27 15.9999 27C17.4444 27 18.8748 26.7155 20.2094 26.1627C21.544 25.6099 22.7566 24.7996 23.778 23.7782L28.0207 19.5355" stroke="#882900" stroke-width="3" stroke-linecap="round" stroke-linejoin="round"/>
</svg>
