<svg width="78" height="41" viewBox="0 0 78 41" fill="none" xmlns="http://www.w3.org/2000/svg">
<path fill-rule="evenodd" clip-rule="evenodd" d="M77.5669 7.8668L74.0895 31.0333L60.3662 31.8198H72.1066L70.8916 40.9914L30.6646 33.2982V38.6685L27.299 39.857C27.299 39.857 9.54289 36.3013 0.0107346 24.5557V20.6173C0.0107346 20.6173 13.2067 3.36993 29.8278 1.38721L30.6571 2.97377V9.76449L73.9702 4.91977L77.5669 7.8668Z" fill="url(#paint0_linear_1537_13958)"/>
<path d="M36.5943 27.9731C36.3703 27.9731 36.207 27.9265 36.1043 27.8331C36.011 27.7305 35.9643 27.5765 35.9643 27.3711V19.0691C35.9643 18.8638 36.011 18.7098 36.1043 18.6071C36.207 18.5045 36.3703 18.4531 36.5943 18.4531H40.6963C41.723 18.4531 42.493 18.6911 43.0063 19.1671C43.5197 19.6338 43.7763 20.2825 43.7763 21.1131C43.7763 21.5518 43.669 21.9438 43.4543 22.2891C43.249 22.6345 42.9643 22.8818 42.6003 23.0311C43.5617 23.3485 44.0423 24.0531 44.0423 25.1451C44.0423 25.6771 43.9163 26.1578 43.6643 26.5871C43.4217 27.0165 43.0483 27.3571 42.5443 27.6091C42.0497 27.8518 41.4337 27.9731 40.6963 27.9731H36.5943ZM40.3043 22.3031C40.6777 22.3031 40.967 22.2098 41.1723 22.0231C41.3777 21.8365 41.4803 21.5658 41.4803 21.2111C41.4803 20.8285 41.3823 20.5578 41.1863 20.3991C40.9997 20.2311 40.7057 20.1471 40.3043 20.1471H38.2743V22.3031H40.3043ZM40.5283 26.2791C40.939 26.2791 41.2423 26.1718 41.4383 25.9571C41.6437 25.7331 41.7463 25.4438 41.7463 25.0891C41.7463 24.6878 41.6297 24.3891 41.3963 24.1931C41.163 23.9878 40.8363 23.8851 40.4163 23.8851H38.2743V26.2791H40.5283ZM47.8668 28.1831C46.9708 28.1831 46.2522 27.9031 45.7108 27.3431C45.1788 26.7831 44.9128 25.9945 44.9128 24.9771C44.9128 24.1931 45.0948 23.5071 45.4588 22.9191C45.8228 22.3218 46.3315 21.8598 46.9848 21.5331C47.6382 21.2065 48.3942 21.0431 49.2528 21.0431C49.9155 21.0431 50.4988 21.1178 51.0028 21.2671C51.5162 21.4165 51.9828 21.6311 52.4028 21.9111V27.5671C52.4028 27.7258 52.3702 27.8331 52.3048 27.8891C52.2488 27.9451 52.1322 27.9731 51.9548 27.9731H50.8488C50.7462 27.9731 50.6668 27.9545 50.6108 27.9171C50.5642 27.8798 50.5268 27.8191 50.4988 27.7351L50.3448 27.2451C50.0648 27.5718 49.7242 27.8098 49.3228 27.9591C48.9215 28.1085 48.4362 28.1831 47.8668 28.1831ZM48.7208 26.5871C49.1315 26.5871 49.4862 26.4705 49.7848 26.2371C50.0928 26.0038 50.2468 25.6865 50.2468 25.2851V22.8351C49.9668 22.6951 49.6308 22.6251 49.2388 22.6251C48.6228 22.6251 48.1282 22.8305 47.7548 23.2411C47.3908 23.6425 47.2088 24.2071 47.2088 24.9351C47.2088 25.4951 47.3348 25.9105 47.5868 26.1811C47.8388 26.4518 48.2168 26.5871 48.7208 26.5871ZM57.3664 28.1831C56.0877 28.1831 55.0984 27.8798 54.3984 27.2731C53.6984 26.6571 53.3484 25.7751 53.3484 24.6271C53.3484 23.9178 53.507 23.2925 53.8244 22.7511C54.151 22.2098 54.6177 21.7898 55.2244 21.4911C55.831 21.1925 56.545 21.0431 57.3664 21.0431C57.973 21.0431 58.491 21.1038 58.9204 21.2251C59.3497 21.3465 59.7417 21.5285 60.0964 21.7711C60.1897 21.8365 60.2364 21.9111 60.2364 21.9951C60.2364 22.0698 60.2084 22.1491 60.1524 22.2331L59.6764 23.0591C59.611 23.1711 59.5457 23.2271 59.4804 23.2271C59.4337 23.2271 59.3544 23.1945 59.2424 23.1291C58.9717 22.9611 58.7104 22.8351 58.4584 22.7511C58.2064 22.6671 57.903 22.6251 57.5484 22.6251C56.9604 22.6251 56.4937 22.8071 56.1484 23.1711C55.8124 23.5258 55.6444 24.0111 55.6444 24.6271C55.6444 25.2805 55.8124 25.7705 56.1484 26.0971C56.4937 26.4238 56.9884 26.5871 57.6324 26.5871C57.987 26.5871 58.295 26.5451 58.5564 26.4611C58.827 26.3678 59.0884 26.2418 59.3404 26.0831C59.4524 26.0178 59.5317 25.9851 59.5784 25.9851C59.6437 25.9851 59.709 26.0411 59.7744 26.1531L60.2924 27.0351C60.339 27.1098 60.3624 27.1705 60.3624 27.2171C60.3624 27.2918 60.3064 27.3665 60.1944 27.4411C59.8024 27.6931 59.3824 27.8798 58.9344 28.0011C58.4957 28.1225 57.973 28.1831 57.3664 28.1831ZM68.5031 27.5111C68.5591 27.5765 68.5871 27.6511 68.5871 27.7351C68.5871 27.8005 68.5637 27.8565 68.5171 27.9031C68.4797 27.9498 68.4191 27.9731 68.3351 27.9731H66.5851C66.4731 27.9731 66.3844 27.9638 66.3191 27.9451C66.2631 27.9171 66.2071 27.8705 66.1511 27.8051L63.9251 25.0611C63.8971 25.0331 63.8644 24.9911 63.8271 24.9351V27.3711C63.8271 27.5765 63.7804 27.7305 63.6871 27.8331C63.5937 27.9265 63.4304 27.9731 63.1971 27.9731H62.1471C61.9231 27.9731 61.7597 27.9265 61.6571 27.8331C61.5637 27.7305 61.5171 27.5765 61.5171 27.3711V19.0691C61.5171 18.8638 61.5637 18.7098 61.6571 18.6071C61.7597 18.5045 61.9231 18.4531 62.1471 18.4531H63.1971C63.4304 18.4531 63.5937 18.5045 63.6871 18.6071C63.7804 18.7005 63.8271 18.8545 63.8271 19.0691V24.0531L63.9251 23.9411L66.0811 21.4351C66.1371 21.3605 66.1931 21.3138 66.2491 21.2951C66.3144 21.2671 66.4077 21.2531 66.5291 21.2531H68.2651C68.3397 21.2531 68.4004 21.2765 68.4471 21.3231C68.4937 21.3698 68.5171 21.4258 68.5171 21.4911C68.5171 21.5751 68.4844 21.6498 68.4191 21.7151L65.8291 24.5011L68.5031 27.5111Z" fill="white"/>
<path fill-rule="evenodd" clip-rule="evenodd" d="M73.978 4.9177L69.8987 2.97363L30.6501 7.86473V9.76242L73.978 4.9177Z" fill="#E4B84C"/>
<path fill-rule="evenodd" clip-rule="evenodd" d="M29.8208 1.38752L27.6218 0C27.6218 0 9.64766 5.552 0.519901 17.3478L0.00183487 20.6176C0.00183487 20.6176 13.714 3.47073 29.8208 1.38752Z" fill="#E4B84C"/>
<path fill-rule="evenodd" clip-rule="evenodd" d="M77.5669 7.86548L67.0116 6.67315L56.4564 6.87799L73.9777 4.91846L77.5669 7.86548Z" fill="#DBA649"/>
<path fill-rule="evenodd" clip-rule="evenodd" d="M72.0957 31.8267L71.3987 31.189L60.3645 31.819L72.0957 31.8267Z" fill="#E4B84C"/>
<g style="mix-blend-mode:multiply" opacity="0.2">
<path style="mix-blend-mode:multiply" opacity="0.2" fill-rule="evenodd" clip-rule="evenodd" d="M74.4868 28.3945C74.4868 28.3945 67.0046 13.3985 51.6376 7.41748L47.6235 7.86774C47.6235 7.86774 64.0229 15.2827 74.0862 31.0343L74.4868 28.3945Z" fill="url(#paint1_linear_1537_13958)"/>
<path style="mix-blend-mode:multiply" opacity="0.2" fill-rule="evenodd" clip-rule="evenodd" d="M75.4055 22.2762C75.4055 22.2762 70.208 11.1103 60.7691 6.79509L67.012 6.67334C67.012 6.67334 73.8644 8.47827 76.5796 14.4747L75.4055 22.2762Z" fill="url(#paint2_linear_1537_13958)"/>
<path style="mix-blend-mode:multiply" opacity="0.2" fill-rule="evenodd" clip-rule="evenodd" d="M64.2451 39.7298C64.2451 39.7298 56.1516 17.8793 43.5595 8.32129L42.4824 8.4411C42.4824 8.4411 58.1811 21.8332 63.5016 39.5888L64.2451 39.7298Z" fill="url(#paint3_linear_1537_13958)"/>
<path style="mix-blend-mode:multiply" opacity="0.2" fill-rule="evenodd" clip-rule="evenodd" d="M61.0542 37.7915C61.0542 37.7915 56.7773 24.4091 48.1732 17.199C39.5691 9.98897 29.2598 7.10185 42.4763 35.5769L43.2925 35.6832C43.2925 35.6832 32.2975 14.0993 39.3268 13.1447C46.3562 12.1901 57.5898 27.4605 61.0542 37.7915Z" fill="url(#paint4_linear_1537_13958)"/>
<path style="mix-blend-mode:multiply" opacity="0.2" fill-rule="evenodd" clip-rule="evenodd" d="M38.7847 34.8617C38.7847 34.8617 32.4299 14.6654 23.7177 2.72461L22.9909 2.97583C22.9909 2.97583 33.6617 16.4626 37.6684 34.6491L38.7847 34.8617Z" fill="url(#paint5_linear_1537_13958)"/>
<path style="mix-blend-mode:multiply" opacity="0.2" fill-rule="evenodd" clip-rule="evenodd" d="M30.6558 38.6695C30.6558 38.6695 19.1724 21.9033 8.22211 12.3453L13.114 8.32959C13.114 8.32959 24.1761 18.3398 30.6558 33.3068V38.6695Z" fill="url(#paint6_linear_1537_13958)"/>
<path style="mix-blend-mode:multiply" opacity="0.2" fill-rule="evenodd" clip-rule="evenodd" d="M22.9907 38.6978C22.9907 38.6978 12.2454 21.7249 2.82317 17.4541L1.19069 19.2262C1.19069 19.2262 14.914 25.155 21.4589 38.2012L22.9907 38.6978Z" fill="url(#paint7_linear_1537_13958)"/>
</g>
<path opacity="0.4" fill-rule="evenodd" clip-rule="evenodd" d="M27.7036 27.3252C27.7036 27.3252 20.1338 16.6695 17.0049 12.335C17.0049 12.335 23.4845 17.8734 27.7036 27.3252Z" fill="#D9B148"/>
<path opacity="0.4" fill-rule="evenodd" clip-rule="evenodd" d="M70.4111 25.9473C70.4111 25.9473 63.8365 17.5739 48.9801 8.53955C48.9801 8.53955 58.5234 12.0972 70.4111 25.9473Z" fill="#D9B148"/>
<path opacity="0.4" fill-rule="evenodd" clip-rule="evenodd" d="M18.3979 33.2194C18.3979 33.2194 11.6425 24.8807 3.90869 20.6177C3.89938 20.6177 12.8054 25.101 18.3979 33.2194Z" fill="#D9B148"/>
<path fill-rule="evenodd" clip-rule="evenodd" d="M30.6494 2.97377L25.5675 2.28388L29.8183 1.38721L30.6494 2.97377Z" fill="#DBA649"/>
<path fill-rule="evenodd" clip-rule="evenodd" d="M17.0029 6.02979L12.9497 10.3083L4.93818 15.325L12.0906 8.52461L17.0029 6.02979Z" fill="#DBA649"/>
<path fill-rule="evenodd" clip-rule="evenodd" d="M74.9859 25.0623L75.9903 10.903L76.5755 9.06912L76.0854 8.31932L69.8238 7.41686L68.6721 7.86519L64.2442 6.72696L67.0116 6.67285L77.5669 7.86519L74.9859 25.0623Z" fill="#C98043"/>
<path fill-rule="evenodd" clip-rule="evenodd" d="M4.93765 15.3247L1.52546 19.8293L0.330909 22.4517L-0.000806332 24.5446L-0.000806332 20.6178L2.79269 16.8262L5.08301 15.2339L4.93765 15.3247Z" fill="#BE6C40"/>
<path fill-rule="evenodd" clip-rule="evenodd" d="M60.3647 31.819L49.8952 31.189L37.6516 31.5078L48.6094 31.8267L60.3647 31.819Z" fill="#A85639"/>
<path fill-rule="evenodd" clip-rule="evenodd" d="M30.6533 38.6572L22.9903 38.6978L27.2877 39.8476L30.6533 38.6572Z" fill="#A85639"/>
<path fill-rule="evenodd" clip-rule="evenodd" d="M70.8828 40.9998L67.7464 39.2528L45.1935 36.0874L70.8828 40.9998Z" fill="#A85639"/>
<path fill-rule="evenodd" clip-rule="evenodd" d="M74.0894 31.0335L72.0953 30.2817L62.1215 31.7176L74.0894 31.0335Z" fill="#A85639"/>
<path fill-rule="evenodd" clip-rule="evenodd" d="M72.0562 28.075L69.3223 27.3252L67.3395 26.9175L69.6969 28.075H72.0562Z" fill="#A85639"/>
<path fill-rule="evenodd" clip-rule="evenodd" d="M22.9902 34.8604L17.6325 33.2178H20.3104L22.9902 34.8604Z" fill="#A85639"/>
<path fill-rule="evenodd" clip-rule="evenodd" d="M22.9902 34.8604L19.9489 34.271L17.6325 33.2178L20.3104 33.7395L22.9902 34.8604Z" fill="#D9934B"/>
<path fill-rule="evenodd" clip-rule="evenodd" d="M76.7544 13.6787L73.3962 15.2344L76.3668 15.8682L76.7544 13.6787Z" fill="#A85639"/>
<path fill-rule="evenodd" clip-rule="evenodd" d="M50.0385 7.59407L50.7075 10.3073L49.0079 7.71002L47.6215 6.93896L50.0385 7.59407Z" fill="#B15D3B"/>
<path fill-rule="evenodd" clip-rule="evenodd" d="M50.7075 10.3073L47.6215 7.86462V6.93896L49.0079 7.71002L50.7075 10.3073Z" fill="#D9934B"/>
<path fill-rule="evenodd" clip-rule="evenodd" d="M30.6533 33.3066L29.3861 31.6563L27.7033 29.4648L30.6533 34.8603V33.3066Z" fill="#A85639"/>
<path fill-rule="evenodd" clip-rule="evenodd" d="M30.6533 34.8603L28.9593 33.2177L27.7033 29.4648L30.6533 34.8603Z" fill="#D9934B"/>
<path fill-rule="evenodd" clip-rule="evenodd" d="M53.8379 23.4892L47.621 19.8291L49.6076 21.6592L53.8379 23.4892Z" fill="#A85639"/>
<path fill-rule="evenodd" clip-rule="evenodd" d="M53.3628 23.2842L50.2171 22.2735L48.0498 20.2231L50.109 21.7537L53.3628 23.2842Z" fill="#D9934B"/>
<path fill-rule="evenodd" clip-rule="evenodd" d="M44.5913 8.20508L41.386 9.76265L34.4591 9.33751L44.5913 8.20508Z" fill="#DBA649"/>
<g style="mix-blend-mode:soft-light">
<path fill-rule="evenodd" clip-rule="evenodd" d="M73.978 4.9177L68.6724 5.51097L70.0403 3.81619L69.5017 3.36979L67.012 3.33307L69.8987 2.97363L73.978 4.9177Z" fill="#E3C150"/>
</g>
<path style="mix-blend-mode:multiply" opacity="0.6" fill-rule="evenodd" clip-rule="evenodd" d="M5.01966 23.0843C5.01939 23.0803 5.01939 23.0763 5.01966 23.0724H5.034C9.08439 16.1226 15.7261 15.1685 15.7261 15.1685L16.5703 17.7605C11.3719 20.8623 9.91281 22.8138 9.67776 23.0412C9.91281 23.2686 13.2308 26.8237 16.5703 28.4095L15.7548 30.9124C15.7548 30.9124 8.95253 29.6714 5.02826 23.0962H5.01393C5.01615 23.0924 5.01806 23.0884 5.01966 23.0843Z" fill="url(#paint8_linear_1537_13958)"/>
<path fill-rule="evenodd" clip-rule="evenodd" d="M5.01966 21.9822V21.9703H5.034C9.08439 15.0206 15.7261 14.0664 15.7261 14.0664L16.5703 16.6584C11.3719 19.7603 9.91281 21.7117 9.67776 21.9376C9.91281 22.1665 13.2308 25.7201 16.5703 27.3075L15.7548 29.8103C15.7548 29.8103 8.95253 28.5693 5.02826 21.9941H5.01393L5.01966 21.9822Z" fill="url(#paint9_radial_1537_13958)"/>
<path fill-rule="evenodd" clip-rule="evenodd" d="M5.01246 21.9943L5.59723 19.3324C5.59723 19.3324 8.28889 15.7654 15.0567 13.6489L15.7261 14.0666C15.7261 14.0666 9.15171 15.3908 5.01246 21.9943Z" fill="#FFC803"/>
<path fill-rule="evenodd" clip-rule="evenodd" d="M16.5693 27.3089L16.1981 26.6119C16.1981 26.6119 11.7063 24.326 10.0208 21.5586L9.67679 21.9346C9.67679 21.9346 12.6264 25.4258 16.5693 27.3089Z" fill="#FFC803"/>
<path fill-rule="evenodd" clip-rule="evenodd" d="M15.7246 14.0645L13.7467 14.9339L12.451 15.2802L14.3501 14.3052L15.7246 14.0645Z" fill="#FFE604"/>
<path fill-rule="evenodd" clip-rule="evenodd" d="M8.75342 17.6953L7.83613 18.5677L7.21267 19.1474L7.81464 18.3389L8.75342 17.6953Z" fill="#FFE604"/>
<path fill-rule="evenodd" clip-rule="evenodd" d="M6.01074 20.5557L5.11926 22.1445L5.01464 21.9958C5.31556 21.4934 5.64832 21.0123 6.01074 20.5557Z" fill="#FFE604"/>
<path style="mix-blend-mode:multiply" opacity="0.6" fill-rule="evenodd" clip-rule="evenodd" d="M15.7534 29.811C15.7534 29.811 10.6266 27.9042 7.21262 24.8633C7.21262 24.8633 10.33 28.5403 15.7534 29.811Z" fill="url(#paint10_linear_1537_13958)"/>
<path style="mix-blend-mode:multiply" opacity="0.6" fill-rule="evenodd" clip-rule="evenodd" d="M14.9103 23.5847C14.91 23.5808 14.91 23.5768 14.9103 23.5729H14.9246C18.975 16.6231 25.6167 15.6689 25.6167 15.6689L26.4609 18.261C21.2625 21.3628 19.8034 23.3143 19.5684 23.5417C19.8034 23.769 23.1214 27.3242 26.4609 28.91L25.6454 31.4129C25.6454 31.4129 18.8432 30.1718 14.9189 23.5966H14.9046C14.9068 23.5928 14.9087 23.5889 14.9103 23.5847Z" fill="url(#paint11_linear_1537_13958)"/>
<path fill-rule="evenodd" clip-rule="evenodd" d="M14.9103 22.4827V22.4708H14.9246C18.975 15.5211 25.6167 14.5669 25.6167 14.5669L26.4609 17.1589C21.2625 20.2607 19.8034 22.2122 19.5684 22.4381C19.8034 22.667 23.1214 26.2206 26.4609 27.808L25.6454 30.3108C25.6454 30.3108 18.8432 29.0698 14.9189 22.4946H14.9046L14.9103 22.4827Z" fill="url(#paint12_radial_1537_13958)"/>
<path fill-rule="evenodd" clip-rule="evenodd" d="M14.9031 22.4947L15.4879 19.8329C15.4879 19.8329 18.1795 16.2658 24.9474 14.1494L25.6167 14.5671C25.6167 14.5671 19.0423 15.8913 14.9031 22.4947Z" fill="#FFC803"/>
<path fill-rule="evenodd" clip-rule="evenodd" d="M26.46 27.8094L26.0887 27.1124C26.0887 27.1124 21.5969 24.8265 19.9114 22.0591L19.5674 22.4351C19.5674 22.4351 22.5171 25.9263 26.46 27.8094Z" fill="#FFC803"/>
<path fill-rule="evenodd" clip-rule="evenodd" d="M25.6152 14.5649L23.6373 15.4344L22.3417 15.7807L24.2407 14.8057L25.6152 14.5649Z" fill="#FFE604"/>
<path fill-rule="evenodd" clip-rule="evenodd" d="M18.6436 18.1958L17.7263 19.0682L17.1028 19.6479L17.7048 18.8393L18.6436 18.1958Z" fill="#FFE604"/>
<path fill-rule="evenodd" clip-rule="evenodd" d="M15.9014 21.0562L15.0099 22.645L14.9053 22.4963C15.2062 21.9939 15.5389 21.5128 15.9014 21.0562Z" fill="#FFE604"/>
<path style="mix-blend-mode:multiply" opacity="0.6" fill-rule="evenodd" clip-rule="evenodd" d="M25.644 30.311C25.644 30.311 20.5173 28.4042 17.1032 25.3633C17.1032 25.3633 20.2206 29.0403 25.644 30.311Z" fill="url(#paint13_linear_1537_13958)"/>
<defs>
<linearGradient id="paint0_linear_1537_13958" x1="38.7842" y1="40.9991" x2="38.7842" y2="1.38721" gradientUnits="userSpaceOnUse">
<stop stop-color="#B4593C"/>
<stop offset="1" stop-color="#D89D48"/>
</linearGradient>
<linearGradient id="paint1_linear_1537_13958" x1="74.4868" y1="19.2268" x2="47.6235" y2="19.2268" gradientUnits="userSpaceOnUse">
<stop stop-color="#BC4A4B"/>
<stop offset="1" stop-color="#BD5345"/>
</linearGradient>
<linearGradient id="paint2_linear_1537_13958" x1="-6532.53" y1="8553.9" x2="-7873.58" y2="8553.9" gradientUnits="userSpaceOnUse">
<stop stop-color="#BC4A4B"/>
<stop offset="1" stop-color="#BD5345"/>
</linearGradient>
<linearGradient id="paint3_linear_1537_13958" x1="-10473.1" y1="18766.4" x2="-13014.5" y2="18766.4" gradientUnits="userSpaceOnUse">
<stop stop-color="#BC4A4B"/>
<stop offset="1" stop-color="#BD5345"/>
</linearGradient>
<linearGradient id="paint4_linear_1537_13958" x1="-12417.8" y1="15351.6" x2="-15742.5" y2="15351.6" gradientUnits="userSpaceOnUse">
<stop stop-color="#BC4A4B"/>
<stop offset="1" stop-color="#BD5345"/>
</linearGradient>
<linearGradient id="paint5_linear_1537_13958" x1="-9766.13" y1="18325.4" x2="-11104.6" y2="18325.4" gradientUnits="userSpaceOnUse">
<stop stop-color="#BC4A4B"/>
<stop offset="1" stop-color="#BD5345"/>
</linearGradient>
<linearGradient id="paint6_linear_1537_13958" x1="-14874.9" y1="18043.9" x2="-17575.5" y2="18043.9" gradientUnits="userSpaceOnUse">
<stop stop-color="#BC4A4B"/>
<stop offset="1" stop-color="#BD5345"/>
</linearGradient>
<linearGradient id="paint7_linear_1537_13958" x1="-15358.2" y1="13150.1" x2="-17908.4" y2="13150.1" gradientUnits="userSpaceOnUse">
<stop stop-color="#BC4A4B"/>
<stop offset="1" stop-color="#BD5345"/>
</linearGradient>
<linearGradient id="paint8_linear_1537_13958" x1="16.7566" y1="23.0412" x2="5.23322" y2="23.0412" gradientUnits="userSpaceOnUse">
<stop stop-color="#BF48DD"/>
<stop offset="1" stop-color="#B91DB0"/>
</linearGradient>
<radialGradient id="paint9_radial_1537_13958" cx="0" cy="0" r="1" gradientUnits="userSpaceOnUse" gradientTransform="translate(9.78841 15.728) rotate(180) scale(7.29071 7.8753)">
<stop stop-color="#FFB005"/>
<stop offset="1" stop-color="#FF6105"/>
</radialGradient>
<linearGradient id="paint10_linear_1537_13958" x1="-6063.67" y1="3103.31" x2="-6572.62" y2="3103.31" gradientUnits="userSpaceOnUse">
<stop stop-color="#BF48DD"/>
<stop offset="1" stop-color="#B91DB0"/>
</linearGradient>
<linearGradient id="paint11_linear_1537_13958" x1="26.6473" y1="23.5416" x2="15.1238" y2="23.5416" gradientUnits="userSpaceOnUse">
<stop stop-color="#BF48DD"/>
<stop offset="1" stop-color="#B91DB0"/>
</linearGradient>
<radialGradient id="paint12_radial_1537_13958" cx="0" cy="0" r="1" gradientUnits="userSpaceOnUse" gradientTransform="translate(19.679 16.2285) rotate(180) scale(7.29071 7.8753)">
<stop stop-color="#FFB005"/>
<stop offset="1" stop-color="#FF6105"/>
</radialGradient>
<linearGradient id="paint13_linear_1537_13958" x1="-6053.78" y1="3103.81" x2="-6562.73" y2="3103.81" gradientUnits="userSpaceOnUse">
<stop stop-color="#BF48DD"/>
<stop offset="1" stop-color="#B91DB0"/>
</linearGradient>
</defs>
</svg>
