<svg width="110" height="33" viewBox="0 0 110 33" fill="none" xmlns="http://www.w3.org/2000/svg">
<path fill-rule="evenodd" clip-rule="evenodd" d="M96.7727 28.1686L88.6972 31.4031L105.191 26.4344C103.424 28.6199 101.444 30.6217 99.2811 32.4101H11.637C11.637 32.4101 1.39632 26.6327 0.846174 18.1041C0.808437 17.5589 0.808437 17.0117 0.846174 16.4665L1.03797 16.3953L6.48388 14.3051L2.36538 12.3115L2.06256 12.1691C3.57671 9.07192 6.51924 5.75607 11.6219 2.32324L12.5607 2.40969C19.2734 3.01997 60.8772 6.51383 96.7575 3.42682C96.7575 3.42682 115.477 9.88055 106.912 23.9628L96.7727 28.1686Z" fill="url(#paint0_linear_1604_18400)"/>
<path fill-rule="evenodd" clip-rule="evenodd" d="M96.7729 3.43681L94.2947 0.431152L43.712 2.31795L15.0088 0.436243L11.6423 2.32305C11.6423 2.32305 59.5046 7.66302 96.7729 3.43681Z" fill="#E4B84C"/>
<path fill-rule="evenodd" clip-rule="evenodd" d="M109.168 16.6291C109.168 16.6291 110.601 6.85437 94.2939 0.431152L96.7721 3.43681C96.7721 3.43681 108.618 7.93256 109.168 16.6291Z" fill="#DEAB4A"/>
<path fill-rule="evenodd" clip-rule="evenodd" d="M0.861353 16.4657L1.05315 16.3945C0.951955 16.9597 0.882847 17.5302 0.846196 18.1033C0.846196 18.2305 0.846196 18.3678 0.846196 18.5051C0.784666 17.8284 0.784666 17.1475 0.846196 16.4708L0.861353 16.4657Z" fill="#DEAB4A"/>
<path fill-rule="evenodd" clip-rule="evenodd" d="M15.0086 0.436523L12.5759 2.40976C12.5759 2.40976 5.59062 5.71037 2.39072 12.3014L2.0879 12.159L1.78003 12.0064C3.19828 7.98365 6.68081 3.08107 15.0086 0.436523Z" fill="#DEAB4A"/>
<path fill-rule="evenodd" clip-rule="evenodd" d="M91.8464 4.04142H98.2563L95.8488 2.31738L91.8464 4.04142Z" fill="#DBA649"/>
<path fill-rule="evenodd" clip-rule="evenodd" d="M9.84009 4.0417L15.4677 2.74484L12.8785 1.62598L9.84009 4.0417Z" fill="#DBA649"/>
<path fill-rule="evenodd" clip-rule="evenodd" d="M1.05273 16.3909L3.66212 12.9326L6.49862 14.3057L1.05273 16.3909Z" fill="#E4B84C"/>
<path fill-rule="evenodd" clip-rule="evenodd" d="M105.216 26.4289L103.843 25.249L88.7168 31.3976L105.216 26.4289Z" fill="#E4B84C"/>
<g style="mix-blend-mode:multiply" opacity="0.2">
<path style="mix-blend-mode:multiply" opacity="0.2" fill-rule="evenodd" clip-rule="evenodd" d="M11.6367 32.4114C11.6367 32.4114 22.0541 14.6675 54.8102 4.94873L62.3406 5.04536C62.3406 5.04536 30.3163 9.34785 15.4676 32.391L11.6367 32.4114Z" fill="url(#paint1_linear_1604_18400)"/>
<path style="mix-blend-mode:multiply" opacity="0.2" fill-rule="evenodd" clip-rule="evenodd" d="M17.8647 32.4106C17.8647 32.4106 38.6388 11.3661 68.291 5.06494H77.7948C77.7948 5.06494 35.3633 11.9459 27.6916 32.4106H17.8647Z" fill="url(#paint2_linear_1604_18400)"/>
<path style="mix-blend-mode:multiply" opacity="0.2" fill-rule="evenodd" clip-rule="evenodd" d="M46.9517 23.5519C46.9517 23.5519 54.0176 13.7518 64.2482 13.8281C64.2482 13.8281 60.8717 23.1552 46.9517 23.5519Z" fill="url(#paint3_linear_1604_18400)"/>
<path style="mix-blend-mode:multiply" opacity="0.2" fill-rule="evenodd" clip-rule="evenodd" d="M22.3619 3.18359C22.3619 3.18359 6.74605 13.355 5.86279 27.8797L7.58895 29.4867C7.58895 29.4867 5.32276 14.5603 23.3512 3.24971L22.3619 3.18359Z" fill="url(#paint4_linear_1604_18400)"/>
<path style="mix-blend-mode:multiply" opacity="0.2" fill-rule="evenodd" clip-rule="evenodd" d="M53.1187 32.4112C53.1187 32.4112 74.6701 21.4922 85.6022 4.43994L83.6439 4.5569C83.6439 4.5569 75.2505 22.5755 49.293 32.4315L53.1187 32.4112Z" fill="url(#paint5_linear_1604_18400)"/>
<path style="mix-blend-mode:multiply" opacity="0.2" fill-rule="evenodd" clip-rule="evenodd" d="M59.3877 32.4106C59.3877 32.4106 89.1659 12.1289 100.31 5.06494C102.383 6.43244 104.317 8.00309 106.084 9.75395C106.084 9.75395 79.5158 21.6951 71.9803 32.4106H59.3877Z" fill="url(#paint6_linear_1604_18400)"/>
<path style="mix-blend-mode:multiply" opacity="0.2" fill-rule="evenodd" clip-rule="evenodd" d="M76.5785 30.3155C76.5785 30.3155 76.2605 25.9063 90.6096 19.7119C90.6096 19.7119 81.7922 23.9839 76.5785 30.3155Z" fill="url(#paint7_linear_1604_18400)"/>
<path style="mix-blend-mode:multiply" opacity="0.2" fill-rule="evenodd" clip-rule="evenodd" d="M108.835 14.6626L79.3542 32.4065H82.539L109.168 16.6257L108.835 14.6626Z" fill="url(#paint8_linear_1604_18400)"/>
</g>
<path fill-rule="evenodd" clip-rule="evenodd" d="M29.7251 3.85352L41.6516 5.80643L68.982 5.06392L45.1947 4.04169L29.7251 3.85352Z" fill="#DBA649"/>
<path fill-rule="evenodd" clip-rule="evenodd" d="M77.7952 5.06391L90.1203 4.41294L94.582 5.06391L100.447 5.80642L107.16 11.126L104.323 7.76949L98.2564 4.04169L92.2856 3.85352L77.7952 5.06391Z" fill="#C98043"/>
<path fill-rule="evenodd" clip-rule="evenodd" d="M3.03125 11.1169L8.38123 5.43115L12.641 4.41401L20.9487 3.4935L30.2001 3.8495L15.4473 2.75098L9.81966 4.04276L6.47844 6.7636C6.47844 6.7636 3.90946 9.08267 3.03125 11.1169Z" fill="#C98043"/>
<path opacity="0.4" fill-rule="evenodd" clip-rule="evenodd" d="M56.158 30.7266C65.5019 25.6461 73.8552 18.9021 80.8134 10.8213C80.8134 10.8213 72.5158 23.1388 56.158 30.7266Z" fill="#D9B148"/>
<path opacity="0.4" fill-rule="evenodd" clip-rule="evenodd" d="M28.1062 31.4026C28.1062 31.4026 35.677 15.0166 72.3042 6.16748C72.3042 6.16748 38.0945 12.6059 28.1062 31.4026Z" fill="#D9B148"/>
<path opacity="0.4" fill-rule="evenodd" clip-rule="evenodd" d="M15.448 32.4096C15.448 32.4096 28.712 12.4381 60.4587 5.29785C60.4788 5.29785 34.6777 7.55589 15.448 32.4096Z" fill="#D9B148"/>
<path opacity="0.4" fill-rule="evenodd" clip-rule="evenodd" d="M7.60498 25.7734C7.60498 25.7734 8.30658 13.3033 22.8525 3.56934C22.8525 3.56934 10.2295 8.97543 7.60498 25.7734Z" fill="#D9B148"/>
<path fill-rule="evenodd" clip-rule="evenodd" d="M6.49902 14.3052H17.4917L61.5333 16.3293L10.6579 14.829L6.49902 14.3052Z" fill="#A35237"/>
<path fill-rule="evenodd" clip-rule="evenodd" d="M10.6575 14.8286L13.9331 15.3575H21.3625L10.6575 14.8286Z" fill="#E4A54C"/>
<path fill-rule="evenodd" clip-rule="evenodd" d="M11.6372 32.4057L37.6503 31.0478L55.9463 32.4057L73.571 31.7293L76.5791 30.3154L74.0757 32.4057H11.6372Z" fill="#A35237"/>
<path fill-rule="evenodd" clip-rule="evenodd" d="M85.2046 32.4054L88.7174 31.3984L87.3092 32.4054H85.2046Z" fill="#A35237"/>
<path fill-rule="evenodd" clip-rule="evenodd" d="M24.0932 29.4803L19.9646 25.249L23.3512 27.5274L24.0932 29.4803Z" fill="#A35237"/>
<path fill-rule="evenodd" clip-rule="evenodd" d="M67.4487 30.4323L78.4011 28.3218L71.3653 30.3154L67.4487 30.4323Z" fill="#A35237"/>
<path fill-rule="evenodd" clip-rule="evenodd" d="M29.7255 2.31738L26.4297 3.56846L28.1053 6.16723L28.393 3.56846L29.7255 2.31738Z" fill="#B15D3B"/>
<path fill-rule="evenodd" clip-rule="evenodd" d="M28.1062 6.16826L27.3945 5.06468L28.3434 4.04248L28.1062 6.16826Z" fill="#E4B84C"/>
<path fill-rule="evenodd" clip-rule="evenodd" d="M74.166 12.9326L79.3545 17.3622L76.5786 15.923L74.166 12.9326Z" fill="#B15D3B"/>
<path fill-rule="evenodd" clip-rule="evenodd" d="M67.4487 30.4323L71.3653 30.3154L78.4011 28.3218L71.0171 30.0611L67.4487 30.4323Z" fill="#E4B84C"/>
<path fill-rule="evenodd" clip-rule="evenodd" d="M19.9646 25.249L22.0289 27.8325L24.0932 29.4803L19.9646 25.249Z" fill="#E4A54C"/>
<g style="mix-blend-mode:soft-light">
<path fill-rule="evenodd" clip-rule="evenodd" d="M75.8766 4.87691L73.5701 1.20505L90.6144 0.569336L91.8459 4.04286L75.8766 4.87691Z" fill="#E3C150"/>
</g>
<g style="mix-blend-mode:soft-light">
<path fill-rule="evenodd" clip-rule="evenodd" d="M16.8507 2.83161L18.4709 0.660009L15.0136 0.431152L13.3076 1.81446L15.4678 2.74515L16.8507 2.83161Z" fill="#E3C150"/>
</g>
<path fill-rule="evenodd" clip-rule="evenodd" d="M79.8142 14.3045L77.6389 7.41846L79.3549 11.1259L79.8142 14.3045Z" fill="#B15D3B"/>
<path fill-rule="evenodd" clip-rule="evenodd" d="M98.2563 23.1478L99.1144 22.1104L102.334 23.1478L101.471 24.8261H99.3465L98.2563 23.1478Z" fill="#A35237"/>
<path fill-rule="evenodd" clip-rule="evenodd" d="M16.1694 20.0883L16.5732 19.6865L18.2943 20.5308L17.194 21.2478L16.1694 20.4646V20.0883Z" fill="#B15D3B"/>
<path fill-rule="evenodd" clip-rule="evenodd" d="M98.2563 23.1499L99.3314 24.4976L101.113 24.701H101.537L101.471 24.8282L99.3465 24.9604L98.2563 23.1499Z" fill="#E0A54D"/>
<path fill-rule="evenodd" clip-rule="evenodd" d="M16.1694 20.4644L16.8912 20.9068H17.623L18.2943 20.5305L17.411 21.2476H17.194L16.1694 20.4644Z" fill="#E0A54D"/>
<path opacity="0.4" fill-rule="evenodd" clip-rule="evenodd" d="M47.6531 23.5204C47.6531 23.5204 59.9933 25.2852 64.2481 13.8271C64.2481 13.8271 61.0937 23.4442 47.6531 23.5204Z" fill="#D9B148"/>
<defs>
<linearGradient id="paint0_linear_1604_18400" x1="54.9972" y1="32.4101" x2="54.9972" y2="2.32324" gradientUnits="userSpaceOnUse">
<stop stop-color="#B4593C"/>
<stop offset="1" stop-color="#D89D48"/>
</linearGradient>
<linearGradient id="paint1_linear_1604_18400" x1="11.6367" y1="18.6902" x2="62.3406" y2="18.6902" gradientUnits="userSpaceOnUse">
<stop stop-color="#BC4A4B"/>
<stop offset="1" stop-color="#BD5345"/>
</linearGradient>
<linearGradient id="paint2_linear_1604_18400" x1="83607.7" y1="25053.2" x2="90723.8" y2="25053.2" gradientUnits="userSpaceOnUse">
<stop stop-color="#BC4A4B"/>
<stop offset="1" stop-color="#BD5345"/>
</linearGradient>
<linearGradient id="paint3_linear_1604_18400" x1="25168.9" y1="8920.18" x2="25761.6" y2="8920.18" gradientUnits="userSpaceOnUse">
<stop stop-color="#BC4A4B"/>
<stop offset="1" stop-color="#BD5345"/>
</linearGradient>
<linearGradient id="paint4_linear_1604_18400" x1="23982.7" y1="23972.2" x2="24588.7" y2="23972.2" gradientUnits="userSpaceOnUse">
<stop stop-color="#BC4A4B"/>
<stop offset="1" stop-color="#BD5345"/>
</linearGradient>
<linearGradient id="paint5_linear_1604_18400" x1="52954.1" y1="25626.5" x2="55566.2" y2="25626.5" gradientUnits="userSpaceOnUse">
<stop stop-color="#BC4A4B"/>
<stop offset="1" stop-color="#BD5345"/>
</linearGradient>
<linearGradient id="paint6_linear_1604_18400" x1="69032.7" y1="25053.2" x2="73353" y2="25053.2" gradientUnits="userSpaceOnUse">
<stop stop-color="#BC4A4B"/>
<stop offset="1" stop-color="#BD5345"/>
</linearGradient>
<linearGradient id="paint7_linear_1604_18400" x1="21280.2" y1="9863.37" x2="21670.3" y2="9863.37" gradientUnits="userSpaceOnUse">
<stop stop-color="#BC4A4B"/>
<stop offset="1" stop-color="#BD5345"/>
</linearGradient>
<linearGradient id="paint8_linear_1604_18400" x1="4720.14" y1="820.769" x2="6481.23" y2="820.769" gradientUnits="userSpaceOnUse">
<stop stop-color="#BC4A4B"/>
<stop offset="1" stop-color="#BD5345"/>
</linearGradient>
</defs>
</svg>
