<svg width="159" height="135" viewBox="0 0 159 135" fill="none" xmlns="http://www.w3.org/2000/svg">
<path fill-rule="evenodd" clip-rule="evenodd" d="M158.5 70.2203L131.686 125.551C131.686 125.551 65.2105 152.585 18.1932 113.787L6.78987 89.639L19.9422 86.9803L3.99786 83.702L0.5 76.2906L5.80169 52.8565L23.84 20.6463C23.84 20.6463 96.6913 -20.8497 143.497 25.0383L158.5 70.2203Z" fill="url(#paint0_linear_1170_1390)"/>
<path fill-rule="evenodd" clip-rule="evenodd" d="M143.505 25.0774L131.835 9.95664C131.835 9.95664 84.5586 -15.4931 20.0127 14.9838L5.11153 48.2135L0.5 76.3376L5.80953 52.8957L23.8479 20.6855C23.8479 20.6855 80.7235 -10.9365 143.505 25.0774Z" fill="#E4B84C"/>
<path fill-rule="evenodd" clip-rule="evenodd" d="M20.0127 14.9839L23.8165 20.6856L5.81735 52.8957L0.507812 76.3377L5.11151 48.2136L20.0127 14.9839Z" fill="#DBA649"/>
<path fill-rule="evenodd" clip-rule="evenodd" d="M18.3032 30.5518L40.9374 13.8154L21.8168 17.6819L18.3032 30.5518Z" fill="#DBA649"/>
<path fill-rule="evenodd" clip-rule="evenodd" d="M67.4062 8.46668L76.2764 11.9332L107.326 10.8744L89.013 6.97656L67.4062 8.46668Z" fill="#DBA649"/>
<path fill-rule="evenodd" clip-rule="evenodd" d="M88.9268 134.476L102.542 131.731L128.423 118.273L145.583 96.9092L131.717 125.551C131.717 125.551 106.785 134.633 88.9268 134.476Z" fill="#A85639"/>
<path fill-rule="evenodd" clip-rule="evenodd" d="M155.81 62.1501L124.909 74.4946L85.8369 82.3844L155.81 62.1501Z" fill="#B15D3B"/>
<g style="mix-blend-mode:multiply" opacity="0.2">
<path style="mix-blend-mode:multiply" opacity="0.2" fill-rule="evenodd" clip-rule="evenodd" d="M18.2168 113.818C18.2168 113.818 58.2148 47.8764 145.873 32.1282L149.528 43.108C149.528 43.108 72.9827 39.1867 24.9302 118.814L18.2168 113.818Z" fill="url(#paint1_linear_1170_1390)"/>
<path style="mix-blend-mode:multiply" opacity="0.2" fill-rule="evenodd" clip-rule="evenodd" d="M46.2236 129.292C46.2236 129.292 98.1426 84.2117 152.744 82.0549L146.885 94.1484C146.885 94.1484 93.5076 86.1567 55.0781 131.825L46.2236 129.292Z" fill="url(#paint2_linear_1170_1390)"/>
<path style="mix-blend-mode:multiply" opacity="0.2" fill-rule="evenodd" clip-rule="evenodd" d="M15.6053 108.336C15.6053 108.336 63.0069 30.2223 115.992 13.1565L107.365 10.8743C107.365 10.8743 55.8621 37.1318 13.8721 104.666L15.6053 108.336Z" fill="url(#paint3_linear_1170_1390)"/>
<path style="mix-blend-mode:multiply" opacity="0.2" fill-rule="evenodd" clip-rule="evenodd" d="M31.793 60.1658C31.793 60.1658 40.1063 28.0106 71.9165 30.7634C71.9165 30.7634 46.2236 54.5034 31.793 60.1658Z" fill="url(#paint4_linear_1170_1390)"/>
<path style="mix-blend-mode:multiply" opacity="0.2" fill-rule="evenodd" clip-rule="evenodd" d="M68.6221 77.1847C68.6221 77.1847 75.1159 64.6991 103.452 57.1387C103.452 57.1387 84.6134 64.9814 68.6221 77.1847Z" fill="url(#paint5_linear_1170_1390)"/>
</g>
<path fill-rule="evenodd" clip-rule="evenodd" d="M119.31 14.2153L136.603 24.9364L143.34 35.5554L152.986 53.633L143.504 25.0775L132.211 18.5837L119.31 14.2153Z" fill="#C98043"/>
<path fill-rule="evenodd" clip-rule="evenodd" d="M18.303 30.5518L8.70348 53.3193L6.13106 66.3617L0.507812 76.3377L5.81735 52.8957L18.303 30.5518Z" fill="#BE6C40"/>
<path fill-rule="evenodd" clip-rule="evenodd" d="M114.612 76.5728L125.96 75.6238L143.999 66.8713L114.612 76.5728Z" fill="#D9934B"/>
<path fill-rule="evenodd" clip-rule="evenodd" d="M6.79004 89.6783L12.4682 85.4824L19.9502 87.0196L6.79004 89.6783Z" fill="#E4B84C"/>
<path fill-rule="evenodd" clip-rule="evenodd" d="M39.6982 126.829L45.3764 114.697L41.7687 127.7L39.6982 126.829Z" fill="#B15D3B"/>
<path fill-rule="evenodd" clip-rule="evenodd" d="M49.0386 22.6542L63.0928 21.5013L57.2186 20.7249L49.0386 22.6542Z" fill="#B15D3B"/>
<path fill-rule="evenodd" clip-rule="evenodd" d="M89.374 122.132L101.162 114.022L95.8208 120.822L89.374 122.132Z" fill="#B15D3B"/>
<path fill-rule="evenodd" clip-rule="evenodd" d="M154.148 57.1387V71.7183L151.097 85.4824L158.5 70.2204L154.148 57.1387Z" fill="#BE6C40"/>
<path opacity="0.4" fill-rule="evenodd" clip-rule="evenodd" d="M18.2168 113.818C18.2168 113.818 50.7956 66.4557 99.5147 46.4175C99.4834 46.4175 50.3172 61.2011 18.2168 113.818Z" fill="#D9B148"/>
<path opacity="0.4" fill-rule="evenodd" clip-rule="evenodd" d="M46.2231 129.292C46.2231 129.292 90.4876 87.9373 152.743 82.0552C152.743 82.0866 101.813 80.369 46.2231 129.292Z" fill="#D9B148"/>
<path fill-rule="evenodd" clip-rule="evenodd" d="M137.968 96.3838L133.121 106.956L125.31 118.077L137.968 96.3838Z" fill="#A85639"/>
<path fill-rule="evenodd" clip-rule="evenodd" d="M119.31 118.83L129.309 105.042L124.313 114.022L119.31 118.83Z" fill="#A85639"/>
<path d="M84.3051 59.6661C93.6978 52.2075 107.51 43.433 125.641 37.595C124.896 38.208 124.065 38.9 123.157 39.6675C118.992 43.1914 113.219 48.3091 106.788 54.6892C94.278 67.0984 79.2351 84.3204 68.677 103.911L43.5042 58.9331L68.1771 74.0752L68.9382 74.5423L69.4879 73.839L69.4881 73.8388L69.4881 73.8387L69.49 73.8363L69.4993 73.8246L69.5399 73.7736C69.5767 73.7276 69.6331 73.6576 69.7091 73.565C69.861 73.3797 70.0911 73.1038 70.3992 72.7467C71.0152 72.0326 71.943 70.9945 73.1805 69.7098C75.6557 67.1403 79.3688 63.5859 84.3051 59.6661Z" fill="url(#paint6_radial_1170_1390)" stroke="white" stroke-width="2"/>
<defs>
<linearGradient id="paint0_linear_1170_1390" x1="92.0367" y1="135.336" x2="65.8554" y2="5.72544" gradientUnits="userSpaceOnUse">
<stop stop-color="#B4593C"/>
<stop offset="1" stop-color="#D89D48"/>
</linearGradient>
<linearGradient id="paint1_linear_1170_1390" x1="13.3808" y1="90" x2="153.254" y2="61.7457" gradientUnits="userSpaceOnUse">
<stop stop-color="#BC4A4B"/>
<stop offset="1" stop-color="#BD5345"/>
</linearGradient>
<linearGradient id="paint2_linear_1170_1390" x1="23012" y1="20537.5" x2="38463.8" y2="20537.5" gradientUnits="userSpaceOnUse">
<stop stop-color="#BC4A4B"/>
<stop offset="1" stop-color="#BD5345"/>
</linearGradient>
<linearGradient id="paint3_linear_1170_1390" x1="18537.5" y1="33344.8" x2="33931.1" y2="33344.8" gradientUnits="userSpaceOnUse">
<stop stop-color="#BC4A4B"/>
<stop offset="1" stop-color="#BD5345"/>
</linearGradient>
<linearGradient id="paint4_linear_1170_1390" x1="8659.55" y1="9517.72" x2="10969.1" y2="9517.72" gradientUnits="userSpaceOnUse">
<stop stop-color="#BC4A4B"/>
<stop offset="1" stop-color="#BD5345"/>
</linearGradient>
<linearGradient id="paint5_linear_1170_1390" x1="9011.48" y1="7226.81" x2="10703.8" y2="7226.81" gradientUnits="userSpaceOnUse">
<stop stop-color="#BC4A4B"/>
<stop offset="1" stop-color="#BD5345"/>
</linearGradient>
<radialGradient id="paint6_radial_1170_1390" cx="0" cy="0" r="1" gradientUnits="userSpaceOnUse" gradientTransform="translate(72.9074 41.5692) rotate(-2.93486) scale(55.969 35.8881)">
<stop stop-color="#12C30E"/>
<stop offset="1" stop-color="#9CC30F"/>
</radialGradient>
</defs>
</svg>
