<svg width="141" height="42" viewBox="0 0 141 42" fill="none" xmlns="http://www.w3.org/2000/svg">
<path fill-rule="evenodd" clip-rule="evenodd" d="M124.449 35.9631L114.02 40.1568L135.322 33.7146C133.04 36.5481 130.482 39.1437 127.689 41.4624H14.496C14.496 41.4624 1.27002 33.9717 0.559503 22.9137C0.510765 22.2069 0.510765 21.4974 0.559503 20.7905L0.807208 20.6982L7.84065 17.9881L2.52157 15.4033L2.13047 15.2187C4.08601 11.203 7.88632 6.90377 14.4765 2.45288L15.6889 2.56497C24.3585 3.35623 78.0901 7.88625 124.43 3.88375C124.43 3.88375 148.607 12.2514 137.545 30.5099L124.449 35.9631Z" fill="url(#paint0_linear_1144_2575)"/>
<path fill-rule="evenodd" clip-rule="evenodd" d="M124.45 3.89702L121.249 0L55.9213 2.44635L18.8508 0.00660035L14.5029 2.45295C14.5029 2.45295 76.3175 9.37656 124.45 3.89702Z" fill="#E4B84C"/>
<path fill-rule="evenodd" clip-rule="evenodd" d="M140.458 21.0016C140.458 21.0016 142.31 8.3281 121.249 0L124.449 3.89702C124.449 3.89702 139.748 9.72604 140.458 21.0016Z" fill="#DEAB4A"/>
<path fill-rule="evenodd" clip-rule="evenodd" d="M0.579174 20.7906L0.826878 20.6982C0.696186 21.431 0.606933 22.1707 0.559599 22.9138C0.559599 23.0786 0.559599 23.2567 0.559599 23.4347C0.480134 22.5574 0.480134 21.6745 0.559599 20.7972L0.579174 20.7906Z" fill="#DEAB4A"/>
<path fill-rule="evenodd" clip-rule="evenodd" d="M18.8505 0.00634766L15.7086 2.56479C15.7086 2.56479 6.68704 6.84424 2.55433 15.3899L2.16324 15.2053L1.76562 15.0075C3.59731 9.7917 8.09502 3.43518 18.8505 0.00634766Z" fill="#DEAB4A"/>
<path fill-rule="evenodd" clip-rule="evenodd" d="M118.088 4.68162H126.366L123.257 2.44629L118.088 4.68162Z" fill="#DBA649"/>
<path fill-rule="evenodd" clip-rule="evenodd" d="M12.1758 4.68142L19.4439 2.99998L16.0999 1.54932L12.1758 4.68142Z" fill="#DBA649"/>
<path fill-rule="evenodd" clip-rule="evenodd" d="M0.82666 20.6916L4.1967 16.2078L7.86008 17.9881L0.82666 20.6916Z" fill="#E4B84C"/>
<path fill-rule="evenodd" clip-rule="evenodd" d="M135.355 33.708L133.582 32.1782L114.046 40.1503L135.355 33.708Z" fill="#E4B84C"/>
<g style="mix-blend-mode:multiply" opacity="0.2">
<path style="mix-blend-mode:multiply" opacity="0.2" fill-rule="evenodd" clip-rule="evenodd" d="M14.4956 41.4626C14.4956 41.4626 27.9497 18.4564 70.2546 5.85547L79.9801 5.98075C79.9801 5.98075 38.6205 11.5592 19.4432 41.4362L14.4956 41.4626Z" fill="url(#paint1_linear_1144_2575)"/>
<path style="mix-blend-mode:multiply" opacity="0.2" fill-rule="evenodd" clip-rule="evenodd" d="M22.5391 41.4625C22.5391 41.4625 49.369 14.1769 87.665 6.00708H99.9393C99.9393 6.00708 45.1386 14.9286 35.2305 41.4625H22.5391Z" fill="url(#paint2_linear_1144_2575)"/>
<path style="mix-blend-mode:multiply" opacity="0.2" fill-rule="evenodd" clip-rule="evenodd" d="M60.1055 29.9758C60.1055 29.9758 69.2312 17.2693 82.4442 17.3683C82.4442 17.3683 78.0834 29.4615 60.1055 29.9758Z" fill="url(#paint3_linear_1144_2575)"/>
<path style="mix-blend-mode:multiply" opacity="0.2" fill-rule="evenodd" clip-rule="evenodd" d="M28.3474 3.56738C28.3474 3.56738 8.17931 16.7552 7.03857 35.5874L9.26792 37.671C9.26792 37.671 6.34111 18.318 29.6251 3.65311L28.3474 3.56738Z" fill="url(#paint4_linear_1144_2575)"/>
<path style="mix-blend-mode:multiply" opacity="0.2" fill-rule="evenodd" clip-rule="evenodd" d="M68.0699 41.4628C68.0699 41.4628 95.9037 27.3057 110.023 5.19629L107.494 5.34794C107.494 5.34794 96.6533 28.7101 63.1289 41.4891L68.0699 41.4628Z" fill="url(#paint5_linear_1144_2575)"/>
<path style="mix-blend-mode:multiply" opacity="0.2" fill-rule="evenodd" clip-rule="evenodd" d="M76.1665 41.4625C76.1665 41.4625 114.625 15.166 129.018 6.00708C131.696 7.78013 134.194 9.81658 136.475 12.0867C136.475 12.0867 102.162 27.5692 92.43 41.4625H76.1665Z" fill="url(#paint6_linear_1144_2575)"/>
<path style="mix-blend-mode:multiply" opacity="0.2" fill-rule="evenodd" clip-rule="evenodd" d="M98.3684 38.7458C98.3684 38.7458 97.9578 33.0289 116.49 24.9976C116.49 24.9976 105.102 30.5364 98.3684 38.7458Z" fill="url(#paint7_linear_1144_2575)"/>
<path style="mix-blend-mode:multiply" opacity="0.2" fill-rule="evenodd" clip-rule="evenodd" d="M140.028 18.4497L101.954 41.4558H106.067L140.458 20.995L140.028 18.4497Z" fill="url(#paint8_linear_1144_2575)"/>
</g>
<path fill-rule="evenodd" clip-rule="evenodd" d="M37.8574 4.43799L53.2605 6.97005L88.558 6.00734L57.8365 4.68196L37.8574 4.43799Z" fill="#DBA649"/>
<path fill-rule="evenodd" clip-rule="evenodd" d="M99.9399 6.00734L115.858 5.16332L121.62 6.00734L129.195 6.97005L137.864 13.8673L134.201 9.5153L126.366 4.68196L118.654 4.43799L99.9399 6.00734Z" fill="#C98043"/>
<path fill-rule="evenodd" clip-rule="evenodd" d="M3.38184 13.8538L10.2914 6.48184L15.7929 5.16306L26.5224 3.96956L38.4707 4.43114L19.4172 3.00684L12.1491 4.68171L7.83392 8.20944C7.83392 8.20944 4.51605 11.2163 3.38184 13.8538Z" fill="#C98043"/>
<path opacity="0.4" fill-rule="evenodd" clip-rule="evenodd" d="M71.9956 39.2797C84.0633 32.6925 94.8517 23.9485 103.838 13.4712C103.838 13.4712 93.1219 29.4416 71.9956 39.2797Z" fill="#D9B148"/>
<path opacity="0.4" fill-rule="evenodd" clip-rule="evenodd" d="M35.7661 40.1569C35.7661 40.1569 45.5438 18.9114 92.8483 7.43799C92.8483 7.43799 48.6661 15.7859 35.7661 40.1569Z" fill="#D9B148"/>
<path opacity="0.4" fill-rule="evenodd" clip-rule="evenodd" d="M19.418 41.4627C19.418 41.4627 36.5485 15.5684 77.5497 6.31055C77.5757 6.31055 44.2533 9.23824 19.418 41.4627Z" fill="#D9B148"/>
<path opacity="0.4" fill-rule="evenodd" clip-rule="evenodd" d="M9.28857 32.8574C9.28857 32.8574 10.1947 16.6891 28.9809 4.06836C28.9809 4.06836 12.6782 11.0777 9.28857 32.8574Z" fill="#D9B148"/>
<path fill-rule="evenodd" clip-rule="evenodd" d="M7.86035 17.9883H22.0576L78.9376 20.6127L13.2316 18.6675L7.86035 17.9883Z" fill="#A35237"/>
<path fill-rule="evenodd" clip-rule="evenodd" d="M13.231 18.6675L17.4614 19.3532H27.0566L13.231 18.6675Z" fill="#E4A54C"/>
<path fill-rule="evenodd" clip-rule="evenodd" d="M14.4961 41.4557L48.0923 39.6951L71.7217 41.4557L94.4841 40.5787L98.3691 38.7456L95.136 41.4557H14.4961Z" fill="#A35237"/>
<path fill-rule="evenodd" clip-rule="evenodd" d="M109.509 41.456L114.046 40.1504L112.227 41.456H109.509Z" fill="#A35237"/>
<path fill-rule="evenodd" clip-rule="evenodd" d="M30.5836 37.6644L25.2515 32.1782L29.6253 35.1323L30.5836 37.6644Z" fill="#A35237"/>
<path fill-rule="evenodd" clip-rule="evenodd" d="M86.5776 38.8974L100.723 36.1609L91.636 38.7457L86.5776 38.8974Z" fill="#A35237"/>
<path fill-rule="evenodd" clip-rule="evenodd" d="M37.8576 2.44629L33.6011 4.06839L35.7652 7.43788L36.1368 4.06839L37.8576 2.44629Z" fill="#B15D3B"/>
<path fill-rule="evenodd" clip-rule="evenodd" d="M35.7658 7.43789L34.8467 6.00702L36.0722 4.68164L35.7658 7.43789Z" fill="#E4B84C"/>
<path fill-rule="evenodd" clip-rule="evenodd" d="M95.2529 16.2078L101.954 21.9511L98.3688 20.085L95.2529 16.2078Z" fill="#B15D3B"/>
<path fill-rule="evenodd" clip-rule="evenodd" d="M86.5776 38.8974L91.636 38.7457L100.723 36.1609L91.1862 38.416L86.5776 38.8974Z" fill="#E4B84C"/>
<path fill-rule="evenodd" clip-rule="evenodd" d="M25.2515 32.1782L27.9175 35.5279L30.5836 37.6644L25.2515 32.1782Z" fill="#E4A54C"/>
<g style="mix-blend-mode:soft-light">
<path fill-rule="evenodd" clip-rule="evenodd" d="M97.4628 5.76326L94.4839 1.00246L116.497 0.178223L118.087 4.68186L97.4628 5.76326Z" fill="#E3C150"/>
</g>
<g style="mix-blend-mode:soft-light">
<path fill-rule="evenodd" clip-rule="evenodd" d="M21.2298 3.11232L23.3222 0.296726L18.857 0L16.6538 1.79354L19.4437 3.00023L21.2298 3.11232Z" fill="#E3C150"/>
</g>
<path fill-rule="evenodd" clip-rule="evenodd" d="M102.547 17.9882L99.7378 9.06006L101.954 13.867L102.547 17.9882Z" fill="#B15D3B"/>
<path fill-rule="evenodd" clip-rule="evenodd" d="M126.366 29.4548L127.474 28.1096L131.633 29.4548L130.518 31.6308H127.774L126.366 29.4548Z" fill="#A35237"/>
<path fill-rule="evenodd" clip-rule="evenodd" d="M20.3496 25.4855L20.8711 24.9646L23.0939 26.0592L21.6729 26.9889L20.3496 25.9735V25.4855Z" fill="#B15D3B"/>
<path fill-rule="evenodd" clip-rule="evenodd" d="M126.366 29.4548L127.755 31.2022L130.056 31.466H130.603L130.518 31.6308L127.774 31.8023L126.366 29.4548Z" fill="#E0A54D"/>
<path fill-rule="evenodd" clip-rule="evenodd" d="M20.3496 25.9736L21.2818 26.5473H22.2269L23.0939 26.0594L21.9532 26.9891H21.6729L20.3496 25.9736Z" fill="#E0A54D"/>
<path opacity="0.4" fill-rule="evenodd" clip-rule="evenodd" d="M61.0117 29.9364C61.0117 29.9364 76.9493 32.2245 82.4443 17.3684C82.4443 17.3684 78.3704 29.8375 61.0117 29.9364Z" fill="#D9B148"/>
<defs>
<linearGradient id="paint0_linear_1144_2575" x1="70.4961" y1="41.4624" x2="70.4961" y2="2.45288" gradientUnits="userSpaceOnUse">
<stop stop-color="#B4593C"/>
<stop offset="1" stop-color="#D89D48"/>
</linearGradient>
<linearGradient id="paint1_linear_1144_2575" x1="14.4956" y1="23.6722" x2="79.9801" y2="23.6722" gradientUnits="userSpaceOnUse">
<stop stop-color="#BC4A4B"/>
<stop offset="1" stop-color="#BD5345"/>
</linearGradient>
<linearGradient id="paint2_linear_1144_2575" x1="107980" y1="32482.5" x2="117170" y2="32482.5" gradientUnits="userSpaceOnUse">
<stop stop-color="#BC4A4B"/>
<stop offset="1" stop-color="#BD5345"/>
</linearGradient>
<linearGradient id="paint3_linear_1144_2575" x1="32505.3" y1="11565" x2="33270.8" y2="11565" gradientUnits="userSpaceOnUse">
<stop stop-color="#BC4A4B"/>
<stop offset="1" stop-color="#BD5345"/>
</linearGradient>
<linearGradient id="paint4_linear_1144_2575" x1="30973.3" y1="31080.9" x2="31756" y2="31080.9" gradientUnits="userSpaceOnUse">
<stop stop-color="#BC4A4B"/>
<stop offset="1" stop-color="#BD5345"/>
</linearGradient>
<linearGradient id="paint5_linear_1144_2575" x1="68390.2" y1="33225.8" x2="71763.7" y2="33225.8" gradientUnits="userSpaceOnUse">
<stop stop-color="#BC4A4B"/>
<stop offset="1" stop-color="#BD5345"/>
</linearGradient>
<linearGradient id="paint6_linear_1144_2575" x1="89155.8" y1="32482.5" x2="94735.6" y2="32482.5" gradientUnits="userSpaceOnUse">
<stop stop-color="#BC4A4B"/>
<stop offset="1" stop-color="#BD5345"/>
</linearGradient>
<linearGradient id="paint7_linear_1144_2575" x1="27483" y1="12787.9" x2="27986.8" y2="12787.9" gradientUnits="userSpaceOnUse">
<stop stop-color="#BC4A4B"/>
<stop offset="1" stop-color="#BD5345"/>
</linearGradient>
<linearGradient id="paint8_linear_1144_2575" x1="6095.57" y1="1063.62" x2="8370.03" y2="1063.62" gradientUnits="userSpaceOnUse">
<stop stop-color="#BC4A4B"/>
<stop offset="1" stop-color="#BD5345"/>
</linearGradient>
</defs>
</svg>
