<svg width="25" height="22" viewBox="0 0 25 22" fill="none" xmlns="http://www.w3.org/2000/svg">
<path fill-rule="evenodd" clip-rule="evenodd" d="M0.5 11.5987L1.0275 9.32104C1.0275 9.32104 6.11531 2.69987 11.8903 0.35837C12.2144 0.225009 12.9793 0.363221 13.3107 0.259766C13.3107 0.259766 20.37 4.31798 23.9385 9.67666L24.5 11.5987H0.5Z" fill="#E4B34C"/>
<path fill-rule="evenodd" clip-rule="evenodd" d="M23.2902 13.8306C19.8125 18.8361 12.5199 21.7418 12.5199 21.7418L12.5012 20.9206L12.4834 21.7418C12.4834 21.7418 8.23666 20.0509 4.67624 17.024H8.69204L3.94779 16.3726C2.48927 15.0123 1.20738 13.4095 0.5 11.5974C2.99326 5.23167 12.4834 1.45068 12.4834 1.45068L12.5012 2.2751L12.5199 1.45068C12.5199 1.45068 22.0084 5.23167 24.4992 11.5991C24.3493 11.9797 24.1766 12.3511 23.9822 12.7112L23.2902 13.8306Z" fill="url(#paint0_linear_1168_6083)"/>
<path fill-rule="evenodd" clip-rule="evenodd" d="M11.8911 0.356907L12.0961 1.61454H12.9048L13.3107 0.258301L11.8911 0.356907Z" fill="#E3B752"/>
<path fill-rule="evenodd" clip-rule="evenodd" d="M4.67627 17.0239V16.4727L8.69126 17.0239H4.67627Z" fill="#E4B34C"/>
<path fill-rule="evenodd" clip-rule="evenodd" d="M8.69092 17.0244L15.8417 17.3299H17.9906H19.954L16.8975 17.5983L12.6006 17.3113L8.69092 17.0244Z" fill="#974832"/>
<g style="mix-blend-mode:multiply" opacity="0.2">
<path style="mix-blend-mode:multiply" opacity="0.2" fill-rule="evenodd" clip-rule="evenodd" d="M3.94629 16.3732C3.94629 16.3732 8.20031 7.71442 17.0665 3.81543L18.0697 4.46203C18.0697 4.46203 8.42719 7.65461 4.4041 16.4322L3.94629 16.3732Z" fill="url(#paint1_linear_1168_6083)"/>
<path style="mix-blend-mode:multiply" opacity="0.2" fill-rule="evenodd" clip-rule="evenodd" d="M5.21387 16.4733C5.21387 16.4733 7.9964 7.35141 19.1322 5.22168L21.1353 6.89799C21.1353 6.89799 8.6495 10.6054 6.35557 16.7045L5.21387 16.4733Z" fill="url(#paint2_linear_1168_6083)"/>
<path style="mix-blend-mode:multiply" opacity="0.2" fill-rule="evenodd" clip-rule="evenodd" d="M10.4697 13.0054C10.4697 13.0054 11.5823 10.5564 15.5746 10.5176C15.5729 10.5176 14.2603 12.5325 10.4697 13.0054Z" fill="url(#paint3_linear_1168_6083)"/>
<path style="mix-blend-mode:multiply" opacity="0.2" fill-rule="evenodd" clip-rule="evenodd" d="M8.93555 17.0244C8.93555 17.0244 18.0918 13.1998 22.1668 7.95508L22.3191 8.12481C22.3191 8.12481 17.6648 14.1172 9.30018 17.0244H8.93555Z" fill="url(#paint4_linear_1168_6083)"/>
<path style="mix-blend-mode:multiply" opacity="0.2" fill-rule="evenodd" clip-rule="evenodd" d="M8.23193 19.5628C8.23193 19.5628 14.5627 16.9934 19.1927 17.9269L17.022 19.406C17.022 19.406 12.4843 18.8612 9.96352 20.5448L8.23193 19.5628Z" fill="url(#paint5_linear_1168_6083)"/>
<path style="mix-blend-mode:multiply" opacity="0.2" fill-rule="evenodd" clip-rule="evenodd" d="M23.4203 9.56055C23.4203 9.56055 18.4508 13.9251 17.5303 17.3302L18.552 17.3116C18.552 17.3116 20.735 12.0435 23.6123 9.85475L23.4203 9.56055Z" fill="url(#paint6_linear_1168_6083)"/>
<path style="mix-blend-mode:multiply" opacity="0.2" fill-rule="evenodd" clip-rule="evenodd" d="M2.11914 14.3913C2.11914 14.3913 4.58404 6.59091 9.61352 2.8374L11.3848 1.93701C11.3848 1.93701 4.27613 8.71741 2.62476 15.0088L2.11914 14.3913Z" fill="url(#paint7_linear_1168_6083)"/>
</g>
<path fill-rule="evenodd" clip-rule="evenodd" d="M8.69092 19.8359L13.5186 21.3005L12.5187 21.7418C12.5187 21.7418 9.79534 20.5116 8.69092 19.8359Z" fill="#974832"/>
<path fill-rule="evenodd" clip-rule="evenodd" d="M3.94727 6.81934L5.21456 7.84904L6.47132 7.95412L3.94727 6.81934Z" fill="#974832"/>
<path fill-rule="evenodd" clip-rule="evenodd" d="M19.1934 15.9277L22.7716 14.5229L20.9825 15.6456L19.1934 15.9277Z" fill="#974832"/>
<path fill-rule="evenodd" clip-rule="evenodd" d="M19.1934 15.9283L20.9825 15.6463L21.3722 15.4014L19.1934 15.9283Z" fill="#E49D4C"/>
<path fill-rule="evenodd" clip-rule="evenodd" d="M13.52 17.3721L14.323 17.5208L16.8981 17.5976L13.52 17.3721Z" fill="#E49D4C"/>
<path fill-rule="evenodd" clip-rule="evenodd" d="M20.2832 6.13691L20.4104 5.59619L20.5716 6.38423L19.5645 6.81988L20.2832 6.13691Z" fill="#974832"/>
<path fill-rule="evenodd" clip-rule="evenodd" d="M19.5645 6.81992L20.1325 6.43843L20.5716 6.38428L19.5645 6.81992Z" fill="#E49D4C"/>
<path opacity="0.4" fill-rule="evenodd" clip-rule="evenodd" d="M7.1333 15.2252C7.1333 15.2252 9.60874 10.9326 18.7877 7.7085C18.7877 7.70607 11.0478 10.615 7.1333 15.2252Z" fill="#D5AA48"/>
<path opacity="0.4" fill-rule="evenodd" clip-rule="evenodd" d="M4.40479 16.4355C4.40479 16.4355 6.87941 9.01577 18.0703 4.46533C18.0703 4.46533 7.93117 8.72965 4.40479 16.4355Z" fill="#D5AA48"/>
<path opacity="0.4" fill-rule="evenodd" clip-rule="evenodd" d="M10.0581 16.7479C10.0581 16.7479 16.7616 14.0807 20.2824 10.29C20.2824 10.29 16.5331 14.5026 10.0581 16.7479Z" fill="#D5AA48"/>
<path fill-rule="evenodd" clip-rule="evenodd" d="M19.5644 9.31982L18.5669 12.316L19.3391 10.8175L19.5644 9.31982Z" fill="#9C4B35"/>
<path fill-rule="evenodd" clip-rule="evenodd" d="M5.48877 5.5105L9.05243 3.82369L12.0959 1.61475L8.23241 3.28378L5.48877 5.5105Z" fill="#D89F48"/>
<path fill-rule="evenodd" clip-rule="evenodd" d="M12.9048 1.61475L13.9622 1.93643L16.8209 3.1876L17.9529 4.37411L12.9048 1.61475Z" fill="#D89F48"/>
<path fill-rule="evenodd" clip-rule="evenodd" d="M14.7529 2.625L17.5306 4.5656L20.2832 6.13684L17.9528 4.37405L14.7529 2.625Z" fill="#C17541"/>
<path fill-rule="evenodd" clip-rule="evenodd" d="M5.48895 5.5099L4.40479 6.40463L5.86655 5.59557L8.30066 4.17871L5.48895 5.5099Z" fill="#C17541"/>
<path fill-rule="evenodd" clip-rule="evenodd" d="M8.30078 7.65021L9.91812 7.38672L9.10945 7.65021H8.30078Z" fill="#9C4B35"/>
<path fill-rule="evenodd" clip-rule="evenodd" d="M8.30078 7.65021L9.0657 7.70598L9.91812 7.38672L9.10945 7.65021H8.30078Z" fill="#D89F48"/>
<path fill-rule="evenodd" clip-rule="evenodd" d="M4.26123 7.0752L5.03182 7.95457L6.24563 7.93517L5.21413 7.8495L4.26123 7.0752Z" fill="#D89F48"/>
<path fill-rule="evenodd" clip-rule="evenodd" d="M18.5669 12.3159L19.3391 10.8174L19.1932 11.3557L18.5669 12.3159Z" fill="#D89F48"/>
<defs>
<linearGradient id="paint0_linear_1168_6083" x1="12.4988" y1="21.7418" x2="12.4988" y2="1.45068" gradientUnits="userSpaceOnUse">
<stop stop-color="#A84D39"/>
<stop offset="1" stop-color="#D49447"/>
</linearGradient>
<linearGradient id="paint1_linear_1168_6083" x1="3.94629" y1="10.1254" x2="18.0697" y2="10.1254" gradientUnits="userSpaceOnUse">
<stop stop-color="#C8878E"/>
<stop offset="1" stop-color="#B2615A"/>
</linearGradient>
<linearGradient id="paint2_linear_1168_6083" x1="16274.3" y1="10456" x2="19402.7" y2="10456" gradientUnits="userSpaceOnUse">
<stop stop-color="#C8878E"/>
<stop offset="1" stop-color="#B2615A"/>
</linearGradient>
<linearGradient id="paint3_linear_1168_6083" x1="5557.94" y1="2299.29" x2="5879.44" y2="2299.29" gradientUnits="userSpaceOnUse">
<stop stop-color="#C8878E"/>
<stop offset="1" stop-color="#B2615A"/>
</linearGradient>
<linearGradient id="paint4_linear_1168_6083" x1="14299.5" y1="8433.57" x2="16510.1" y2="8433.57" gradientUnits="userSpaceOnUse">
<stop stop-color="#C8878E"/>
<stop offset="1" stop-color="#B2615A"/>
</linearGradient>
<linearGradient id="paint5_linear_1168_6083" x1="11616.7" y1="2871.55" x2="13099.4" y2="2871.55" gradientUnits="userSpaceOnUse">
<stop stop-color="#C8878E"/>
<stop offset="1" stop-color="#B2615A"/>
</linearGradient>
<linearGradient id="paint6_linear_1168_6083" x1="7156.88" y1="7319.6" x2="7613.4" y2="7319.6" gradientUnits="userSpaceOnUse">
<stop stop-color="#C8878E"/>
<stop offset="1" stop-color="#B2615A"/>
</linearGradient>
<linearGradient id="paint7_linear_1168_6083" x1="9116.3" y1="11496.2" x2="10175.9" y2="11496.2" gradientUnits="userSpaceOnUse">
<stop stop-color="#C8878E"/>
<stop offset="1" stop-color="#B2615A"/>
</linearGradient>
</defs>
</svg>
