<svg width="32" height="33" viewBox="0 0 32 33" stroke="#882900" fill="none" xmlns="http://www.w3.org/2000/svg">
<path d="M9.979 12.8938H3.979V6.8938"  stroke="inherit" stroke-width="3" stroke-linecap="round" stroke-linejoin="round"/>
<path d="M23.7782 8.65115C22.7568 7.6297 21.5442 6.81945 20.2096 6.26665C18.875 5.71385 17.4446 5.42932 16.0001 5.42932C14.5555 5.42932 13.1251 5.71385 11.7905 6.26665C10.456 6.81945 9.24333 7.6297 8.22189 8.65115L3.97925 12.8938"  stroke="inherit" stroke-width="3" stroke-linecap="round" stroke-linejoin="round"/>
<path d="M22.021 19.9648H28.021V25.9648"  stroke="inherit" stroke-width="3" stroke-linecap="round" stroke-linejoin="round"/>
<path d="M8.22192 24.2075C9.24337 25.2289 10.456 26.0392 11.7906 26.592C13.1252 27.1448 14.5556 27.4293 16.0001 27.4293C17.4446 27.4293 18.875 27.1448 20.2096 26.592C21.5442 26.0392 22.7568 25.2289 23.7783 24.2075L28.0209 19.9648"  stroke="inherit" stroke-width="3" stroke-linecap="round" stroke-linejoin="round"/>
</svg>
