<svg width="32" height="33" stroke="#882900" viewBox="0 0 32 33" fill="none" xmlns="http://www.w3.org/2000/svg">
<path d="M5.64098 24.9314C5.67216 25.0628 5.7296 25.1866 5.80986 25.2953C5.89012 25.404 5.99154 25.4953 6.10801 25.5637C6.22447 25.6322 6.35359 25.6764 6.48758 25.6936C6.62157 25.7109 6.75766 25.7009 6.88768 25.6642C12.8488 24.0182 19.1445 24.0176 25.1059 25.6624C25.2359 25.6991 25.3719 25.7091 25.5059 25.6918C25.6398 25.6746 25.7689 25.6304 25.8853 25.562C26.0018 25.4936 26.1031 25.4023 26.1834 25.2937C26.2637 25.1851 26.3211 25.0614 26.3523 24.93L29.5384 11.3904C29.5811 11.2091 29.5723 11.0196 29.513 10.843C29.4537 10.6665 29.3464 10.51 29.203 10.3913C29.0596 10.2725 28.8859 10.1961 28.7014 10.1707C28.5169 10.1453 28.329 10.1719 28.1589 10.2475L21.8359 13.0577C21.6076 13.1592 21.3496 13.1715 21.1126 13.0923C20.8757 13.013 20.677 12.848 20.5556 12.6296L16.8741 6.00276C16.7875 5.84687 16.6607 5.71697 16.507 5.62653C16.3533 5.53609 16.1782 5.4884 15.9999 5.4884C15.8216 5.4884 15.6465 5.53609 15.4928 5.62653C15.3391 5.71697 15.2124 5.84687 15.1257 6.00276L11.4442 12.6296C11.3229 12.848 11.1242 13.013 10.8872 13.0923C10.6503 13.1715 10.3922 13.1592 10.1639 13.0577L3.83998 10.2471C3.66985 10.1715 3.48199 10.1449 3.29756 10.1702C3.11312 10.1956 2.93943 10.272 2.79604 10.3907C2.65265 10.5094 2.54525 10.6658 2.48594 10.8423C2.42663 11.0188 2.41776 11.2083 2.46033 11.3896L5.64098 24.9314Z"  stroke="inherit" stroke-width="3" stroke-linecap="round" stroke-linejoin="round"/>
</svg>
