<svg width="32" height="33" stroke="#882900" viewBox="0 0 32 33" fill="none" xmlns="http://www.w3.org/2000/svg">
<path d="M16 9.42932V11.4293"  stroke="inherit" stroke-width="3" stroke-linecap="round" stroke-linejoin="round"/>
<path d="M16 21.4293V23.4293"  stroke="inherit" stroke-width="3" stroke-linecap="round" stroke-linejoin="round"/>
<path d="M16 28.4293C22.6274 28.4293 28 23.0567 28 16.4293C28 9.8019 22.6274 4.42932 16 4.42932C9.37258 4.42932 4 9.8019 4 16.4293C4 23.0567 9.37258 28.4293 16 28.4293Z"  stroke="inherit" stroke-width="3" stroke-linecap="round" stroke-linejoin="round"/>
<path d="M13 21.4293H17.5C18.163 21.4293 18.7989 21.1659 19.2678 20.6971C19.7366 20.2282 20 19.5924 20 18.9293C20 18.2663 19.7366 17.6304 19.2678 17.1616C18.7989 16.6927 18.163 16.4293 17.5 16.4293H14.5C13.837 16.4293 13.2011 16.1659 12.7322 15.6971C12.2634 15.2282 12 14.5924 12 13.9293C12 13.2663 12.2634 12.6304 12.7322 12.1616C13.2011 11.6927 13.837 11.4293 14.5 11.4293H19"  stroke="inherit" stroke-width="3" stroke-linecap="round" stroke-linejoin="round"/>
</svg>
