<svg width="32" height="33" stroke="#882900" viewBox="0 0 32 33" fill="none" xmlns="http://www.w3.org/2000/svg">
<path d="M6 17.8778V26.4293C6 26.6945 6.10536 26.9489 6.29289 27.1364C6.48043 27.3239 6.73478 27.4293 7 27.4293H25C25.2652 27.4293 25.5196 27.3239 25.7071 27.1364C25.8946 26.9489 26 26.6945 26 26.4293V17.878"  stroke="inherit" stroke-width="3" stroke-linecap="round" stroke-linejoin="round"/>
<path d="M6.7543 5.42932H25.2457C25.463 5.42932 25.6744 5.50011 25.8479 5.63097C26.0214 5.76184 26.1475 5.94565 26.2072 6.1546L28 12.4293H4L5.79278 6.1546C5.85248 5.94565 5.97862 5.76184 6.15211 5.63097C6.3256 5.50011 6.53699 5.42932 6.7543 5.42932Z"  stroke="inherit" stroke-width="3" stroke-linecap="round" stroke-linejoin="round"/>
<path d="M12 12.4293V14.4293C12 15.4902 11.5786 16.5076 10.8284 17.2577C10.0783 18.0079 9.06087 18.4293 8 18.4293C6.93913 18.4293 5.92172 18.0079 5.17157 17.2577C4.42143 16.5076 4 15.4902 4 14.4293V12.4293"  stroke="inherit" stroke-width="3" stroke-linecap="round" stroke-linejoin="round"/>
<path d="M20 12.4293V14.4293C20 15.4902 19.5786 16.5076 18.8284 17.2577C18.0783 18.0079 17.0609 18.4293 16 18.4293C14.9391 18.4293 13.9217 18.0079 13.1716 17.2577C12.4214 16.5076 12 15.4902 12 14.4293V12.4293"  stroke="inherit" stroke-width="3" stroke-linecap="round" stroke-linejoin="round"/>
<path d="M28 12.4293V14.4293C28 15.4902 27.5786 16.5076 26.8284 17.2577C26.0783 18.0079 25.0609 18.4293 24 18.4293C22.9391 18.4293 21.9217 18.0079 21.1716 17.2577C20.4214 16.5076 20 15.4902 20 14.4293V12.4293"  stroke="inherit" stroke-width="3" stroke-linecap="round" stroke-linejoin="round"/>
</svg>
