<svg width="32" height="33" viewBox="0 0 32 33" fill="none" stroke="#882900" xmlns="http://www.w3.org/2000/svg">
<path d="M11 20.4293C14.5899 20.4293 17.5 17.5192 17.5 13.9293C17.5 10.3395 14.5899 7.42932 11 7.42932C7.41015 7.42932 4.5 10.3395 4.5 13.9293C4.5 17.5192 7.41015 20.4293 11 20.4293Z" stroke="inherit" stroke-width="3" stroke-linecap="round" stroke-linejoin="round"/>
<path d="M19.4265 7.67147C20.3205 7.41958 21.2582 7.3622 22.1762 7.50319C23.0943 7.64418 23.9715 7.98027 24.7487 8.48882C25.526 8.99737 26.1852 9.66658 26.682 10.4514C27.1789 11.2362 27.5018 12.1183 27.629 13.0384C27.7562 13.9585 27.6847 14.8951 27.4194 15.7853C27.1541 16.6754 26.7012 17.4984 26.0911 18.1987C25.481 18.8991 24.7278 19.4605 23.8825 19.8453C23.0371 20.2301 22.119 20.4292 21.1902 20.4293" stroke="inherit" stroke-width="3" stroke-linecap="round" stroke-linejoin="round"/>
<path d="M2 25.1039C3.01511 23.6599 4.36275 22.4814 5.92915 21.6678C7.49556 20.8542 9.23473 20.4294 10.9998 20.4293C12.7649 20.4293 14.5041 20.8539 16.0706 21.6674C17.637 22.4809 18.9848 23.6593 20 25.1032" stroke="inherit" stroke-width="3" stroke-linecap="round" stroke-linejoin="round"/>
<path d="M21.1902 20.4293C22.9555 20.428 24.6951 20.8522 26.2617 21.6657C27.8284 22.4793 29.1759 23.6584 30.1902 25.1032" stroke="inherit" stroke-width="3" stroke-linecap="round" stroke-linejoin="round"/>
</svg>
