<svg xmlns="http://www.w3.org/2000/svg" xmlns:xlink="http://www.w3.org/1999/xlink" width="500" zoomAndPan="magnify" viewBox="0 0 375 374.999991" height="500" preserveAspectRatio="xMidYMid meet" version="1.0"><path fill="rgb(53.329468%, 16.079712%, 0%)" d="M 11.390625 133.34375 L 69.394531 120.664062 L 108.414062 164.472656 C 106.578125 172.167969 104.214844 187.03125 108.589844 204.691406 C 114.101562 226.902344 127.046875 240.804688 132.910156 246.3125 L 78.84375 270.183594 L 72.457031 329.378906 C 59.421875 318.625 23.203125 286.011719 9.292969 229.964844 C -1.554688 186.332031 6.492188 150.132812 11.390625 133.34375 Z M 11.390625 133.34375 " fill-opacity="1" fill-rule="nonzero"/><path fill="rgb(53.329468%, 16.079712%, 0%)" d="M 184.261719 3.496094 L 213.570312 55.085938 L 183.300781 105.277344 C 175.425781 105.800781 160.554688 107.988281 144.894531 117.429688 C 125.296875 129.320312 115.851562 145.761719 112.351562 152.929688 C 99.402344 138.066406 86.453125 123.199219 73.507812 108.421875 L 15.066406 119.964844 C 21.367188 104.402344 41.835938 60.15625 91.265625 30.253906 C 129.761719 6.90625 166.765625 3.847656 184.261719 3.496094 Z M 184.261719 3.496094 " fill-opacity="1" fill-rule="nonzero"/><path fill="rgb(53.329468%, 16.079712%, 0%)" d="M 359.757812 126.960938 L 320.128906 171.117188 L 262.914062 158.351562 C 259.851562 151.09375 253.113281 137.628906 239.203125 125.824219 C 221.707031 111.046875 203.074219 107.375 195.199219 106.238281 C 205.171875 89.273438 215.144531 72.222656 225.117188 55.261719 L 195.546875 3.671875 C 212.347656 4.722656 260.8125 9.96875 304.90625 47.390625 C 339.199219 76.421875 353.898438 110.523438 359.757812 126.960938 Z M 359.757812 126.960938 " fill-opacity="1" fill-rule="nonzero"/><path fill="rgb(53.329468%, 16.079712%, 0%)" d="M 295.457031 333.316406 L 241.476562 308.570312 L 236.667969 250.160156 C 242.703125 245.089844 253.550781 234.683594 260.726562 217.898438 C 269.734375 196.824219 267.636719 177.9375 266.324219 170.066406 C 285.484375 174.527344 304.730469 178.988281 323.890625 183.535156 L 364.570312 140.078125 C 368.507812 156.425781 377.867188 204.257812 355.296875 257.417969 C 337.710938 298.691406 309.453125 322.824219 295.457031 333.316406 Z M 295.457031 333.316406 " fill-opacity="1" fill-rule="nonzero"/><path fill="rgb(53.329468%, 16.079712%, 0%)" d="M 81.378906 334.976562 L 87.765625 275.957031 L 141.65625 252.960938 C 148.394531 257.15625 161.691406 264.0625 179.890625 265.550781 C 202.722656 267.386719 220.042969 259.515625 227.042969 255.757812 C 228.878906 275.34375 230.628906 295.015625 232.46875 314.601562 L 286.621094 339.4375 C 272.359375 348.355469 229.929688 372.3125 172.277344 367.679688 C 127.574219 364.09375 95.726562 344.945312 81.378906 334.976562 Z M 81.378906 334.976562 " fill-opacity="1" fill-rule="nonzero"/></svg>
